<?xml version="1.0" encoding="UTF-8" standalone="no"?>
<svg
   version="1.1"
   viewBox="0.0 0.0 461.0 1030.0"
   fill="none"
   stroke="none"
   stroke-linecap="square"
   stroke-miterlimit="10"
   width="461"
   height="1030"
   id="svg2324"
   sodipodi:docname="Macro F1 scores of selected models(2).svg"
   inkscape:version="1.1.2 (0a00cf5339, 2022-02-04)"
   xmlns:inkscape="http://www.inkscape.org/namespaces/inkscape"
   xmlns:sodipodi="http://sodipodi.sourceforge.net/DTD/sodipodi-0.dtd"
   xmlns="http://www.w3.org/2000/svg"
   xmlns:svg="http://www.w3.org/2000/svg">
  <defs
     id="defs2328" />
  <sodipodi:namedview
     id="namedview2326"
     pagecolor="#ffffff"
     bordercolor="#666666"
     borderopacity="1.0"
     inkscape:pageshadow="2"
     inkscape:pageopacity="0.0"
     inkscape:pagecheckerboard="0"
     showgrid="false"
     inkscape:zoom="0.90509668"
     inkscape:cx="144.73592"
     inkscape:cy="267.37475"
     inkscape:window-width="1920"
     inkscape:window-height="1011"
     inkscape:window-x="0"
     inkscape:window-y="32"
     inkscape:window-maximized="1"
     inkscape:current-layer="g2441" />
  <path
     stroke="#333333"
     stroke-width="1.0"
     stroke-linecap="butt"
     d="M115.5 280.5L115.5 918.5"
     fill-rule="nonzero"
     id="path2181" />
  <path
     stroke="#cccccc"
     stroke-width="1.0"
     stroke-linecap="butt"
     d="M195.5 280.5L195.5 918.5"
     fill-rule="nonzero"
     id="path2183" />
  <path
     stroke="#cccccc"
     stroke-width="1.0"
     stroke-linecap="butt"
     d="M276.5 280.5L276.5 918.5"
     fill-rule="nonzero"
     id="path2185" />
  <path
     stroke="#cccccc"
     stroke-width="1.0"
     stroke-linecap="butt"
     d="M357.5 280.5L357.5 918.5"
     fill-rule="nonzero"
     id="path2187" />
  <path
     stroke="#cccccc"
     stroke-width="1.0"
     stroke-linecap="butt"
     d="M437.5 280.5L437.5 918.5"
     fill-rule="nonzero"
     id="path2189" />
  <path
     stroke="#000000"
     stroke-width="1.0"
     stroke-linecap="butt"
     stroke-opacity="0.0"
     d="M141.5 280.5L141.5 918.5"
     fill-rule="nonzero"
     id="path2191" />
  <path
     stroke="#000000"
     stroke-width="1.0"
     stroke-linecap="butt"
     stroke-opacity="0.0"
     d="M168.5 280.5L168.5 918.5"
     fill-rule="nonzero"
     id="path2193" />
  <path
     stroke="#000000"
     stroke-width="1.0"
     stroke-linecap="butt"
     stroke-opacity="0.0"
     d="M222.5 280.5L222.5 918.5"
     fill-rule="nonzero"
     id="path2195" />
  <path
     stroke="#000000"
     stroke-width="1.0"
     stroke-linecap="butt"
     stroke-opacity="0.0"
     d="M249.5 280.5L249.5 918.5"
     fill-rule="nonzero"
     id="path2197" />
  <path
     stroke="#000000"
     stroke-width="1.0"
     stroke-linecap="butt"
     stroke-opacity="0.0"
     d="M303.5 280.5L303.5 918.5"
     fill-rule="nonzero"
     id="path2199" />
  <path
     stroke="#000000"
     stroke-width="1.0"
     stroke-linecap="butt"
     stroke-opacity="0.0"
     d="M330.5 280.5L330.5 918.5"
     fill-rule="nonzero"
     id="path2201" />
  <path
     stroke="#000000"
     stroke-width="1.0"
     stroke-linecap="butt"
     stroke-opacity="0.0"
     d="M384.5 280.5L384.5 918.5"
     fill-rule="nonzero"
     id="path2203" />
  <path
     stroke="#000000"
     stroke-width="1.0"
     stroke-linecap="butt"
     stroke-opacity="0.0"
     d="M411.5 280.5L411.5 918.5"
     fill-rule="nonzero"
     id="path2205" />
  <clipPath
     id="id_0">
    <path
       d="M115.03 280.78333L437.95 280.78333L437.95 918.95L115.03 918.95L115.03 280.78333Z"
       clip-rule="nonzero"
       id="path2207" />
  </clipPath>
  <path
     stroke="#000000"
     stroke-width="2.0"
     stroke-linecap="butt"
     stroke-opacity="0.0"
     clip-path="url(#id_0)"
     d="M115.0 351.0L115.0 334.0L335.0 334.0C336.10458 334.0 337.0 334.89542 337.0 336.0L337.0 349.0C337.0 350.10458 336.10458 351.0 335.0 351.0Z"
     fill-rule="nonzero"
     id="path2210" />
  <path
     fill="#4285f4"
     clip-path="url(#id_0)"
     d="M115.0 351.0L115.0 334.0L335.0 334.0C336.10458 334.0 337.0 334.89542 337.0 336.0L337.0 349.0C337.0 350.10458 336.10458 351.0 335.0 351.0Z"
     fill-rule="nonzero"
     id="path2212" />
  <path
     stroke="#000000"
     stroke-width="2.0"
     stroke-linecap="butt"
     stroke-opacity="0.0"
     clip-path="url(#id_0)"
     d="M115.0 498.0L115.0 481.0L331.0 481.0C332.10458 481.0 333.0 481.89542 333.0 483.0L333.0 496.0C333.0 497.10458 332.10458 498.0 331.0 498.0Z"
     fill-rule="nonzero"
     id="path2214" />
  <path
     fill="#4285f4"
     clip-path="url(#id_0)"
     d="M115.0 498.0L115.0 481.0L331.0 481.0C332.10458 481.0 333.0 481.89542 333.0 483.0L333.0 496.0C333.0 497.10458 332.10458 498.0 331.0 498.0Z"
     fill-rule="nonzero"
     id="path2216" />
  <path
     stroke="#000000"
     stroke-width="2.0"
     stroke-linecap="butt"
     stroke-opacity="0.0"
     clip-path="url(#id_0)"
     d="M115.0 644.0L115.0 627.0L376.0 627.0C377.10458 627.0 378.0 627.89545 378.0 629.0L378.0 642.0C378.0 643.10455 377.10458 644.0 376.0 644.0Z"
     fill-rule="nonzero"
     id="path2218" />
  <path
     fill="#4285f4"
     clip-path="url(#id_0)"
     d="M115.0 644.0L115.0 627.0L376.0 627.0C377.10458 627.0 378.0 627.89545 378.0 629.0L378.0 642.0C378.0 643.10455 377.10458 644.0 376.0 644.0Z"
     fill-rule="nonzero"
     id="path2220" />
  <path
     stroke="#000000"
     stroke-width="2.0"
     stroke-linecap="butt"
     stroke-opacity="0.0"
     clip-path="url(#id_0)"
     d="M115.0 791.0L115.0 774.0L336.0 774.0C337.10458 774.0 338.0 774.89545 338.0 776.0L338.0 789.0C338.0 790.10455 337.10458 791.0 336.0 791.0Z"
     fill-rule="nonzero"
     id="path2222" />
  <path
     fill="#4285f4"
     clip-path="url(#id_0)"
     d="M115.0 791.0L115.0 774.0L336.0 774.0C337.10458 774.0 338.0 774.89545 338.0 776.0L338.0 789.0C338.0 790.10455 337.10458 791.0 336.0 791.0Z"
     fill-rule="nonzero"
     id="path2224" />
  <path
     stroke="#000000"
     stroke-width="2.0"
     stroke-linecap="butt"
     stroke-dasharray="8.0,6.0"
     clip-path="url(#id_0)"
     d="M115.0 370.0L115.0 353.0L308.0 353.0C309.10458 353.0 310.0 353.89542 310.0 355.0L310.0 368.0C310.0 369.10458 309.10458 370.0 308.0 370.0Z"
     fill-rule="nonzero"
     id="path2226" />
  <path
     fill="#6d9eeb"
     clip-path="url(#id_0)"
     d="M115.0 370.0L115.0 353.0L308.0 353.0C309.10458 353.0 310.0 353.89542 310.0 355.0L310.0 368.0C310.0 369.10458 309.10458 370.0 308.0 370.0Z"
     fill-rule="nonzero"
     id="path2228" />
  <path
     stroke="#000000"
     stroke-width="2.0"
     stroke-linecap="butt"
     stroke-dasharray="8.0,6.0"
     clip-path="url(#id_0)"
     d="M115.0 517.0L115.0 500.0L210.0 500.0C211.10457 500.0 212.0 500.89542 212.0 502.0L212.0 515.0C212.0 516.10455 211.10457 517.0 210.0 517.0Z"
     fill-rule="nonzero"
     id="path2230" />
  <path
     fill="#6d9eeb"
     clip-path="url(#id_0)"
     d="M115.0 517.0L115.0 500.0L210.0 500.0C211.10457 500.0 212.0 500.89542 212.0 502.0L212.0 515.0C212.0 516.10455 211.10457 517.0 210.0 517.0Z"
     fill-rule="nonzero"
     id="path2232" />
  <path
     stroke="#000000"
     stroke-width="2.0"
     stroke-linecap="butt"
     stroke-dasharray="8.0,6.0"
     clip-path="url(#id_0)"
     d="M115.0 663.0L115.0 646.0L327.0 646.0C328.10458 646.0 329.0 646.89545 329.0 648.0L329.0 661.0C329.0 662.10455 328.10458 663.0 327.0 663.0Z"
     fill-rule="nonzero"
     id="path2234" />
  <path
     fill="#6d9eeb"
     clip-path="url(#id_0)"
     d="M115.0 663.0L115.0 646.0L327.0 646.0C328.10458 646.0 329.0 646.89545 329.0 648.0L329.0 661.0C329.0 662.10455 328.10458 663.0 327.0 663.0Z"
     fill-rule="nonzero"
     id="path2236" />
  <path
     stroke="#000000"
     stroke-width="2.0"
     stroke-linecap="butt"
     stroke-dasharray="8.0,6.0"
     clip-path="url(#id_0)"
     d="M115.0 810.0L115.0 793.0L294.0 793.0C295.10458 793.0 296.0 793.89545 296.0 795.0L296.0 808.0C296.0 809.10455 295.10458 810.0 294.0 810.0Z"
     fill-rule="nonzero"
     id="path2238" />
  <path
     fill="#6d9eeb"
     clip-path="url(#id_0)"
     d="M115.0 810.0L115.0 793.0L294.0 793.0C295.10458 793.0 296.0 793.89545 296.0 795.0L296.0 808.0C296.0 809.10455 295.10458 810.0 294.0 810.0Z"
     fill-rule="nonzero"
     id="path2240" />
  <path
     stroke="#000000"
     stroke-width="2.0"
     stroke-linecap="butt"
     stroke-opacity="0.0"
     clip-path="url(#id_0)"
     d="M115.0 389.0L115.0 372.0L349.0 372.0C350.10458 372.0 351.0 372.89542 351.0 374.0L351.0 387.0C351.0 388.10458 350.10458 389.0 349.0 389.0Z"
     fill-rule="nonzero"
     id="path2242" />
  <path
     fill="#ea4335"
     clip-path="url(#id_0)"
     d="M115.0 389.0L115.0 372.0L349.0 372.0C350.10458 372.0 351.0 372.89542 351.0 374.0L351.0 387.0C351.0 388.10458 350.10458 389.0 349.0 389.0Z"
     fill-rule="nonzero"
     id="path2244" />
  <path
     stroke="#000000"
     stroke-width="2.0"
     stroke-linecap="butt"
     stroke-opacity="0.0"
     clip-path="url(#id_0)"
     d="M115.0 536.0L115.0 519.0L347.0 519.0C348.10458 519.0 349.0 519.89545 349.0 521.0L349.0 534.0C349.0 535.10455 348.10458 536.0 347.0 536.0Z"
     fill-rule="nonzero"
     id="path2246" />
  <path
     fill="#ea4335"
     clip-path="url(#id_0)"
     d="M115.0 536.0L115.0 519.0L347.0 519.0C348.10458 519.0 349.0 519.89545 349.0 521.0L349.0 534.0C349.0 535.10455 348.10458 536.0 347.0 536.0Z"
     fill-rule="nonzero"
     id="path2248" />
  <path
     stroke="#000000"
     stroke-width="2.0"
     stroke-linecap="butt"
     stroke-opacity="0.0"
     clip-path="url(#id_0)"
     d="M115.0 682.0L115.0 665.0L402.0 665.0C403.10458 665.0 404.0 665.89545 404.0 667.0L404.0 680.0C404.0 681.10455 403.10458 682.0 402.0 682.0Z"
     fill-rule="nonzero"
     id="path2250" />
  <path
     fill="#ea4335"
     clip-path="url(#id_0)"
     d="M115.0 682.0L115.0 665.0L402.0 665.0C403.10458 665.0 404.0 665.89545 404.0 667.0L404.0 680.0C404.0 681.10455 403.10458 682.0 402.0 682.0Z"
     fill-rule="nonzero"
     id="path2252" />
  <path
     stroke="#000000"
     stroke-width="2.0"
     stroke-linecap="butt"
     stroke-opacity="0.0"
     clip-path="url(#id_0)"
     d="M115.0 829.0L115.0 812.0L355.0 812.0C356.10458 812.0 357.0 812.89545 357.0 814.0L357.0 827.0C357.0 828.10455 356.10458 829.0 355.0 829.0Z"
     fill-rule="nonzero"
     id="path2254" />
  <path
     fill="#ea4335"
     clip-path="url(#id_0)"
     d="M115.0 829.0L115.0 812.0L355.0 812.0C356.10458 812.0 357.0 812.89545 357.0 814.0L357.0 827.0C357.0 828.10455 356.10458 829.0 355.0 829.0Z"
     fill-rule="nonzero"
     id="path2256" />
  <path
     stroke="#000000"
     stroke-width="2.0"
     stroke-linecap="butt"
     stroke-dasharray="8.0,6.0"
     clip-path="url(#id_0)"
     d="M115.0 408.0L115.0 391.0L331.0 391.0C332.10458 391.0 333.0 391.89542 333.0 393.0L333.0 406.0C333.0 407.10458 332.10458 408.0 331.0 408.0Z"
     fill-rule="nonzero"
     id="path2258" />
  <path
     fill="#e06666"
     clip-path="url(#id_0)"
     d="M115.0 408.0L115.0 391.0L331.0 391.0C332.10458 391.0 333.0 391.89542 333.0 393.0L333.0 406.0C333.0 407.10458 332.10458 408.0 331.0 408.0Z"
     fill-rule="nonzero"
     id="path2260" />
  <path
     stroke="#000000"
     stroke-width="2.0"
     stroke-linecap="butt"
     stroke-dasharray="8.0,6.0"
     clip-path="url(#id_0)"
     d="M115.0 555.0L115.0 538.0L326.0 538.0C327.10458 538.0 328.0 538.89545 328.0 540.0L328.0 553.0C328.0 554.10455 327.10458 555.0 326.0 555.0Z"
     fill-rule="nonzero"
     id="path2262" />
  <path
     fill="#e06666"
     clip-path="url(#id_0)"
     d="M115.0 555.0L115.0 538.0L326.0 538.0C327.10458 538.0 328.0 538.89545 328.0 540.0L328.0 553.0C328.0 554.10455 327.10458 555.0 326.0 555.0Z"
     fill-rule="nonzero"
     id="path2264" />
  <path
     stroke="#000000"
     stroke-width="2.0"
     stroke-linecap="butt"
     stroke-dasharray="8.0,6.0"
     clip-path="url(#id_0)"
     d="M115.0 701.0L115.0 684.0L384.0 684.0C385.10458 684.0 386.0 684.89545 386.0 686.0L386.0 699.0C386.0 700.10455 385.10458 701.0 384.0 701.0Z"
     fill-rule="nonzero"
     id="path2266" />
  <path
     fill="#e06666"
     clip-path="url(#id_0)"
     d="M115.0 701.0L115.0 684.0L384.0 684.0C385.10458 684.0 386.0 684.89545 386.0 686.0L386.0 699.0C386.0 700.10455 385.10458 701.0 384.0 701.0Z"
     fill-rule="nonzero"
     id="path2268" />
  <path
     stroke="#000000"
     stroke-width="2.0"
     stroke-linecap="butt"
     stroke-dasharray="8.0,6.0"
     clip-path="url(#id_0)"
     d="M115.0 848.0L115.0 831.0L336.0 831.0C337.10458 831.0 338.0 831.89545 338.0 833.0L338.0 846.0C338.0 847.10455 337.10458 848.0 336.0 848.0Z"
     fill-rule="nonzero"
     id="path2270" />
  <path
     fill="#e06666"
     clip-path="url(#id_0)"
     d="M115.0 848.0L115.0 831.0L336.0 831.0C337.10458 831.0 338.0 831.89545 338.0 833.0L338.0 846.0C338.0 847.10455 337.10458 848.0 336.0 848.0Z"
     fill-rule="nonzero"
     id="path2272" />
  <path
     stroke="#000000"
     stroke-width="2.0"
     stroke-linecap="butt"
     stroke-opacity="0.0"
     clip-path="url(#id_0)"
     d="M115.0 867.0L115.0 850.0L249.0 850.0C250.10457 850.0 251.0 850.89545 251.0 852.0L251.0 865.0C251.0 866.10455 250.10457 867.0 249.0 867.0Z"
     fill-rule="nonzero"
     id="path2274" />
  <path
     fill="#fbbc04"
     clip-path="url(#id_0)"
     d="M115.0 867.0L115.0 850.0L249.0 850.0C250.10457 850.0 251.0 850.89545 251.0 852.0L251.0 865.0C251.0 866.10455 250.10457 867.0 249.0 867.0Z"
     fill-rule="nonzero"
     id="path2276" />
  <path
     fill="#000000"
     d="M235.47438 1001.95L235.47438 987.6375L238.33376 987.6375L241.70876 997.7625Q242.1775 999.1844 242.39626 999.8875Q242.64626 999.10626 243.16188 997.59064L246.58376 987.6375L249.13063 987.6375L249.13063 1001.95L247.31813 1001.95L247.31813 989.96564L243.14626 1001.95L241.44313 1001.95L237.3025 989.7625L237.3025 1001.95L235.47438 1001.95ZM259.08374 1000.66876Q258.09937 1001.4969 257.1931 1001.84064Q256.28687 1002.1844 255.25563 1002.1844Q253.5525 1002.1844 252.63063 1001.35626Q251.70876 1000.5125 251.70876 999.21564Q251.70876 998.45 252.0525 997.825Q252.41188 997.2 252.97438 996.825Q253.53688 996.4344 254.24 996.23126Q254.75563 996.10626 255.8025 995.96564Q257.9275 995.71564 258.9275 995.3719Q258.9431 995.0125 258.9431 994.90314Q258.9431 993.84064 258.4431 993.3875Q257.77124 992.79376 256.4431 992.79376Q255.19313 992.79376 254.59938 993.23126Q254.02126 993.66876 253.74 994.77814L252.02126 994.54376Q252.25563 993.4344 252.78688 992.7625Q253.31813 992.075 254.33376 991.71564Q255.34938 991.34064 256.6931 991.34064Q258.02124 991.34064 258.84937 991.65314Q259.6775 991.96564 260.0681 992.45Q260.45874 992.91876 260.615 993.6375Q260.70874 994.09064 260.70874 995.2625L260.70874 997.60626Q260.70874 1000.0594 260.8181 1000.71564Q260.9275 1001.35626 261.27124 1001.95L259.4275 1001.95Q259.16187 1001.40314 259.08374 1000.66876ZM258.9275 996.7469Q257.97437 997.1375 256.0525 997.40314Q254.97438 997.5594 254.52126 997.7625Q254.08376 997.95 253.83376 998.325Q253.58376 998.7 253.58376 999.16876Q253.58376 999.8719 254.115 1000.34064Q254.64626 1000.8094 255.6775 1000.8094Q256.6931 1000.8094 257.47437 1000.3719Q258.27124 999.91876 258.64624 999.15314Q258.9275 998.54376 258.9275 997.3875L258.9275 996.7469ZM270.08374 998.15314L271.8025 998.3719Q271.52124 1000.16876 270.34937 1001.1844Q269.1931 1002.1844 267.49 1002.1844Q265.365 1002.1844 264.0681 1000.79376Q262.77124 999.40314 262.77124 996.8094Q262.77124 995.1219 263.3181 993.8719Q263.8806 992.60626 265.02124 991.98126Q266.16187 991.34064 267.5056 991.34064Q269.1931 991.34064 270.2556 992.2Q271.33374 993.0594 271.64624 994.6219L269.9275 994.8875Q269.6931 993.84064 269.0681 993.325Q268.4431 992.79376 267.5681 992.79376Q266.24 992.79376 265.41187 993.7469Q264.58374 994.7 264.58374 996.7469Q264.58374 998.84064 265.3806 999.79376Q266.1775 1000.73126 267.47437 1000.73126Q268.5056 1000.73126 269.1931 1000.10626Q269.89624 999.46564 270.08374 998.15314ZM273.28687 1001.95L273.28687 991.575L274.865 991.575L274.865 993.15314Q275.47437 992.04376 275.99 991.7Q276.5056 991.34064 277.115 991.34064Q278.0056 991.34064 278.9275 991.90314L278.3181 993.54376Q277.6775 993.15314 277.03687 993.15314Q276.45874 993.15314 275.99 993.5125Q275.53687 993.85626 275.33374 994.46564Q275.0525 995.40314 275.0525 996.5125L275.0525 1001.95L273.28687 1001.95ZM279.66187 996.7625Q279.66187 993.8875 281.2556 992.4969Q282.59937 991.34064 284.52124 991.34064Q286.66187 991.34064 288.0056 992.7469Q289.365 994.15314 289.365 996.6219Q289.365 998.6219 288.77124 999.77814Q288.1775 1000.91876 287.02124 1001.5594Q285.8806 1002.1844 284.52124 1002.1844Q282.33374 1002.1844 280.99 1000.79376Q279.66187 999.3875 279.66187 996.7625ZM281.45874 996.7625Q281.45874 998.7625 282.3181 999.7469Q283.1931 1000.73126 284.52124 1000.73126Q285.83374 1000.73126 286.6931 999.7469Q287.5681 998.7469 287.5681 996.7Q287.5681 994.77814 286.6931 993.79376Q285.8181 992.79376 284.52124 992.79376Q283.1931 992.79376 282.3181 993.79376Q281.45874 994.77814 281.45874 996.7625ZM297.6306 1001.95L297.6306 987.6375L307.28687 987.6375L307.28687 989.325L299.52124 989.325L299.52124 993.7625L306.24 993.7625L306.24 995.45L299.52124 995.45L299.52124 1001.95L297.6306 1001.95ZM315.4431 1001.95L313.6775 1001.95L313.6775 990.7469Q313.0525 991.35626 312.02124 991.96564Q310.99 992.5594 310.16187 992.8719L310.16187 991.16876Q311.64624 990.48126 312.74 989.4969Q313.84937 988.4969 314.3025 987.575L315.4431 987.575L315.4431 1001.95Z"
     fill-rule="nonzero"
     id="path2278" />
  <path
     fill="#000000"
     d="M101.85812 940.8875Q101.85812 938.35626 102.37375 936.8094Q102.905 935.2469 103.93625 934.41876Q104.9675 933.575 106.53 933.575Q107.68625 933.575 108.54562 934.04376Q109.42062 934.4969 109.98312 935.3719Q110.54562 936.2469 110.87375 937.5125Q111.20187 938.7625 111.20187 940.8875Q111.20187 943.40314 110.67062 944.95Q110.155 946.4969 109.12375 947.35626Q108.10812 948.2 106.53 948.2Q104.45187 948.2 103.28 946.71564Q101.85812 944.91876 101.85812 940.8875ZM103.67062 940.8875Q103.67062 944.41876 104.48312 945.59064Q105.31125 946.7469 106.53 946.7469Q107.73312 946.7469 108.56125 945.575Q109.38937 944.40314 109.38937 940.8875Q109.38937 937.35626 108.56125 936.2Q107.73312 935.02814 106.51437 935.02814Q105.29562 935.02814 104.57687 936.0594Q103.67062 937.35626 103.67062 940.8875ZM113.8425 947.95L113.8425 945.95L115.8425 945.95L115.8425 947.95L113.8425 947.95ZM118.85812 940.8875Q118.85812 938.35626 119.37375 936.8094Q119.905 935.2469 120.93625 934.41876Q121.9675 933.575 123.53 933.575Q124.68625 933.575 125.54562 934.04376Q126.42062 934.4969 126.98312 935.3719Q127.54562 936.2469 127.87375 937.5125Q128.20187 938.7625 128.20187 940.8875Q128.20187 943.40314 127.67062 944.95Q127.155 946.4969 126.12375 947.35626Q125.10812 948.2 123.53 948.2Q121.45187 948.2 120.28 946.71564Q118.85812 944.91876 118.85812 940.8875ZM120.67062 940.8875Q120.67062 944.41876 121.48312 945.59064Q122.31125 946.7469 123.53 946.7469Q124.73312 946.7469 125.56125 945.575Q126.38937 944.40314 126.38937 940.8875Q126.38937 937.35626 125.56125 936.2Q124.73312 935.02814 123.51437 935.02814Q122.29562 935.02814 121.57687 936.0594Q120.67062 937.35626 120.67062 940.8875Z"
     fill-rule="nonzero"
     id="path2290" />
  <path
     fill="#000000"
     d="M182.58812 940.8875Q182.58812 938.35626 183.10374 936.8094Q183.635 935.2469 184.66624 934.41876Q185.6975 933.575 187.26 933.575Q188.41624 933.575 189.27562 934.04376Q190.15062 934.4969 190.71312 935.3719Q191.27562 936.2469 191.60374 937.5125Q191.93187 938.7625 191.93187 940.8875Q191.93187 943.40314 191.40062 944.95Q190.885 946.4969 189.85374 947.35626Q188.83812 948.2 187.26 948.2Q185.18187 948.2 184.01 946.71564Q182.58812 944.91876 182.58812 940.8875ZM184.40062 940.8875Q184.40062 944.41876 185.21312 945.59064Q186.04124 946.7469 187.26 946.7469Q188.46312 946.7469 189.29124 945.575Q190.11937 944.40314 190.11937 940.8875Q190.11937 937.35626 189.29124 936.2Q188.46312 935.02814 187.24437 935.02814Q186.02562 935.02814 185.30687 936.0594Q184.40062 937.35626 184.40062 940.8875ZM194.5725 947.95L194.5725 945.95L196.5725 945.95L196.5725 947.95L194.5725 947.95ZM208.8225 946.2625L208.8225 947.95L199.36937 947.95Q199.35374 947.3094 199.5725 946.73126Q199.93187 945.7625 200.72874 944.825Q201.52562 943.8875 203.02562 942.65314Q205.36937 940.7469 206.18187 939.6375Q207.01 938.5125 207.01 937.5125Q207.01 936.46564 206.26 935.7469Q205.51 935.02814 204.30687 935.02814Q203.04124 935.02814 202.27562 935.79376Q201.51 936.5594 201.51 937.90314L199.6975 937.71564Q199.885 935.7 201.08812 934.6375Q202.30687 933.575 204.35374 933.575Q206.40062 933.575 207.60374 934.71564Q208.80687 935.85626 208.80687 937.54376Q208.80687 938.40314 208.4475 939.2469Q208.10374 940.075 207.29124 940.9969Q206.47874 941.90314 204.58812 943.5125Q202.99437 944.84064 202.54124 945.3094Q202.10374 945.77814 201.80687 946.2625L208.8225 946.2625Z"
     fill-rule="nonzero"
     id="path2292" />
  <path
     fill="#000000"
     d="M263.3181 940.8875Q263.3181 938.35626 263.83374 936.8094Q264.365 935.2469 265.39624 934.41876Q266.4275 933.575 267.99 933.575Q269.14624 933.575 270.0056 934.04376Q270.8806 934.4969 271.4431 935.3719Q272.0056 936.2469 272.33374 937.5125Q272.66187 938.7625 272.66187 940.8875Q272.66187 943.40314 272.1306 944.95Q271.615 946.4969 270.58374 947.35626Q269.5681 948.2 267.99 948.2Q265.91187 948.2 264.74 946.71564Q263.3181 944.91876 263.3181 940.8875ZM265.1306 940.8875Q265.1306 944.41876 265.9431 945.59064Q266.77124 946.7469 267.99 946.7469Q269.1931 946.7469 270.02124 945.575Q270.84937 944.40314 270.84937 940.8875Q270.84937 937.35626 270.02124 936.2Q269.1931 935.02814 267.97437 935.02814Q266.7556 935.02814 266.03687 936.0594Q265.1306 937.35626 265.1306 940.8875ZM275.3025 947.95L275.3025 945.95L277.3025 945.95L277.3025 947.95L275.3025 947.95ZM285.95874 947.95L285.95874 944.52814L279.74 944.52814L279.74 942.90314L286.27124 933.6375L287.70874 933.6375L287.70874 942.90314L289.64624 942.90314L289.64624 944.52814L287.70874 944.52814L287.70874 947.95L285.95874 947.95ZM285.95874 942.90314L285.95874 936.45L281.47437 942.90314L285.95874 942.90314Z"
     fill-rule="nonzero"
     id="path2294" />
  <path
     fill="#000000"
     d="M344.04813 940.8875Q344.04813 938.35626 344.56375 936.8094Q345.095 935.2469 346.12625 934.41876Q347.1575 933.575 348.72 933.575Q349.87625 933.575 350.73563 934.04376Q351.61063 934.4969 352.17313 935.3719Q352.73563 936.2469 353.06375 937.5125Q353.39188 938.7625 353.39188 940.8875Q353.39188 943.40314 352.86063 944.95Q352.345 946.4969 351.31375 947.35626Q350.29813 948.2 348.72 948.2Q346.64188 948.2 345.47 946.71564Q344.04813 944.91876 344.04813 940.8875ZM345.86063 940.8875Q345.86063 944.41876 346.67313 945.59064Q347.50125 946.7469 348.72 946.7469Q349.92313 946.7469 350.75125 945.575Q351.57938 944.40314 351.57938 940.8875Q351.57938 937.35626 350.75125 936.2Q349.92313 935.02814 348.70438 935.02814Q347.48563 935.02814 346.76688 936.0594Q345.86063 937.35626 345.86063 940.8875ZM356.0325 947.95L356.0325 945.95L358.0325 945.95L358.0325 947.95L356.0325 947.95ZM370.17313 937.1375L368.42313 937.27814Q368.18875 936.2469 367.76688 935.77814Q367.04813 935.0125 366.00125 935.0125Q365.1575 935.0125 364.5325 935.48126Q363.70438 936.09064 363.22 937.2625Q362.73563 938.41876 362.72 940.5594Q363.36063 939.60626 364.26688 939.1375Q365.18875 938.66876 366.20438 938.66876Q367.95438 938.66876 369.18875 939.96564Q370.42313 941.2469 370.42313 943.29376Q370.42313 944.65314 369.845 945.8094Q369.26688 946.96564 368.25125 947.59064Q367.23563 948.2 365.93875 948.2Q363.75125 948.2 362.36063 946.59064Q360.97 944.96564 360.97 941.2469Q360.97 937.10626 362.50125 935.21564Q363.845 933.575 366.11063 933.575Q367.79813 933.575 368.87625 934.52814Q369.95438 935.46564 370.17313 937.1375ZM363.00125 943.3094Q363.00125 944.21564 363.37625 945.04376Q363.76688 945.8719 364.45438 946.3094Q365.1575 946.7469 365.9075 946.7469Q367.0325 946.7469 367.82938 945.85626Q368.62625 944.95 368.62625 943.40314Q368.62625 941.91876 367.82938 941.075Q367.04813 940.21564 365.845 940.21564Q364.6575 940.21564 363.82938 941.075Q363.00125 941.91876 363.00125 943.3094Z"
     fill-rule="nonzero"
     id="path2296" />
  <path
     fill="#000000"
     d="M424.77814 940.8875Q424.77814 938.35626 425.29376 936.8094Q425.825 935.2469 426.85626 934.41876Q427.8875 933.575 429.45 933.575Q430.60626 933.575 431.46564 934.04376Q432.34064 934.4969 432.90314 935.3719Q433.46564 936.2469 433.79376 937.5125Q434.1219 938.7625 434.1219 940.8875Q434.1219 943.40314 433.59064 944.95Q433.075 946.4969 432.04376 947.35626Q431.02814 948.2 429.45 948.2Q427.3719 948.2 426.2 946.71564Q424.77814 944.91876 424.77814 940.8875ZM426.59064 940.8875Q426.59064 944.41876 427.40314 945.59064Q428.23126 946.7469 429.45 946.7469Q430.65314 946.7469 431.48126 945.575Q432.3094 944.40314 432.3094 940.8875Q432.3094 937.35626 431.48126 936.2Q430.65314 935.02814 429.4344 935.02814Q428.21564 935.02814 427.4969 936.0594Q426.59064 937.35626 426.59064 940.8875ZM436.7625 947.95L436.7625 945.95L438.7625 945.95L438.7625 947.95L436.7625 947.95ZM444.48126 940.1844Q443.3875 939.77814 442.85626 939.04376Q442.34064 938.29376 442.34064 937.2625Q442.34064 935.7 443.46564 934.6375Q444.59064 933.575 446.45 933.575Q448.325 933.575 449.46564 934.66876Q450.60626 935.7469 450.60626 937.3094Q450.60626 938.3094 450.075 939.04376Q449.5594 939.77814 448.4969 940.1844Q449.825 940.6219 450.5125 941.575Q451.2 942.52814 451.2 943.85626Q451.2 945.7 449.8875 946.95Q448.59064 948.2 446.48126 948.2Q444.35626 948.2 443.0594 946.95Q441.7625 945.6844 441.7625 943.8094Q441.7625 942.41876 442.46564 941.48126Q443.1844 940.52814 444.48126 940.1844ZM444.1375 937.2Q444.1375 938.21564 444.79376 938.8719Q445.45 939.5125 446.48126 939.5125Q447.4969 939.5125 448.15314 938.8719Q448.8094 938.23126 448.8094 937.3094Q448.8094 936.34064 448.1375 935.6844Q447.46564 935.0125 446.46564 935.0125Q445.46564 935.0125 444.79376 935.66876Q444.1375 936.3094 444.1375 937.2ZM443.575 943.825Q443.575 944.575 443.91876 945.27814Q444.27814 945.98126 444.98126 946.3719Q445.6844 946.7469 446.4969 946.7469Q447.7625 946.7469 448.575 945.9344Q449.40314 945.1219 449.40314 943.8719Q449.40314 942.60626 448.5594 941.77814Q447.71564 940.95 446.4344 940.95Q445.2 940.95 444.3875 941.77814Q443.575 942.59064 443.575 943.825Z"
     fill-rule="nonzero"
     id="path2298" />
  <g
     id="g2441"
     transform="translate(17.953883)">
    <g
       id="g2408">
      <g
         id="g2696">
        <path
           fill="#4285f4"
           d="m 103.49721,111.51132 c 0,-0.55228 0.44771,-1 1,-1 h 10 c 0.55228,0 1,0.44772 1,1 v 10.00001 c 0,0.55228 -0.44772,1 -1,1 h -10 c -0.55229,0 -1,-0.44772 -1,-1 z"
           fill-rule="nonzero"
           id="path2300" />
        <path
           fill="#1a1a1a"
           d="m 123.46596,124.51133 6.59375,-17.1875 h 2.45312 l 7.03125,17.1875 h -2.59375 l -2,-5.20312 h -7.1875 l -1.89062,5.20312 z m 4.95312,-7.0625 h 5.82813 l -1.79688,-4.75 q -0.8125,-2.17187 -1.21875,-3.5625 -0.32812,1.65625 -0.92187,3.28125 z m 12.17188,7.0625 v -10.8125 h -1.875 v -1.64062 h 1.875 v -1.3125 q 0,-1.26563 0.21875,-1.875 0.29687,-0.8125 1.0625,-1.3125 0.78125,-0.51563 2.15625,-0.51563 0.89063,0 1.96875,0.20313 l -0.3125,1.84375 q -0.65625,-0.125 -1.25,-0.125 -0.95313,0 -1.35938,0.42187 -0.39062,0.40625 -0.39062,1.53125 v 1.14063 h 2.42188 v 1.64062 h -2.42188 v 10.8125 z m 6.46875,0 v -12.45312 h 1.89063 v 1.89062 q 0.73437,-1.32812 1.34375,-1.75 0.625,-0.42187 1.35937,-0.42187 1.0625,0 2.17188,0.6875 l -0.73438,1.95312 q -0.76562,-0.45312 -1.54687,-0.45312 -0.6875,0 -1.25,0.42187 -0.54688,0.40625 -0.78125,1.14063 -0.34375,1.125 -0.34375,2.46875 v 6.51562 z m 7.23438,-6.21875 q 0,-3.46875 1.92187,-5.125 1.60938,-1.39062 3.92188,-1.39062 2.5625,0 4.1875,1.6875 1.625,1.6875 1.625,4.64062 0,2.40625 -0.71875,3.78125 -0.71875,1.375 -2.09375,2.14063 -1.375,0.76562 -3,0.76562 -2.625,0 -4.23438,-1.67187 -1.60937,-1.6875 -1.60937,-4.82813 z m 2.17187,0 q 0,2.39063 1.03125,3.57813 1.04688,1.1875 2.64063,1.1875 1.5625,0 2.60937,-1.1875 1.04688,-1.20313 1.04688,-3.65625 0,-2.3125 -1.0625,-3.5 -1.04688,-1.1875 -2.59375,-1.1875 -1.59375,0 -2.64063,1.1875 -1.03125,1.1875 -1.03125,3.57812 z m 10.14063,6.21875 6.64062,-8.95312 -5.85937,-8.23438 h 2.70312 l 3.125,4.40625 q 0.96875,1.375 1.375,2.10938 0.57813,-0.9375 1.35938,-1.95313 l 3.46875,-4.5625 h 2.46875 l -6.03125,8.10938 6.5,9.07812 h -2.8125 l -4.32813,-6.125 q -0.35937,-0.53125 -0.75,-1.15625 -0.57812,0.9375 -0.8125,1.29688 l -4.3125,5.98437 z m 16.65625,0 v -17.1875 h 2.26562 v 15.15625 h 8.46875 v 2.03125 z m 13.01562,0 v -17.1875 h 3.42188 l 4.0625,12.17188 q 0.5625,1.70312 0.82812,2.54687 0.29688,-0.9375 0.90625,-2.76562 l 4.125,-11.95313 h 3.04688 v 17.1875 h -2.1875 v -14.375 l -4.98438,14.375 h -2.0625 l -4.96875,-14.625 v 14.625 z m 19.10938,0 v -17.1875 h 7.60937 q 2.29688,0 3.48438,0.46875 1.20312,0.46875 1.92187,1.64063 0.71875,1.17187 0.71875,2.57812 0,1.82813 -1.1875,3.09375 -1.1875,1.25 -3.65625,1.59375 0.90625,0.42188 1.375,0.84375 1,0.92188 1.89063,2.29688 l 2.98437,4.67187 h -2.85937 l -2.28125,-3.57812 q -0.98438,-1.54688 -1.64063,-2.35938 -0.64062,-0.82812 -1.15625,-1.15625 -0.5,-0.32812 -1.03125,-0.45312 -0.39062,-0.0781 -1.26562,-0.0781 h -2.64063 v 7.625 z m 2.26562,-9.59375 h 4.89063 q 1.5625,0 2.4375,-0.32812 0.875,-0.32813 1.32812,-1.03125 0.46875,-0.70313 0.46875,-1.54688 0,-1.21875 -0.89062,-2 -0.875,-0.78125 -2.79688,-0.78125 h -5.4375 z m 25.45313,14.64063 q -1.73438,-2.20313 -2.95313,-5.15625 -1.20312,-2.95313 -1.20312,-6.10938 0,-2.79687 0.90625,-5.34375 1.04687,-2.96875 3.25,-5.90625 h 1.51562 q -1.42187,2.4375 -1.875,3.46875 -0.71875,1.625 -1.125,3.375 -0.5,2.20313 -0.5,4.40625 0,5.64063 3.5,11.26563 z m 12.09375,-9.60938 2.07812,0.26563 q -0.34375,2.15625 -1.75,3.375 -1.39062,1.20312 -3.4375,1.20312 -2.54687,0 -4.10937,-1.67187 -1.54688,-1.67188 -1.54688,-4.78125 0,-2.01563 0.67188,-3.53125 0.67187,-1.51563 2.03125,-2.26563 1.35937,-0.76562 2.96875,-0.76562 2.03125,0 3.3125,1.03125 1.29687,1.03125 1.65625,2.90625 l -2.04688,0.32812 q -0.29687,-1.26562 -1.04687,-1.89062 -0.73438,-0.64063 -1.79688,-0.64063 -1.59375,0 -2.59375,1.15625 -0.98437,1.14063 -0.98437,3.60938 0,2.5 0.95312,3.64062 0.96875,1.14063 2.51563,1.14063 1.23437,0 2.0625,-0.76563 0.84375,-0.76562 1.0625,-2.34375 z m 12,3.03125 q -1.17188,0.98438 -2.26563,1.40625 -1.07812,0.40625 -2.3125,0.40625 -2.04687,0 -3.15625,-1 -1.09375,-1 -1.09375,-2.5625 0,-0.92187 0.40625,-1.67187 0.42188,-0.75 1.09375,-1.20313 0.67188,-0.46875 1.51563,-0.70312 0.625,-0.15625 1.875,-0.3125 2.5625,-0.3125 3.76562,-0.73438 0.0156,-0.42187 0.0156,-0.54687 0,-1.28125 -0.60938,-1.8125 -0.79687,-0.71875 -2.39062,-0.71875 -1.5,0 -2.20313,0.53125 -0.70312,0.51562 -1.04687,1.84375 l -2.0625,-0.28125 q 0.28125,-1.32813 0.92187,-2.14063 0.64063,-0.8125 1.85938,-1.25 1.21875,-0.45312 2.82812,-0.45312 1.59375,0 2.59375,0.375 1,0.375 1.46875,0.95312 0.46875,0.5625 0.65625,1.4375 0.0937,0.53125 0.0937,1.9375 v 2.8125 q 0,2.9375 0.14063,3.71875 0.14062,0.78125 0.53125,1.5 h -2.20313 q -0.32812,-0.65625 -0.42187,-1.53125 z m -0.17188,-4.71875 q -1.15625,0.46875 -3.45312,0.79688 -1.29688,0.1875 -1.84375,0.42187 -0.53125,0.23438 -0.82813,0.6875 -0.28125,0.45313 -0.28125,1 0,0.84375 0.625,1.40625 0.64063,0.5625 1.875,0.5625 1.21875,0 2.17188,-0.53125 0.95312,-0.53125 1.39062,-1.45312 0.34375,-0.71875 0.34375,-2.10938 z m 5.04688,6.25 v -12.45312 h 1.90625 v 1.78125 q 1.375,-2.0625 3.95312,-2.0625 1.125,0 2.0625,0.40625 0.95313,0.40625 1.42188,1.0625 0.46875,0.65625 0.65625,1.5625 0.125,0.57812 0.125,2.04687 v 7.65625 h -2.10938 v -7.57812 q 0,-1.28125 -0.25,-1.92188 -0.25,-0.64062 -0.875,-1.01562 -0.625,-0.39063 -1.46875,-0.39063 -1.34375,0 -2.32812,0.85938 -0.98438,0.85937 -0.98438,3.25 v 6.79687 z m 13.21875,-6.21875 q 0,-3.46875 1.92187,-5.125 1.60938,-1.39062 3.92188,-1.39062 2.5625,0 4.1875,1.6875 1.625,1.6875 1.625,4.64062 0,2.40625 -0.71875,3.78125 -0.71875,1.375 -2.09375,2.14063 -1.375,0.76562 -3,0.76562 -2.625,0 -4.23438,-1.67187 -1.60937,-1.6875 -1.60937,-4.82813 z m 2.17187,0 q 0,2.39063 1.03125,3.57813 1.04688,1.1875 2.64063,1.1875 1.5625,0 2.60937,-1.1875 1.04688,-1.20313 1.04688,-3.65625 0,-2.3125 -1.0625,-3.5 -1.04688,-1.1875 -2.59375,-1.1875 -1.59375,0 -2.64063,1.1875 -1.03125,1.1875 -1.03125,3.57812 z m 11.60938,6.21875 v -12.45312 h 1.90625 v 1.78125 q 1.375,-2.0625 3.95312,-2.0625 1.125,0 2.0625,0.40625 0.95313,0.40625 1.42188,1.0625 0.46875,0.65625 0.65625,1.5625 0.125,0.57812 0.125,2.04687 v 7.65625 h -2.10938 v -7.57812 q 0,-1.28125 -0.25,-1.92188 -0.25,-0.64062 -0.875,-1.01562 -0.625,-0.39063 -1.46875,-0.39063 -1.34375,0 -2.32812,0.85938 -0.98438,0.85937 -0.98438,3.25 v 6.79687 z m 14.01562,-14.75 v -2.4375 h 2.10938 v 2.4375 z m 0,14.75 v -12.45312 h 2.10938 v 12.45312 z m 13.10938,-4.5625 2.07812,0.26563 q -0.34375,2.15625 -1.75,3.375 -1.39062,1.20312 -3.4375,1.20312 -2.54687,0 -4.10937,-1.67187 -1.54688,-1.67188 -1.54688,-4.78125 0,-2.01563 0.67188,-3.53125 0.67187,-1.51563 2.03125,-2.26563 1.35937,-0.76562 2.96875,-0.76562 2.03125,0 3.3125,1.03125 1.29687,1.03125 1.65625,2.90625 l -2.04688,0.32812 q -0.29687,-1.26562 -1.04687,-1.89062 -0.73438,-0.64063 -1.79688,-0.64063 -1.59375,0 -2.59375,1.15625 -0.98437,1.14063 -0.98437,3.60938 0,2.5 0.95312,3.64062 0.96875,1.14063 2.51563,1.14063 1.23437,0 2.0625,-0.76563 0.84375,-0.76562 1.0625,-2.34375 z m 11.99997,3.03125 q -1.17186,0.98438 -2.2656,1.40625 -1.07812,0.40625 -2.3125,0.40625 -2.04687,0 -3.15625,-1 -1.09375,-1 -1.09375,-2.5625 0,-0.92187 0.40625,-1.67187 0.42188,-0.75 1.09375,-1.20313 0.67188,-0.46875 1.51563,-0.70312 0.625,-0.15625 1.875,-0.3125 2.56247,-0.3125 3.76561,-0.73438 0.0156,-0.42187 0.0156,-0.54687 0,-1.28125 -0.60936,-1.8125 -0.7969,-0.71875 -2.39062,-0.71875 -1.5,0 -2.20313,0.53125 -0.70312,0.51562 -1.04687,1.84375 l -2.0625,-0.28125 q 0.28125,-1.32813 0.92187,-2.14063 0.64063,-0.8125 1.85938,-1.25 1.21875,-0.45312 2.82812,-0.45312 1.59375,0 2.59375,0.375 1,0.375 1.46874,0.95312 0.46876,0.5625 0.65626,1.4375 0.0937,0.53125 0.0937,1.9375 v 2.8125 q 0,2.9375 0.14062,3.71875 0.14064,0.78125 0.53124,1.5 h -2.2031 q -0.32814,-0.65625 -0.4219,-1.53125 z m -0.17186,-4.71875 q -1.15624,0.46875 -3.45311,0.79688 -1.29688,0.1875 -1.84375,0.42187 -0.53125,0.23438 -0.82813,0.6875 -0.28125,0.45313 -0.28125,1 0,0.84375 0.625,1.40625 0.64063,0.5625 1.875,0.5625 1.21875,0 2.17188,-0.53125 0.95312,-0.53125 1.39062,-1.45312 0.34374,-0.71875 0.34374,-2.10938 z m 5,6.25 v -17.1875 h 2.10936 v 17.1875 z m 7.4375,5.04688 h -1.51564 q 3.5,-5.625 3.5,-11.26563 0,-2.20312 -0.5,-4.35937 -0.3906,-1.76563 -1.10936,-3.375 -0.45314,-1.0625 -1.89064,-3.51563 h 1.51564 q 2.20312,2.9375 3.25,5.90625 0.90626,2.54688 0.90626,5.34375 0,3.15625 -1.21876,6.10938 -1.20314,2.95312 -2.9375,5.15625 z"
           fill-rule="nonzero"
           id="path2302" />
      </g>
    </g>
    <g
       id="g2412"
       transform="translate(-12.50279,-5.1790009)">
      <path
         fill="#6d9eeb"
         d="m 116,150.41667 c 0,-0.55229 0.44772,-1 1,-1 h 10 c 0.55228,0 1,0.44771 1,1 v 10 c 0,0.55228 -0.44772,1 -1,1 h -10 c -0.55228,0 -1,-0.44772 -1,-1 z"
         fill-rule="nonzero"
         id="path2304"
         style="stroke-width:2;stroke-miterlimit:10;stroke-dasharray:8,4;stroke:#000000;stroke-opacity:1;stroke-dashoffset:4" />
      <path
         fill="#1a1a1a"
         d="m 135.96875,163.41667 6.59375,-17.1875 h 2.45312 l 7.03126,17.1875 h -2.59376 l -2,-5.20312 h -7.1875 l -1.89062,5.20312 z m 4.95313,-7.0625 H 146.75 l -1.79688,-4.75 q -0.8125,-2.17187 -1.21874,-3.5625 -0.32813,1.65625 -0.92188,3.28125 z m 12.17187,7.0625 v -10.8125 h -1.875 v -1.64062 h 1.875 v -1.3125 q 0,-1.26563 0.21875,-1.875 0.29688,-0.8125 1.0625,-1.3125 0.78125,-0.51563 2.15625,-0.51563 0.89063,0 1.96875,0.20313 l -0.3125,1.84375 q -0.65625,-0.125 -1.25,-0.125 -0.95312,0 -1.35938,0.42187 -0.39062,0.40625 -0.39062,1.53125 v 1.14063 h 2.42188 v 1.64062 h -2.42188 v 10.8125 z m 6.46875,0 v -12.45312 h 1.89062 v 1.89062 q 0.73438,-1.32812 1.34376,-1.75 0.625,-0.42187 1.35937,-0.42187 1.0625,0 2.17187,0.6875 l -0.73437,1.95312 q -0.76563,-0.45312 -1.54687,-0.45312 -0.6875,0 -1.25,0.42187 -0.54688,0.40625 -0.78126,1.14063 -0.34374,1.125 -0.34374,2.46875 v 6.51562 z m 7.23438,-6.21875 q 0,-3.46875 1.92187,-5.125 1.60937,-1.39062 3.92187,-1.39062 2.5625,0 4.1875,1.6875 1.625,1.6875 1.625,4.64062 0,2.40625 -0.71874,3.78125 -0.71876,1.375 -2.09376,2.14063 -1.375,0.76562 -3,0.76562 -2.625,0 -4.23437,-1.67187 -1.60937,-1.6875 -1.60937,-4.82813 z m 2.17187,0 q 0,2.39063 1.03125,3.57813 1.04688,1.1875 2.64062,1.1875 1.5625,0 2.60938,-1.1875 1.04688,-1.20313 1.04688,-3.65625 0,-2.3125 -1.0625,-3.5 -1.04688,-1.1875 -2.59376,-1.1875 -1.59374,0 -2.64062,1.1875 -1.03125,1.1875 -1.03125,3.57812 z m 10.14063,6.21875 6.64062,-8.95312 -5.85938,-8.23438 h 2.70313 l 3.125,4.40625 q 0.96875,1.375 1.375,2.10938 0.57813,-0.9375 1.35937,-1.95313 l 3.46876,-4.5625 h 2.46874 l -6.03124,8.10938 6.5,9.07812 h -2.8125 l -4.32813,-6.125 q -0.35937,-0.53125 -0.75,-1.15625 -0.57813,0.9375 -0.8125,1.29688 l -4.3125,5.98437 z m 16.65624,0 v -17.1875 h 2.26563 v 15.15625 H 206.5 v 2.03125 z m 13.01563,0 v -17.1875 h 3.42187 l 4.0625,12.17188 q 0.5625,1.70312 0.82813,2.54687 0.29687,-0.9375 0.90625,-2.76562 l 4.125,-11.95313 h 3.04688 v 17.1875 h -2.1875 v -14.375 L 218,163.41667 h -2.0625 l -4.96875,-14.625 v 14.625 z m 19.10937,0 v -17.1875 H 235.5 q 2.29688,0 3.48438,0.46875 1.20312,0.46875 1.92187,1.64063 0.71875,1.17187 0.71875,2.57812 0,1.82813 -1.1875,3.09375 -1.1875,1.25 -3.65625,1.59375 0.90625,0.42188 1.375,0.84375 1,0.92188 1.89063,2.29688 l 2.98437,4.67187 h -2.85937 l -2.28126,-3.57812 q -0.98437,-1.54688 -1.64062,-2.35938 -0.64062,-0.82812 -1.15625,-1.15625 -0.5,-0.32812 -1.03125,-0.45312 -0.39062,-0.0781 -1.26562,-0.0781 h -2.64063 v 7.625 z m 2.26563,-9.59375 h 4.89063 q 1.5625,0 2.4375,-0.32812 0.875,-0.32813 1.32812,-1.03125 0.46875,-0.70313 0.46875,-1.54688 0,-1.21875 -0.89063,-2 -0.875,-0.78125 -2.79687,-0.78125 h -5.4375 z m 25.45313,14.64063 q -1.73438,-2.20313 -2.95313,-5.15625 -1.20313,-2.95313 -1.20313,-6.10938 0,-2.79687 0.90626,-5.34375 1.04687,-2.96875 3.25,-5.90625 h 1.51562 q -1.42188,2.4375 -1.875,3.46875 -0.71875,1.625 -1.125,3.375 -0.5,2.20313 -0.5,4.40625 0,5.64063 3.5,11.26563 z m 3.125,-8.76563 2.09374,-0.32812 q 0.17188,1.25 0.96876,1.92187 0.8125,0.67188 2.25,0.67188 1.45312,0 2.15624,-0.59375 0.70313,-0.59375 0.70313,-1.39063 0,-0.71875 -0.625,-1.125 -0.42187,-0.28125 -2.15625,-0.71875 -2.3125,-0.57812 -3.21875,-1 -0.89063,-0.4375 -1.35937,-1.1875 -0.45313,-0.76562 -0.45313,-1.67187 0,-0.82813 0.375,-1.53125 0.39063,-0.71875 1.04687,-1.1875 0.48438,-0.35938 1.32813,-0.60938 0.85937,-0.26562 1.82813,-0.26562 1.46874,0 2.57812,0.42187 1.10938,0.42188 1.625,1.15625 0.53125,0.71875 0.73438,1.92188 l -2.0625,0.28125 q -0.14063,-0.96875 -0.8125,-1.5 -0.67188,-0.54688 -1.90626,-0.54688 -1.45312,0 -2.07812,0.48438 -0.625,0.48437 -0.625,1.125 0,0.40625 0.26562,0.73437 0.25,0.34375 0.8125,0.5625 0.3125,0.125 1.85938,0.54688 2.23438,0.59375 3.10938,0.98437 0.89062,0.375 1.39062,1.10938 0.51562,0.71875 0.51562,1.79687 0,1.04688 -0.625,1.98438 -0.60937,0.9375 -1.76562,1.45312 -1.15625,0.5 -2.625,0.5 -2.42188,0 -3.70312,-1 -1.26563,-1.01562 -1.625,-3 z m 21,3.71875 v -1.82812 q -1.45313,2.10937 -3.9375,2.10937 -1.10938,0 -2.0625,-0.42187 -0.95313,-0.42188 -1.42188,-1.0625 -0.45312,-0.64063 -0.64062,-1.5625 -0.14063,-0.625 -0.14063,-1.96875 v -7.71875 h 2.10937 v 6.90625 q 0,1.65625 0.14063,2.23437 0.1875,0.82813 0.82813,1.3125 0.65624,0.46875 1.60937,0.46875 0.9375,0 1.76563,-0.48437 0.84374,-0.5 1.1875,-1.32813 0.34374,-0.84375 0.34374,-2.4375 v -6.67187 h 2.10938 v 12.45312 z m 5.82812,0 v -12.45312 h 1.89062 v 1.89062 q 0.73438,-1.32812 1.34376,-1.75 0.625,-0.42187 1.35937,-0.42187 1.0625,0 2.17187,0.6875 l -0.73437,1.95312 q -0.76563,-0.45312 -1.54687,-0.45312 -0.6875,0 -1.25,0.42187 -0.54688,0.40625 -0.78126,1.14063 -0.34374,1.125 -0.34374,2.46875 v 6.51562 z m 8.53125,0 v -10.8125 h -1.875 v -1.64062 h 1.875 v -1.3125 q 0,-1.26563 0.21875,-1.875 0.29688,-0.8125 1.0625,-1.3125 0.78125,-0.51563 2.15625,-0.51563 0.89063,0 1.96875,0.20313 l -0.3125,1.84375 q -0.65625,-0.125 -1.25,-0.125 -0.95312,0 -1.35938,0.42187 -0.39062,0.40625 -0.39062,1.53125 v 1.14063 h 2.42188 v 1.64062 h -2.42188 v 10.8125 z m 14.60937,-1.53125 q -1.17187,0.98438 -2.26562,1.40625 -1.07812,0.40625 -2.3125,0.40625 -2.04688,0 -3.15625,-1 -1.09375,-1 -1.09375,-2.5625 0,-0.92187 0.40625,-1.67187 0.42187,-0.75 1.09375,-1.20313 0.67188,-0.46875 1.51562,-0.70312 0.625,-0.15625 1.875,-0.3125 2.5625,-0.3125 3.76563,-0.73438 0.0156,-0.42187 0.0156,-0.54687 0,-1.28125 -0.60938,-1.8125 -0.79688,-0.71875 -2.39062,-0.71875 -1.5,0 -2.20313,0.53125 -0.70313,0.51562 -1.04687,1.84375 l -2.0625,-0.28125 q 0.28124,-1.32813 0.92187,-2.14063 0.64063,-0.8125 1.85937,-1.25 1.21876,-0.45312 2.82813,-0.45312 1.59375,0 2.59375,0.375 1,0.375 1.46875,0.95312 0.46875,0.5625 0.65625,1.4375 0.0937,0.53125 0.0937,1.9375 v 2.8125 q 0,2.9375 0.14063,3.71875 0.14062,0.78125 0.53124,1.5 H 309.125 q -0.32812,-0.65625 -0.42188,-1.53125 z m -0.17187,-4.71875 q -1.15625,0.46875 -3.45313,0.79688 -1.29687,0.1875 -1.84374,0.42187 -0.53126,0.23438 -0.82813,0.6875 -0.28125,0.45313 -0.28125,1 0,0.84375 0.625,1.40625 0.64062,0.5625 1.875,0.5625 1.21875,0 2.17188,-0.53125 0.95312,-0.53125 1.39062,-1.45312 0.34375,-0.71875 0.34375,-2.10938 z m 13.17187,1.6875 2.07813,0.26563 q -0.34375,2.15625 -1.75,3.375 -1.39063,1.20312 -3.4375,1.20312 -2.54687,0 -4.10937,-1.67187 -1.54688,-1.67188 -1.54688,-4.78125 0,-2.01563 0.67188,-3.53125 0.67187,-1.51563 2.03124,-2.26563 1.35938,-0.76562 2.96876,-0.76562 2.03124,0 3.3125,1.03125 1.29687,1.03125 1.65624,2.90625 l -2.04687,0.32812 q -0.29687,-1.26562 -1.04687,-1.89062 -0.73438,-0.64063 -1.79688,-0.64063 -1.59375,0 -2.59375,1.15625 -0.98437,1.14063 -0.98437,3.60938 0,2.5 0.95312,3.64062 0.96875,1.14063 2.51562,1.14063 1.23438,0 2.0625,-0.76563 0.84376,-0.76562 1.0625,-2.34375 z m 12.40626,0.54688 2.17187,0.28125 q -0.51563,1.90625 -1.90625,2.96875 -1.39062,1.04687 -3.5625,1.04687 -2.73438,0 -4.34375,-1.67187 -1.59375,-1.6875 -1.59375,-4.73438 0,-3.14062 1.60938,-4.875 1.625,-1.73437 4.20312,-1.73437 2.5,0 4.07812,1.70312 1.59376,1.70313 1.59376,4.78125 0,0.1875 -0.0156,0.5625 h -9.28125 q 0.10938,2.04688 1.15625,3.14063 1.04687,1.09375 2.60937,1.09375 1.15626,0 1.96876,-0.60938 0.82812,-0.60937 1.3125,-1.95312 z m -6.9375,-3.40625 h 6.95312 q -0.14062,-1.5625 -0.79688,-2.35938 -1,-1.21875 -2.60937,-1.21875 -1.45313,0 -2.45313,0.98438 -0.98437,0.96875 -1.09374,2.59375 z m 12.79687,12.46875 h -1.51563 q 3.5,-5.625 3.5,-11.26563 0,-2.20312 -0.5,-4.35937 -0.39062,-1.76563 -1.10937,-3.375 -0.45313,-1.0625 -1.89063,-3.51563 h 1.51563 q 2.20313,2.9375 3.25,5.90625 0.90625,2.54688 0.90625,5.34375 0,3.15625 -1.21875,6.10938 -1.20313,2.95312 -2.9375,5.15625 z"
         fill-rule="nonzero"
         id="path2306" />
    </g>
    <g
       id="g2416"
       transform="translate(-9.00279,-3.4526825)">
      <path
         fill="#ea4335"
         d="m 112.5,182.41667 c 0,-0.55229 0.44772,-1 1,-1 h 10 c 0.55228,0 1,0.44771 1,1 v 10 c 0,0.55228 -0.44772,1 -1,1 h -10 c -0.55228,0 -1,-0.44772 -1,-1 z"
         fill-rule="nonzero"
         id="path2308" />
      <path
         fill="#1a1a1a"
         d="m 134.26562,195.41667 v -17.1875 h 6.4375 q 1.96876,0 3.15626,0.53125 1.1875,0.51563 1.85937,1.60938 0.6875,1.07812 0.6875,2.26562 0,1.09375 -0.60937,2.07813 -0.59376,0.96875 -1.79688,1.5625 1.5625,0.45312 2.39062,1.5625 0.84376,1.09375 0.84376,2.59375 0,1.20312 -0.51563,2.25 -0.5,1.03125 -1.25,1.59375 -0.75,0.5625 -1.89063,0.85937 -1.125,0.28125 -2.76562,0.28125 z m 2.26563,-9.96875 H 140.25 q 1.51562,0 2.17188,-0.1875 0.85937,-0.26562 1.29687,-0.85937 0.4375,-0.59375 0.4375,-1.5 0,-0.85938 -0.40625,-1.5 -0.40625,-0.65625 -1.17188,-0.89063 -0.76562,-0.25 -2.60937,-0.25 h -3.4375 z m 0,7.9375 h 4.28125 q 1.09375,0 1.54688,-0.0781 0.78124,-0.14063 1.3125,-0.46875 0.53124,-0.32813 0.85937,-0.95313 0.34375,-0.625 0.34375,-1.45312 0,-0.95313 -0.5,-1.65625 -0.48438,-0.71875 -1.35938,-1 -0.875,-0.29688 -2.51562,-0.29688 h -3.96875 z m 13.5625,-12.71875 v -2.4375 h 2.10937 v 2.4375 z m 0,14.75 v -12.45312 h 2.10937 v 12.45312 z m 4.17187,-5.15625 v -2.125 H 160.75 v 2.125 z m 9,5.15625 v -17.1875 h 2.26563 v 15.15625 H 174 v 2.03125 z m 12.3125,-5.51562 2.14063,-0.1875 q 0.15625,1.28125 0.70313,2.10937 0.5625,0.82813 1.73437,1.34375 1.17187,0.5 2.64063,0.5 1.29687,0 2.29687,-0.375 1,-0.39062 1.48437,-1.0625 0.48438,-0.6875 0.48438,-1.48437 0,-0.79688 -0.46875,-1.40625 -0.46875,-0.60938 -1.54687,-1.01563 -0.6875,-0.26562 -3.0625,-0.82812 -2.35938,-0.57813 -3.3125,-1.07813 -1.23438,-0.64062 -1.84376,-1.59375 -0.59374,-0.96875 -0.59374,-2.14062 0,-1.3125 0.73437,-2.4375 0.75,-1.125 2.15625,-1.70313 1.42188,-0.59375 3.15625,-0.59375 1.90625,0 3.35937,0.60938 1.46876,0.60937 2.25,1.8125 0.79688,1.1875 0.84376,2.70312 l -2.17188,0.17188 q -0.17188,-1.64063 -1.1875,-2.46875 -1.01562,-0.82813 -3,-0.82813 -2.0625,0 -3.01562,0.76563 -0.9375,0.75 -0.9375,1.8125 0,0.92187 0.67187,1.51562 0.65625,0.60938 3.42187,1.23438 2.78126,0.625 3.8125,1.09375 1.5,0.6875 2.20313,1.75 0.71875,1.0625 0.71875,2.4375 0,1.375 -0.78125,2.59375 -0.78125,1.20312 -2.25,1.89062 -1.46875,0.67188 -3.3125,0.67188 -2.32813,0 -3.90625,-0.67188 -1.57812,-0.6875 -2.48438,-2.04687 -0.89062,-1.375 -0.9375,-3.09375 z m 21.14063,5.51562 v -15.15625 h -5.65625 v -2.03125 h 13.625 v 2.03125 H 199 v 15.15625 z m 9.5625,0 v -17.1875 h 3.42187 l 4.0625,12.17188 q 0.5625,1.70312 0.82813,2.54687 0.29687,-0.9375 0.90625,-2.76562 l 4.125,-11.95313 h 3.04688 v 17.1875 h -2.1875 v -14.375 l -4.98438,14.375 h -2.0625 l -4.96875,-14.625 v 14.625 z m 29.82813,5.04688 q -1.73438,-2.20313 -2.95313,-5.15625 -1.20313,-2.95313 -1.20313,-6.10938 0,-2.79687 0.90626,-5.34375 1.04687,-2.96875 3.25,-5.90625 h 1.51562 q -1.42188,2.4375 -1.875,3.46875 -0.71875,1.625 -1.125,3.375 -0.5,2.20313 -0.5,4.40625 0,5.64063 3.5,11.26563 z m 12.09374,-9.60938 2.07813,0.26563 q -0.34375,2.15625 -1.75,3.375 -1.39063,1.20312 -3.4375,1.20312 -2.54687,0 -4.10937,-1.67187 -1.54688,-1.67188 -1.54688,-4.78125 0,-2.01563 0.67188,-3.53125 0.67187,-1.51563 2.03124,-2.26563 1.35938,-0.76562 2.96876,-0.76562 2.03124,0 3.3125,1.03125 1.29687,1.03125 1.65624,2.90625 l -2.04687,0.32812 q -0.29687,-1.26562 -1.04687,-1.89062 -0.73438,-0.64063 -1.79688,-0.64063 -1.59375,0 -2.59375,1.15625 -0.98437,1.14063 -0.98437,3.60938 0,2.5 0.95312,3.64062 0.96875,1.14063 2.51562,1.14063 1.23438,0 2.0625,-0.76563 0.84376,-0.76562 1.0625,-2.34375 z m 12,3.03125 q -1.17187,0.98438 -2.26562,1.40625 -1.07812,0.40625 -2.3125,0.40625 -2.04688,0 -3.15625,-1 -1.09375,-1 -1.09375,-2.5625 0,-0.92187 0.40625,-1.67187 0.42187,-0.75 1.09375,-1.20313 0.67188,-0.46875 1.51562,-0.70312 0.625,-0.15625 1.875,-0.3125 2.5625,-0.3125 3.76563,-0.73438 0.0156,-0.42187 0.0156,-0.54687 0,-1.28125 -0.60938,-1.8125 -0.79688,-0.71875 -2.39062,-0.71875 -1.5,0 -2.20313,0.53125 -0.70313,0.51562 -1.04687,1.84375 l -2.0625,-0.28125 q 0.28124,-1.32813 0.92187,-2.14063 0.64063,-0.8125 1.85937,-1.25 1.21876,-0.45312 2.82813,-0.45312 1.59375,0 2.59375,0.375 1,0.375 1.46875,0.95312 0.46875,0.5625 0.65625,1.4375 0.0937,0.53125 0.0937,1.9375 v 2.8125 q 0,2.9375 0.14063,3.71875 0.14062,0.78125 0.53124,1.5 H 260.625 q -0.32812,-0.65625 -0.42188,-1.53125 z m -0.17187,-4.71875 q -1.15625,0.46875 -3.45313,0.79688 -1.29687,0.1875 -1.84374,0.42187 -0.53126,0.23438 -0.82813,0.6875 -0.28125,0.45313 -0.28125,1 0,0.84375 0.625,1.40625 0.64062,0.5625 1.875,0.5625 1.21875,0 2.17188,-0.53125 0.95312,-0.53125 1.39062,-1.45312 0.34375,-0.71875 0.34375,-2.10938 z m 5.04687,6.25 v -12.45312 h 1.90626 v 1.78125 q 1.375,-2.0625 3.95312,-2.0625 1.125,0 2.0625,0.40625 0.95312,0.40625 1.42188,1.0625 0.46874,0.65625 0.65624,1.5625 0.125,0.57812 0.125,2.04687 v 7.65625 h -2.10937 v -7.57812 q 0,-1.28125 -0.25,-1.92188 -0.25,-0.64062 -0.875,-1.01562 -0.625,-0.39063 -1.46875,-0.39063 -1.34375,0 -2.32812,0.85938 -0.98438,0.85937 -0.98438,3.25 v 6.79687 z m 13.21876,-6.21875 q 0,-3.46875 1.92187,-5.125 1.60937,-1.39062 3.92187,-1.39062 2.5625,0 4.1875,1.6875 1.625,1.6875 1.625,4.64062 0,2.40625 -0.71874,3.78125 -0.71876,1.375 -2.09376,2.14063 -1.375,0.76562 -3,0.76562 -2.625,0 -4.23437,-1.67187 -1.60937,-1.6875 -1.60937,-4.82813 z m 2.17187,0 q 0,2.39063 1.03125,3.57813 1.04688,1.1875 2.64062,1.1875 1.5625,0 2.60938,-1.1875 1.04688,-1.20313 1.04688,-3.65625 0,-2.3125 -1.0625,-3.5 -1.04688,-1.1875 -2.59376,-1.1875 -1.59374,0 -2.64062,1.1875 -1.03125,1.1875 -1.03125,3.57812 z m 11.60937,6.21875 v -12.45312 h 1.90626 v 1.78125 q 1.375,-2.0625 3.95312,-2.0625 1.125,0 2.0625,0.40625 0.95312,0.40625 1.42188,1.0625 0.46874,0.65625 0.65624,1.5625 0.125,0.57812 0.125,2.04687 v 7.65625 h -2.10937 v -7.57812 q 0,-1.28125 -0.25,-1.92188 -0.25,-0.64062 -0.875,-1.01562 -0.625,-0.39063 -1.46875,-0.39063 -1.34375,0 -2.32812,0.85938 -0.98438,0.85937 -0.98438,3.25 v 6.79687 z m 14.01563,-14.75 v -2.4375 h 2.10937 v 2.4375 z m 0,14.75 v -12.45312 h 2.10937 v 12.45312 z m 13.10937,-4.5625 2.07813,0.26563 q -0.34375,2.15625 -1.75,3.375 -1.39063,1.20312 -3.4375,1.20312 -2.54687,0 -4.10937,-1.67187 -1.54688,-1.67188 -1.54688,-4.78125 0,-2.01563 0.67188,-3.53125 0.67187,-1.51563 2.03124,-2.26563 1.35938,-0.76562 2.96876,-0.76562 2.03124,0 3.3125,1.03125 1.29687,1.03125 1.65624,2.90625 l -2.04687,0.32812 q -0.29687,-1.26562 -1.04687,-1.89062 -0.73438,-0.64063 -1.79688,-0.64063 -1.59375,0 -2.59375,1.15625 -0.98437,1.14063 -0.98437,3.60938 0,2.5 0.95312,3.64062 0.96875,1.14063 2.51562,1.14063 1.23438,0 2.0625,-0.76563 0.84376,-0.76562 1.0625,-2.34375 z m 12,3.03125 q -1.17187,0.98438 -2.26562,1.40625 -1.07812,0.40625 -2.3125,0.40625 -2.04688,0 -3.15625,-1 -1.09375,-1 -1.09375,-2.5625 0,-0.92187 0.40625,-1.67187 0.42187,-0.75 1.09375,-1.20313 0.67188,-0.46875 1.51562,-0.70312 0.625,-0.15625 1.875,-0.3125 2.5625,-0.3125 3.76563,-0.73438 0.0156,-0.42187 0.0156,-0.54687 0,-1.28125 -0.60938,-1.8125 -0.79688,-0.71875 -2.39062,-0.71875 -1.5,0 -2.20313,0.53125 -0.70313,0.51562 -1.04687,1.84375 l -2.0625,-0.28125 q 0.28124,-1.32813 0.92187,-2.14063 0.64063,-0.8125 1.85937,-1.25 1.21876,-0.45312 2.82813,-0.45312 1.59375,0 2.59375,0.375 1,0.375 1.46875,0.95312 0.46875,0.5625 0.65625,1.4375 0.0937,0.53125 0.0937,1.9375 v 2.8125 q 0,2.9375 0.14063,3.71875 0.14062,0.78125 0.53124,1.5 H 331.625 q -0.32812,-0.65625 -0.42188,-1.53125 z m -0.17187,-4.71875 q -1.15625,0.46875 -3.45313,0.79688 -1.29687,0.1875 -1.84374,0.42187 -0.53126,0.23438 -0.82813,0.6875 -0.28125,0.45313 -0.28125,1 0,0.84375 0.625,1.40625 0.64062,0.5625 1.875,0.5625 1.21875,0 2.17188,-0.53125 0.95312,-0.53125 1.39062,-1.45312 0.34375,-0.71875 0.34375,-2.10938 z m 5,6.25 v -17.1875 h 2.10937 v 17.1875 z m 7.4375,5.04688 h -1.51563 q 3.5,-5.625 3.5,-11.26563 0,-2.20312 -0.5,-4.35937 -0.39062,-1.76563 -1.10937,-3.375 -0.45313,-1.0625 -1.89063,-3.51563 h 1.51563 q 2.20313,2.9375 3.25,5.90625 0.90625,2.54688 0.90625,5.34375 0,3.15625 -1.21875,6.10938 -1.20313,2.95312 -2.9375,5.15625 z"
         fill-rule="nonzero"
         id="path2310" />
    </g>
    <g
       id="g2420"
       transform="translate(-20.50279,-1.7263336)">
      <path
         fill="#e06666"
         d="m 124,214.41667 c 0,-0.55229 0.44772,-1 1,-1 h 10 c 0.55229,0 1,0.44771 1,1 v 10 c 0,0.55228 -0.44771,1 -1,1 h -10 c -0.55228,0 -1,-0.44772 -1,-1 z"
         fill-rule="nonzero"
         id="path2312"
         style="stroke:#000000;stroke-opacity:1;stroke-width:2;stroke-miterlimit:10;stroke-dasharray:8,4;stroke-dashoffset:4" />
      <path
         fill="#1a1a1a"
         d="m 145.76562,227.41667 v -17.1875 h 6.4375 q 1.96876,0 3.15626,0.53125 1.1875,0.51563 1.85937,1.60938 0.6875,1.07812 0.6875,2.26562 0,1.09375 -0.60937,2.07813 -0.59376,0.96875 -1.79688,1.5625 1.5625,0.45312 2.39062,1.5625 0.84376,1.09375 0.84376,2.59375 0,1.20312 -0.51563,2.25 -0.5,1.03125 -1.25,1.59375 -0.75,0.5625 -1.89063,0.85937 -1.125,0.28125 -2.76562,0.28125 z m 2.26563,-9.96875 H 151.75 q 1.51562,0 2.17188,-0.1875 0.85937,-0.26562 1.29687,-0.85937 0.4375,-0.59375 0.4375,-1.5 0,-0.85938 -0.40625,-1.5 -0.40625,-0.65625 -1.17188,-0.89063 -0.76562,-0.25 -2.60937,-0.25 h -3.4375 z m 0,7.9375 h 4.28125 q 1.09375,0 1.54688,-0.0781 0.78124,-0.14063 1.3125,-0.46875 0.53124,-0.32813 0.85937,-0.95313 0.34375,-0.625 0.34375,-1.45312 0,-0.95313 -0.5,-1.65625 -0.48438,-0.71875 -1.35938,-1 -0.875,-0.29688 -2.51562,-0.29688 h -3.96875 z m 13.5625,-12.71875 v -2.4375 h 2.10937 v 2.4375 z m 0,14.75 v -12.45312 h 2.10937 v 12.45312 z m 4.17187,-5.15625 v -2.125 H 172.25 v 2.125 z m 9,5.15625 v -17.1875 h 2.26563 v 15.15625 H 185.5 v 2.03125 z m 12.3125,-5.51562 2.14063,-0.1875 q 0.15625,1.28125 0.70313,2.10937 0.5625,0.82813 1.73437,1.34375 1.17187,0.5 2.64063,0.5 1.29687,0 2.29687,-0.375 1,-0.39062 1.48437,-1.0625 0.48438,-0.6875 0.48438,-1.48437 0,-0.79688 -0.46875,-1.40625 -0.46875,-0.60938 -1.54687,-1.01563 -0.6875,-0.26562 -3.0625,-0.82812 -2.35938,-0.57813 -3.3125,-1.07813 -1.23438,-0.64062 -1.84376,-1.59375 -0.59374,-0.96875 -0.59374,-2.14062 0,-1.3125 0.73437,-2.4375 0.75,-1.125 2.15625,-1.70313 1.42188,-0.59375 3.15625,-0.59375 1.90625,0 3.35937,0.60938 1.46876,0.60937 2.25,1.8125 0.79688,1.1875 0.84376,2.70312 l -2.17188,0.17188 q -0.17188,-1.64063 -1.1875,-2.46875 -1.01562,-0.82813 -3,-0.82813 -2.0625,0 -3.01562,0.76563 -0.9375,0.75 -0.9375,1.8125 0,0.92187 0.67187,1.51562 0.65625,0.60938 3.42187,1.23438 2.78126,0.625 3.8125,1.09375 1.5,0.6875 2.20313,1.75 0.71875,1.0625 0.71875,2.4375 0,1.375 -0.78125,2.59375 -0.78125,1.20312 -2.25,1.89062 -1.46875,0.67188 -3.3125,0.67188 -2.32813,0 -3.90625,-0.67188 -1.57812,-0.6875 -2.48438,-2.04687 -0.89062,-1.375 -0.9375,-3.09375 z m 21.14063,5.51562 v -15.15625 h -5.65625 v -2.03125 h 13.625 v 2.03125 H 210.5 v 15.15625 z m 9.5625,0 v -17.1875 h 3.42187 l 4.0625,12.17188 q 0.5625,1.70312 0.82813,2.54687 0.29687,-0.9375 0.90625,-2.76562 l 4.125,-11.95313 h 3.04688 v 17.1875 h -2.1875 v -14.375 L 227,227.41667 h -2.0625 l -4.96875,-14.625 v 14.625 z m 29.82813,5.04688 q -1.73438,-2.20313 -2.95313,-5.15625 -1.20313,-2.95313 -1.20313,-6.10938 0,-2.79687 0.90626,-5.34375 1.04687,-2.96875 3.25,-5.90625 h 1.51562 q -1.42188,2.4375 -1.875,3.46875 -0.71875,1.625 -1.125,3.375 -0.5,2.20313 -0.5,4.40625 0,5.64063 3.5,11.26563 z m 3.125,-8.76563 2.09374,-0.32812 q 0.17188,1.25 0.96876,1.92187 0.8125,0.67188 2.25,0.67188 1.45312,0 2.15624,-0.59375 0.70313,-0.59375 0.70313,-1.39063 0,-0.71875 -0.625,-1.125 -0.42187,-0.28125 -2.15625,-0.71875 -2.3125,-0.57812 -3.21875,-1 -0.89063,-0.4375 -1.35937,-1.1875 -0.45313,-0.76562 -0.45313,-1.67187 0,-0.82813 0.375,-1.53125 0.39063,-0.71875 1.04687,-1.1875 0.48438,-0.35938 1.32813,-0.60938 0.85937,-0.26562 1.82813,-0.26562 1.46874,0 2.57812,0.42187 1.10938,0.42188 1.625,1.15625 0.53125,0.71875 0.73438,1.92188 l -2.0625,0.28125 q -0.14063,-0.96875 -0.8125,-1.5 -0.67188,-0.54688 -1.90626,-0.54688 -1.45312,0 -2.07812,0.48438 -0.625,0.48437 -0.625,1.125 0,0.40625 0.26562,0.73437 0.25,0.34375 0.8125,0.5625 0.3125,0.125 1.85938,0.54688 2.23438,0.59375 3.10938,0.98437 0.89062,0.375 1.39062,1.10938 0.51562,0.71875 0.51562,1.79687 0,1.04688 -0.625,1.98438 -0.60937,0.9375 -1.76562,1.45312 -1.15625,0.5 -2.625,0.5 -2.42188,0 -3.70312,-1 -1.26563,-1.01562 -1.625,-3 z m 21,3.71875 v -1.82812 q -1.45313,2.10937 -3.9375,2.10937 -1.10938,0 -2.0625,-0.42187 -0.95313,-0.42188 -1.42188,-1.0625 -0.45312,-0.64063 -0.64062,-1.5625 -0.14063,-0.625 -0.14063,-1.96875 v -7.71875 h 2.10937 v 6.90625 q 0,1.65625 0.14063,2.23437 0.1875,0.82813 0.82813,1.3125 0.65624,0.46875 1.60937,0.46875 0.9375,0 1.76563,-0.48437 0.84374,-0.5 1.1875,-1.32813 0.34374,-0.84375 0.34374,-2.4375 v -6.67187 h 2.10938 v 12.45312 z m 5.82812,0 v -12.45312 h 1.89062 v 1.89062 q 0.73438,-1.32812 1.34376,-1.75 0.625,-0.42187 1.35937,-0.42187 1.0625,0 2.17187,0.6875 l -0.73437,1.95312 q -0.76563,-0.45312 -1.54687,-0.45312 -0.6875,0 -1.25,0.42187 -0.54688,0.40625 -0.78126,1.14063 -0.34374,1.125 -0.34374,2.46875 v 6.51562 z m 8.53125,0 v -10.8125 h -1.875 v -1.64062 h 1.875 v -1.3125 q 0,-1.26563 0.21875,-1.875 0.29688,-0.8125 1.0625,-1.3125 0.78125,-0.51563 2.15625,-0.51563 0.89063,0 1.96875,0.20313 l -0.3125,1.84375 q -0.65625,-0.125 -1.25,-0.125 -0.95312,0 -1.35938,0.42187 -0.39062,0.40625 -0.39062,1.53125 v 1.14063 h 2.42188 v 1.64062 h -2.42188 v 10.8125 z m 14.60937,-1.53125 q -1.17187,0.98438 -2.26562,1.40625 -1.07812,0.40625 -2.3125,0.40625 -2.04688,0 -3.15625,-1 -1.09375,-1 -1.09375,-2.5625 0,-0.92187 0.40625,-1.67187 0.42187,-0.75 1.09375,-1.20313 0.67188,-0.46875 1.51562,-0.70312 0.625,-0.15625 1.875,-0.3125 2.5625,-0.3125 3.76563,-0.73438 0.0156,-0.42187 0.0156,-0.54687 0,-1.28125 -0.60938,-1.8125 -0.79688,-0.71875 -2.39062,-0.71875 -1.5,0 -2.20313,0.53125 -0.70313,0.51562 -1.04687,1.84375 l -2.0625,-0.28125 q 0.28124,-1.32813 0.92187,-2.14063 0.64063,-0.8125 1.85937,-1.25 1.21876,-0.45312 2.82813,-0.45312 1.59375,0 2.59375,0.375 1,0.375 1.46875,0.95312 0.46875,0.5625 0.65625,1.4375 0.0937,0.53125 0.0937,1.9375 v 2.8125 q 0,2.9375 0.14063,3.71875 0.14062,0.78125 0.53124,1.5 H 301.125 q -0.32812,-0.65625 -0.42188,-1.53125 z m -0.17187,-4.71875 q -1.15625,0.46875 -3.45313,0.79688 -1.29687,0.1875 -1.84374,0.42187 -0.53126,0.23438 -0.82813,0.6875 -0.28125,0.45313 -0.28125,1 0,0.84375 0.625,1.40625 0.64062,0.5625 1.875,0.5625 1.21875,0 2.17188,-0.53125 0.95312,-0.53125 1.39062,-1.45312 0.34375,-0.71875 0.34375,-2.10938 z m 13.17187,1.6875 2.07813,0.26563 q -0.34375,2.15625 -1.75,3.375 -1.39063,1.20312 -3.4375,1.20312 -2.54687,0 -4.10937,-1.67187 -1.54688,-1.67188 -1.54688,-4.78125 0,-2.01563 0.67188,-3.53125 0.67187,-1.51563 2.03124,-2.26563 1.35938,-0.76562 2.96876,-0.76562 2.03124,0 3.3125,1.03125 1.29687,1.03125 1.65624,2.90625 l -2.04687,0.32812 q -0.29687,-1.26562 -1.04687,-1.89062 -0.73438,-0.64063 -1.79688,-0.64063 -1.59375,0 -2.59375,1.15625 -0.98437,1.14063 -0.98437,3.60938 0,2.5 0.95312,3.64062 0.96875,1.14063 2.51562,1.14063 1.23438,0 2.0625,-0.76563 0.84376,-0.76562 1.0625,-2.34375 z m 12.40626,0.54688 2.17187,0.28125 q -0.51563,1.90625 -1.90625,2.96875 -1.39062,1.04687 -3.5625,1.04687 -2.73438,0 -4.34375,-1.67187 -1.59375,-1.6875 -1.59375,-4.73438 0,-3.14062 1.60938,-4.875 1.625,-1.73437 4.20312,-1.73437 2.5,0 4.07812,1.70312 1.59376,1.70313 1.59376,4.78125 0,0.1875 -0.0156,0.5625 h -9.28125 q 0.10938,2.04688 1.15625,3.14063 1.04687,1.09375 2.60937,1.09375 1.15626,0 1.96876,-0.60938 0.82812,-0.60937 1.3125,-1.95312 z m -6.9375,-3.40625 h 6.95312 q -0.14062,-1.5625 -0.79688,-2.35938 -1,-1.21875 -2.60937,-1.21875 -1.45313,0 -2.45313,0.98438 -0.98437,0.96875 -1.09374,2.59375 z m 12.79687,12.46875 h -1.51563 q 3.5,-5.625 3.5,-11.26563 0,-2.20312 -0.5,-4.35937 -0.39062,-1.76563 -1.10937,-3.375 -0.45313,-1.0625 -1.89063,-3.51563 h 1.51563 q 2.20313,2.9375 3.25,5.90625 0.90625,2.54688 0.90625,5.34375 0,3.15625 -1.21875,6.10938 -1.20313,2.95312 -2.9375,5.15625 z"
         fill-rule="nonzero"
         id="path2314" />
    </g>
    <g
       id="g2424"
       transform="translate(-3.00279)">
      <path
         fill="#fbbc04"
         d="m 106.5,246.41667 c 0,-0.55229 0.44772,-1 1,-1 h 10 c 0.55228,0 1,0.44771 1,1 v 9.99999 c 0,0.5523 -0.44772,1 -1,1 h -10 c -0.55228,0 -1,-0.4477 -1,-1 z"
         fill-rule="nonzero"
         id="path2316" />
      <path
         fill="#1a1a1a"
         d="m 126.98438,259.41666 v -2.10938 l 8.79687,-11 q 0.9375,-1.17188 1.78125,-2.04688 h -9.57812 v -2.03124 h 12.29687 v 2.03124 l -9.64063,11.92188 -1.04687,1.20312 h 10.96875 v 2.03126 z m 24.25,0 v -1.82813 q -1.45313,2.10937 -3.9375,2.10937 -1.10938,0 -2.0625,-0.42187 -0.95313,-0.42187 -1.42188,-1.0625 -0.45312,-0.64063 -0.64062,-1.5625 -0.14063,-0.625 -0.14063,-1.96875 v -7.71875 h 2.10937 v 6.90625 q 0,1.65625 0.14063,2.23438 0.1875,0.82812 0.82813,1.3125 0.65624,0.46874 1.60937,0.46874 0.9375,0 1.76563,-0.48437 0.84374,-0.5 1.1875,-1.32813 0.34374,-0.84374 0.34374,-2.4375 v -6.67187 h 2.10938 v 12.45313 z m 5.79687,0 v -17.1875 h 2.10937 v 17.1875 z m 6.25,0 v -17.1875 h 3.42187 l 4.0625,12.17187 q 0.5625,1.70313 0.82813,2.54687 0.29687,-0.9375 0.90625,-2.76562 l 4.125,-11.95312 h 3.04688 v 17.1875 h -2.1875 v -14.375 l -4.98438,14.375 h -2.0625 l -4.96875,-14.625 v 14.625 z m 18.01563,-6.21876 q 0,-3.46874 1.92187,-5.125 1.60937,-1.39062 3.92187,-1.39062 2.5625,0 4.1875,1.6875 1.625,1.6875 1.625,4.64062 0,2.40626 -0.71874,3.78126 -0.71876,1.375 -2.09376,2.14062 -1.375,0.76562 -3,0.76562 -2.625,0 -4.23437,-1.67187 -1.60937,-1.6875 -1.60937,-4.82813 z m 2.17187,0 q 0,2.39063 1.03125,3.57813 1.04688,1.1875 2.64062,1.1875 1.5625,0 2.60938,-1.1875 1.04688,-1.20313 1.04688,-3.65625 0,-2.3125 -1.0625,-3.5 -1.04688,-1.1875 -2.59376,-1.1875 -1.59374,0 -2.64062,1.1875 -1.03125,1.1875 -1.03125,3.57812 z m 11.59375,6.21876 v -12.45313 h 1.89062 v 1.89063 q 0.73438,-1.32813 1.34376,-1.75 0.625,-0.42188 1.35937,-0.42188 1.0625,0 2.17187,0.6875 l -0.73437,1.95312 q -0.76563,-0.45312 -1.54687,-0.45312 -0.6875,0 -1.25,0.42188 -0.54688,0.40624 -0.78126,1.14062 -0.34374,1.125 -0.34374,2.46875 v 6.51563 z m 8.01562,4.76562 V 246.96353 H 205 v 1.625 q 0.6875,-0.95313 1.53125,-1.42187 0.85937,-0.48438 2.07813,-0.48438 1.59374,0 2.8125,0.82812 1.21874,0.8125 1.84374,2.3125 0.625,1.5 0.625,3.28126 0,1.90624 -0.6875,3.4375 -0.6875,1.53124 -2,2.34374 -1.29687,0.8125 -2.73437,0.8125 -1.0625,0 -1.90625,-0.4375 -0.82812,-0.45312 -1.375,-1.14062 v 6.0625 z M 205,253.2604 q 0,2.40626 0.96875,3.5625 0.96875,1.14063 2.35937,1.14063 1.40626,0 2.40626,-1.1875 1,-1.1875 1,-3.6875 0,-2.375 -0.98438,-3.5625 -0.96875,-1.1875 -2.32812,-1.1875 -1.35938,0 -2.39063,1.26563 Q 205,250.85416 205,253.2604 Z m 12.07812,6.15626 v -17.1875 h 2.10938 v 6.17187 q 1.48438,-1.71875 3.73438,-1.71875 1.375,0 2.39062,0.54688 1.03125,0.54687 1.46875,1.51562 0.4375,0.95312 0.4375,2.78125 v 7.89063 h -2.10937 v -7.89063 q 0,-1.57813 -0.6875,-2.29687 -0.6875,-0.71876 -1.9375,-0.71876 -0.9375,0 -1.76563,0.48438 -0.82813,0.48438 -1.1875,1.3125 -0.34375,0.82812 -0.34375,2.29688 v 6.8125 z m 25.03126,5.04687 q -1.73438,-2.20313 -2.95313,-5.15625 -1.20313,-2.95312 -1.20313,-6.10938 0,-2.79687 0.90626,-5.34374 1.04687,-2.96876 3.25,-5.90626 h 1.51562 q -1.42188,2.4375 -1.875,3.46876 -0.71875,1.625 -1.125,3.375 -0.5,2.20312 -0.5,4.40624 0,5.64063 3.5,11.26563 z m 12.09374,-9.60937 2.07813,0.26562 q -0.34375,2.15625 -1.75,3.375 -1.39063,1.20312 -3.4375,1.20312 -2.54687,0 -4.10937,-1.67187 -1.54688,-1.67187 -1.54688,-4.78125 0,-2.01562 0.67188,-3.53125 0.67187,-1.51563 2.03124,-2.26563 1.35938,-0.76562 2.96876,-0.76562 2.03124,0 3.3125,1.03125 1.29687,1.03125 1.65624,2.90625 l -2.04687,0.32812 q -0.29687,-1.26562 -1.04687,-1.89062 -0.73438,-0.64062 -1.79688,-0.64062 -1.59375,0 -2.59375,1.15624 -0.98437,1.14063 -0.98437,3.60938 0,2.5 0.95312,3.64062 0.96875,1.14063 2.51562,1.14063 1.23438,0 2.0625,-0.76563 0.84376,-0.76562 1.0625,-2.34374 z m 12,3.03124 q -1.17187,0.98438 -2.26562,1.40626 -1.07812,0.40624 -2.3125,0.40624 -2.04688,0 -3.15625,-1 -1.09375,-1 -1.09375,-2.5625 0,-0.92187 0.40625,-1.67187 0.42187,-0.75 1.09375,-1.20313 0.67188,-0.46874 1.51562,-0.70312 0.625,-0.15625 1.875,-0.3125 2.5625,-0.3125 3.76563,-0.73438 0.0156,-0.42187 0.0156,-0.54687 0,-1.28125 -0.60938,-1.8125 -0.79688,-0.71875 -2.39062,-0.71875 -1.5,0 -2.20313,0.53125 -0.70313,0.51563 -1.04687,1.84375 l -2.0625,-0.28125 q 0.28124,-1.32813 0.92187,-2.14063 0.64063,-0.8125 1.85937,-1.25 1.21876,-0.45312 2.82813,-0.45312 1.59375,0 2.59375,0.375 1,0.375 1.46875,0.95312 0.46875,0.5625 0.65625,1.4375 0.0937,0.53126 0.0937,1.9375 v 2.8125 q 0,2.9375 0.14063,3.71876 0.14062,0.78124 0.53124,1.5 H 266.625 q -0.32812,-0.65626 -0.42188,-1.53126 z m -0.17187,-4.71874 q -1.15625,0.46874 -3.45313,0.79687 -1.29687,0.1875 -1.84374,0.42187 -0.53126,0.23438 -0.82813,0.6875 -0.28125,0.45313 -0.28125,1 0,0.84376 0.625,1.40626 0.64062,0.5625 1.875,0.5625 1.21875,0 2.17188,-0.53126 0.95312,-0.53124 1.39062,-1.45312 0.34375,-0.71875 0.34375,-2.10938 z m 5.04687,6.25 v -12.45313 h 1.90626 v 1.78125 q 1.375,-2.0625 3.95312,-2.0625 1.125,0 2.0625,0.40625 0.95312,0.40625 1.42188,1.0625 0.46874,0.65625 0.65624,1.5625 0.125,0.57813 0.125,2.04687 v 7.65626 h -2.10937 v -7.57813 q 0,-1.28125 -0.25,-1.92187 -0.25,-0.64063 -0.875,-1.01563 -0.625,-0.39063 -1.46875,-0.39063 -1.34375,0 -2.32812,0.85938 -0.98438,0.85938 -0.98438,3.25 v 6.79688 z m 13.21876,-6.21876 q 0,-3.46874 1.92187,-5.125 1.60937,-1.39062 3.92187,-1.39062 2.5625,0 4.1875,1.6875 1.625,1.6875 1.625,4.64062 0,2.40626 -0.71874,3.78126 -0.71876,1.375 -2.09376,2.14062 -1.375,0.76562 -3,0.76562 -2.625,0 -4.23437,-1.67187 -1.60937,-1.6875 -1.60937,-4.82813 z m 2.17187,0 q 0,2.39063 1.03125,3.57813 1.04688,1.1875 2.64062,1.1875 1.5625,0 2.60938,-1.1875 1.04688,-1.20313 1.04688,-3.65625 0,-2.3125 -1.0625,-3.5 -1.04688,-1.1875 -2.59376,-1.1875 -1.59374,0 -2.64062,1.1875 -1.03125,1.1875 -1.03125,3.57812 z m 11.60937,6.21876 v -12.45313 h 1.90626 v 1.78125 q 1.375,-2.0625 3.95312,-2.0625 1.125,0 2.0625,0.40625 0.95312,0.40625 1.42188,1.0625 0.46874,0.65625 0.65624,1.5625 0.125,0.57813 0.125,2.04687 v 7.65626 h -2.10937 v -7.57813 q 0,-1.28125 -0.25,-1.92187 -0.25,-0.64063 -0.875,-1.01563 -0.625,-0.39063 -1.46875,-0.39063 -1.34375,0 -2.32812,0.85938 -0.98438,0.85938 -0.98438,3.25 v 6.79688 z m 14.01563,-14.75 v -2.4375 h 2.10937 v 2.4375 z m 0,14.75 v -12.45313 h 2.10937 v 12.45313 z m 13.10937,-4.5625 2.07813,0.26562 q -0.34375,2.15625 -1.75,3.375 -1.39063,1.20312 -3.4375,1.20312 -2.54687,0 -4.10937,-1.67187 -1.54688,-1.67187 -1.54688,-4.78125 0,-2.01562 0.67188,-3.53125 0.67187,-1.51563 2.03124,-2.26563 1.35938,-0.76562 2.96876,-0.76562 2.03124,0 3.3125,1.03125 1.29687,1.03125 1.65624,2.90625 l -2.04687,0.32812 q -0.29687,-1.26562 -1.04687,-1.89062 -0.73438,-0.64062 -1.79688,-0.64062 -1.59375,0 -2.59375,1.15624 -0.98437,1.14063 -0.98437,3.60938 0,2.5 0.95312,3.64062 0.96875,1.14063 2.51562,1.14063 1.23438,0 2.0625,-0.76563 0.84376,-0.76562 1.0625,-2.34374 z m 12,3.03124 q -1.17187,0.98438 -2.26562,1.40626 -1.07812,0.40624 -2.3125,0.40624 -2.04688,0 -3.15625,-1 -1.09375,-1 -1.09375,-2.5625 0,-0.92187 0.40625,-1.67187 0.42187,-0.75 1.09375,-1.20313 0.67188,-0.46874 1.51562,-0.70312 0.625,-0.15625 1.875,-0.3125 2.5625,-0.3125 3.76563,-0.73438 0.0156,-0.42187 0.0156,-0.54687 0,-1.28125 -0.60938,-1.8125 -0.79688,-0.71875 -2.39062,-0.71875 -1.5,0 -2.20313,0.53125 -0.70313,0.51563 -1.04687,1.84375 l -2.0625,-0.28125 q 0.28124,-1.32813 0.92187,-2.14063 0.64063,-0.8125 1.85937,-1.25 1.21876,-0.45312 2.82813,-0.45312 1.59375,0 2.59375,0.375 1,0.375 1.46875,0.95312 0.46875,0.5625 0.65625,1.4375 0.0937,0.53126 0.0937,1.9375 v 2.8125 q 0,2.9375 0.14063,3.71876 0.14062,0.78124 0.53124,1.5 H 337.625 q -0.32812,-0.65626 -0.42188,-1.53126 z m -0.17187,-4.71874 q -1.15625,0.46874 -3.45313,0.79687 -1.29687,0.1875 -1.84374,0.42187 -0.53126,0.23438 -0.82813,0.6875 -0.28125,0.45313 -0.28125,1 0,0.84376 0.625,1.40626 0.64062,0.5625 1.875,0.5625 1.21875,0 2.17188,-0.53126 0.95312,-0.53124 1.39062,-1.45312 0.34375,-0.71875 0.34375,-2.10938 z m 5,6.25 v -17.1875 h 2.10937 v 17.1875 z m 7.4375,5.04687 h -1.51563 q 3.5,-5.625 3.5,-11.26563 0,-2.20312 -0.5,-4.35937 -0.39062,-1.76563 -1.10937,-3.375 -0.45313,-1.0625 -1.89063,-3.51563 h 1.51563 q 2.20313,2.9375 3.25,5.90626 0.90625,2.54687 0.90625,5.34374 0,3.15626 -1.21875,6.10938 -1.20313,2.95312 -2.9375,5.15625 z"
         fill-rule="nonzero"
         id="path2318" />
    </g>
  </g>
  <path
     fill="#757575"
     d="M25.284374 51.05L25.284374 29.58125L29.55 29.58125L34.64375 44.784374Q35.346874 46.909374 35.659374 47.95625Q36.034374 46.784374 36.8 44.51875L41.940624 29.58125L45.76875 29.58125L45.76875 51.05L43.034374 51.05L43.034374 33.08125L36.784374 51.05L34.221874 51.05L28.01875 32.76875L28.01875 51.05L25.284374 51.05ZM60.175 49.128124Q58.721874 50.378124 57.3625 50.89375Q56.003124 51.409374 54.45625 51.409374Q51.89375 51.409374 50.503124 50.159374Q49.128124 48.89375 49.128124 46.940624Q49.128124 45.8 49.64375 44.8625Q50.175 43.909374 51.01875 43.346874Q51.8625 42.76875 52.909374 42.4875Q53.690624 42.26875 55.253124 42.08125Q58.45625 41.70625 59.95625 41.175Q59.971874 40.628124 59.971874 40.4875Q59.971874 38.878124 59.221874 38.221874Q58.221874 37.33125 56.221874 37.33125Q54.3625 37.33125 53.471874 37.9875Q52.596874 38.628124 52.159374 40.284374L49.58125 39.925Q49.940624 38.26875 50.7375 37.253124Q51.55 36.2375 53.065624 35.690624Q54.596874 35.14375 56.6125 35.14375Q58.596874 35.14375 59.83125 35.6125Q61.08125 36.08125 61.659374 36.8Q62.253124 37.503124 62.4875 38.58125Q62.628124 39.253124 62.628124 41.01875L62.628124 44.534374Q62.628124 48.20625 62.784374 49.190624Q62.95625 50.159374 63.45625 51.05L60.70625 51.05Q60.3 50.221874 60.175 49.128124ZM59.95625 43.2375Q58.51875 43.83125 55.659374 44.2375Q54.034374 44.471874 53.346874 44.76875Q52.675 45.065624 52.3 45.628124Q51.940624 46.190624 51.940624 46.878124Q51.940624 47.925 52.7375 48.628124Q53.55 49.33125 55.08125 49.33125Q56.6125 49.33125 57.784374 48.675Q58.971874 48.003124 59.534374 46.846874Q59.95625 45.95625 59.95625 44.20625L59.95625 43.2375ZM76.175 45.346874L78.76875 45.690624Q78.34688 48.3625 76.59688 49.89375Q74.84688 51.409374 72.3 51.409374Q69.09688 51.409374 67.15938 49.315624Q65.22188 47.221874 65.22188 43.33125Q65.22188 40.815624 66.05 38.925Q66.89375 37.034374 68.59688 36.096874Q70.3 35.14375 72.31563 35.14375Q74.84688 35.14375 76.45625 36.425Q78.06563 37.70625 78.51875 40.065624L75.95625 40.45625Q75.59688 38.89375 74.65938 38.1125Q73.7375 37.315624 72.40938 37.315624Q70.425 37.315624 69.175 38.7375Q67.925 40.159374 67.925 43.253124Q67.925 46.39375 69.12813 47.815624Q70.33125 49.2375 72.26875 49.2375Q73.81563 49.2375 74.84688 48.284374Q75.89375 47.33125 76.175 45.346874ZM81.00313 51.05L81.00313 35.4875L83.37813 35.4875L83.37813 37.846874Q84.28438 36.190624 85.05 35.675Q85.81563 35.14375 86.7375 35.14375Q88.08125 35.14375 89.45625 35.9875L88.55 38.440624Q87.58125 37.8625 86.6125 37.8625Q85.7375 37.8625 85.05 38.39375Q84.3625 38.909374 84.08125 39.83125Q83.62813 41.2375 83.62813 42.909374L83.62813 51.05L81.00313 51.05ZM90.05 43.26875Q90.05 38.95625 92.45625 36.8625Q94.45625 35.14375 97.34688 35.14375Q100.55 35.14375 102.58125 37.253124Q104.62813 39.346874 104.62813 43.05Q104.62813 46.05 103.72188 47.784374Q102.81563 49.503124 101.09688 50.45625Q99.37813 51.409374 97.34688 51.409374Q94.08125 51.409374 92.06563 49.315624Q90.05 47.20625 90.05 43.26875ZM92.75313 43.26875Q92.75313 46.253124 94.05 47.753124Q95.3625 49.2375 97.34688 49.2375Q99.3 49.2375 100.59688 47.7375Q101.90938 46.2375 101.90938 43.190624Q101.90938 40.3 100.59688 38.815624Q99.28438 37.33125 97.34688 37.33125Q95.3625 37.33125 94.05 38.815624Q92.75313 40.284374 92.75313 43.26875ZM115.51875 51.05L115.51875 29.58125L130.00313 29.58125L130.00313 32.1125L118.34688 32.1125L118.34688 38.753124L128.425 38.753124L128.425 41.3L118.34688 41.3L118.34688 51.05L115.51875 51.05ZM142.22188 51.05L139.59688 51.05L139.59688 34.253124Q138.64375 35.159374 137.09688 36.065624Q135.55 36.971874 134.31563 37.425L134.31563 34.878124Q136.53438 33.83125 138.19063 32.3625Q139.84688 30.878124 140.53438 29.4875L142.22188 29.4875L142.22188 51.05ZM156.97188 46.409374L159.58125 46.003124Q159.8 47.565624 160.8 48.409374Q161.8 49.2375 163.6125 49.2375Q165.425 49.2375 166.3 48.503124Q167.19063 47.753124 167.19063 46.753124Q167.19063 45.8625 166.40938 45.346874Q165.8625 45.003124 163.70625 44.45625Q160.81563 43.721874 159.69063 43.190624Q158.56563 42.659374 157.9875 41.721874Q157.40938 40.76875 157.40938 39.628124Q157.40938 38.58125 157.87813 37.70625Q158.3625 36.815624 159.19063 36.221874Q159.8 35.76875 160.8625 35.45625Q161.925 35.14375 163.14375 35.14375Q164.97188 35.14375 166.34688 35.675Q167.7375 36.190624 168.39375 37.096874Q169.06563 38.003124 169.3 39.503124L166.72188 39.8625Q166.55 38.659374 165.70625 37.9875Q164.8625 37.315624 163.33125 37.315624Q161.51875 37.315624 160.7375 37.909374Q159.95625 38.503124 159.95625 39.315624Q159.95625 39.83125 160.28438 40.2375Q160.6125 40.659374 161.3 40.940624Q161.69063 41.08125 163.62813 41.6125Q166.425 42.3625 167.51875 42.846874Q168.62813 43.315624 169.25313 44.221874Q169.89375 45.128124 169.89375 46.471874Q169.89375 47.8 169.12813 48.971874Q168.3625 50.128124 166.90938 50.76875Q165.45625 51.409374 163.62813 51.409374Q160.59688 51.409374 159.00313 50.14375Q157.40938 48.878124 156.97188 46.409374ZM183.175 45.346874L185.76875 45.690624Q185.34688 48.3625 183.59688 49.89375Q181.84688 51.409374 179.3 51.409374Q176.09688 51.409374 174.15938 49.315624Q172.22188 47.221874 172.22188 43.33125Q172.22188 40.815624 173.05 38.925Q173.89375 37.034374 175.59688 36.096874Q177.3 35.14375 179.31563 35.14375Q181.84688 35.14375 183.45625 36.425Q185.06563 37.70625 185.51875 40.065624L182.95625 40.45625Q182.59688 38.89375 181.65938 38.1125Q180.7375 37.315624 179.40938 37.315624Q177.425 37.315624 176.175 38.7375Q174.925 40.159374 174.925 43.253124Q174.925 46.39375 176.12813 47.815624Q177.33125 49.2375 179.26875 49.2375Q180.81563 49.2375 181.84688 48.284374Q182.89375 47.33125 183.175 45.346874ZM187.05 43.26875Q187.05 38.95625 189.45625 36.8625Q191.45625 35.14375 194.34688 35.14375Q197.55 35.14375 199.58125 37.253124Q201.62813 39.346874 201.62813 43.05Q201.62813 46.05 200.72188 47.784374Q199.81563 49.503124 198.09688 50.45625Q196.37813 51.409374 194.34688 51.409374Q191.08125 51.409374 189.06563 49.315624Q187.05 47.20625 187.05 43.26875ZM189.75313 43.26875Q189.75313 46.253124 191.05 47.753124Q192.3625 49.2375 194.34688 49.2375Q196.3 49.2375 197.59688 47.7375Q198.90938 46.2375 198.90938 43.190624Q198.90938 40.3 197.59688 38.815624Q196.28438 37.33125 194.34688 37.33125Q192.3625 37.33125 191.05 38.815624Q189.75313 40.284374 189.75313 43.26875ZM204.00313 51.05L204.00313 35.4875L206.37813 35.4875L206.37813 37.846874Q207.28438 36.190624 208.05 35.675Q208.81563 35.14375 209.7375 35.14375Q211.08125 35.14375 212.45625 35.9875L211.55 38.440624Q210.58125 37.8625 209.6125 37.8625Q208.7375 37.8625 208.05 38.39375Q207.3625 38.909374 207.08125 39.83125Q206.62813 41.2375 206.62813 42.909374L206.62813 51.05L204.00313 51.05ZM224.675 46.034374L227.40938 46.378124Q226.75313 48.76875 225.00313 50.096874Q223.26875 51.409374 220.56563 51.409374Q217.14375 51.409374 215.14375 49.3Q213.14375 47.190624 213.14375 43.409374Q213.14375 39.471874 215.15938 37.315624Q217.19063 35.14375 220.40938 35.14375Q223.53438 35.14375 225.50313 37.26875Q227.4875 39.39375 227.4875 43.2375Q227.4875 43.471874 227.47188 43.940624L215.87813 43.940624Q216.01875 46.503124 217.31563 47.878124Q218.62813 49.2375 220.58125 49.2375Q222.01875 49.2375 223.05 48.471874Q224.08125 47.70625 224.675 46.034374ZM216.01875 41.784374L224.70625 41.784374Q224.53438 39.815624 223.70625 38.83125Q222.45625 37.315624 220.44063 37.315624Q218.62813 37.315624 217.39375 38.534374Q216.15938 39.7375 216.01875 41.784374ZM228.97188 46.409374L231.58125 46.003124Q231.8 47.565624 232.8 48.409374Q233.8 49.2375 235.6125 49.2375Q237.425 49.2375 238.3 48.503124Q239.19063 47.753124 239.19063 46.753124Q239.19063 45.8625 238.40938 45.346874Q237.8625 45.003124 235.70625 44.45625Q232.81563 43.721874 231.69063 43.190624Q230.56563 42.659374 229.9875 41.721874Q229.40938 40.76875 229.40938 39.628124Q229.40938 38.58125 229.87813 37.70625Q230.3625 36.815624 231.19063 36.221874Q231.8 35.76875 232.8625 35.45625Q233.925 35.14375 235.14375 35.14375Q236.97188 35.14375 238.34688 35.675Q239.7375 36.190624 240.39375 37.096874Q241.06563 38.003124 241.3 39.503124L238.72188 39.8625Q238.55 38.659374 237.70625 37.9875Q236.8625 37.315624 235.33125 37.315624Q233.51875 37.315624 232.7375 37.909374Q231.95625 38.503124 231.95625 39.315624Q231.95625 39.83125 232.28438 40.2375Q232.6125 40.659374 233.3 40.940624Q233.69063 41.08125 235.62813 41.6125Q238.425 42.3625 239.51875 42.846874Q240.62813 43.315624 241.25313 44.221874Q241.89375 45.128124 241.89375 46.471874Q241.89375 47.8 241.12813 48.971874Q240.3625 50.128124 238.90938 50.76875Q237.45625 51.409374 235.62813 51.409374Q232.59688 51.409374 231.00313 50.14375Q229.40938 48.878124 228.97188 46.409374ZM252.05 43.26875Q252.05 38.95625 254.45625 36.8625Q256.45624 35.14375 259.34686 35.14375Q262.55 35.14375 264.58124 37.253124Q266.6281 39.346874 266.6281 43.05Q266.6281 46.05 265.72186 47.784374Q264.8156 49.503124 263.09686 50.45625Q261.3781 51.409374 259.34686 51.409374Q256.08124 51.409374 254.06563 49.315624Q252.05 47.20625 252.05 43.26875ZM254.75313 43.26875Q254.75313 46.253124 256.05 47.753124Q257.3625 49.2375 259.34686 49.2375Q261.3 49.2375 262.59686 47.7375Q263.90936 46.2375 263.90936 43.190624Q263.90936 40.3 262.59686 38.815624Q261.28436 37.33125 259.34686 37.33125Q257.3625 37.33125 256.05 38.815624Q254.75313 40.284374 254.75313 43.26875ZM269.65936 51.05L269.65936 37.55L267.33124 37.55L267.33124 35.4875L269.65936 35.4875L269.65936 33.83125Q269.65936 32.26875 269.9406 31.503124Q270.3156 30.4875 271.26874 29.846874Q272.2375 29.20625 273.97186 29.20625Q275.08124 29.20625 276.425 29.471874L276.03436 31.76875Q275.20624 31.628124 274.47186 31.628124Q273.26874 31.628124 272.76874 32.14375Q272.28436 32.64375 272.28436 34.05L272.28436 35.4875L275.3156 35.4875L275.3156 37.55L272.28436 37.55L272.28436 51.05L269.65936 51.05ZM283.97186 46.409374L286.58124 46.003124Q286.8 47.565624 287.8 48.409374Q288.8 49.2375 290.6125 49.2375Q292.425 49.2375 293.3 48.503124Q294.1906 47.753124 294.1906 46.753124Q294.1906 45.8625 293.40936 45.346874Q292.8625 45.003124 290.70624 44.45625Q287.8156 43.721874 286.6906 43.190624Q285.5656 42.659374 284.9875 41.721874Q284.40936 40.76875 284.40936 39.628124Q284.40936 38.58125 284.8781 37.70625Q285.3625 36.815624 286.1906 36.221874Q286.8 35.76875 287.8625 35.45625Q288.925 35.14375 290.14374 35.14375Q291.97186 35.14375 293.34686 35.675Q294.7375 36.190624 295.39374 37.096874Q296.0656 38.003124 296.3 39.503124L293.72186 39.8625Q293.55 38.659374 292.70624 37.9875Q291.8625 37.315624 290.33124 37.315624Q288.51874 37.315624 287.7375 37.909374Q286.95624 38.503124 286.95624 39.315624Q286.95624 39.83125 287.28436 40.2375Q287.6125 40.659374 288.3 40.940624Q288.6906 41.08125 290.6281 41.6125Q293.425 42.3625 294.51874 42.846874Q295.6281 43.315624 296.2531 44.221874Q296.89374 45.128124 296.89374 46.471874Q296.89374 47.8 296.1281 48.971874Q295.3625 50.128124 293.90936 50.76875Q292.45624 51.409374 290.6281 51.409374Q287.59686 51.409374 286.0031 50.14375Q284.40936 48.878124 283.97186 46.409374ZM310.675 46.034374L313.40936 46.378124Q312.7531 48.76875 311.0031 50.096874Q309.26874 51.409374 306.5656 51.409374Q303.14374 51.409374 301.14374 49.3Q299.14374 47.190624 299.14374 43.409374Q299.14374 39.471874 301.15936 37.315624Q303.1906 35.14375 306.40936 35.14375Q309.53436 35.14375 311.5031 37.26875Q313.4875 39.39375 313.4875 43.2375Q313.4875 43.471874 313.47186 43.940624L301.8781 43.940624Q302.01874 46.503124 303.3156 47.878124Q304.6281 49.2375 306.58124 49.2375Q308.01874 49.2375 309.05 48.471874Q310.08124 47.70625 310.675 46.034374ZM302.01874 41.784374L310.70624 41.784374Q310.53436 39.815624 309.70624 38.83125Q308.45624 37.315624 306.4406 37.315624Q304.6281 37.315624 303.39374 38.534374Q302.15936 39.7375 302.01874 41.784374ZM315.97186 51.05L315.97186 29.58125L318.6125 29.58125L318.6125 51.05L315.97186 51.05ZM333.675 46.034374L336.40936 46.378124Q335.7531 48.76875 334.0031 50.096874Q332.26874 51.409374 329.5656 51.409374Q326.14374 51.409374 324.14374 49.3Q322.14374 47.190624 322.14374 43.409374Q322.14374 39.471874 324.15936 37.315624Q326.1906 35.14375 329.40936 35.14375Q332.53436 35.14375 334.5031 37.26875Q336.4875 39.39375 336.4875 43.2375Q336.4875 43.471874 336.47186 43.940624L324.8781 43.940624Q325.01874 46.503124 326.3156 47.878124Q327.6281 49.2375 329.58124 49.2375Q331.01874 49.2375 332.05 48.471874Q333.08124 47.70625 333.675 46.034374ZM325.01874 41.784374L333.70624 41.784374Q333.53436 39.815624 332.70624 38.83125Q331.45624 37.315624 329.4406 37.315624Q327.6281 37.315624 326.39374 38.534374Q325.15936 39.7375 325.01874 41.784374ZM349.175 45.346874L351.76874 45.690624Q351.34686 48.3625 349.59686 49.89375Q347.84686 51.409374 345.3 51.409374Q342.09686 51.409374 340.15936 49.315624Q338.22186 47.221874 338.22186 43.33125Q338.22186 40.815624 339.05 38.925Q339.89374 37.034374 341.59686 36.096874Q343.3 35.14375 345.3156 35.14375Q347.84686 35.14375 349.45624 36.425Q351.0656 37.70625 351.51874 40.065624L348.95624 40.45625Q348.59686 38.89375 347.65936 38.1125Q346.7375 37.315624 345.40936 37.315624Q343.425 37.315624 342.175 38.7375Q340.925 40.159374 340.925 43.253124Q340.925 46.39375 342.1281 47.815624Q343.33124 49.2375 345.26874 49.2375Q346.8156 49.2375 347.84686 48.284374Q348.89374 47.33125 349.175 45.346874ZM359.78436 48.690624L360.15936 51.01875Q359.05 51.253124 358.175 51.253124Q356.7375 51.253124 355.9406 50.8Q355.15936 50.346874 354.83124 49.6125Q354.51874 48.8625 354.51874 46.4875L354.51874 37.55L352.58124 37.55L352.58124 35.4875L354.51874 35.4875L354.51874 31.64375L357.1281 30.065624L357.1281 35.4875L359.78436 35.4875L359.78436 37.55L357.1281 37.55L357.1281 46.64375Q357.1281 47.76875 357.26874 48.096874Q357.40936 48.409374 357.72186 48.6125Q358.03436 48.8 358.6281 48.8Q359.0656 48.8 359.78436 48.690624ZM372.675 46.034374L375.40936 46.378124Q374.7531 48.76875 373.0031 50.096874Q371.26874 51.409374 368.5656 51.409374Q365.14374 51.409374 363.14374 49.3Q361.14374 47.190624 361.14374 43.409374Q361.14374 39.471874 363.15936 37.315624Q365.1906 35.14375 368.40936 35.14375Q371.53436 35.14375 373.5031 37.26875Q375.4875 39.39375 375.4875 43.2375Q375.4875 43.471874 375.47186 43.940624L363.8781 43.940624Q364.01874 46.503124 365.3156 47.878124Q366.6281 49.2375 368.58124 49.2375Q370.01874 49.2375 371.05 48.471874Q372.08124 47.70625 372.675 46.034374ZM364.01874 41.784374L372.70624 41.784374Q372.53436 39.815624 371.70624 38.83125Q370.45624 37.315624 368.4406 37.315624Q366.6281 37.315624 365.39374 38.534374Q364.15936 39.7375 364.01874 41.784374ZM388.1281 51.05L388.1281 49.08125Q386.64374 51.409374 383.76874 51.409374Q381.90936 51.409374 380.34686 50.378124Q378.78436 49.346874 377.925 47.51875Q377.08124 45.675 377.08124 43.284374Q377.08124 40.95625 377.84686 39.065624Q378.6281 37.159374 380.175 36.159374Q381.7375 35.14375 383.65936 35.14375Q385.0656 35.14375 386.15936 35.7375Q387.2531 36.33125 387.9406 37.284374L387.9406 29.58125L390.5656 29.58125L390.5656 51.05L388.1281 51.05ZM379.78436 43.284374Q379.78436 46.26875 381.03436 47.753124Q382.3 49.2375 384.01874 49.2375Q385.7531 49.2375 386.95624 47.83125Q388.15936 46.409374 388.15936 43.503124Q388.15936 40.315624 386.925 38.83125Q385.70624 37.33125 383.90936 37.33125Q382.14374 37.33125 380.95624 38.76875Q379.78436 40.190624 379.78436 43.284374Z"
     fill-rule="nonzero"
     id="path2320" />
  <path
     fill="#757575"
     d="M25.034374 87.05L25.034374 71.4875L27.39375 71.4875L27.39375 73.675Q28.1125 72.53438 29.33125 71.84688Q30.55 71.14375 32.096874 71.14375Q33.83125 71.14375 34.940624 71.8625Q36.05 72.58125 36.503124 73.8625Q38.346874 71.14375 41.3 71.14375Q43.6125 71.14375 44.8625 72.425Q46.1125 73.70625 46.1125 76.37813L46.1125 87.05L43.4875 87.05L43.4875 77.25313Q43.4875 75.675 43.221874 74.97188Q42.971874 74.26875 42.3 73.84688Q41.628124 73.425 40.721874 73.425Q39.08125 73.425 37.9875 74.51875Q36.909374 75.6125 36.909374 78.01875L36.909374 87.05L34.26875 87.05L34.26875 76.94063Q34.26875 75.19063 33.628124 74.31563Q32.9875 73.425 31.51875 73.425Q30.409374 73.425 29.45625 74.01875Q28.51875 74.59688 28.08125 75.72188Q27.659374 76.84688 27.659374 78.97188L27.659374 87.05L25.034374 87.05ZM49.05 79.26875Q49.05 74.95625 51.45625 72.8625Q53.45625 71.14375 56.346874 71.14375Q59.55 71.14375 61.58125 73.25313Q63.628124 75.34688 63.628124 79.05Q63.628124 82.05 62.721874 83.78438Q61.815624 85.50313 60.096874 86.45625Q58.378124 87.40938 56.346874 87.40938Q53.08125 87.40938 51.065624 85.31563Q49.05 83.20625 49.05 79.26875ZM51.753124 79.26875Q51.753124 82.25313 53.05 83.75313Q54.3625 85.2375 56.346874 85.2375Q58.3 85.2375 59.596874 83.7375Q60.909374 82.2375 60.909374 79.19063Q60.909374 76.3 59.596874 74.81563Q58.284374 73.33125 56.346874 73.33125Q54.3625 73.33125 53.05 74.81563Q51.753124 76.28438 51.753124 79.26875ZM76.12813 87.05L76.12813 85.08125Q74.64375 87.40938 71.76875 87.40938Q69.90938 87.40938 68.34688 86.37813Q66.78438 85.34688 65.925 83.51875Q65.08125 81.675 65.08125 79.28438Q65.08125 76.95625 65.84688 75.06563Q66.62813 73.15938 68.175 72.15938Q69.7375 71.14375 71.65938 71.14375Q73.06563 71.14375 74.15938 71.7375Q75.25313 72.33125 75.94063 73.28438L75.94063 65.58125L78.56563 65.58125L78.56563 87.05L76.12813 87.05ZM67.78438 79.28438Q67.78438 82.26875 69.03438 83.75313Q70.3 85.2375 72.01875 85.2375Q73.75313 85.2375 74.95625 83.83125Q76.15938 82.40938 76.15938 79.50313Q76.15938 76.31563 74.925 74.83125Q73.70625 73.33125 71.90938 73.33125Q70.14375 73.33125 68.95625 74.76875Q67.78438 76.19063 67.78438 79.28438ZM93.675 82.03438L96.40938 82.37813Q95.75313 84.76875 94.00313 86.09688Q92.26875 87.40938 89.56563 87.40938Q86.14375 87.40938 84.14375 85.3Q82.14375 83.19063 82.14375 79.40938Q82.14375 75.47188 84.15938 73.31563Q86.19063 71.14375 89.40938 71.14375Q92.53438 71.14375 94.50313 73.26875Q96.4875 75.39375 96.4875 79.2375Q96.4875 79.47188 96.47188 79.94063L84.87813 79.94063Q85.01875 82.50313 86.31563 83.87813Q87.62813 85.2375 89.58125 85.2375Q91.01875 85.2375 92.05 84.47188Q93.08125 83.70625 93.675 82.03438ZM85.01875 77.78438L93.70625 77.78438Q93.53438 75.81563 92.70625 74.83125Q91.45625 73.31563 89.44063 73.31563Q87.62813 73.31563 86.39375 74.53438Q85.15938 75.7375 85.01875 77.78438ZM98.97188 87.05L98.97188 65.58125L101.6125 65.58125L101.6125 87.05L98.97188 87.05ZM104.97188 82.40938L107.58125 82.00313Q107.8 83.56563 108.8 84.40938Q109.8 85.2375 111.6125 85.2375Q113.425 85.2375 114.3 84.50313Q115.19063 83.75313 115.19063 82.75313Q115.19063 81.8625 114.40938 81.34688Q113.8625 81.00313 111.70625 80.45625Q108.81563 79.72188 107.69063 79.19063Q106.56563 78.65938 105.9875 77.72188Q105.40938 76.76875 105.40938 75.62813Q105.40938 74.58125 105.87813 73.70625Q106.3625 72.81563 107.19063 72.22188Q107.8 71.76875 108.8625 71.45625Q109.925 71.14375 111.14375 71.14375Q112.97188 71.14375 114.34688 71.675Q115.7375 72.19063 116.39375 73.09688Q117.06563 74.00313 117.3 75.50313L114.72188 75.8625Q114.55 74.65938 113.70625 73.9875Q112.8625 73.31563 111.33125 73.31563Q109.51875 73.31563 108.7375 73.90938Q107.95625 74.50313 107.95625 75.31563Q107.95625 75.83125 108.28438 76.2375Q108.6125 76.65938 109.3 76.94063Q109.69063 77.08125 111.62813 77.6125Q114.425 78.3625 115.51875 78.84688Q116.62813 79.31563 117.25313 80.22188Q117.89375 81.12813 117.89375 82.47188Q117.89375 83.8 117.12813 84.97188Q116.3625 86.12813 114.90938 86.76875Q113.45625 87.40938 111.62813 87.40938Q108.59688 87.40938 107.00313 86.14375Q105.40938 84.87813 104.97188 82.40938Z"
     fill-rule="nonzero"
     id="path2322" />
  <text
     xml:space="preserve"
     style="font-size:21.3333px;line-height:1.25;font-family:sans-serif;-inkscape-font-specification:sans-serif;letter-spacing:0px;word-spacing:0px;fill:#000000"
     x="142.66432"
     y="299.45068"
     id="text4034"
     transform="rotate(24.344064)"><tspan
       sodipodi:role="line"
       id="tspan4032"
       x="142.66432"
       y="299.45068"
       style="font-size:21.3333px">IsiNdebele</tspan></text>
  <text
     xml:space="preserve"
     style="font-size:21.3333px;line-height:1.25;font-family:sans-serif;-inkscape-font-specification:sans-serif;letter-spacing:0px;word-spacing:0px;fill:#000000"
     x="235.50101"
     y="438.21591"
     id="text4034-8"
     transform="rotate(24.344064)"><tspan
       sodipodi:role="line"
       id="tspan4032-9"
       x="235.50101"
       y="438.21591"
       style="font-size:21.3333px">SiSwati</tspan></text>
  <text
     xml:space="preserve"
     style="font-size:21.3333px;line-height:1.25;font-family:sans-serif;-inkscape-font-specification:sans-serif;letter-spacing:0px;word-spacing:0px;fill:#000000"
     x="286.81705"
     y="571.06201"
     id="text4034-7"
     transform="rotate(24.344064)"><tspan
       sodipodi:role="line"
       id="tspan4032-7"
       x="286.81705"
       y="571.06201"
       style="font-size:21.3333px">IsiXhosa</tspan></text>
  <text
     xml:space="preserve"
     style="font-size:21.3333px;line-height:1.25;font-family:sans-serif;-inkscape-font-specification:sans-serif;letter-spacing:0px;word-spacing:0px;fill:#000000"
     x="368.6402"
     y="712.84698"
     id="text4034-7-6"
     transform="rotate(24.344064)"><tspan
       sodipodi:role="line"
       id="tspan4032-7-4"
       x="368.6402"
       y="712.84698"
       style="font-size:21.3333px">IsiZulu</tspan></text>
</svg>
