<?xml version="1.0" encoding="UTF-8" standalone="no"?>
<svg
   version="1.1"
   viewBox="0 0 925.38104 491.58859"
   fill="none"
   stroke="none"
   stroke-linecap="square"
   stroke-miterlimit="10"
   width="925.38104"
   height="491.58859"
   id="svg17164"
   sodipodi:docname="graph-horizontal.svg"
   inkscape:version="1.1.2 (0a00cf5339, 2022-02-04)"
   xmlns:inkscape="http://www.inkscape.org/namespaces/inkscape"
   xmlns:sodipodi="http://sodipodi.sourceforge.net/DTD/sodipodi-0.dtd"
   xmlns="http://www.w3.org/2000/svg"
   xmlns:svg="http://www.w3.org/2000/svg">
  <defs
     id="defs17168" />
  <sodipodi:namedview
     id="namedview17166"
     pagecolor="#ffffff"
     bordercolor="#666666"
     borderopacity="1.0"
     inkscape:pageshadow="2"
     inkscape:pageopacity="0.0"
     inkscape:pagecheckerboard="0"
     showgrid="false"
     inkscape:zoom="0.90509668"
     inkscape:cx="370.12621"
     inkscape:cy="139.21165"
     inkscape:window-width="1920"
     inkscape:window-height="1011"
     inkscape:window-x="0"
     inkscape:window-y="32"
     inkscape:window-maximized="1"
     inkscape:current-layer="svg17164" />
  <path
     stroke="#333333"
     stroke-width="1"
     stroke-linecap="butt"
     d="m 135.5,412.5 h 760"
     fill-rule="nonzero"
     id="path17039" />
  <path
     stroke="#cccccc"
     stroke-width="1"
     stroke-linecap="butt"
     d="m 135.5,351.5 h 760"
     fill-rule="nonzero"
     id="path17041" />
  <path
     stroke="#cccccc"
     stroke-width="1"
     stroke-linecap="butt"
     d="m 135.5,291.5 h 760"
     fill-rule="nonzero"
     id="path17043" />
  <path
     stroke="#cccccc"
     stroke-width="1"
     stroke-linecap="butt"
     d="m 135.5,231.5 h 760"
     fill-rule="nonzero"
     id="path17045" />
  <path
     stroke="#cccccc"
     stroke-width="1"
     stroke-linecap="butt"
     d="m 135.5,170.5 h 760"
     fill-rule="nonzero"
     id="path17047" />
  <clipPath
     id="id_0">
    <path
       d="m 135.55,170.61667 h 759.9 V 412.45 h -759.9 z"
       clip-rule="nonzero"
       id="path17049" />
  </clipPath>
  <path
     stroke="#000000"
     stroke-width="2"
     stroke-linecap="butt"
     stroke-opacity="0"
     clip-path="url(#id_0)"
     d="M 218,412 H 197 V 249 c 0,-1.10457 0.89543,-2 2,-2 h 17 c 1.10457,0 2,0.89543 2,2 z"
     fill-rule="nonzero"
     id="path17052" />
  <path
     fill="#4285f4"
     clip-path="url(#id_0)"
     d="M 218,412 H 197 V 249 c 0,-1.10457 0.89543,-2 2,-2 h 17 c 1.10457,0 2,0.89543 2,2 z"
     fill-rule="nonzero"
     id="path17054" />
  <path
     stroke="#000000"
     stroke-width="2"
     stroke-linecap="butt"
     stroke-opacity="0"
     clip-path="url(#id_0)"
     d="M 393,412 H 372 V 251 c 0,-1.10457 0.89542,-2 2,-2 h 17 c 1.10458,0 2,0.89543 2,2 z"
     fill-rule="nonzero"
     id="path17056" />
  <path
     fill="#4285f4"
     clip-path="url(#id_0)"
     d="M 393,412 H 372 V 251 c 0,-1.10457 0.89542,-2 2,-2 h 17 c 1.10458,0 2,0.89543 2,2 z"
     fill-rule="nonzero"
     id="path17058" />
  <path
     stroke="#000000"
     stroke-width="2"
     stroke-linecap="butt"
     stroke-opacity="0"
     clip-path="url(#id_0)"
     d="M 568,412 H 547 V 217 c 0,-1.10457 0.89545,-2 2,-2 h 17 c 1.10455,0 2,0.89543 2,2 z"
     fill-rule="nonzero"
     id="path17060" />
  <path
     fill="#4285f4"
     clip-path="url(#id_0)"
     d="M 568,412 H 547 V 217 c 0,-1.10457 0.89545,-2 2,-2 h 17 c 1.10455,0 2,0.89543 2,2 z"
     fill-rule="nonzero"
     id="path17062" />
  <path
     stroke="#000000"
     stroke-width="2"
     stroke-linecap="butt"
     stroke-opacity="0"
     clip-path="url(#id_0)"
     d="M 743,412 H 722 V 247 c 0,-1.10457 0.89545,-2 2,-2 h 17 c 1.10455,0 2,0.89543 2,2 z"
     fill-rule="nonzero"
     id="path17064" />
  <path
     fill="#4285f4"
     clip-path="url(#id_0)"
     d="M 743,412 H 722 V 247 c 0,-1.10457 0.89545,-2 2,-2 h 17 c 1.10455,0 2,0.89543 2,2 z"
     fill-rule="nonzero"
     id="path17066" />
  <path
     stroke="#000000"
     stroke-width="2"
     stroke-linecap="butt"
     stroke-dasharray="8, 6"
     clip-path="url(#id_0)"
     d="M 241,412 H 220 V 268 c 0,-1.10458 0.89543,-2 2,-2 h 17 c 1.10457,0 2,0.89542 2,2 z"
     fill-rule="nonzero"
     id="path17068" />
  <path
     fill="#6d9eeb"
     clip-path="url(#id_0)"
     d="M 241,412 H 220 V 268 c 0,-1.10458 0.89543,-2 2,-2 h 17 c 1.10457,0 2,0.89542 2,2 z"
     fill-rule="nonzero"
     id="path17070" />
  <path
     stroke="#000000"
     stroke-width="2"
     stroke-linecap="butt"
     stroke-dasharray="8, 6"
     clip-path="url(#id_0)"
     d="m 416,412 h -21 v -70 c 0,-1.10458 0.89542,-2 2,-2 h 17 c 1.10458,0 2,0.89542 2,2 z"
     fill-rule="nonzero"
     id="path17072" />
  <path
     fill="#6d9eeb"
     clip-path="url(#id_0)"
     d="m 416,412 h -21 v -70 c 0,-1.10458 0.89542,-2 2,-2 h 17 c 1.10458,0 2,0.89542 2,2 z"
     fill-rule="nonzero"
     id="path17074" />
  <path
     stroke="#000000"
     stroke-width="2"
     stroke-linecap="butt"
     stroke-dasharray="8, 6"
     clip-path="url(#id_0)"
     d="M 591,412 H 570 V 254 c 0,-1.10457 0.89545,-2 2,-2 h 17 c 1.10455,0 2,0.89543 2,2 z"
     fill-rule="nonzero"
     id="path17076" />
  <path
     fill="#6d9eeb"
     clip-path="url(#id_0)"
     d="M 591,412 H 570 V 254 c 0,-1.10457 0.89545,-2 2,-2 h 17 c 1.10455,0 2,0.89543 2,2 z"
     fill-rule="nonzero"
     id="path17078" />
  <path
     stroke="#000000"
     stroke-width="2"
     stroke-linecap="butt"
     stroke-dasharray="8, 6"
     clip-path="url(#id_0)"
     d="M 766,412 H 745 V 279 c 0,-1.10458 0.89545,-2 2,-2 h 17 c 1.10455,0 2,0.89542 2,2 z"
     fill-rule="nonzero"
     id="path17080" />
  <path
     fill="#6d9eeb"
     clip-path="url(#id_0)"
     d="M 766,412 H 745 V 279 c 0,-1.10458 0.89545,-2 2,-2 h 17 c 1.10455,0 2,0.89542 2,2 z"
     fill-rule="nonzero"
     id="path17082" />
  <path
     stroke="#000000"
     stroke-width="2"
     stroke-linecap="butt"
     stroke-opacity="0"
     clip-path="url(#id_0)"
     d="M 264,412 H 243 V 238 c 0,-1.10457 0.89543,-2 2,-2 h 17 c 1.10458,0 2,0.89543 2,2 z"
     fill-rule="nonzero"
     id="path17084" />
  <path
     fill="#ea4335"
     clip-path="url(#id_0)"
     d="M 264,412 H 243 V 238 c 0,-1.10457 0.89543,-2 2,-2 h 17 c 1.10458,0 2,0.89543 2,2 z"
     fill-rule="nonzero"
     id="path17086" />
  <path
     stroke="#000000"
     stroke-width="2"
     stroke-linecap="butt"
     stroke-opacity="0"
     clip-path="url(#id_0)"
     d="M 439,412 H 418 V 239 c 0,-1.10457 0.89542,-2 2,-2 h 17 c 1.10458,0 2,0.89543 2,2 z"
     fill-rule="nonzero"
     id="path17088" />
  <path
     fill="#ea4335"
     clip-path="url(#id_0)"
     d="M 439,412 H 418 V 239 c 0,-1.10457 0.89542,-2 2,-2 h 17 c 1.10458,0 2,0.89543 2,2 z"
     fill-rule="nonzero"
     id="path17090" />
  <path
     stroke="#000000"
     stroke-width="2"
     stroke-linecap="butt"
     stroke-opacity="0"
     clip-path="url(#id_0)"
     d="M 614,412 H 593 V 198 c 0,-1.10457 0.89545,-2 2,-2 h 17 c 1.10455,0 2,0.89543 2,2 z"
     fill-rule="nonzero"
     id="path17092" />
  <path
     fill="#ea4335"
     clip-path="url(#id_0)"
     d="M 614,412 H 593 V 198 c 0,-1.10457 0.89545,-2 2,-2 h 17 c 1.10455,0 2,0.89543 2,2 z"
     fill-rule="nonzero"
     id="path17094" />
  <path
     stroke="#000000"
     stroke-width="2"
     stroke-linecap="butt"
     stroke-opacity="0"
     clip-path="url(#id_0)"
     d="M 789,412 H 768 V 233 c 0,-1.10457 0.89545,-2 2,-2 h 17 c 1.10455,0 2,0.89543 2,2 z"
     fill-rule="nonzero"
     id="path17096" />
  <path
     fill="#ea4335"
     clip-path="url(#id_0)"
     d="M 789,412 H 768 V 233 c 0,-1.10457 0.89545,-2 2,-2 h 17 c 1.10455,0 2,0.89543 2,2 z"
     fill-rule="nonzero"
     id="path17098" />
  <path
     stroke="#000000"
     stroke-width="2"
     stroke-linecap="butt"
     stroke-dasharray="8, 6"
     clip-path="url(#id_0)"
     d="M 287,412 H 266 V 251 c 0,-1.10457 0.89542,-2 2,-2 h 17 c 1.10458,0 2,0.89543 2,2 z"
     fill-rule="nonzero"
     id="path17100" />
  <path
     fill="#e06666"
     clip-path="url(#id_0)"
     d="M 287,412 H 266 V 251 c 0,-1.10457 0.89542,-2 2,-2 h 17 c 1.10458,0 2,0.89543 2,2 z"
     fill-rule="nonzero"
     id="path17102" />
  <path
     stroke="#000000"
     stroke-width="2"
     stroke-linecap="butt"
     stroke-dasharray="8, 6"
     clip-path="url(#id_0)"
     d="M 462,412 H 441 V 255 c 0,-1.10457 0.89542,-2 2,-2 h 17 c 1.10458,0 2,0.89543 2,2 z"
     fill-rule="nonzero"
     id="path17104" />
  <path
     fill="#e06666"
     clip-path="url(#id_0)"
     d="M 462,412 H 441 V 255 c 0,-1.10457 0.89542,-2 2,-2 h 17 c 1.10458,0 2,0.89543 2,2 z"
     fill-rule="nonzero"
     id="path17106" />
  <path
     stroke="#000000"
     stroke-width="2"
     stroke-linecap="butt"
     stroke-dasharray="8, 6"
     clip-path="url(#id_0)"
     d="M 637,412 H 616 V 211 c 0,-1.10457 0.89545,-2 2,-2 h 17 c 1.10455,0 2,0.89543 2,2 z"
     fill-rule="nonzero"
     id="path17108" />
  <path
     fill="#e06666"
     clip-path="url(#id_0)"
     d="M 637,412 H 616 V 211 c 0,-1.10457 0.89545,-2 2,-2 h 17 c 1.10455,0 2,0.89543 2,2 z"
     fill-rule="nonzero"
     id="path17110" />
  <path
     stroke="#000000"
     stroke-width="2"
     stroke-linecap="butt"
     stroke-dasharray="8, 6"
     clip-path="url(#id_0)"
     d="M 812,412 H 791 V 247 c 0,-1.10457 0.89545,-2 2,-2 h 17 c 1.10455,0 2,0.89543 2,2 z"
     fill-rule="nonzero"
     id="path17112" />
  <path
     fill="#e06666"
     clip-path="url(#id_0)"
     d="M 812,412 H 791 V 247 c 0,-1.10457 0.89545,-2 2,-2 h 17 c 1.10455,0 2,0.89543 2,2 z"
     fill-rule="nonzero"
     id="path17114" />
  <path
     stroke="#000000"
     stroke-width="2"
     stroke-linecap="butt"
     stroke-opacity="0"
     clip-path="url(#id_0)"
     d="M 835,412 H 814 V 312 c 0,-1.10458 0.89545,-2 2,-2 h 17 c 1.10455,0 2,0.89542 2,2 z"
     fill-rule="nonzero"
     id="path17116" />
  <path
     fill="#fbbc04"
     clip-path="url(#id_0)"
     d="M 835,412 H 814 V 312 c 0,-1.10458 0.89545,-2 2,-2 h 17 c 1.10455,0 2,0.89542 2,2 z"
     fill-rule="nonzero"
     id="path17118" />
  <path
     fill="#000000"
     d="M 56.55001,373.29895 H 35.08126 v -4.26562 l 15.203126,-5.09375 q 2.125,-0.70313 3.171874,-1.01563 -1.171874,-0.375 -3.4375,-1.14062 l -14.9375,-5.14063 v -3.82812 h 21.46875 v 2.73437 H 38.58126 l 17.96875,6.25 v 2.5625 l -18.28125,6.20313 h 18.28125 z m -1.921874,-34.89062 q 1.25,1.45312 1.765624,2.8125 0.515626,1.35937 0.515626,2.90625 0,2.5625 -1.25,3.95312 -1.265626,1.375 -3.21875,1.375 -1.140626,0 -2.078126,-0.51562 -0.953124,-0.53125 -1.515624,-1.375 -0.578126,-0.84375 -0.859376,-1.89063 -0.21875,-0.78125 -0.40625,-2.34375 -0.375,-3.20312 -0.90625,-4.70312 -0.546874,-0.0156 -0.6875,-0.0156 -1.609374,0 -2.265624,0.75 -0.890626,1 -0.890626,3 0,1.85938 0.65625,2.75 0.640626,0.875 2.296876,1.3125 l -0.359376,2.57813 q -1.65625,-0.35938 -2.671874,-1.15625 -1.015626,-0.8125 -1.5625,-2.32813 -0.546876,-1.53125 -0.546876,-3.54687 0,-1.98438 0.46875,-3.21875 0.46875,-1.25 1.1875,-1.82813 0.703126,-0.59375 1.78125,-0.82812 0.671876,-0.14063 2.4375,-0.14063 h 3.515626 q 3.671874,0 4.65625,-0.15625 0.96875,-0.17187 1.859374,-0.67187 v 2.75 q -0.828124,0.40625 -1.921874,0.53125 z m -5.890626,0.21875 q 0.59375,1.4375 1,4.29687 0.234376,1.625 0.53125,2.3125 0.296876,0.67188 0.859376,1.04688 0.5625,0.35937 1.25,0.35937 1.046874,0 1.75,-0.79687 0.703124,-0.8125 0.703124,-2.34375 0,-1.53125 -0.65625,-2.70313 -0.671874,-1.1875 -1.828124,-1.75 -0.890626,-0.42187 -2.640626,-0.42187 z m 2.109376,-16.21875 0.34375,-2.59375 q 2.671874,0.42187 4.203124,2.17187 1.515626,1.75 1.515626,4.29688 0,3.20312 -2.09375,5.14062 -2.09375,1.9375 -5.984376,1.9375 -2.515624,0 -4.40625,-0.82812 -1.890624,-0.84375 -2.828124,-2.54688 -0.953126,-1.70312 -0.953126,-3.71875 0,-2.53125 1.28125,-4.14062 1.28125,-1.60938 3.640626,-2.0625 l 0.390624,2.5625 q -1.5625,0.35937 -2.34375,1.29687 -0.796874,0.92188 -0.796874,2.25 0,1.98438 1.421874,3.23438 1.421876,1.25 4.515626,1.25 3.140624,0 4.5625,-1.20313 1.421874,-1.20312 1.421874,-3.14062 0,-1.54688 -0.953124,-2.57813 -0.953126,-1.04687 -2.9375,-1.32812 z m 5.703124,-4.82813 h -15.5625 v -2.375 h 2.359376 q -1.65625,-0.90625 -2.171876,-1.67187 -0.53125,-0.76563 -0.53125,-1.6875 0,-1.34375 0.84375,-2.71875 l 2.453126,0.90625 q -0.578126,0.96875 -0.578126,1.9375 0,0.875 0.53125,1.5625 0.515626,0.6875 1.4375,0.96875 1.40625,0.45312 3.078126,0.45312 h 8.140624 z m -7.78125,-9.04687 q -4.3125,0 -6.40625,-2.40625 -1.71875,-2 -1.71875,-4.89063 0,-3.20312 2.109376,-5.23437 2.09375,-2.04688 5.796874,-2.04688 3,0 4.734376,0.90625 1.71875,0.90625 2.671874,2.625 0.953126,1.71875 0.953126,3.75 0,3.26563 -2.09375,5.28125 -2.109376,2.01563 -6.046876,2.01563 z m 0,-2.70313 q 2.984376,0 4.484376,-1.29687 1.484374,-1.3125 1.484374,-3.29688 0,-1.95312 -1.5,-3.25 -1.5,-1.3125 -4.546874,-1.3125 -2.890626,0 -4.375,1.3125 -1.484376,1.3125 -1.484376,3.25 0,1.98438 1.484376,3.29688 1.46875,1.29687 4.453124,1.29687 z m 7.78125,-22.76562 H 35.08126 V 268.5802 h 2.53125 v 11.65625 h 6.640626 v -10.07812 h 2.546874 v 10.07812 h 9.75 z m 0,-26.70313 v 2.625 H 39.753136 q 0.90625,0.95313 1.8125,2.5 0.90625,1.54688 1.359374,2.78125 h -2.546874 q -1.046876,-2.21875 -2.515626,-3.875 -1.484374,-1.65625 -2.875,-2.34375 v -1.6875 z"
     fill-rule="nonzero"
     id="path17122" />
  <path
     fill="#000000"
     d="m 113.05,412.21564 q 0,-1.53124 0.3125,-2.45314 0.3125,-0.9375 0.92188,-1.4375 0.625,-0.5 1.5625,-0.5 0.6875,0 1.20312,0.28126 0.53125,0.28124 0.875,0.8125 0.34375,0.51564 0.53125,1.26564 0.1875,0.75 0.1875,2.03124 0,1.51562 -0.3125,2.4375 -0.29687,0.92186 -0.92187,1.4375 -0.60938,0.5 -1.5625,0.5 -1.23438,0 -1.95313,-0.89064 -0.84375,-1.0625 -0.84375,-3.48436 z m 1.07813,0 q 0,2.10936 0.5,2.8125 0.5,0.70312 1.21875,0.70312 0.73437,0 1.21875,-0.70312 0.5,-0.70314 0.5,-2.8125 0,-2.125 -0.5,-2.8125 -0.48438,-0.70314 -1.23438,-0.70314 -0.71875,0 -1.15625,0.6094 -0.54687,0.78124 -0.54687,2.90624 z m 6.51562,4.23436 v -1.2031 h 1.20313 v 1.2031 z m 2.40625,-4.23436 q 0,-1.53124 0.3125,-2.45314 0.3125,-0.9375 0.92188,-1.4375 0.625,-0.5 1.5625,-0.5 0.6875,0 1.20312,0.28126 0.53125,0.28124 0.875,0.8125 0.34375,0.51564 0.53125,1.26564 0.1875,0.75 0.1875,2.03124 0,1.51562 -0.3125,2.4375 -0.29687,0.92186 -0.92187,1.4375 -0.60938,0.5 -1.5625,0.5 -1.23438,0 -1.95313,-0.89064 -0.84375,-1.0625 -0.84375,-3.48436 z m 1.07813,0 q 0,2.10936 0.5,2.8125 0.5,0.70312 1.21875,0.70312 0.73437,0 1.21875,-0.70312 0.5,-0.70314 0.5,-2.8125 0,-2.125 -0.5,-2.8125 -0.48438,-0.70314 -1.23438,-0.70314 -0.71875,0 -1.15625,0.6094 -0.54687,0.78124 -0.54687,2.90624 z"
     fill-rule="nonzero"
     id="path17124" />
  <path
     fill="#000000"
     d="m 113.05,351.7573 q 0,-1.53126 0.3125,-2.45313 0.3125,-0.9375 0.92188,-1.4375 0.625,-0.5 1.5625,-0.5 0.6875,0 1.20312,0.28125 0.53125,0.28125 0.875,0.8125 0.34375,0.51562 0.53125,1.26562 0.1875,0.75 0.1875,2.03126 0,1.51562 -0.3125,2.4375 -0.29687,0.92187 -0.92187,1.4375 -0.60938,0.5 -1.5625,0.5 -1.23438,0 -1.95313,-0.89063 -0.84375,-1.0625 -0.84375,-3.48437 z m 1.07813,0 q 0,2.10937 0.5,2.8125 0.5,0.70312 1.21875,0.70312 0.73437,0 1.21875,-0.70312 0.5,-0.70313 0.5,-2.8125 0,-2.125 -0.5,-2.8125 -0.48438,-0.70313 -1.23438,-0.70313 -0.71875,0 -1.15625,0.60937 -0.54687,0.78126 -0.54687,2.90626 z m 6.51562,4.23437 v -1.20313 h 1.20313 v 1.20313 z m 7.95313,-1.01563 v 1.01563 h -5.6875 q 0,-0.375 0.125,-0.73437 0.21875,-0.57813 0.6875,-1.14063 0.48437,-0.5625 1.39062,-1.29687 1.40625,-1.15626 1.89063,-1.82813 0.5,-0.67187 0.5,-1.26563 0,-0.625 -0.45313,-1.04687 -0.45312,-0.4375 -1.17187,-0.4375 -0.76563,0 -1.21875,0.45313 -0.45313,0.45312 -0.46875,1.26562 l -1.07813,-0.10938 q 0.10938,-1.21874 0.82813,-1.84374 0.73437,-0.64063 1.96875,-0.64063 1.23437,0 1.95312,0.6875 0.71875,0.6875 0.71875,1.70313 0,0.51562 -0.21875,1.01562 -0.20312,0.48438 -0.70312,1.04688 -0.48438,0.54687 -1.60938,1.5 -0.95312,0.79687 -1.23437,1.09374 -0.26563,0.28126 -0.4375,0.5625 z"
     fill-rule="nonzero"
     id="path17126" />
  <path
     fill="#000000"
     d="m 113.05,291.29895 q 0,-1.53125 0.3125,-2.45312 0.3125,-0.9375 0.92188,-1.4375 0.625,-0.5 1.5625,-0.5 0.6875,0 1.20312,0.28125 0.53125,0.28125 0.875,0.8125 0.34375,0.51562 0.53125,1.26562 0.1875,0.75 0.1875,2.03125 0,1.51563 -0.3125,2.4375 -0.29687,0.92188 -0.92187,1.4375 -0.60938,0.5 -1.5625,0.5 -1.23438,0 -1.95313,-0.89062 -0.84375,-1.0625 -0.84375,-3.48438 z m 1.07813,0 q 0,2.10938 0.5,2.8125 0.5,0.70313 1.21875,0.70313 0.73437,0 1.21875,-0.70313 0.5,-0.70312 0.5,-2.8125 0,-2.125 -0.5,-2.8125 -0.48438,-0.70312 -1.23438,-0.70312 -0.71875,0 -1.15625,0.60937 -0.54687,0.78125 -0.54687,2.90625 z m 6.51562,4.23438 v -1.20313 h 1.20313 v 1.20313 z m 5.78125,0 v -2.0625 h -3.71875 v -0.96875 l 3.92188,-5.5625 h 0.85937 v 5.5625 h 1.15625 v 0.96875 h -1.15625 v 2.0625 z m 0,-3.03125 v -3.85938 l -2.6875,3.85938 z"
     fill-rule="nonzero"
     id="path17128" />
  <path
     fill="#000000"
     d="m 113.05,230.84062 q 0,-1.53125 0.3125,-2.45312 0.3125,-0.9375 0.92188,-1.4375 0.625,-0.5 1.5625,-0.5 0.6875,0 1.20312,0.28125 0.53125,0.28125 0.875,0.8125 0.34375,0.51562 0.53125,1.26562 0.1875,0.75 0.1875,2.03125 0,1.51563 -0.3125,2.4375 -0.29687,0.92188 -0.92187,1.4375 -0.60938,0.5 -1.5625,0.5 -1.23438,0 -1.95313,-0.89062 -0.84375,-1.0625 -0.84375,-3.48438 z m 1.07813,0 q 0,2.10938 0.5,2.8125 0.5,0.70313 1.21875,0.70313 0.73437,0 1.21875,-0.70313 0.5,-0.70312 0.5,-2.8125 0,-2.125 -0.5,-2.8125 -0.48438,-0.70312 -1.23438,-0.70312 -0.71875,0 -1.15625,0.60937 -0.54687,0.78125 -0.54687,2.90625 z m 6.51562,4.23438 v -1.20313 h 1.20313 v 1.20313 z m 7.875,-6.48438 -1.04687,0.0781 q -0.14063,-0.625 -0.39063,-0.90625 -0.4375,-0.45313 -1.0625,-0.45313 -0.5,0 -0.89062,0.28125 -0.48438,0.375 -0.78125,1.07813 -0.28125,0.6875 -0.29688,1.96875 0.375,-0.57813 0.92188,-0.85938 0.5625,-0.28125 1.17187,-0.28125 1.04688,0 1.78125,0.78125 0.75,0.78125 0.75,2 0,0.8125 -0.35937,1.51563 -0.34375,0.6875 -0.95313,1.0625 -0.60937,0.35937 -1.375,0.35937 -1.32812,0 -2.15625,-0.96875 -0.82812,-0.96875 -0.82812,-3.1875 0,-2.5 0.92187,-3.625 0.79688,-0.98437 2.15625,-0.98437 1.01563,0 1.65625,0.57812 0.65625,0.5625 0.78125,1.5625 z m -4.29687,3.70313 q 0,0.54687 0.21875,1.04687 0.23437,0.48438 0.64062,0.75 0.42188,0.26563 0.89063,0.26563 0.65625,0 1.14062,-0.53125 0.48438,-0.54688 0.48438,-1.46875 0,-0.89063 -0.48438,-1.40625 -0.46875,-0.51563 -1.1875,-0.51563 -0.71875,0 -1.21875,0.51563 -0.48437,0.51562 -0.48437,1.34375 z"
     fill-rule="nonzero"
     id="path17130" />
  <path
     fill="#000000"
     d="m 113.05,170.3823 q 0,-1.53126 0.3125,-2.45313 0.3125,-0.9375 0.92188,-1.4375 0.625,-0.5 1.5625,-0.5 0.6875,0 1.20312,0.28125 0.53125,0.28125 0.875,0.8125 0.34375,0.51562 0.53125,1.26562 0.1875,0.75 0.1875,2.03126 0,1.51562 -0.3125,2.4375 -0.29687,0.92187 -0.92187,1.4375 -0.60938,0.5 -1.5625,0.5 -1.23438,0 -1.95313,-0.89063 -0.84375,-1.0625 -0.84375,-3.48437 z m 1.07813,0 q 0,2.10937 0.5,2.8125 0.5,0.70312 1.21875,0.70312 0.73437,0 1.21875,-0.70312 0.5,-0.70313 0.5,-2.8125 0,-2.125 -0.5,-2.8125 -0.48438,-0.70313 -1.23438,-0.70313 -0.71875,0 -1.15625,0.60937 -0.54687,0.78126 -0.54687,2.90626 z m 6.51562,4.23437 v -1.20313 h 1.20313 v 1.20313 z m 4.03125,-4.65625 q -0.65625,-0.25 -0.98437,-0.6875 -0.3125,-0.45312 -0.3125,-1.0625 0,-0.9375 0.67187,-1.57812 0.6875,-0.64063 1.79688,-0.64063 1.125,0 1.8125,0.65625 0.6875,0.65625 0.6875,1.59375 0,0.59375 -0.3125,1.03125 -0.3125,0.4375 -0.95313,0.6875 0.79688,0.25 1.20313,0.82812 0.40625,0.57813 0.40625,1.375 0,1.09376 -0.78125,1.84376 -0.76563,0.75 -2.04688,0.75 -1.26562,0 -2.04687,-0.75 -0.78125,-0.75 -0.78125,-1.875 0,-0.84376 0.42187,-1.40626 0.4375,-0.5625 1.21875,-0.76562 z m -0.21875,-1.79688 q 0,0.60938 0.39063,1 0.40625,0.39063 1.03125,0.39063 0.60937,0 1,-0.375 0.39062,-0.39063 0.39062,-0.95313 0,-0.57812 -0.40625,-0.96874 -0.40625,-0.40626 -1,-0.40626 -0.60937,0 -1.01562,0.39063 -0.39063,0.39063 -0.39063,0.92187 z m -0.32812,3.96876 q 0,0.45312 0.20312,0.875 0.21875,0.42187 0.64063,0.65624 0.42187,0.23438 0.90625,0.23438 0.75,0 1.23437,-0.48438 0.5,-0.48437 0.5,-1.23437 0,-0.76563 -0.5,-1.26563 -0.5,-0.5 -1.26562,-0.5 -0.75,0 -1.23438,0.5 -0.48437,0.48438 -0.48437,1.21876 z"
     fill-rule="nonzero"
     id="path17132" />
  <path
     fill="#000000"
     d="m 186.26239,455.45 v -21.46874 h 2.84375 V 455.45 Z m 5.125,-4.6406 2.60938,-0.40626 q 0.21875,1.5625 1.21875,2.40626 1,0.8281 2.8125,0.8281 1.8125,0 2.6875,-0.73436 0.89062,-0.75 0.89062,-1.75 0,-0.89064 -0.78125,-1.40624 -0.54687,-0.34376 -2.70312,-0.89064 -2.89063,-0.73436 -4.01563,-1.26562 -1.125,-0.53124 -1.70312,-1.46874 -0.57813,-0.95314 -0.57813,-2.09376 0,-1.04688 0.46875,-1.92188 0.48438,-0.89062 1.3125,-1.48436 0.60938,-0.45314 1.67188,-0.76564 1.0625,-0.3125 2.28125,-0.3125 1.82812,0 3.20312,0.53124 1.39063,0.51564 2.04688,1.4219 0.67187,0.90624 0.90625,2.40624 l -2.57813,0.35936 q -0.17187,-1.2031 -1.01562,-1.875 -0.84375,-0.67186 -2.375,-0.67186 -1.8125,0 -2.59375,0.59376 -0.78125,0.59374 -0.78125,1.40624 0,0.51562 0.32812,0.92186 0.32813,0.4219 1.01563,0.70314 0.39062,0.14062 2.32812,0.67186 2.79688,0.75 3.89063,1.2344 1.10937,0.46874 1.73437,1.375 0.64063,0.90624 0.64063,2.25 0,1.3281 -0.76563,2.5 -0.76562,1.15624 -2.21875,1.79686 -1.45312,0.64064 -3.28125,0.64064 -3.03125,0 -4.625,-1.26564 -1.59375,-1.26562 -2.03125,-3.73436 z m 16.07813,-13.7969 v -3.03124 h 2.625 v 3.03124 z m 0,18.4375 v -15.5625 h 2.625 V 455.45 Z m 7.28125,0 v -21.46874 h 2.92187 l 11.28125,16.85938 v -16.85938 h 2.71875 V 455.45 h -2.90625 l -11.28125,-16.875 v 16.875 z m 31.79687,0 v -1.96874 q -1.48437,2.32814 -4.35937,2.32814 -1.85938,0 -3.42188,-1.03126 -1.5625,-1.03124 -2.42187,-2.85938 -0.84375,-1.84376 -0.84375,-4.23436 0,-2.32814 0.76562,-4.21876 0.78125,-1.90624 2.32813,-2.90624 1.5625,-1.01564 3.48437,-1.01564 1.40625,0 2.5,0.59374 1.09375,0.59376 1.78125,1.5469 v -7.70314 h 2.625 V 455.45 Z m -8.34375,-7.7656 q 0,2.98436 1.25,4.46874 1.26563,1.48436 2.98438,1.48436 1.73437,0 2.9375,-1.40624 1.20312,-1.42186 1.20312,-4.32812 0,-3.1875 -1.23437,-4.67188 -1.21875,-1.5 -3.01563,-1.5 -1.76562,0 -2.95312,1.4375 -1.17188,1.42188 -1.17188,4.51564 z m 25.89061,2.75 2.7344,0.34374 q -0.65626,2.39062 -2.40626,3.71876 -1.73437,1.3125 -4.4375,1.3125 -3.42187,0 -5.42187,-2.1094 -2,-2.10936 -2,-5.8906 0,-3.9375 2.01562,-6.09376 2.03125,-2.17188 5.25001,-2.17188 3.125,0 5.09374,2.125 1.98436,2.125 1.98436,5.96874 0,0.2344 -0.0156,0.70314 h -11.59376 q 0.14063,2.5625 1.4375,3.9375 1.3125,1.35936 3.26563,1.35936 1.4375,0 2.46873,-0.7656 1.03127,-0.76564 1.625,-2.4375 z m -8.65623,-4.25 h 8.6875 q -0.17187,-1.96876 -1,-2.95314 -1.25,-1.51562 -3.26563,-1.51562 -1.8125,0 -3.04687,1.21876 -1.23438,1.2031 -1.375,3.25 z m 16.4375,9.2656 h -2.4375 v -21.46874 h 2.625 v 7.65624 q 1.67187,-2.09374 4.26563,-2.09374 1.4375,0 2.71874,0.57814 1.28126,0.5781 2.10936,1.625 0.82814,1.04686 1.2969,2.53124 0.46874,1.46876 0.46874,3.15626 0,4 -1.98437,6.1875 -1.96877,2.1875 -4.73437,2.1875 -2.75,0 -4.32813,-2.3125 z m -0.0313,-7.8906 q 0,2.79686 0.76564,4.03124 1.25,2.04686 3.375,2.04686 1.71876,0 2.98436,-1.5 1.26564,-1.5 1.26564,-4.48436 0,-3.04688 -1.21874,-4.48438 -1.20313,-1.45312 -2.9219,-1.45312 -1.71873,0 -2.98436,1.5 -1.26564,1.5 -1.26564,4.34376 z m 25.25,2.875 2.7344,0.34374 q -0.65626,2.39062 -2.40626,3.71876 -1.73437,1.3125 -4.4375,1.3125 -3.42187,0 -5.42187,-2.1094 -2,-2.10936 -2,-5.8906 0,-3.9375 2.01563,-6.09376 2.03124,-2.17188 5.25,-2.17188 3.125,0 5.09374,2.125 1.98436,2.125 1.98436,5.96874 0,0.2344 -0.0156,0.70314 h -11.59376 q 0.14063,2.5625 1.4375,3.9375 1.3125,1.35936 3.26563,1.35936 1.4375,0 2.46873,-0.7656 1.03127,-0.76564 1.625,-2.4375 z m -8.65623,-4.25 h 8.6875 q -0.17187,-1.96876 -1,-2.95314 -1.25,-1.51562 -3.26563,-1.51562 -1.8125,0 -3.04687,1.21876 -1.23437,1.2031 -1.375,3.25 z m 13.95313,9.2656 v -21.46874 h 2.6406 V 455.45 Z m 17.7031,-5.0156 2.7344,0.34374 q -0.65626,2.39062 -2.40626,3.71876 -1.73437,1.3125 -4.4375,1.3125 -3.42187,0 -5.42187,-2.1094 -2,-2.10936 -2,-5.8906 0,-3.9375 2.01563,-6.09376 2.03124,-2.17188 5.25,-2.17188 3.125,0 5.09374,2.125 1.98436,2.125 1.98436,5.96874 0,0.2344 -0.0156,0.70314 h -11.59376 q 0.14063,2.5625 1.4375,3.9375 1.3125,1.35936 3.26563,1.35936 1.4375,0 2.46873,-0.7656 1.03127,-0.76564 1.625,-2.4375 z m -8.65623,-4.25 h 8.6875 q -0.17187,-1.96876 -1,-2.95314 -1.25,-1.51562 -3.26563,-1.51562 -1.8125,0 -3.04687,1.21876 -1.23437,1.2031 -1.375,3.25 z"
     fill-rule="nonzero"
     id="path17134" />
  <path
     fill="#000000"
     d="m 379.99893,448.54376 2.6875,-0.23436 q 0.1875,1.625 0.875,2.65624 0.70313,1.03126 2.17187,1.67186 1.46876,0.625 3.29688,0.625 1.625,0 2.85938,-0.48436 1.25,-0.48438 1.85937,-1.3125 0.60937,-0.84374 0.60937,-1.84374 0,-1.01564 -0.59374,-1.76564 -0.57813,-0.75 -1.92188,-1.26562 -0.875,-0.34374 -3.82812,-1.04688 -2.95313,-0.71876 -4.14063,-1.34376 -1.54687,-0.8125 -2.29687,-2 -0.75,-1.1875 -0.75,-2.67186 0,-1.625 0.92187,-3.03124 0.92187,-1.4219 2.6875,-2.15626 1.78125,-0.73438 3.95313,-0.73438 2.375,0 4.20312,0.78124 1.82812,0.76564 2.79688,2.26564 0.98437,1.48436 1.0625,3.375 l -2.71876,0.20312 q -0.21874,-2.03126 -1.5,-3.07812 -1.26562,-1.04688 -3.73437,-1.04688 -2.57813,0 -3.76563,0.95314 -1.17187,0.9375 -1.17187,2.28124 0,1.15626 0.84375,1.90626 0.8125,0.73436 4.26562,1.53124 3.46876,0.78126 4.76563,1.35936 1.875,0.875 2.76563,2.20314 0.89062,1.3125 0.89062,3.04686 0,1.71876 -0.98438,3.2344 -0.96874,1.5156 -2.8125,2.35936 -1.84374,0.82814 -4.14062,0.82814 -2.90625,0 -4.89062,-0.84376 -1.96876,-0.84374 -3.09376,-2.54688 -1.10937,-1.71876 -1.17187,-3.875 z m 20.65625,-11.53126 v -3.03124 h 2.625 v 3.03124 z m 0,18.4375 v -15.5625 h 2.625 V 455.45 Z m 6.34375,-6.90624 2.6875,-0.23436 q 0.1875,1.625 0.875,2.65624 0.70313,1.03126 2.17187,1.67186 1.46876,0.625 3.29688,0.625 1.625,0 2.85938,-0.48436 1.25,-0.48438 1.85937,-1.3125 0.60937,-0.84374 0.60937,-1.84374 0,-1.01564 -0.59374,-1.76564 -0.57813,-0.75 -1.92188,-1.26562 -0.875,-0.34374 -3.82812,-1.04688 -2.95313,-0.71876 -4.14063,-1.34376 -1.54687,-0.8125 -2.29687,-2 -0.75,-1.1875 -0.75,-2.67186 0,-1.625 0.92187,-3.03124 0.92187,-1.4219 2.6875,-2.15626 1.78125,-0.73438 3.95313,-0.73438 2.375,0 4.20312,0.78124 1.82812,0.76564 2.79688,2.26564 0.98437,1.48436 1.0625,3.375 l -2.71876,0.20312 q -0.21874,-2.03126 -1.5,-3.07812 -1.26562,-1.04688 -3.73437,-1.04688 -2.57813,0 -3.76563,0.95314 -1.17187,0.9375 -1.17187,2.28124 0,1.15626 0.84375,1.90626 0.8125,0.73436 4.26562,1.53124 3.46876,0.78126 4.76563,1.35936 1.875,0.875 2.76563,2.20314 0.89062,1.3125 0.89062,3.04686 0,1.71876 -0.98438,3.2344 -0.96874,1.5156 -2.8125,2.35936 -1.84374,0.82814 -4.14062,0.82814 -2.90625,0 -4.89062,-0.84376 -1.96876,-0.84374 -3.09376,-2.54688 -1.10937,-1.71876 -1.17187,-3.875 z m 23.5,6.90624 -4.75,-15.5625 h 2.71875 l 2.46875,8.9844 0.9375,3.34374 q 0.0469,-0.25 0.79687,-3.21874 l 2.48438,-9.1094 h 2.70312 l 2.32813,9.03126 0.78125,2.96874 0.89062,-3 2.67188,-9 h 2.5625 l -4.875,15.5625 h -2.73438 l -2.46874,-9.3125 -0.60938,-2.65624 -3.14062,11.96874 z m 28.28125,-1.92186 q -1.45312,1.25 -2.8125,1.76562 -1.35938,0.51564 -2.90625,0.51564 -2.5625,0 -3.95313,-1.25 -1.375,-1.26564 -1.375,-3.21876 0,-1.14064 0.51563,-2.07814 0.53125,-0.9531 1.375,-1.5156 0.84375,-0.57814 1.89063,-0.8594 0.78124,-0.21874 2.34374,-0.40624 3.20313,-0.375 4.70313,-0.90626 0.0156,-0.54686 0.0156,-0.6875 0,-1.60936 -0.75,-2.2656 -1,-0.89064 -3,-0.89064 -1.85938,0 -2.75,0.65624 -0.875,0.64064 -1.3125,2.2969 l -2.57813,-0.3594 q 0.35937,-1.65624 1.15625,-2.67186 0.8125,-1.01564 2.32812,-1.5625 1.53126,-0.54688 3.54688,-0.54688 1.98438,0 3.21875,0.46874 1.25,0.46876 1.82813,1.1875 0.59374,0.70314 0.82812,1.78126 0.14062,0.67188 0.14062,2.4375 v 3.51564 q 0,3.67186 0.15626,4.65624 0.17187,0.96876 0.67187,1.85936 h -2.75 q -0.40625,-0.8281 -0.53125,-1.92186 z m -0.21875,-5.89064 q -1.4375,0.59376 -4.29687,1 -1.625,0.2344 -2.3125,0.53126 -0.67188,0.29688 -1.04688,0.85938 -0.35938,0.5625 -0.35938,1.25 0,1.04686 0.79688,1.75 0.8125,0.70312 2.34375,0.70312 1.53125,0 2.70313,-0.65626 1.1875,-0.67186 1.75,-1.8281 0.42187,-0.89064 0.42187,-2.64064 z m 11.82813,5.45314 0.375,2.32812 q -1.10938,0.23438 -1.98438,0.23438 -1.4375,0 -2.23438,-0.45314 -0.78124,-0.4531 -1.10937,-1.1875 -0.3125,-0.75 -0.3125,-3.125 V 441.95 h -1.9375 v -2.0625 h 1.9375 v -3.84374 l 2.60937,-1.57812 v 5.42186 h 2.65626 v 2.0625 h -2.65626 v 9.09376 q 0,1.125 0.14063,1.45314 0.14063,0.3125 0.45313,0.5156 0.3125,0.1875 0.90624,0.1875 0.4375,0 1.15626,-0.10936 z m 2.26562,-16.07814 v -3.03124 h 2.625 v 3.03124 z m 0,18.4375 v -15.5625 h 2.625 V 455.45 Z"
     fill-rule="nonzero"
     id="path17136" />
  <path
     fill="#000000"
     d="m 549.6417,455.45 v -21.46874 h 2.8438 V 455.45 Z m 5.125,-4.6406 2.6094,-0.40626 q 0.21875,1.5625 1.21875,2.40626 1,0.8281 2.8125,0.8281 1.8125,0 2.6875,-0.73436 0.89065,-0.75 0.89065,-1.75 0,-0.89064 -0.7813,-1.40624 -0.54685,-0.34376 -2.7031,-0.89064 -2.8906,-0.73436 -4.0156,-1.26562 -1.125,-0.53124 -1.70315,-1.46874 -0.57815,-0.95314 -0.57815,-2.09376 0,-1.04688 0.4688,-1.92188 0.48435,-0.89062 1.3125,-1.48436 0.60935,-0.45314 1.67185,-0.76564 1.0625,-0.3125 2.28125,-0.3125 1.8281,0 3.2031,0.53124 1.39065,0.51564 2.0469,1.4219 0.6719,0.90624 0.90625,2.40624 l -2.57815,0.35936 q -0.17185,-1.2031 -1.0156,-1.875 -0.84375,-0.67186 -2.375,-0.67186 -1.8125,0 -2.59375,0.59376 -0.78125,0.59374 -0.78125,1.40624 0,0.51562 0.3281,0.92186 0.32815,0.4219 1.01565,0.70314 0.39065,0.14062 2.32815,0.67186 2.79685,0.75 3.8906,1.2344 1.1094,0.46874 1.7344,1.375 0.6406,0.90624 0.6406,2.25 0,1.3281 -0.7656,2.5 -0.76565,1.15624 -2.2188,1.79686 -1.4531,0.64064 -3.2812,0.64064 -3.0313,0 -4.625,-1.26564 -1.5938,-1.26562 -2.0313,-3.73436 z m 16.07815,-13.7969 v -3.03124 h 2.625 v 3.03124 z m 0,18.4375 v -15.5625 h 2.625 V 455.45 Z m 5.125,0 8.3125,-11.1875 -7.32815,-10.28124 h 3.39065 l 3.89065,5.5 q 1.2187,1.71874 1.73435,2.64064 0.71875,-1.1719 1.70315,-2.45314 l 4.3125,-5.6875 h 3.0937 l -7.54685,10.10938 8.125,11.35936 h -3.51565 l -5.3906,-7.65624 q -0.46875,-0.67186 -0.9375,-1.4375 -0.71875,1.17188 -1.03125,1.60938 L 579.3917,455.45 Z m 20.85935,0 v -21.46874 h 2.625 v 7.70314 q 1.8438,-2.14064 4.6563,-2.14064 1.73435,0 3,0.6875 1.2812,0.67188 1.8281,1.875 0.5625,1.20314 0.5625,3.48438 V 455.45 h -2.6406 v -9.85936 q 0,-1.98438 -0.8594,-2.875 -0.8594,-0.90624 -2.4219,-0.90624 -1.17185,0 -2.2031,0.60936 -1.03125,0.60938 -1.4844,1.65624 -0.4375,1.03126 -0.4375,2.8594 v 8.5156 z m 16.01565,-7.78124 q 0,-4.3125 2.40625,-6.40626 2,-1.71874 4.8906,-1.71874 3.20315,0 5.2344,2.10938 2.0469,2.09376 2.0469,5.79686 0,3 -0.9063,4.7344 -0.9062,1.71874 -2.625,2.67186 -1.7187,0.95314 -3.75,0.95314 -3.2656,0 -5.2812,-2.09376 -2.01565,-2.10938 -2.01565,-6.04688 z m 2.70315,0 q 0,2.98438 1.29685,4.48438 1.3125,1.48436 3.29685,1.48436 1.95315,0 3.25,-1.5 1.3125,-1.5 1.3125,-4.54686 0,-2.89064 -1.3125,-4.375 -1.3125,-1.48438 -3.25,-1.48438 -1.98435,0 -3.29685,1.48438 -1.29685,1.46876 -1.29685,4.45312 z m 13.2187,3.14064 2.6094,-0.40626 q 0.21875,1.5625 1.21875,2.40626 1,0.8281 2.8125,0.8281 1.8125,0 2.6875,-0.73436 0.89065,-0.75 0.89065,-1.75 0,-0.89064 -0.7813,-1.40624 -0.54685,-0.34376 -2.7031,-0.89064 -2.8906,-0.73436 -4.0156,-1.26562 -1.125,-0.53124 -1.70315,-1.46874 -0.57815,-0.95314 -0.57815,-2.09376 0,-1.04688 0.4688,-1.92188 0.48435,-0.89062 1.3125,-1.48436 0.60935,-0.45314 1.67185,-0.76564 1.0625,-0.3125 2.28125,-0.3125 1.8281,0 3.2031,0.53124 1.39065,0.51564 2.0469,1.4219 0.6719,0.90624 0.90625,2.40624 l -2.57815,0.35936 q -0.17185,-1.2031 -1.0156,-1.875 -0.84375,-0.67186 -2.375,-0.67186 -1.8125,0 -2.59375,0.59376 -0.78125,0.59374 -0.78125,1.40624 0,0.51562 0.3281,0.92186 0.32815,0.4219 1.01565,0.70314 0.39065,0.14062 2.32815,0.67186 2.79685,0.75 3.8906,1.2344 1.1094,0.46874 1.7344,1.375 0.6406,0.90624 0.6406,2.25 0,1.3281 -0.7656,2.5 -0.76565,1.15624 -2.2188,1.79686 -1.4531,0.64064 -3.2812,0.64064 -3.0313,0 -4.625,-1.26564 -1.5938,-1.26562 -2.0313,-3.73436 z m 26.20315,2.71874 q -1.45315,1.25 -2.8125,1.76562 -1.35935,0.51564 -2.90625,0.51564 -2.5625,0 -3.9531,-1.25 -1.375,-1.26564 -1.375,-3.21876 0,-1.14064 0.5156,-2.07814 0.53125,-0.9531 1.375,-1.5156 0.84375,-0.57814 1.8906,-0.8594 0.7813,-0.21874 2.3438,-0.40624 3.2031,-0.375 4.7031,-0.90626 0.0156,-0.54686 0.0156,-0.6875 0,-1.60936 -0.75,-2.2656 -1,-0.89064 -3,-0.89064 -1.85935,0 -2.75,0.65624 -0.875,0.64064 -1.3125,2.2969 l -2.5781,-0.3594 q 0.3594,-1.65624 1.15625,-2.67186 0.8125,-1.01564 2.32815,-1.5625 1.5312,-0.54688 3.54685,-0.54688 1.98435,0 3.21875,0.46874 1.25,0.46876 1.8281,1.1875 0.5938,0.70314 0.82815,1.78126 0.14065,0.67188 0.14065,2.4375 v 3.51564 q 0,3.67186 0.1562,4.65624 0.1719,0.96876 0.6719,1.85936 h -2.75 q -0.40625,-0.8281 -0.53125,-1.92186 z m -0.21875,-5.89064 q -1.4375,0.59376 -4.2969,1 -1.625,0.2344 -2.3125,0.53126 -0.67185,0.29688 -1.04685,0.85938 -0.35935,0.5625 -0.35935,1.25 0,1.04686 0.79685,1.75 0.8125,0.70312 2.34375,0.70312 1.53125,0 2.7031,-0.65626 1.1875,-0.67186 1.75,-1.8281 0.4219,-0.89064 0.4219,-2.64064 z"
     fill-rule="nonzero"
     id="path17138" />
  <path
     fill="#000000"
     d="m 736.33136,455.45 v -21.46874 h 2.84374 V 455.45 Z m 5.125,-4.6406 2.60937,-0.40626 q 0.21877,1.5625 1.21877,2.40626 1,0.8281 2.8125,0.8281 1.8125,0 2.6875,-0.73436 0.8906,-0.75 0.8906,-1.75 0,-0.89064 -0.78124,-1.40624 -0.54686,-0.34376 -2.70313,-0.89064 -2.89063,-0.73436 -4.01563,-1.26562 -1.125,-0.53124 -1.7031,-1.46874 -0.57814,-0.95314 -0.57814,-2.09376 0,-1.04688 0.46874,-1.92188 0.4844,-0.89062 1.3125,-1.48436 0.6094,-0.45314 1.6719,-0.76564 1.0625,-0.3125 2.28123,-0.3125 1.82813,0 3.20313,0.53124 1.39064,0.51564 2.04687,1.4219 0.67187,0.90624 0.90627,2.40624 l -2.57814,0.35936 q -0.17186,-1.2031 -1.01563,-1.875 -0.84373,-0.67186 -2.375,-0.67186 -1.8125,0 -2.59373,0.59376 -0.78127,0.59374 -0.78127,1.40624 0,0.51562 0.32813,0.92186 0.32814,0.4219 1.01564,0.70314 0.3906,0.14062 2.3281,0.67186 2.7969,0.75 3.89063,1.2344 1.10937,0.46874 1.73437,1.375 0.64063,0.90624 0.64063,2.25 0,1.3281 -0.76563,2.5 -0.7656,1.15624 -2.21874,1.79686 -1.45313,0.64064 -3.28126,0.64064 -3.03124,0 -4.625,-1.26564 -1.59374,-1.26562 -2.03124,-3.73436 z m 16.07814,-13.7969 v -3.03124 h 2.625 v 3.03124 z m 0,18.4375 v -15.5625 h 2.625 V 455.45 Z m 5.59373,0 v -2.6406 l 11.01563,-13.75 q 1.17187,-1.46876 2.21874,-2.5469 h -11.98437 v -2.53124 h 15.39063 v 2.53124 l -12.0625,14.89064 -1.29686,1.51562 h 13.7031 V 455.45 Z m 29.57813,0 v -2.28124 q -1.8125,2.64064 -4.9375,2.64064 -1.375,0 -2.57813,-0.53126 -1.1875,-0.53124 -1.76563,-1.32814 -0.5781,-0.79686 -0.8125,-1.9531 -0.15624,-0.78126 -0.15624,-2.46876 v -9.64064 h 2.64064 v 8.64064 q 0,2.0625 0.15623,2.78126 0.25,1.03124 1.04687,1.625 0.8125,0.59374 2,0.59374 1.1875,0 2.21876,-0.60938 1.04687,-0.60936 1.46874,-1.65626 0.4375,-1.04686 0.4375,-3.03124 v -8.34376 h 2.64063 V 455.45 Z m 6.75,0 V 433.98126 H 802.097 V 455.45 Z m 17.25,0 v -2.28124 q -1.8125,2.64064 -4.9375,2.64064 -1.375,0 -2.57813,-0.53126 -1.1875,-0.53124 -1.76563,-1.32814 -0.5781,-0.79686 -0.8125,-1.9531 -0.15624,-0.78126 -0.15624,-2.46876 v -9.64064 h 2.64064 v 8.64064 q 0,2.0625 0.15623,2.78126 0.25,1.03124 1.04687,1.625 0.8125,0.59374 2,0.59374 1.1875,0 2.21876,-0.60938 1.04687,-0.60936 1.46874,-1.65626 0.4375,-1.04686 0.4375,-3.03124 v -8.34376 h 2.64063 V 455.45 Z"
     fill-rule="nonzero"
     id="path17140" />
  <g
     id="g18232">
    <path
       fill="#4285f4"
       d="m 67.5,92.083336 c 0,-0.552286 0.447716,-1 1,-1 h 10 c 0.552284,0 1,0.447714 1,1 v 10.000004 c 0,0.55228 -0.447716,1 -1,1 h -10 c -0.552284,0 -1,-0.44772 -1,-1 z"
       fill-rule="nonzero"
       id="path17142" />
    <path
       fill="#1a1a1a"
       d="m 87.46875,105.58334 6.875,-17.89063 h 2.546875 l 7.328125,17.89063 h -2.70312 l -2.093755,-5.42188 H 91.9375 l -1.953125,5.42188 z M 92.625,98.239586 h 6.0625 l -1.859375,-4.96875 q -0.859375,-2.25 -1.265625,-3.703126 -0.34375,1.71875 -0.96875,3.421876 z m 14.04688,7.343754 V 94.333336 h -1.9375 v -1.71875 h 1.9375 v -1.375 q 0,-1.3125 0.23437,-1.9375 0.3125,-0.859376 1.10938,-1.390626 0.8125,-0.53125 2.25,-0.53125 0.92187,0 2.04687,0.21875 l -0.32812,1.921876 q -0.6875,-0.125 -1.29688,-0.125 -1,0 -1.42187,0.4375 -0.40625,0.421874 -0.40625,1.59375 v 1.1875 h 2.53125 v 1.71875 h -2.53125 v 11.250004 z m 6.45312,0 V 92.614586 h 1.96875 v 1.96875 q 0.76563,-1.375 1.40625,-1.8125 0.64063,-0.4375 1.40625,-0.4375 1.10938,0 2.26563,0.703124 l -0.76563,2.03125 q -0.79687,-0.46875 -1.60937,-0.46875 -0.71875,0 -1.29688,0.4375 -0.5625,0.421876 -0.8125,1.203126 -0.35937,1.171874 -0.35937,2.5625 v 6.781254 z m 7.20313,-6.48438 q 0,-3.59375 2,-5.328124 1.67187,-1.4375 4.07812,-1.4375 2.67187,0 4.35937,1.75 1.70313,1.75 1.70313,4.828124 0,2.51563 -0.75,3.95313 -0.75,1.42187 -2.1875,2.21875 -1.42187,0.79687 -3.125,0.79687 -2.71875,0 -4.40625,-1.75 -1.67187,-1.75 -1.67187,-5.03125 z m 2.26562,0 q 0,2.5 1.07813,3.73438 1.09375,1.23437 2.73437,1.23437 1.64063,0 2.71875,-1.23437 1.09375,-1.25 1.09375,-3.812504 0,-2.390626 -1.09375,-3.625 -1.09375,-1.25 -2.71875,-1.25 -1.64062,0 -2.73437,1.234374 -1.07813,1.234376 -1.07813,3.71875 z m 11.01563,6.48438 6.92187,-9.32813 -6.10937,-8.5625 H 137.25 l 3.25,4.578126 q 1.01562,1.4375 1.4375,2.203124 0.59375,-0.96875 1.40625,-2.03125 l 3.60937,-4.75 h 2.57813 l -6.29687,8.4375 6.78124,9.45313 h -2.92187 l -4.51563,-6.39063 q -0.375,-0.546874 -0.78124,-1.1875 -0.59376,0.96875 -0.84376,1.34375 l -4.5,6.23438 z m 18.71874,0 V 87.69271 h 2.375 v 15.78125 h 8.8125 v 2.10938 z m 14.03126,0 V 87.69271 h 3.5625 l 4.23437,12.67188 q 0.57813,1.76562 0.85937,2.64062 0.29688,-0.96875 0.95313,-2.85937 L 180.25,87.69271 h 3.1875 v 17.89063 h -2.28125 V 90.59896 l -5.20313,14.98438 h -2.14062 l -5.17188,-15.23438 v 15.23438 z m 21.10937,0 V 87.69271 h 7.9375 q 2.39063,0 3.625,0.484376 1.25,0.46875 1.98437,1.703124 0.75,1.21875 0.75,2.6875 0,1.90625 -1.23437,3.21875 -1.21875,1.296876 -3.79687,1.65625 0.9375,0.453126 1.42187,0.890626 1.04687,0.953124 1.96875,2.375004 l 3.10938,4.875 h -2.96876 l -2.375,-3.71875 q -1.03124,-1.60938 -1.70312,-2.468754 -0.67188,-0.859376 -1.20312,-1.203126 -0.53126,-0.34375 -1.07813,-0.46875 -0.40625,-0.09375 -1.32813,-0.09375 h -2.75 v 7.95313 z m 2.35937,-10.000004 h 5.09376 q 1.625,0 2.53124,-0.328126 0.92188,-0.34375 1.39063,-1.078124 0.48437,-0.734376 0.48437,-1.609376 0,-1.265624 -0.92187,-2.078124 Q 197.48438,89.66146 195.5,89.66146 h -5.67188 z m 26.51563,15.265624 q -1.8125,-2.29687 -3.07813,-5.375 -1.25,-3.07812 -1.25,-6.375 0,-2.90625 0.9375,-5.5625 1.09376,-3.09375 3.39063,-6.15625 h 1.57813 q -1.48438,2.546876 -1.95313,3.625 -0.75,1.6875 -1.17187,3.515626 -0.53126,2.28125 -0.53126,4.59375 0,5.875004 3.65626,11.734374 z m 12.26563,-10.01562 2.15624,0.28125 q -0.34374,2.23437 -1.8125,3.5 -1.45312,1.26562 -3.57812,1.26562 -2.65625,0 -4.28125,-1.73437 -1.60937,-1.75 -1.60937,-5.000004 0,-2.09375 0.6875,-3.671876 0.70312,-1.578124 2.125,-2.359374 1.42187,-0.78125 3.09374,-0.78125 2.10938,0 3.45313,1.0625 1.34375,1.0625 1.71875,3.03125 l -2.14062,0.328124 q -0.29688,-1.296874 -1.07813,-1.953124 -0.78125,-0.671876 -1.875,-0.671876 -1.65625,0 -2.70313,1.203126 -1.03124,1.1875 -1.03124,3.75 0,2.625004 1,3.812504 1,1.17187 2.60937,1.17187 1.29687,0 2.15625,-0.78125 0.875,-0.79687 1.10938,-2.45312 z m 13,3.15625 q -1.21876,1.03125 -2.35938,1.46875 -1.125,0.42187 -2.42188,0.42187 -2.125,0 -3.28124,-1.04687 -1.14063,-1.04688 -1.14063,-2.67188 0,-0.95312 0.42187,-1.73437 0.4375,-0.781254 1.14063,-1.250004 0.70313,-0.484376 1.57813,-0.734376 0.65624,-0.171874 1.95312,-0.328124 2.67188,-0.3125 3.92188,-0.765626 0.0156,-0.4375 0.0156,-0.5625 0,-1.34375 -0.625,-1.890624 -0.84375,-0.75 -2.5,-0.75 -1.54688,0 -2.29688,0.546874 -0.73437,0.53125 -1.07812,1.921876 l -2.15625,-0.296876 q 0.29687,-1.375 0.96875,-2.21875 0.67188,-0.859374 1.9375,-1.3125 1.26562,-0.453124 2.9375,-0.453124 1.67188,0 2.70312,0.390624 1.03126,0.390626 1.51563,0.984376 0.5,0.578124 0.6875,1.484374 0.10937,0.5625 0.10937,2.03125 v 2.92188 q 0,3.0625 0.14063,3.875 0.14063,0.8125 0.5625,1.5625 h -2.29687 q -0.34376,-0.6875 -0.4375,-1.59375 z m -0.1875,-4.906254 q -1.1875,0.484374 -3.59376,0.828124 -1.34374,0.1875 -1.90624,0.4375 -0.5625,0.23438 -0.875,0.71875 -0.29688,0.46875 -0.29688,1.03125 0,0.89063 0.65625,1.48438 0.67187,0.57812 1.95313,0.57812 1.26562,0 2.25,-0.5625 1,-0.5625 1.46874,-1.51562 0.34376,-0.75 0.34376,-2.20313 z m 5.71874,6.500004 V 92.614586 h 1.98438 v 1.84375 q 1.42188,-2.125 4.125,-2.125 1.17188,0 2.15625,0.421874 0.98437,0.40625 1.46875,1.09375 0.48438,0.6875 0.6875,1.625 0.125,0.609376 0.125,2.140626 v 7.968754 h -2.20312 v -7.89063 q 0,-1.34375 -0.26563,-2 -0.25,-0.671874 -0.90625,-1.0625 -0.64062,-0.40625 -1.53125,-0.40625 -1.39063,0 -2.42187,0.890626 -1.01563,0.890624 -1.01563,3.390624 v 7.07813 z m 13.1875,-6.48438 q 0,-3.59375 2,-5.328124 1.67188,-1.4375 4.07813,-1.4375 2.67187,0 4.35937,1.75 1.70313,1.75 1.70313,4.828124 0,2.51563 -0.75,3.95313 -0.75,1.42187 -2.1875,2.21875 -1.42187,0.79687 -3.125,0.79687 -2.71875,0 -4.40625,-1.75 -1.67188,-1.75 -1.67188,-5.03125 z m 2.26563,0 q 0,2.5 1.07813,3.73438 1.09374,1.23437 2.73437,1.23437 1.64063,0 2.71875,-1.23437 1.09375,-1.25 1.09375,-3.812504 0,-2.390626 -1.09375,-3.625 -1.09375,-1.25 -2.71875,-1.25 -1.64063,0 -2.73437,1.234374 -1.07813,1.234376 -1.07813,3.71875 z m 12.54687,6.48438 V 92.614586 h 1.98438 v 1.84375 q 1.42188,-2.125 4.125,-2.125 1.17188,0 2.15625,0.421874 0.98437,0.40625 1.46875,1.09375 0.48438,0.6875 0.6875,1.625 0.125,0.609376 0.125,2.140626 v 7.968754 h -2.20312 v -7.89063 q 0,-1.34375 -0.26563,-2 -0.25,-0.671874 -0.90625,-1.0625 -0.64062,-0.40625 -1.53125,-0.40625 -1.39063,0 -2.42187,0.890626 -1.01563,0.890624 -1.01563,3.390624 v 7.07813 z M 289.15625,90.208336 V 87.69271 h 2.20313 v 2.515626 z m 0,15.375004 V 92.614586 h 2.20313 v 12.968754 z m 14.45313,-4.75 2.15624,0.28125 q -0.34374,2.23437 -1.8125,3.5 -1.45312,1.26562 -3.57812,1.26562 -2.65625,0 -4.28125,-1.73437 -1.60937,-1.75 -1.60937,-5.000004 0,-2.09375 0.6875,-3.671876 0.70312,-1.578124 2.125,-2.359374 1.42187,-0.78125 3.09374,-0.78125 2.10938,0 3.45313,1.0625 1.34375,1.0625 1.71875,3.03125 l -2.14062,0.328124 q -0.29688,-1.296874 -1.07813,-1.953124 -0.78125,-0.671876 -1.875,-0.671876 -1.65625,0 -2.70313,1.203126 -1.03124,1.1875 -1.03124,3.75 0,2.625004 1,3.812504 1,1.17187 2.60937,1.17187 1.29687,0 2.15625,-0.78125 0.875,-0.79687 1.10938,-2.45312 z m 13,3.15625 q -1.21876,1.03125 -2.35938,1.46875 -1.125,0.42187 -2.42188,0.42187 -2.125,0 -3.28124,-1.04687 -1.14063,-1.04688 -1.14063,-2.67188 0,-0.95312 0.42187,-1.73437 0.4375,-0.781254 1.14063,-1.250004 0.70313,-0.484376 1.57813,-0.734376 0.65624,-0.171874 1.95312,-0.328124 2.67188,-0.3125 3.92188,-0.765626 0.0156,-0.4375 0.0156,-0.5625 0,-1.34375 -0.625,-1.890624 -0.84375,-0.75 -2.5,-0.75 -1.54688,0 -2.29688,0.546874 -0.73437,0.53125 -1.07812,1.921876 l -2.15625,-0.296876 q 0.29687,-1.375 0.96875,-2.21875 0.67188,-0.859374 1.9375,-1.3125 1.26562,-0.453124 2.9375,-0.453124 1.67188,0 2.70312,0.390624 1.03126,0.390626 1.51563,0.984376 0.5,0.578124 0.6875,1.484374 0.10937,0.5625 0.10937,2.03125 v 2.92188 q 0,3.0625 0.14063,3.875 0.14063,0.8125 0.5625,1.5625 h -2.29687 q -0.34376,-0.6875 -0.4375,-1.59375 z m -0.1875,-4.906254 q -1.1875,0.484374 -3.59376,0.828124 -1.34374,0.1875 -1.90624,0.4375 -0.5625,0.23438 -0.875,0.71875 -0.29688,0.46875 -0.29688,1.03125 0,0.89063 0.65625,1.48438 0.67187,0.57812 1.95313,0.57812 1.26562,0 2.25,-0.5625 1,-0.5625 1.46874,-1.51562 0.34376,-0.75 0.34376,-2.20313 z m 5.67187,6.500004 V 87.69271 h 2.20313 v 17.89063 z m 7.5,5.26562 h -1.57813 q 3.64063,-5.85937 3.64063,-11.734374 0,-2.296876 -0.51563,-4.546876 -0.42187,-1.84375 -1.15624,-3.515624 Q 329.5,89.94271 328.01562,87.38021 h 1.57813 q 2.29687,3.0625 3.39063,6.15625 0.9375,2.65625 0.9375,5.5625 0,3.29688 -1.26563,6.375 -1.26563,3.07813 -3.0625,5.375 z"
       fill-rule="nonzero"
       id="path17144" />
  </g>
  <g
     id="g18236">
    <path
       fill="#6d9eeb"
       d="m 350.5,92.083336 c 0,-0.552286 0.44772,-1 1,-1 h 10 c 0.55228,0 1,0.447714 1,1 v 10.000004 c 0,0.55228 -0.44772,1 -1,1 h -10 c -0.55228,0 -1,-0.44772 -1,-1 z"
       fill-rule="nonzero"
       id="path17146"
       style="stroke:#000000;stroke-width:2;stroke-miterlimit:10;stroke-dasharray:8, 4;stroke-dashoffset:4;stroke-opacity:1" />
    <path
       fill="#1a1a1a"
       d="m 370.46875,105.58334 6.875,-17.89063 h 2.54687 l 7.32813,17.89063 h -2.70313 l -2.09374,-5.42188 h -7.48438 l -1.95312,5.42188 z m 5.15625,-7.343754 h 6.0625 l -1.85938,-4.96875 q -0.85937,-2.25 -1.26562,-3.703126 -0.34375,1.71875 -0.96875,3.421876 z m 14.04688,7.343754 V 94.333336 h -1.9375 v -1.71875 h 1.9375 v -1.375 q 0,-1.3125 0.23437,-1.9375 0.3125,-0.859376 1.10937,-1.390626 0.8125,-0.53125 2.25,-0.53125 0.92188,0 2.04688,0.21875 l -0.32812,1.921876 q -0.6875,-0.125 -1.29688,-0.125 -1,0 -1.42188,0.4375 -0.40624,0.421874 -0.40624,1.59375 v 1.1875 h 2.53124 v 1.71875 h -2.53124 v 11.250004 z m 6.45312,0 V 92.614586 h 1.96875 v 1.96875 q 0.76563,-1.375 1.40625,-1.8125 0.64062,-0.4375 1.40625,-0.4375 1.10937,0 2.26563,0.703124 l -0.76563,2.03125 q -0.79687,-0.46875 -1.60937,-0.46875 -0.71876,0 -1.29688,0.4375 -0.5625,0.421876 -0.8125,1.203126 -0.35938,1.171874 -0.35938,2.5625 v 6.781254 z m 7.20312,-6.48438 q 0,-3.59375 2,-5.328124 1.67188,-1.4375 4.07813,-1.4375 2.67187,0 4.35937,1.75 1.70313,1.75 1.70313,4.828124 0,2.51563 -0.75,3.95313 -0.75,1.42187 -2.1875,2.21875 -1.42187,0.79687 -3.125,0.79687 -2.71875,0 -4.40625,-1.75 -1.67188,-1.75 -1.67188,-5.03125 z m 2.26563,0 q 0,2.5 1.07813,3.73438 1.09374,1.23437 2.73437,1.23437 1.64063,0 2.71875,-1.23437 1.09375,-1.25 1.09375,-3.812504 0,-2.390626 -1.09375,-3.625 -1.09375,-1.25 -2.71875,-1.25 -1.64063,0 -2.73437,1.234374 -1.07813,1.234376 -1.07813,3.71875 z m 11.01563,6.48438 6.92187,-9.32813 -6.10937,-8.5625 H 420.25 l 3.25,4.578126 q 1.01562,1.4375 1.4375,2.203124 0.59375,-0.96875 1.40625,-2.03125 l 3.60937,-4.75 h 2.57813 l -6.29687,8.4375 6.78124,9.45313 h -2.92187 l -4.51563,-6.39063 q -0.375,-0.546874 -0.78124,-1.1875 -0.59376,0.96875 -0.84376,1.34375 l -4.5,6.23438 z m 18.71874,0 V 87.69271 h 2.375 v 15.78125 h 8.8125 v 2.10938 z m 14.03126,0 V 87.69271 h 3.5625 l 4.23437,12.67188 q 0.57813,1.76562 0.85937,2.64062 0.29688,-0.96875 0.95313,-2.85937 L 463.25,87.69271 h 3.1875 v 17.89063 h -2.28125 V 90.59896 l -5.20313,14.98438 h -2.14062 l -5.17188,-15.23438 v 15.23438 z m 21.10937,0 V 87.69271 h 7.9375 q 2.39063,0 3.625,0.484376 1.25,0.46875 1.98437,1.703124 0.75,1.21875 0.75,2.6875 0,1.90625 -1.23437,3.21875 -1.21875,1.296876 -3.79687,1.65625 0.9375,0.453126 1.42187,0.890626 1.04687,0.953124 1.96875,2.375004 l 3.10938,4.875 h -2.96876 l -2.375,-3.71875 q -1.03124,-1.60938 -1.70312,-2.468754 -0.67188,-0.859376 -1.20312,-1.203126 -0.53126,-0.34375 -1.07813,-0.46875 -0.40625,-0.09375 -1.32813,-0.09375 h -2.75 v 7.95313 z m 2.35937,-10.000004 h 5.09376 q 1.625,0 2.53124,-0.328126 0.92188,-0.34375 1.39063,-1.078124 0.48437,-0.734376 0.48437,-1.609376 0,-1.265624 -0.92187,-2.078124 Q 480.48438,89.66146 478.5,89.66146 h -5.67188 z m 26.51563,15.265624 q -1.8125,-2.29687 -3.07813,-5.375 -1.25,-3.07812 -1.25,-6.375 0,-2.90625 0.9375,-5.5625 1.09376,-3.09375 3.39063,-6.15625 h 1.57813 q -1.48438,2.546876 -1.95313,3.625 -0.75,1.6875 -1.17187,3.515626 -0.53126,2.28125 -0.53126,4.59375 0,5.875004 3.65626,11.734374 z m 2.92187,-9.14062 2.17188,-0.34375 q 0.1875,1.3125 1.01562,2.01562 0.84376,0.6875 2.34376,0.6875 1.51562,0 2.25,-0.60937 0.73437,-0.625 0.73437,-1.45313 0,-0.75 -0.65625,-1.17187 -0.45312,-0.29688 -2.23438,-0.75 -2.42187,-0.60938 -3.35937,-1.04688 -0.9375,-0.453124 -1.42187,-1.234374 -0.46876,-0.78125 -0.46876,-1.734376 0,-0.875 0.39063,-1.609374 0.39063,-0.734376 1.07813,-1.234376 0.51562,-0.375 1.39062,-0.625 0.89062,-0.265624 1.90625,-0.265624 1.53125,0 2.67187,0.4375 1.15626,0.4375 1.70313,1.1875 0.5625,0.75 0.76565,2 l -2.14065,0.296874 q -0.15625,-1 -0.85937,-1.5625 -0.70313,-0.5625 -1.98438,-0.5625 -1.51562,0 -2.15625,0.5 -0.64063,0.5 -0.64063,1.171876 0,0.4375 0.26563,0.765624 0.26563,0.359376 0.84375,0.59375 0.32812,0.125 1.9375,0.5625 2.32812,0.625 3.25,1.015626 0.92188,0.390624 1.4375,1.15625 0.53125,0.750004 0.53125,1.875004 0,1.10937 -0.64065,2.07812 -0.6406,0.96875 -1.84372,1.5 -1.20313,0.53125 -2.73438,0.53125 -2.53125,0 -3.85938,-1.04687 -1.3125,-1.0625 -1.6875,-3.125 z m 22.37498,3.875 v -1.90625 q -1.5156,2.20312 -4.10935,2.20312 -1.14065,0 -2.14065,-0.4375 -1,-0.45312 -1.48435,-1.10937 -0.48435,-0.67188 -0.67185,-1.625 -0.14065,-0.65625 -0.14065,-2.0625 v -8.031254 h 2.20315 v 7.1875 q 0,1.734374 0.1406,2.328124 0.2031,0.85938 0.875,1.35938 0.6719,0.5 1.65625,0.5 0.98435,0 1.84375,-0.5 0.875,-0.51563 1.2344,-1.39063 0.35935,-0.875 0.35935,-2.53125 v -6.953124 h 2.20315 v 12.968754 z m 5.4844,0 V 92.614586 h 1.96875 v 1.96875 q 0.76565,-1.375 1.40625,-1.8125 0.6406,-0.4375 1.40625,-0.4375 1.10935,0 2.26565,0.703124 l -0.76565,2.03125 q -0.79685,-0.46875 -1.60935,-0.46875 -0.7188,0 -1.2969,0.4375 -0.5625,0.421876 -0.8125,1.203126 -0.3594,1.171874 -0.3594,2.5625 v 6.781254 z m 8.5469,0 V 94.333336 h -1.9375 v -1.71875 h 1.9375 v -1.375 q 0,-1.3125 0.23435,-1.9375 0.3125,-0.859376 1.10935,-1.390626 0.8125,-0.53125 2.25,-0.53125 0.9219,0 2.0469,0.21875 l -0.3281,1.921876 q -0.6875,-0.125 -1.2969,-0.125 -1,0 -1.4219,0.4375 -0.4062,0.421874 -0.4062,1.59375 v 1.1875 h 2.5312 v 1.71875 h -2.5312 v 11.250004 z m 14.9375,-1.59375 q -1.2188,1.03125 -2.3594,1.46875 -1.125,0.42187 -2.4219,0.42187 -2.125,0 -3.2812,-1.04687 -1.14065,-1.04688 -1.14065,-2.67188 0,-0.95312 0.42185,-1.73437 0.4375,-0.781254 1.14065,-1.250004 0.70315,-0.484376 1.57815,-0.734376 0.6562,-0.171874 1.9531,-0.328124 2.6719,-0.3125 3.9219,-0.765626 0.0156,-0.4375 0.0156,-0.5625 0,-1.34375 -0.625,-1.890624 -0.84375,-0.75 -2.5,-0.75 -1.5469,0 -2.2969,0.546874 -0.73435,0.53125 -1.0781,1.921876 l -2.15625,-0.296876 q 0.29685,-1.375 0.96875,-2.21875 0.6719,-0.859374 1.9375,-1.3125 1.2656,-0.453124 2.9375,-0.453124 1.6719,0 2.7031,0.390624 1.0313,0.390626 1.51565,0.984376 0.5,0.578124 0.6875,1.484374 0.10935,0.5625 0.10935,2.03125 v 2.92188 q 0,3.0625 0.14065,3.875 0.14065,0.8125 0.5625,1.5625 h -2.29685 q -0.3438,-0.6875 -0.4375,-1.59375 z m -0.1875,-4.906254 q -1.1875,0.484374 -3.5938,0.828124 -1.3437,0.1875 -1.9062,0.4375 -0.5625,0.23438 -0.875,0.71875 -0.2969,0.46875 -0.2969,1.03125 0,0.89063 0.65625,1.48438 0.67185,0.57812 1.95315,0.57812 1.2656,0 2.25,-0.5625 1,-0.5625 1.4687,-1.51562 0.3438,-0.75 0.3438,-2.20313 z m 14.1875,1.750004 2.1562,0.28125 q -0.3437,2.23437 -1.8125,3.5 -1.4531,1.26562 -3.5781,1.26562 -2.65625,0 -4.28125,-1.73437 -1.60935,-1.75 -1.60935,-5.000004 0,-2.09375 0.6875,-3.671876 0.7031,-1.578124 2.125,-2.359374 1.42185,-0.78125 3.0937,-0.78125 2.1094,0 3.45315,1.0625 1.34375,1.0625 1.71875,3.03125 l -2.1406,0.328124 q -0.2969,-1.296874 -1.07815,-1.953124 -0.78125,-0.671876 -1.875,-0.671876 -1.65625,0 -2.70315,1.203126 -1.0312,1.1875 -1.0312,3.75 0,2.625004 1,3.812504 1,1.17187 2.60935,1.17187 1.29685,0 2.15625,-0.78125 0.875,-0.79687 1.1094,-2.45312 z m 13.4062,0.57812 2.2813,0.28125 q -0.5469,1.98438 -2,3.09375 -1.45315,1.09375 -3.70315,1.09375 -2.84375,0 -4.51565,-1.75 -1.6562,-1.75 -1.6562,-4.921874 0,-3.265626 1.67185,-5.0625 1.6875,-1.8125 4.375,-1.8125 2.60935,0 4.25,1.765624 1.64065,1.765626 1.64065,4.984376 0,0.1875 0,0.578124 h -9.6719 q 0.125,2.14063 1.2031,3.28125 1.0938,1.125 2.7188,1.125 1.2031,0 2.04685,-0.625 0.85935,-0.64062 1.35935,-2.03125 z m -7.2031,-3.5625 h 7.2344 q -0.14065,-1.625 -0.82815,-2.453124 Q 579.1719,94.13021 577.5,94.13021 q -1.5156,0 -2.5469,1.015626 -1.0312,1.015624 -1.1406,2.703124 z m 13.78125,13 h -1.57815 q 3.64065,-5.85937 3.64065,-11.734374 0,-2.296876 -0.51565,-4.546876 -0.42185,-1.84375 -1.1562,-3.515624 Q 587.5,89.94271 586.0156,87.38021 h 1.57815 q 2.29685,3.0625 3.39065,6.15625 0.9375,2.65625 0.9375,5.5625 0,3.29688 -1.26565,6.375 -1.26565,3.07813 -3.0625,5.375 z"
       fill-rule="nonzero"
       id="path17148" />
  </g>
  <g
     id="g18220"
     transform="translate(-541,33.203125)">
    <path
       fill="#ea4335"
       d="m 608.5,92.083336 c 0,-0.552286 0.4477,-1 1,-1 h 10 c 0.5523,0 1,0.447714 1,1 v 10.000004 c 0,0.55228 -0.4477,1 -1,1 h -10 c -0.5523,0 -1,-0.44772 -1,-1 z"
       fill-rule="nonzero"
       id="path17150" />
    <path
       fill="#1a1a1a"
       d="M 630.3281,105.58334 V 87.69271 h 6.7188 q 2.04685,0 3.2812,0.546876 1.25,0.53125 1.95315,1.671874 0.70315,1.125 0.70315,2.359376 0,1.140624 -0.625,2.15625 -0.625,1.015624 -1.89065,1.640624 1.625,0.46875 2.5,1.625 0.875,1.140626 0.875,2.70313 0,1.25 -0.53125,2.34375 -0.53125,1.07812 -1.3125,1.67187 -0.78125,0.57813 -1.96875,0.875 -1.17185,0.29688 -2.875,0.29688 z m 2.375,-10.375004 h 3.8594 q 1.5781,0 2.2656,-0.203126 0.9063,-0.28125 1.3594,-0.890624 0.4531,-0.625 0.4531,-1.5625 0,-0.890626 -0.42185,-1.5625 -0.42185,-0.6875 -1.21875,-0.9375 -0.7969,-0.25 -2.71875,-0.25 h -3.57815 z m 0,8.265624 h 4.45315 q 1.14065,0 1.60935,-0.0937 0.8125,-0.14062 1.3594,-0.48437 0.5625,-0.34375 0.90625,-0.98438 0.35935,-0.65625 0.35935,-1.51562 0,-1.000004 -0.5156,-1.73438 -0.5156,-0.75 -1.4219,-1.046874 -0.9062,-0.296876 -2.60935,-0.296876 H 632.7031 Z M 647.15625,90.208336 V 87.69271 h 2.20315 v 2.515626 z m 0,15.375004 V 92.614586 h 2.20315 v 12.968754 z m 5.14065,-5.375 v -2.20313 h 6.75 v 2.20313 z m 9.0312,5.375 V 87.69271 h 2.375 v 15.78125 h 8.8125 v 2.10938 z m 13.2969,-5.750004 2.2344,-0.1875 q 0.1562,1.328124 0.73435,2.203124 0.57815,0.85938 1.79685,1.39063 1.2188,0.53125 2.75,0.53125 1.3594,0 2.39065,-0.40625 1.04685,-0.40625 1.54685,-1.10938 0.51565,-0.70312 0.51565,-1.53125 0,-0.84375 -0.5,-1.46875 -0.48435,-0.625 -1.60935,-1.0625 -0.7188,-0.28125 -3.1875,-0.859374 -2.4688,-0.59375 -3.45315,-1.125 -1.28125,-0.671876 -1.90625,-1.65625 -0.625,-1 -0.625,-2.234376 0,-1.359374 0.7656,-2.53125 0.76565,-1.1875 2.2344,-1.796874 1.4844,-0.609376 3.2969,-0.609376 1.98435,0 3.5,0.640626 1.5312,0.640624 2.3437,1.890624 0.8125,1.25 0.875,2.8125 l -2.2656,0.171876 q -0.1875,-1.6875 -1.25,-2.546876 -1.0469,-0.875 -3.1094,-0.875 -2.1406,0 -3.125,0.796876 -0.98435,0.78125 -0.98435,1.890624 0,0.953126 0.6875,1.578126 0.6875,0.625 3.57815,1.28125 2.8906,0.65625 3.9531,1.140624 1.5625,0.71875 2.3125,1.828126 0.75,1.09375 0.75,2.546874 0,1.42188 -0.8281,2.6875 -0.8125,1.26563 -2.3438,1.96875 -1.5312,0.70313 -3.4531,0.70313 -2.4219,0 -4.0625,-0.70313 -1.6406,-0.71875 -2.5781,-2.14062 -0.9375,-1.42188 -0.9844,-3.218754 z m 22.3594,5.750004 V 89.802086 h -5.89065 V 87.69271 h 14.17185 v 2.109376 h -5.92185 v 15.781254 z m 9.375,0 V 87.69271 h 3.5625 l 4.23435,12.67188 q 0.57815,1.76562 0.85935,2.64062 0.2969,-0.96875 0.95315,-2.85937 L 720.25,87.69271 h 3.1875 v 17.89063 h -2.28125 V 90.59896 l -5.20315,14.98438 h -2.1406 l -5.1719,-15.23438 v 15.23438 z m 31.98435,5.26562 q -1.8125,-2.29687 -3.07815,-5.375 -1.25,-3.07812 -1.25,-6.375 0,-2.90625 0.9375,-5.5625 1.0938,-3.09375 3.39065,-6.15625 h 1.57815 q -1.4844,2.546876 -1.95315,3.625 -0.75,1.6875 -1.17185,3.515626 -0.5313,2.28125 -0.5313,4.59375 0,5.875004 3.6563,11.734374 z m 12.26565,-10.01562 2.1562,0.28125 q -0.3437,2.23437 -1.8125,3.5 -1.4531,1.26562 -3.5781,1.26562 -2.65625,0 -4.28125,-1.73437 -1.60935,-1.75 -1.60935,-5.000004 0,-2.09375 0.6875,-3.671876 0.7031,-1.578124 2.125,-2.359374 1.42185,-0.78125 3.0937,-0.78125 2.1094,0 3.45315,1.0625 1.34375,1.0625 1.71875,3.03125 l -2.1406,0.328124 q -0.2969,-1.296874 -1.07815,-1.953124 -0.78125,-0.671876 -1.875,-0.671876 -1.65625,0 -2.70315,1.203126 -1.0312,1.1875 -1.0312,3.75 0,2.625004 1,3.812504 1,1.17187 2.60935,1.17187 1.29685,0 2.15625,-0.78125 0.875,-0.79687 1.1094,-2.45312 z m 13,3.15625 q -1.2188,1.03125 -2.3594,1.46875 -1.125,0.42187 -2.4219,0.42187 -2.125,0 -3.2812,-1.04687 -1.14065,-1.04688 -1.14065,-2.67188 0,-0.95312 0.42185,-1.73437 0.4375,-0.781254 1.14065,-1.250004 0.70315,-0.484376 1.57815,-0.734376 0.6562,-0.171874 1.9531,-0.328124 2.6719,-0.3125 3.9219,-0.765626 0.0156,-0.4375 0.0156,-0.5625 0,-1.34375 -0.625,-1.890624 -0.84375,-0.75 -2.5,-0.75 -1.5469,0 -2.2969,0.546874 -0.73435,0.53125 -1.0781,1.921876 l -2.15625,-0.296876 q 0.29685,-1.375 0.96875,-2.21875 0.6719,-0.859374 1.9375,-1.3125 1.2656,-0.453124 2.9375,-0.453124 1.6719,0 2.7031,0.390624 1.0313,0.390626 1.51565,0.984376 0.5,0.578124 0.6875,1.484374 0.10935,0.5625 0.10935,2.03125 v 2.92188 q 0,3.0625 0.14065,3.875 0.14065,0.8125 0.5625,1.5625 h -2.29685 q -0.3438,-0.6875 -0.4375,-1.59375 z m -0.1875,-4.906254 q -1.1875,0.484374 -3.5938,0.828124 -1.3437,0.1875 -1.9062,0.4375 -0.5625,0.23438 -0.875,0.71875 -0.2969,0.46875 -0.2969,1.03125 0,0.89063 0.65625,1.48438 0.67185,0.57812 1.95315,0.57812 1.2656,0 2.25,-0.5625 1,-0.5625 1.4687,-1.51562 0.3438,-0.75 0.3438,-2.20313 z m 5.7187,6.500004 V 92.614586 h 1.9844 v 1.84375 q 1.4219,-2.125 4.125,-2.125 1.1719,0 2.15625,0.421874 0.98435,0.40625 1.46875,1.09375 0.4844,0.6875 0.6875,1.625 0.125,0.609376 0.125,2.140626 v 7.968754 h -2.2031 v -7.89063 q 0,-1.34375 -0.26565,-2 -0.25,-0.671874 -0.90625,-1.0625 -0.6406,-0.40625 -1.53125,-0.40625 -1.39065,0 -2.42185,0.890626 -1.01565,0.890624 -1.01565,3.390624 v 7.07813 z m 13.1875,-6.48438 q 0,-3.59375 2,-5.328124 1.6719,-1.4375 4.07815,-1.4375 2.67185,0 4.35935,1.75 1.70315,1.75 1.70315,4.828124 0,2.51563 -0.75,3.95313 -0.75,1.42187 -2.1875,2.21875 -1.42185,0.79687 -3.125,0.79687 -2.71875,0 -4.40625,-1.75 -1.6719,-1.75 -1.6719,-5.03125 z m 2.26565,0 q 0,2.5 1.07815,3.73438 1.0937,1.23437 2.73435,1.23437 1.64065,0 2.71875,-1.23437 1.09375,-1.25 1.09375,-3.812504 0,-2.390626 -1.09375,-3.625 -1.09375,-1.25 -2.71875,-1.25 -1.64065,0 -2.73435,1.234374 -1.07815,1.234376 -1.07815,3.71875 z m 12.54685,6.48438 V 92.614586 h 1.9844 v 1.84375 q 1.4219,-2.125 4.125,-2.125 1.1719,0 2.15625,0.421874 0.98435,0.40625 1.46875,1.09375 0.4844,0.6875 0.6875,1.625 0.125,0.609376 0.125,2.140626 v 7.968754 h -2.2031 v -7.89063 q 0,-1.34375 -0.26565,-2 -0.25,-0.671874 -0.90625,-1.0625 -0.6406,-0.40625 -1.53125,-0.40625 -1.39065,0 -2.42185,0.890626 -1.01565,0.890624 -1.01565,3.390624 v 7.07813 z M 811.15625,90.208336 V 87.69271 h 2.20315 v 2.515626 z m 0,15.375004 V 92.614586 h 2.20315 v 12.968754 z m 14.45315,-4.75 2.1562,0.28125 q -0.3437,2.23437 -1.8125,3.5 -1.4531,1.26562 -3.5781,1.26562 -2.65625,0 -4.28125,-1.73437 -1.60935,-1.75 -1.60935,-5.000004 0,-2.09375 0.6875,-3.671876 0.7031,-1.578124 2.125,-2.359374 1.42185,-0.78125 3.0937,-0.78125 2.1094,0 3.45315,1.0625 1.34375,1.0625 1.71875,3.03125 l -2.1406,0.328124 q -0.2969,-1.296874 -1.07815,-1.953124 -0.78125,-0.671876 -1.875,-0.671876 -1.65625,0 -2.70315,1.203126 -1.0312,1.1875 -1.0312,3.75 0,2.625004 1,3.812504 1,1.17187 2.60935,1.17187 1.29685,0 2.15625,-0.78125 0.875,-0.79687 1.1094,-2.45312 z m 13,3.15625 q -1.2188,1.03125 -2.3594,1.46875 -1.125,0.42187 -2.4219,0.42187 -2.125,0 -3.2812,-1.04687 -1.14065,-1.04688 -1.14065,-2.67188 0,-0.95312 0.42185,-1.73437 0.4375,-0.781254 1.14065,-1.250004 0.70315,-0.484376 1.57815,-0.734376 0.6562,-0.171874 1.9531,-0.328124 2.6719,-0.3125 3.9219,-0.765626 0.0156,-0.4375 0.0156,-0.5625 0,-1.34375 -0.625,-1.890624 -0.84375,-0.75 -2.5,-0.75 -1.5469,0 -2.2969,0.546874 -0.73435,0.53125 -1.0781,1.921876 l -2.15625,-0.296876 q 0.29685,-1.375 0.96875,-2.21875 0.6719,-0.859374 1.9375,-1.3125 1.2656,-0.453124 2.9375,-0.453124 1.6719,0 2.7031,0.390624 1.0313,0.390626 1.51565,0.984376 0.5,0.578124 0.6875,1.484374 0.10935,0.5625 0.10935,2.03125 v 2.92188 q 0,3.0625 0.14065,3.875 0.14065,0.8125 0.5625,1.5625 h -2.29685 q -0.3438,-0.6875 -0.4375,-1.59375 z m -0.1875,-4.906254 q -1.1875,0.484374 -3.5938,0.828124 -1.3437,0.1875 -1.9062,0.4375 -0.5625,0.23438 -0.875,0.71875 -0.2969,0.46875 -0.2969,1.03125 0,0.89063 0.65625,1.48438 0.67185,0.57812 1.95315,0.57812 1.2656,0 2.25,-0.5625 1,-0.5625 1.4687,-1.51562 0.3438,-0.75 0.3438,-2.20313 z m 5.67185,6.500004 V 87.69271 h 2.20315 v 17.89063 z m 7.5,5.26562 h -1.57815 q 3.64065,-5.85937 3.64065,-11.734374 0,-2.296876 -0.51565,-4.546876 -0.42185,-1.84375 -1.1562,-3.515624 Q 851.5,89.94271 850.0156,87.38021 h 1.57815 q 2.29685,3.0625 3.39065,6.15625 0.9375,2.65625 0.9375,5.5625 0,3.29688 -1.26565,6.375 -1.26565,3.07813 -3.0625,5.375 z"
       fill-rule="nonzero"
       id="path17152" />
  </g>
  <g
     id="g18224"
     transform="translate(136.5,0.43992855)">
    <path
       fill="#e06666"
       d="m 214,125.08334 c 0,-0.55229 0.44771,-1 1,-1 h 10 c 0.55229,0 1,0.44771 1,1 v 9.99999 c 0,0.55229 -0.44771,1 -1,1 h -10 c -0.55229,0 -1,-0.44771 -1,-1 z"
       fill-rule="nonzero"
       id="path17154"
       style="stroke:#000000;stroke-width:2;stroke-miterlimit:10;stroke-dasharray:8, 4;stroke-dashoffset:4;stroke-opacity:1" />
    <path
       fill="#1a1a1a"
       d="M 235.82812,138.58333 V 120.6927 h 6.71876 q 2.04687,0 3.28124,0.54688 1.25,0.53125 1.95313,1.67187 0.70313,1.125 0.70313,2.35938 0,1.14062 -0.625,2.15625 -0.625,1.01562 -1.89063,1.64062 1.625,0.46875 2.5,1.625 0.875,1.14063 0.875,2.70313 0,1.25 -0.53125,2.34375 -0.53125,1.07812 -1.3125,1.67187 -0.78125,0.57813 -1.96875,0.875 -1.17187,0.29688 -2.875,0.29688 z m 2.375,-10.375 h 3.85938 q 1.57812,0 2.26562,-0.20313 0.90626,-0.28125 1.35938,-0.89062 0.45312,-0.625 0.45312,-1.5625 0,-0.89063 -0.42187,-1.5625 -0.42187,-0.6875 -1.21875,-0.9375 -0.79688,-0.25 -2.71875,-0.25 h -3.57813 z m 0,8.26562 h 4.45313 q 1.14063,0 1.60937,-0.0937 0.8125,-0.14062 1.35938,-0.48437 0.5625,-0.34375 0.90625,-0.98438 0.35937,-0.65625 0.35937,-1.51562 0,-1 -0.51562,-1.73438 -0.51562,-0.75 -1.42188,-1.04687 -0.90624,-0.29688 -2.60937,-0.29688 h -4.14063 z m 14.45313,-13.26562 v -2.51563 h 2.20313 v 2.51563 z m 0,15.375 v -12.96875 h 2.20313 v 12.96875 z m 5.14063,-5.375 v -2.20313 h 6.75 v 2.20313 z m 9.03124,5.375 V 120.6927 h 2.375 v 15.78125 h 8.8125 v 2.10938 z m 13.29688,-5.75 2.23438,-0.1875 q 0.15624,1.32812 0.73437,2.20312 0.57813,0.85938 1.79687,1.39063 1.21876,0.53125 2.75,0.53125 1.35938,0 2.39063,-0.40625 1.04687,-0.40625 1.54687,-1.10938 0.51563,-0.70312 0.51563,-1.53125 0,-0.84375 -0.5,-1.46875 -0.48437,-0.625 -1.60937,-1.0625 -0.71876,-0.28125 -3.1875,-0.85937 -2.46876,-0.59375 -3.45313,-1.125 -1.28125,-0.67188 -1.90625,-1.65625 -0.625,-1 -0.625,-2.23438 0,-1.35937 0.76562,-2.53125 0.76563,-1.1875 2.23438,-1.79687 1.48438,-0.60938 3.29688,-0.60938 1.98437,0 3.5,0.64063 1.53124,0.64062 2.34374,1.89062 0.8125,1.25 0.875,2.8125 l -2.26562,0.17188 q -0.1875,-1.6875 -1.25,-2.54688 -1.04688,-0.875 -3.10938,-0.875 -2.14062,0 -3.125,0.79688 -0.98437,0.78125 -0.98437,1.89062 0,0.95313 0.6875,1.57813 0.6875,0.625 3.57813,1.28125 2.89062,0.65625 3.95312,1.14062 1.5625,0.71875 2.3125,1.82813 0.75,1.09375 0.75,2.54687 0,1.42188 -0.82812,2.6875 -0.8125,1.26563 -2.34376,1.96875 -1.53124,0.70313 -3.45312,0.70313 -2.42188,0 -4.0625,-0.70313 -1.64062,-0.71875 -2.57812,-2.14062 -0.9375,-1.42188 -0.98438,-3.21875 z m 22.35938,5.75 v -15.78125 h -5.89063 v -2.10938 h 14.17187 v 2.10938 h -5.92187 v 15.78125 z m 9.375,0 V 120.6927 h 3.5625 l 4.23437,12.67188 q 0.57813,1.76562 0.85937,2.64062 0.29688,-0.96875 0.95313,-2.85937 L 325.75,120.6927 h 3.1875 v 17.89063 h -2.28125 v -14.98438 l -5.20313,14.98438 h -2.14062 l -5.17188,-15.23438 v 15.23438 z m 31.98437,5.26562 q -1.8125,-2.29687 -3.07813,-5.375 -1.25,-3.07812 -1.25,-6.375 0,-2.90625 0.9375,-5.5625 1.09376,-3.09375 3.39063,-6.15625 h 1.57813 q -1.48438,2.54688 -1.95313,3.625 -0.75,1.6875 -1.17187,3.51563 -0.53126,2.28125 -0.53126,4.59375 0,5.875 3.65626,11.73437 z m 2.92187,-9.14062 2.17188,-0.34375 q 0.1875,1.3125 1.01562,2.01562 0.84376,0.6875 2.34376,0.6875 1.51562,0 2.25,-0.60937 0.73437,-0.625 0.73437,-1.45313 0,-0.75 -0.65625,-1.17187 -0.45312,-0.29688 -2.23438,-0.75 -2.42187,-0.60938 -3.35937,-1.04688 -0.9375,-0.45312 -1.42187,-1.23437 -0.46876,-0.78125 -0.46876,-1.73438 0,-0.875 0.39063,-1.60937 0.39063,-0.73438 1.07813,-1.23438 0.51562,-0.375 1.39062,-0.625 0.89062,-0.26562 1.90625,-0.26562 1.53125,0 2.67187,0.4375 1.15626,0.4375 1.70313,1.1875 0.5625,0.75 0.76563,2 l -2.14063,0.29687 q -0.15625,-1 -0.85937,-1.5625 -0.70313,-0.5625 -1.98438,-0.5625 -1.51562,0 -2.15625,0.5 -0.64063,0.5 -0.64063,1.17188 0,0.4375 0.26563,0.76562 0.26563,0.35938 0.84375,0.59375 0.32812,0.125 1.9375,0.5625 2.32812,0.625 3.25,1.01563 0.92188,0.39062 1.4375,1.15625 0.53125,0.75 0.53125,1.875 0,1.10937 -0.64063,2.07812 -0.64062,0.96875 -1.84374,1.5 -1.20313,0.53125 -2.73438,0.53125 -2.53125,0 -3.85938,-1.04687 -1.3125,-1.0625 -1.6875,-3.125 z m 22.375,3.875 v -1.90625 q -1.51562,2.20312 -4.10937,2.20312 -1.14063,0 -2.14063,-0.4375 -1,-0.45312 -1.48437,-1.10937 -0.48437,-0.67188 -0.67187,-1.625 -0.14063,-0.65625 -0.14063,-2.0625 v -8.03125 h 2.20313 v 7.1875 q 0,1.73437 0.14062,2.32812 0.20312,0.85938 0.875,1.35938 0.67188,0.5 1.65625,0.5 0.98437,0 1.84375,-0.5 0.875,-0.51563 1.23438,-1.39063 0.35937,-0.875 0.35937,-2.53125 v -6.95312 h 2.20313 v 12.96875 z m 5.48438,0 v -12.96875 h 1.96875 v 1.96875 q 0.76563,-1.375 1.40625,-1.8125 0.64062,-0.4375 1.40625,-0.4375 1.10937,0 2.26563,0.70312 l -0.76563,2.03125 q -0.79687,-0.46875 -1.60937,-0.46875 -0.71876,0 -1.29688,0.4375 -0.5625,0.42188 -0.8125,1.20313 -0.35938,1.17187 -0.35938,2.5625 v 6.78125 z m 8.54688,0 v -11.25 h -1.9375 v -1.71875 h 1.9375 v -1.375 q 0,-1.3125 0.23437,-1.9375 0.3125,-0.85938 1.10937,-1.39063 0.8125,-0.53125 2.25,-0.53125 0.92188,0 2.04688,0.21875 l -0.32812,1.92188 q -0.6875,-0.125 -1.29688,-0.125 -1,0 -1.42188,0.4375 -0.40624,0.42187 -0.40624,1.59375 v 1.1875 h 2.53124 v 1.71875 h -2.53124 v 11.25 z m 14.9375,-1.59375 q -1.21876,1.03125 -2.35938,1.46875 -1.125,0.42187 -2.42188,0.42187 -2.125,0 -3.28124,-1.04687 -1.14063,-1.04688 -1.14063,-2.67188 0,-0.95312 0.42187,-1.73437 0.4375,-0.78125 1.14063,-1.25 0.70313,-0.48438 1.57813,-0.73438 0.65624,-0.17187 1.95312,-0.32812 2.67188,-0.3125 3.92188,-0.76563 0.0156,-0.4375 0.0156,-0.5625 0,-1.34375 -0.625,-1.89062 -0.84375,-0.75 -2.5,-0.75 -1.54688,0 -2.29688,0.54687 -0.73437,0.53125 -1.07812,1.92188 l -2.15625,-0.29688 q 0.29687,-1.375 0.96875,-2.21875 0.67188,-0.85937 1.9375,-1.3125 1.26562,-0.45312 2.9375,-0.45312 1.67188,0 2.70312,0.39062 1.03126,0.39063 1.51563,0.98438 0.5,0.57812 0.6875,1.48437 0.10937,0.5625 0.10937,2.03125 v 2.92188 q 0,3.0625 0.14063,3.875 0.14063,0.8125 0.5625,1.5625 h -2.29687 q -0.34376,-0.6875 -0.4375,-1.59375 z m -0.1875,-4.90625 q -1.1875,0.48437 -3.59376,0.82812 -1.34374,0.1875 -1.90624,0.4375 -0.5625,0.23438 -0.875,0.71875 -0.29688,0.46875 -0.29688,1.03125 0,0.89063 0.65625,1.48438 0.67187,0.57812 1.95313,0.57812 1.26562,0 2.25,-0.5625 1,-0.5625 1.46874,-1.51562 0.34376,-0.75 0.34376,-2.20313 z m 14.1875,1.75 2.15624,0.28125 q -0.34374,2.23437 -1.8125,3.5 -1.45312,1.26562 -3.57812,1.26562 -2.65625,0 -4.28125,-1.73437 -1.60937,-1.75 -1.60937,-5 0,-2.09375 0.6875,-3.67188 0.70312,-1.57812 2.125,-2.35937 1.42187,-0.78125 3.09374,-0.78125 2.10938,0 3.45313,1.0625 1.34375,1.0625 1.71875,3.03125 l -2.14062,0.32812 q -0.29688,-1.29687 -1.07813,-1.95312 -0.78125,-0.67188 -1.875,-0.67188 -1.65625,0 -2.70313,1.20313 -1.03124,1.1875 -1.03124,3.75 0,2.625 1,3.8125 1,1.17187 2.60937,1.17187 1.29687,0 2.15625,-0.78125 0.875,-0.79687 1.10938,-2.45312 z m 13.40624,0.57812 2.28126,0.28125 q -0.54688,1.98438 -2,3.09375 -1.45313,1.09375 -3.70313,1.09375 -2.84375,0 -4.51563,-1.75 -1.65624,-1.75 -1.65624,-4.92187 0,-3.26563 1.67187,-5.0625 1.6875,-1.8125 4.375,-1.8125 2.60937,0 4.25,1.76562 1.64063,1.76563 1.64063,4.98438 0,0.1875 0,0.57812 h -9.67188 q 0.125,2.14063 1.20312,3.28125 1.09376,1.125 2.71876,1.125 1.20312,0 2.04687,-0.625 0.85937,-0.64062 1.35937,-2.03125 z m -7.20312,-3.5625 h 7.23438 q -0.14063,-1.625 -0.82813,-2.45312 -1.04687,-1.26563 -2.71875,-1.26563 -1.51562,0 -2.54688,1.01563 -1.03124,1.01562 -1.14062,2.70312 z m 13.78125,13 h -1.57813 q 3.64063,-5.85937 3.64063,-11.73437 0,-2.29688 -0.51563,-4.54688 -0.42187,-1.84375 -1.15624,-3.51562 Q 432,122.9427 430.51562,120.3802 h 1.57813 q 2.29687,3.0625 3.39063,6.15625 0.9375,2.65625 0.9375,5.5625 0,3.29688 -1.26563,6.375 -1.26563,3.07813 -3.0625,5.375 z"
       fill-rule="nonzero"
       id="path17156" />
  </g>
  <g
     id="g18228"
     transform="translate(161.93022,-14.84648)">
    <path
       fill="#fbbc04"
       d="m 453,125.08334 c 0,-0.55229 0.44772,-1 1,-1 h 10 c 0.55228,0 1,0.44771 1,1 v 9.99999 c 0,0.55229 -0.44772,1 -1,1 h -10 c -0.55228,0 -1,-0.44771 -1,-1 z"
       fill-rule="nonzero"
       id="path17158" />
    <path
       fill="#1a1a1a"
       d="m 473.5,138.58333 v -2.20313 l 9.17188,-11.45312 q 0.96874,-1.21875 1.85937,-2.125 h -10 v -2.10938 h 12.82813 v 2.10938 l -10.04688,12.40625 -1.09375,1.26562 h 11.4375 v 2.10938 z m 24.64062,0 v -1.90625 q -1.51562,2.20312 -4.10937,2.20312 -1.14063,0 -2.14063,-0.4375 -1,-0.45312 -1.48437,-1.10937 -0.48437,-0.67188 -0.67187,-1.625 -0.14063,-0.65625 -0.14063,-2.0625 v -8.03125 h 2.20313 v 7.1875 q 0,1.73437 0.14062,2.32812 0.20312,0.85938 0.875,1.35938 0.67188,0.5 1.65625,0.5 0.98437,0 1.84375,-0.5 0.875,-0.51563 1.23438,-1.39063 0.35937,-0.875 0.35937,-2.53125 v -6.95312 h 2.20313 v 12.96875 z m 5.45313,0 V 120.6927 h 2.20313 v 17.89063 z m 6.26563,0 V 120.6927 h 3.56252 l 4.23435,12.67188 q 0.57815,1.76562 0.85935,2.64062 0.2969,-0.96875 0.95315,-2.85937 L 523.75,120.6927 h 3.1875 v 17.89063 h -2.28125 v -14.98438 l -5.20315,14.98438 h -2.1406 l -5.1719,-15.23438 v 15.23438 z m 19.96872,-6.48438 q 0,-3.59375 2,-5.32812 1.6719,-1.4375 4.07815,-1.4375 2.67185,0 4.35935,1.75 1.70315,1.75 1.70315,4.82812 0,2.51563 -0.75,3.95313 -0.75,1.42187 -2.1875,2.21875 -1.42185,0.79687 -3.125,0.79687 -2.71875,0 -4.40625,-1.75 -1.6719,-1.75 -1.6719,-5.03125 z m 2.26565,0 q 0,2.5 1.07815,3.73438 1.0937,1.23437 2.73435,1.23437 1.64065,0 2.71875,-1.23437 1.09375,-1.25 1.09375,-3.8125 0,-2.39063 -1.09375,-3.625 -1.09375,-1.25 -2.71875,-1.25 -1.64065,0 -2.73435,1.23437 -1.07815,1.23438 -1.07815,3.71875 z m 12.53125,6.48438 v -12.96875 h 1.96875 v 1.96875 q 0.76565,-1.375 1.40625,-1.8125 0.6406,-0.4375 1.40625,-0.4375 1.10935,0 2.26565,0.70312 l -0.76565,2.03125 q -0.79685,-0.46875 -1.60935,-0.46875 -0.7188,0 -1.2969,0.4375 -0.5625,0.42188 -0.8125,1.20313 -0.3594,1.17187 -0.3594,2.5625 v 6.78125 z m 8.0156,4.96875 v -17.9375 h 2.01565 v 1.6875 q 0.70315,-0.98438 1.59375,-1.46875 0.8906,-0.5 2.15625,-0.5 1.65625,0 2.92185,0.85937 1.2813,0.84375 1.9219,2.40625 0.65625,1.54688 0.65625,3.40625 0,1.98438 -0.71875,3.57813 -0.71875,1.59375 -2.0781,2.45312 -1.3594,0.84375 -2.8594,0.84375 -1.09375,0 -1.96875,-0.46875 -0.875,-0.46875 -1.4375,-1.17187 v 6.3125 z m 2,-11.375 q 0,2.5 1.01565,3.70312 1.01565,1.1875 2.45315,1.1875 1.4531,0 2.5,-1.23437 1.04685,-1.23438 1.04685,-3.84375 0,-2.46875 -1.01565,-3.70313 -1.0156,-1.23437 -2.4375,-1.23437 -1.4062,0 -2.48435,1.3125 -1.07815,1.3125 -1.07815,3.8125 z m 12,6.40625 V 120.6927 h 2.20315 v 6.42188 q 1.54685,-1.78125 3.89065,-1.78125 1.4375,0 2.5,0.5625 1.0625,0.5625 1.5156,1.5625 0.4531,1 0.4531,2.90625 v 8.21875 h -2.1875 v -8.21875 q 0,-1.64063 -0.7187,-2.39063 -0.7188,-0.75 -2.01565,-0.75 -0.98435,0 -1.84375,0.5 -0.8594,0.5 -1.2344,1.375 -0.35935,0.85938 -0.35935,2.39063 v 7.09375 z m 25.20315,5.26562 q -1.8125,-2.29687 -3.07815,-5.375 -1.25,-3.07812 -1.25,-6.375 0,-2.90625 0.9375,-5.5625 1.0938,-3.09375 3.39065,-6.15625 h 1.57815 q -1.4844,2.54688 -1.95315,3.625 -0.75,1.6875 -1.17185,3.51563 -0.5313,2.28125 -0.5313,4.59375 0,5.875 3.6563,11.73437 z m 12.26565,-10.01562 2.1562,0.28125 q -0.3437,2.23437 -1.8125,3.5 -1.4531,1.26562 -3.5781,1.26562 -2.65625,0 -4.28125,-1.73437 -1.60935,-1.75 -1.60935,-5 0,-2.09375 0.6875,-3.67188 0.7031,-1.57812 2.125,-2.35937 1.42185,-0.78125 3.0937,-0.78125 2.1094,0 3.45315,1.0625 1.34375,1.0625 1.71875,3.03125 l -2.1406,0.32812 q -0.2969,-1.29687 -1.07815,-1.95312 -0.78125,-0.67188 -1.875,-0.67188 -1.65625,0 -2.70315,1.20313 -1.0312,1.1875 -1.0312,3.75 0,2.625 1,3.8125 1,1.17187 2.60935,1.17187 1.29685,0 2.15625,-0.78125 0.875,-0.79687 1.1094,-2.45312 z m 13,3.15625 q -1.2188,1.03125 -2.3594,1.46875 -1.125,0.42187 -2.4219,0.42187 -2.125,0 -3.2812,-1.04687 -1.14065,-1.04688 -1.14065,-2.67188 0,-0.95312 0.42185,-1.73437 0.4375,-0.78125 1.14065,-1.25 0.70315,-0.48438 1.57815,-0.73438 0.6562,-0.17187 1.9531,-0.32812 2.6719,-0.3125 3.9219,-0.76563 0.0156,-0.4375 0.0156,-0.5625 0,-1.34375 -0.625,-1.89062 -0.84375,-0.75 -2.5,-0.75 -1.5469,0 -2.2969,0.54687 -0.73435,0.53125 -1.0781,1.92188 l -2.15625,-0.29688 q 0.29685,-1.375 0.96875,-2.21875 0.6719,-0.85937 1.9375,-1.3125 1.2656,-0.45312 2.9375,-0.45312 1.6719,0 2.7031,0.39062 1.0313,0.39063 1.51565,0.98438 0.5,0.57812 0.6875,1.48437 0.10935,0.5625 0.10935,2.03125 v 2.92188 q 0,3.0625 0.14065,3.875 0.14065,0.8125 0.5625,1.5625 h -2.29685 q -0.3438,-0.6875 -0.4375,-1.59375 z m -0.1875,-4.90625 q -1.1875,0.48437 -3.5938,0.82812 -1.3437,0.1875 -1.9062,0.4375 -0.5625,0.23438 -0.875,0.71875 -0.2969,0.46875 -0.2969,1.03125 0,0.89063 0.65625,1.48438 0.67185,0.57812 1.95315,0.57812 1.2656,0 2.25,-0.5625 1,-0.5625 1.4687,-1.51562 0.3438,-0.75 0.3438,-2.20313 z m 5.7187,6.5 v -12.96875 h 1.9844 v 1.84375 q 1.4219,-2.125 4.125,-2.125 1.1719,0 2.15625,0.42187 0.98435,0.40625 1.46875,1.09375 0.4844,0.6875 0.6875,1.625 0.125,0.60938 0.125,2.14063 v 7.96875 h -2.2031 v -7.89063 q 0,-1.34375 -0.26565,-2 -0.25,-0.67187 -0.90625,-1.0625 -0.6406,-0.40625 -1.53125,-0.40625 -1.39065,0 -2.42185,0.89063 -1.01565,0.89062 -1.01565,3.39062 v 7.07813 z m 13.1875,-6.48438 q 0,-3.59375 2,-5.32812 1.6719,-1.4375 4.07815,-1.4375 2.67185,0 4.35935,1.75 1.70315,1.75 1.70315,4.82812 0,2.51563 -0.75,3.95313 -0.75,1.42187 -2.1875,2.21875 -1.42185,0.79687 -3.125,0.79687 -2.71875,0 -4.40625,-1.75 -1.6719,-1.75 -1.6719,-5.03125 z m 2.26565,0 q 0,2.5 1.07815,3.73438 1.0937,1.23437 2.73435,1.23437 1.64065,0 2.71875,-1.23437 1.09375,-1.25 1.09375,-3.8125 0,-2.39063 -1.09375,-3.625 -1.09375,-1.25 -2.71875,-1.25 -1.64065,0 -2.73435,1.23437 -1.07815,1.23438 -1.07815,3.71875 z m 12.54685,6.48438 v -12.96875 h 1.9844 v 1.84375 q 1.4219,-2.125 4.125,-2.125 1.1719,0 2.15625,0.42187 0.98435,0.40625 1.46875,1.09375 0.4844,0.6875 0.6875,1.625 0.125,0.60938 0.125,2.14063 v 7.96875 h -2.2031 v -7.89063 q 0,-1.34375 -0.26565,-2 -0.25,-0.67187 -0.90625,-1.0625 -0.6406,-0.40625 -1.53125,-0.40625 -1.39065,0 -2.42185,0.89063 -1.01565,0.89062 -1.01565,3.39062 v 7.07813 z m 14.01565,-15.375 v -2.51563 h 2.20315 v 2.51563 z m 0,15.375 v -12.96875 h 2.20315 v 12.96875 z m 14.45315,-4.75 2.1562,0.28125 q -0.3437,2.23437 -1.8125,3.5 -1.4531,1.26562 -3.5781,1.26562 -2.65625,0 -4.28125,-1.73437 -1.60935,-1.75 -1.60935,-5 0,-2.09375 0.6875,-3.67188 0.7031,-1.57812 2.125,-2.35937 1.42185,-0.78125 3.0937,-0.78125 2.1094,0 3.45315,1.0625 1.34375,1.0625 1.71875,3.03125 l -2.1406,0.32812 q -0.2969,-1.29687 -1.07815,-1.95312 -0.78125,-0.67188 -1.875,-0.67188 -1.65625,0 -2.70315,1.20313 -1.0312,1.1875 -1.0312,3.75 0,2.625 1,3.8125 1,1.17187 2.60935,1.17187 1.29685,0 2.15625,-0.78125 0.875,-0.79687 1.1094,-2.45312 z m 13,3.15625 q -1.2188,1.03125 -2.3594,1.46875 -1.125,0.42187 -2.4219,0.42187 -2.125,0 -3.2812,-1.04687 -1.14065,-1.04688 -1.14065,-2.67188 0,-0.95312 0.42185,-1.73437 0.4375,-0.78125 1.14065,-1.25 0.70315,-0.48438 1.57815,-0.73438 0.6562,-0.17187 1.9531,-0.32812 2.6719,-0.3125 3.9219,-0.76563 0.0156,-0.4375 0.0156,-0.5625 0,-1.34375 -0.625,-1.89062 -0.84375,-0.75 -2.5,-0.75 -1.5469,0 -2.2969,0.54687 -0.73435,0.53125 -1.0781,1.92188 l -2.15625,-0.29688 q 0.29685,-1.375 0.96875,-2.21875 0.6719,-0.85937 1.9375,-1.3125 1.2656,-0.45312 2.9375,-0.45312 1.6719,0 2.7031,0.39062 1.0313,0.39063 1.51565,0.98438 0.5,0.57812 0.6875,1.48437 0.10935,0.5625 0.10935,2.03125 v 2.92188 q 0,3.0625 0.14065,3.875 0.14065,0.8125 0.5625,1.5625 h -2.29685 q -0.3438,-0.6875 -0.4375,-1.59375 z m -0.1875,-4.90625 q -1.1875,0.48437 -3.5938,0.82812 -1.3437,0.1875 -1.9062,0.4375 -0.5625,0.23438 -0.875,0.71875 -0.2969,0.46875 -0.2969,1.03125 0,0.89063 0.65625,1.48438 0.67185,0.57812 1.95315,0.57812 1.2656,0 2.25,-0.5625 1,-0.5625 1.4687,-1.51562 0.3438,-0.75 0.3438,-2.20313 z m 5.67185,6.5 V 120.6927 h 2.20315 v 17.89063 z m 7.5,5.26562 h -1.57815 q 3.64065,-5.85937 3.64065,-11.73437 0,-2.29688 -0.51565,-4.54688 -0.42185,-1.84375 -1.1562,-3.51562 Q 705,122.9427 703.5156,120.3802 h 1.57815 q 2.29685,3.0625 3.39065,6.15625 0.9375,2.65625 0.9375,5.5625 0,3.29688 -1.26565,6.375 -1.26565,3.07813 -3.0625,5.375 z"
       fill-rule="nonzero"
       id="path17160" />
  </g>
  <path
     fill="#757575"
     d="M 30.784374,56.55 V 35.08125 H 35.05 l 5.09375,15.203124 q 0.703124,2.125 1.015624,3.171876 0.375,-1.171876 1.140626,-3.4375 l 5.140624,-14.9375 H 51.26875 V 56.55 H 48.534374 V 38.58125 l -6.25,17.96875 h -2.5625 L 33.51875,38.26875 V 56.55 Z M 65.675,54.628124 q -1.45312,1.25 -2.8125,1.765626 -1.359376,0.515624 -2.90625,0.515624 -2.5625,0 -3.953126,-1.25 -1.375,-1.265624 -1.375,-3.21875 0,-1.140624 0.515626,-2.078124 0.53125,-0.953126 1.375,-1.515626 0.84375,-0.578124 1.890624,-0.859374 0.78125,-0.21875 2.34375,-0.40625 3.203126,-0.375 4.703126,-0.90625 0.01563,-0.546876 0.01563,-0.6875 0,-1.609376 -0.75,-2.265626 -1.000006,-0.890624 -3.000006,-0.890624 -1.859374,0 -2.75,0.65625 -0.875,0.640624 -1.3125,2.296874 L 55.08125,45.425 q 0.359374,-1.65625 1.15625,-2.671876 0.8125,-1.015624 2.328124,-1.5625 1.53125,-0.546874 3.546876,-0.546874 1.98438,0 3.21875,0.46875 1.25,0.46875 1.82813,1.1875 0.59375,0.703124 0.82812,1.78125 0.14063,0.671874 0.14063,2.4375 v 3.515624 q 0,3.671876 0.15625,4.65625 0.17187,0.96875 0.67187,1.859376 h -2.75 Q 65.8,55.721874 65.675,54.628124 Z M 65.45625,48.7375 q -1.4375,0.59375 -4.296876,1 -1.625,0.234374 -2.3125,0.53125 Q 58.175,50.565624 57.8,51.128124 q -0.359376,0.5625 -0.359376,1.25 0,1.046876 0.796876,1.75 0.8125,0.703126 2.34375,0.703126 1.53125,0 2.703124,-0.65625 1.187506,-0.671876 1.750006,-1.828126 0.42187,-0.890624 0.42187,-2.640624 z m 16.21875,2.109374 2.59375,0.34375 q -0.42187,2.671876 -2.17187,4.203126 -1.75,1.515624 -4.29688,1.515624 -3.20312,0 -5.14062,-2.09375 -1.9375,-2.09375 -1.9375,-5.984374 0,-2.515626 0.82812,-4.40625 0.84375,-1.890626 2.54688,-2.828126 1.70312,-0.953124 3.71875,-0.953124 2.53125,0 4.14062,1.28125 1.60938,1.28125 2.0625,3.640624 l -2.5625,0.390626 q -0.35937,-1.5625 -1.29687,-2.34375 -0.92188,-0.796876 -2.25,-0.796876 -1.98438,0 -3.23438,1.421876 -1.25,1.421874 -1.25,4.515624 0,3.140626 1.20313,4.5625 1.20312,1.421876 3.14062,1.421876 1.54688,0 2.57813,-0.953126 1.04687,-0.953124 1.32812,-2.9375 z M 86.50313,56.55 V 40.9875 h 2.375 v 2.359374 Q 89.78438,41.690624 90.55,41.175 q 0.76563,-0.53125 1.6875,-0.53125 1.34375,0 2.71875,0.84375 L 94.05,43.940624 Q 93.08125,43.3625 92.1125,43.3625 q -0.875,0 -1.5625,0.53125 -0.6875,0.515624 -0.96875,1.4375 -0.45312,1.40625 -0.45312,3.078124 V 56.55 Z M 95.55,48.76875 q 0,-4.3125 2.40625,-6.40625 2,-1.71875 4.89063,-1.71875 3.20312,0 5.23437,2.109374 2.04688,2.09375 2.04688,5.796876 0,3 -0.90625,4.734374 -0.90625,1.71875 -2.625,2.671876 -1.71875,0.953124 -3.75,0.953124 -3.26563,0 -5.28125,-2.09375 Q 95.55,52.70625 95.55,48.76875 Z m 2.70313,0 q 0,2.984374 1.29687,4.484374 1.3125,1.484376 3.29688,1.484376 1.95312,0 3.25,-1.5 1.3125,-1.5 1.3125,-4.546876 0,-2.890624 -1.3125,-4.375 -1.3125,-1.484374 -3.25,-1.484374 -1.98438,0 -3.29688,1.484374 -1.29687,1.46875 -1.29687,4.453126 z M 121.01875,56.55 V 35.08125 h 14.48438 v 2.53125 h -11.65625 v 6.640624 H 133.925 V 46.8 h -10.07812 v 9.75 z m 26.70313,0 h -2.625 V 39.753124 q -0.95313,0.90625 -2.5,1.8125 -1.54688,0.90625 -2.78125,1.359376 v -2.546876 q 2.21875,-1.046874 3.875,-2.515624 1.65625,-1.484376 2.34375,-2.875 h 1.6875 z m 14.75,-4.640626 2.60937,-0.40625 q 0.21875,1.5625 1.21875,2.40625 1,0.828126 2.8125,0.828126 1.8125,0 2.6875,-0.734376 0.89063,-0.75 0.89063,-1.75 0,-0.890624 -0.78125,-1.40625 -0.54688,-0.34375 -2.70313,-0.890624 -2.89062,-0.734376 -4.01562,-1.265626 -1.125,-0.53125 -1.70313,-1.46875 -0.57812,-0.953124 -0.57812,-2.09375 0,-1.046874 0.46875,-1.921874 0.48437,-0.890626 1.3125,-1.484376 0.60937,-0.453124 1.67187,-0.765624 1.0625,-0.3125 2.28125,-0.3125 1.82813,0 3.20313,0.53125 1.39062,0.515624 2.04687,1.421874 0.67188,0.90625 0.90625,2.40625 l -2.57812,0.359376 q -0.17188,-1.203126 -1.01563,-1.875 -0.84375,-0.671876 -2.375,-0.671876 -1.8125,0 -2.59375,0.59375 -0.78125,0.59375 -0.78125,1.40625 0,0.515626 0.32813,0.921876 0.32812,0.421874 1.01562,0.703124 0.39063,0.140626 2.32813,0.671876 2.79687,0.75 3.89062,1.234374 1.10938,0.46875 1.73438,1.375 0.64062,0.90625 0.64062,2.25 0,1.328126 -0.76562,2.5 -0.76563,1.15625 -2.21875,1.796876 -1.45313,0.640624 -3.28125,0.640624 -3.03125,0 -4.625,-1.265624 -1.59375,-1.265626 -2.03125,-3.734376 z m 26.20312,-1.0625 2.59375,0.34375 q -0.42187,2.671876 -2.17187,4.203126 -1.75,1.515624 -4.29688,1.515624 -3.20312,0 -5.14062,-2.09375 -1.9375,-2.09375 -1.9375,-5.984374 0,-2.515626 0.82812,-4.40625 0.84375,-1.890626 2.54688,-2.828126 1.70312,-0.953124 3.71875,-0.953124 2.53125,0 4.14062,1.28125 1.60938,1.28125 2.0625,3.640624 l -2.5625,0.390626 q -0.35937,-1.5625 -1.29687,-2.34375 -0.92188,-0.796876 -2.25,-0.796876 -1.98438,0 -3.23438,1.421876 -1.25,1.421874 -1.25,4.515624 0,3.140626 1.20313,4.5625 1.20312,1.421876 3.14062,1.421876 1.54688,0 2.57813,-0.953126 1.04687,-0.953124 1.32812,-2.9375 z m 3.875,-2.078124 q 0,-4.3125 2.40625,-6.40625 2,-1.71875 4.89063,-1.71875 3.20312,0 5.23437,2.109374 2.04688,2.09375 2.04688,5.796876 0,3 -0.90625,4.734374 -0.90625,1.71875 -2.625,2.671876 -1.71875,0.953124 -3.75,0.953124 -3.26563,0 -5.28125,-2.09375 Q 192.55,52.70625 192.55,48.76875 Z m 2.70313,0 q 0,2.984374 1.29687,4.484374 1.3125,1.484376 3.29688,1.484376 1.95312,0 3.25,-1.5 1.3125,-1.5 1.3125,-4.546876 0,-2.890624 -1.3125,-4.375 -1.3125,-1.484374 -3.25,-1.484374 -1.98438,0 -3.29688,1.484374 -1.29687,1.46875 -1.29687,4.453126 z m 14.25,7.78125 V 40.9875 h 2.375 v 2.359374 q 0.90625,-1.65625 1.67187,-2.171874 0.76563,-0.53125 1.6875,-0.53125 1.34375,0 2.71875,0.84375 L 217.05,43.940624 q -0.96875,-0.578124 -1.9375,-0.578124 -0.875,0 -1.5625,0.53125 -0.6875,0.515624 -0.96875,1.4375 -0.45312,1.40625 -0.45312,3.078124 V 56.55 Z m 20.67187,-5.015626 2.73438,0.34375 q -0.65625,2.390626 -2.40625,3.71875 -1.73438,1.3125 -4.4375,1.3125 -3.42188,0 -5.42188,-2.109374 -2,-2.109376 -2,-5.890626 0,-3.9375 2.01563,-6.09375 2.03125,-2.171874 5.25,-2.171874 3.125,0 5.09375,2.125 1.98437,2.125 1.98437,5.96875 0,0.234374 -0.0156,0.703124 h -11.59375 q 0.14062,2.5625 1.4375,3.9375 1.3125,1.359376 3.26562,1.359376 1.4375,0 2.46875,-0.765626 1.03125,-0.765624 1.625,-2.4375 z m -8.65625,-4.25 h 8.6875 q -0.17187,-1.96875 -1,-2.953124 -1.25,-1.515626 -3.26562,-1.515626 -1.8125,0 -3.04688,1.21875 -1.23437,1.203126 -1.375,3.25 z m 12.95313,4.625 2.60937,-0.40625 q 0.21875,1.5625 1.21875,2.40625 1,0.828126 2.8125,0.828126 1.8125,0 2.6875,-0.734376 0.89063,-0.75 0.89063,-1.75 0,-0.890624 -0.78125,-1.40625 -0.54688,-0.34375 -2.70313,-0.890624 -2.89062,-0.734376 -4.01562,-1.265626 -1.125,-0.53125 -1.70313,-1.46875 -0.57812,-0.953124 -0.57812,-2.09375 0,-1.046874 0.46875,-1.921874 0.48437,-0.890626 1.3125,-1.484376 0.60937,-0.453124 1.67187,-0.765624 1.0625,-0.3125 2.28125,-0.3125 1.82813,0 3.20313,0.53125 1.39062,0.515624 2.04687,1.421874 0.67188,0.90625 0.90625,2.40625 l -2.57812,0.359376 q -0.17188,-1.203126 -1.01563,-1.875 -0.84375,-0.671876 -2.375,-0.671876 -1.8125,0 -2.59375,0.59375 -0.78125,0.59375 -0.78125,1.40625 0,0.515626 0.32813,0.921876 0.32812,0.421874 1.01562,0.703124 0.39063,0.140626 2.32813,0.671876 2.79687,0.75 3.89062,1.234374 1.10938,0.46875 1.73438,1.375 0.64062,0.90625 0.64062,2.25 0,1.328126 -0.76562,2.5 -0.76563,1.15625 -2.21875,1.796876 -1.45313,0.640624 -3.28125,0.640624 -3.03125,0 -4.625,-1.265624 -1.59375,-1.265626 -2.03125,-3.734376 z M 257.55,48.76875 q 0,-4.3125 2.40624,-6.40625 2,-1.71875 4.89062,-1.71875 3.20314,0 5.23438,2.109374 2.04686,2.09375 2.04686,5.796876 0,3 -0.90624,4.734374 -0.90626,1.71875 -2.625,2.671876 -1.71876,0.953124 -3.75,0.953124 -3.26562,0 -5.28126,-2.09375 Q 257.55,52.70625 257.55,48.76875 Z m 2.7031,0 q 0,2.984374 1.2969,4.484374 1.3125,1.484376 3.29686,1.484376 1.95314,0 3.25,-1.5 1.3125,-1.5 1.3125,-4.546876 0,-2.890624 -1.3125,-4.375 -1.3125,-1.484374 -3.25,-1.484374 -1.98436,0 -3.29686,1.484374 -1.2969,1.46875 -1.2969,4.453126 z M 275.15936,56.55 v -13.5 h -2.32812 v -2.0625 h 2.32812 v -1.65625 q 0,-1.5625 0.28124,-2.328126 0.375,-1.015624 1.32814,-1.65625 0.96876,-0.640624 2.70312,-0.640624 1.10938,0 2.45314,0.265624 l -0.39064,2.296876 q -0.82812,-0.140626 -1.5625,-0.140626 -1.20312,0 -1.70312,0.515626 -0.48438,0.5 -0.48438,1.90625 v 1.4375 h 3.03124 V 43.05 h -3.03124 v 13.5 z m 14.3125,-4.640626 2.60938,-0.40625 q 0.21876,1.5625 1.21876,2.40625 1,0.828126 2.8125,0.828126 1.8125,0 2.6875,-0.734376 0.8906,-0.75 0.8906,-1.75 0,-0.890624 -0.78124,-1.40625 -0.54686,-0.34375 -2.70312,-0.890624 -2.89064,-0.734376 -4.01564,-1.265626 -1.125,-0.53125 -1.7031,-1.46875 -0.57814,-0.953124 -0.57814,-2.09375 0,-1.046874 0.46874,-1.921874 0.4844,-0.890626 1.3125,-1.484376 0.6094,-0.453124 1.6719,-0.765624 1.0625,-0.3125 2.28124,-0.3125 1.82812,0 3.20312,0.53125 1.39064,0.515624 2.04688,1.421874 0.67186,0.90625 0.90626,2.40625 l -2.57814,0.359376 q -0.17186,-1.203126 -1.01562,-1.875 -0.84374,-0.671876 -2.375,-0.671876 -1.8125,0 -2.59374,0.59375 -0.78126,0.59375 -0.78126,1.40625 0,0.515626 0.32812,0.921876 0.32814,0.421874 1.01564,0.703124 0.3906,0.140626 2.3281,0.671876 2.7969,0.75 3.89064,1.234374 1.10936,0.46875 1.73436,1.375 0.64064,0.90625 0.64064,2.25 0,1.328126 -0.76564,2.5 -0.7656,1.15625 -2.21874,1.796876 -1.45312,0.640624 -3.28126,0.640624 -3.03124,0 -4.625,-1.265624 -1.59374,-1.265626 -2.03124,-3.734376 z m 26.70314,-0.375 2.73436,0.34375 q -0.65626,2.390626 -2.40626,3.71875 -1.73436,1.3125 -4.4375,1.3125 -3.42186,0 -5.42186,-2.109374 -2,-2.109376 -2,-5.890626 0,-3.9375 2.01562,-6.09375 2.03124,-2.171874 5.25,-2.171874 3.125,0 5.09374,2.125 1.9844,2.125 1.9844,5.96875 0,0.234374 -0.0156,0.703124 h -11.5938 q 0.14064,2.5625 1.4375,3.9375 1.3125,1.359376 3.26564,1.359376 1.4375,0 2.46876,-0.765626 1.03124,-0.765624 1.625,-2.4375 z m -8.65626,-4.25 h 8.6875 q -0.17188,-1.96875 -1,-2.953124 -1.25,-1.515626 -3.26564,-1.515626 -1.8125,0 -3.04686,1.21875 -1.23438,1.203126 -1.375,3.25 z M 321.47186,56.55 V 35.08125 h 2.64064 V 56.55 Z m 17.70314,-5.015626 2.73436,0.34375 q -0.65626,2.390626 -2.40626,3.71875 -1.73436,1.3125 -4.4375,1.3125 -3.42186,0 -5.42186,-2.109374 -2,-2.109376 -2,-5.890626 0,-3.9375 2.01562,-6.09375 2.03124,-2.171874 5.25,-2.171874 3.125,0 5.09374,2.125 1.9844,2.125 1.9844,5.96875 0,0.234374 -0.0156,0.703124 h -11.5938 q 0.14064,2.5625 1.4375,3.9375 1.3125,1.359376 3.26564,1.359376 1.4375,0 2.46876,-0.765626 1.03124,-0.765624 1.625,-2.4375 z m -8.65626,-4.25 h 8.6875 q -0.17188,-1.96875 -1,-2.953124 -1.25,-1.515626 -3.26564,-1.515626 -1.8125,0 -3.04686,1.21875 -1.23438,1.203126 -1.375,3.25 z m 24.15626,3.5625 2.59374,0.34375 q -0.42188,2.671876 -2.17188,4.203126 -1.75,1.515624 -4.29686,1.515624 -3.20314,0 -5.14064,-2.09375 -1.9375,-2.09375 -1.9375,-5.984374 0,-2.515626 0.82814,-4.40625 0.84374,-1.890626 2.54686,-2.828126 1.70314,-0.953124 3.71874,-0.953124 2.53126,0 4.14064,1.28125 1.60936,1.28125 2.0625,3.640624 l -2.5625,0.390626 q -0.35938,-1.5625 -1.29688,-2.34375 -0.92186,-0.796876 -2.25,-0.796876 -1.98436,0 -3.23436,1.421876 -1.25,1.421874 -1.25,4.515624 0,3.140626 1.2031,4.5625 1.20314,1.421876 3.14064,1.421876 1.54686,0 2.57812,-0.953126 1.04688,-0.953124 1.32814,-2.9375 z m 10.60936,3.34375 0.375,2.328126 q -1.10936,0.234374 -1.98436,0.234374 -1.4375,0 -2.2344,-0.453124 -0.78124,-0.453126 -1.10936,-1.1875 -0.3125,-0.75 -0.3125,-3.125 V 43.05 h -1.9375 v -2.0625 h 1.9375 v -3.84375 l 2.60936,-1.578126 V 40.9875 h 2.65626 V 43.05 h -2.65626 v 9.09375 q 0,1.125 0.14064,1.453124 0.14062,0.3125 0.45312,0.515626 0.3125,0.1875 0.90624,0.1875 0.4375,0 1.15626,-0.109376 z m 12.89064,-2.65625 2.73436,0.34375 q -0.65626,2.390626 -2.40626,3.71875 -1.73436,1.3125 -4.4375,1.3125 -3.42186,0 -5.42186,-2.109374 -2,-2.109376 -2,-5.890626 0,-3.9375 2.01562,-6.09375 2.03124,-2.171874 5.25,-2.171874 3.125,0 5.09374,2.125 1.9844,2.125 1.9844,5.96875 0,0.234374 -0.0156,0.703124 h -11.5938 q 0.14064,2.5625 1.4375,3.9375 1.3125,1.359376 3.26564,1.359376 1.4375,0 2.46876,-0.765626 1.03124,-0.765624 1.625,-2.4375 z m -8.65626,-4.25 h 8.6875 q -0.17188,-1.96875 -1,-2.953124 -1.25,-1.515626 -3.26564,-1.515626 -1.8125,0 -3.04686,1.21875 -1.23438,1.203126 -1.375,3.25 z M 393.6281,56.55 v -1.96875 q -1.48436,2.328124 -4.35936,2.328124 -1.85938,0 -3.42188,-1.03125 -1.5625,-1.03125 -2.42186,-2.859374 -0.84376,-1.84375 -0.84376,-4.234376 0,-2.328124 0.76562,-4.21875 0.78124,-1.90625 2.32814,-2.90625 1.5625,-1.015624 3.48436,-1.015624 1.40624,0 2.5,0.59375 1.09374,0.59375 1.78124,1.546874 V 35.08125 h 2.625 V 56.55 Z m -8.34374,-7.765626 q 0,2.984376 1.25,4.46875 1.26564,1.484376 2.98438,1.484376 1.73436,0 2.9375,-1.40625 1.20312,-1.421876 1.20312,-4.328126 0,-3.1875 -1.23436,-4.671874 -1.21876,-1.5 -3.01564,-1.5 -1.76562,0 -2.95312,1.4375 -1.17188,1.421874 -1.17188,4.515624 z m 23.25,7.765626 V 40.9875 h 2.35938 v 2.1875 q 0.71876,-1.140626 1.9375,-1.828126 1.21876,-0.703124 2.76562,-0.703124 1.73438,0 2.84374,0.71875 1.1094,0.71875 1.5625,2 1.84376,-2.71875 4.7969,-2.71875 2.3125,0 3.5625,1.28125 1.25,1.28125 1.25,3.953124 V 56.55 h -2.625 v -9.796876 q 0,-1.578124 -0.26564,-2.28125 -0.25,-0.703124 -0.92186,-1.125 -0.6719,-0.421874 -1.57814,-0.421874 -1.64062,0 -2.73436,1.09375 -1.07814,1.09375 -1.07814,3.5 V 56.55 h -2.64062 V 46.440624 q 0,-1.75 -0.64064,-2.625 -0.6406,-0.890624 -2.10936,-0.890624 -1.10938,0 -2.0625,0.59375 -0.9375,0.578124 -1.375,1.703124 -0.42188,1.125 -0.42188,3.25 V 56.55 Z M 432.55,48.76875 q 0,-4.3125 2.40624,-6.40625 2,-1.71875 4.89062,-1.71875 3.20314,0 5.23438,2.109374 2.04686,2.09375 2.04686,5.796876 0,3 -0.90624,4.734374 -0.90626,1.71875 -2.625,2.671876 -1.71876,0.953124 -3.75,0.953124 -3.26562,0 -5.28126,-2.09375 Q 432.55,52.70625 432.55,48.76875 Z m 2.7031,0 q 0,2.984374 1.2969,4.484374 1.3125,1.484376 3.29686,1.484376 1.95314,0 3.25,-1.5 1.3125,-1.5 1.3125,-4.546876 0,-2.890624 -1.3125,-4.375 -1.3125,-1.484374 -3.25,-1.484374 -1.98436,0 -3.29686,1.484374 -1.2969,1.46875 -1.2969,4.453126 z m 24.375,7.78125 v -1.96875 q -1.48436,2.328124 -4.35936,2.328124 -1.85938,0 -3.42188,-1.03125 -1.5625,-1.03125 -2.42186,-2.859374 -0.84376,-1.84375 -0.84376,-4.234376 0,-2.328124 0.76562,-4.21875 0.78124,-1.90625 2.32814,-2.90625 1.5625,-1.015624 3.48436,-1.015624 1.40624,0 2.5,0.59375 1.09374,0.59375 1.78124,1.546874 V 35.08125 h 2.625 V 56.55 Z m -8.34374,-7.765626 q 0,2.984376 1.25,4.46875 1.26564,1.484376 2.98438,1.484376 1.73436,0 2.9375,-1.40625 1.20312,-1.421876 1.20312,-4.328126 0,-3.1875 -1.23436,-4.671874 -1.21876,-1.5 -3.01564,-1.5 -1.76562,0 -2.95312,1.4375 -1.17188,1.421874 -1.17188,4.515624 z m 25.89064,2.75 2.73436,0.34375 q -0.65626,2.390626 -2.40626,3.71875 -1.73436,1.3125 -4.4375,1.3125 -3.42186,0 -5.42186,-2.109374 -2,-2.109376 -2,-5.890626 0,-3.9375 2.01562,-6.09375 2.03124,-2.171874 5.25,-2.171874 3.125,0 5.09374,2.125 1.9844,2.125 1.9844,5.96875 0,0.234374 -0.0156,0.703124 h -11.5938 q 0.14064,2.5625 1.4375,3.9375 1.3125,1.359376 3.26564,1.359376 1.4375,0 2.46876,-0.765626 1.03124,-0.765624 1.625,-2.4375 z m -8.65626,-4.25 h 8.6875 q -0.17188,-1.96875 -1,-2.953124 -1.25,-1.515626 -3.26564,-1.515626 -1.8125,0 -3.04686,1.21875 -1.23438,1.203126 -1.375,3.25 z M 482.47186,56.55 V 35.08125 h 2.64064 V 56.55 Z m 6,-4.640626 2.60938,-0.40625 q 0.21876,1.5625 1.21876,2.40625 1,0.828126 2.8125,0.828126 1.8125,0 2.6875,-0.734376 0.8906,-0.75 0.8906,-1.75 0,-0.890624 -0.78124,-1.40625 -0.54686,-0.34375 -2.70312,-0.890624 -2.89064,-0.734376 -4.01564,-1.265626 -1.125,-0.53125 -1.7031,-1.46875 -0.57814,-0.953124 -0.57814,-2.09375 0,-1.046874 0.46874,-1.921874 0.4844,-0.890626 1.3125,-1.484376 0.6094,-0.453124 1.6719,-0.765624 1.0625,-0.3125 2.28124,-0.3125 1.82812,0 3.20312,0.53125 1.39064,0.515624 2.04688,1.421874 0.67186,0.90625 0.90626,2.40625 l -2.57814,0.359376 q -0.17186,-1.203126 -1.01562,-1.875 -0.84374,-0.671876 -2.375,-0.671876 -1.8125,0 -2.59374,0.59375 -0.78126,0.59375 -0.78126,1.40625 0,0.515626 0.32812,0.921876 0.32814,0.421874 1.01564,0.703124 0.3906,0.140626 2.3281,0.671876 2.7969,0.75 3.89064,1.234374 1.10936,0.46875 1.73436,1.375 0.64064,0.90625 0.64064,2.25 0,1.328126 -0.76564,2.5 -0.7656,1.15625 -2.21874,1.796876 -1.45312,0.640624 -3.28126,0.640624 -3.03124,0 -4.625,-1.265624 -1.59374,-1.265626 -2.03124,-3.734376 z"
     fill-rule="nonzero"
     id="path17162" />
</svg>
