<svg width="476" height="430" viewBox="0 0 476 430" fill="none" xmlns="http://www.w3.org/2000/svg">
<g clip-path="url(#clip0_109_2)">
<path d="M338 239L354.722 243.515L350.271 226.776L338 239ZM384.662 201.321C379.909 210.686 375.447 217.489 370.168 222.642C364.91 227.775 358.773 231.338 350.568 234.109L351.528 236.952C360.073 234.065 366.626 230.293 372.264 224.789C377.88 219.306 382.519 212.173 387.338 202.679L384.662 201.321Z" fill="#ED0909"/>
<rect x="69" y="97" width="262" height="56" rx="19" stroke="black" stroke-width="2"/>
<path d="M115.234 133.227C115.234 134.919 114.818 136.378 113.984 137.602C113.164 138.826 111.979 139.763 110.43 140.414C108.893 141.065 107.057 141.391 104.922 141.391C103.88 141.391 102.884 141.332 101.934 141.215C100.983 141.098 100.085 140.928 99.2383 140.707C98.4049 140.473 97.6432 140.193 96.9531 139.867V135.453C98.112 135.961 99.4076 136.423 100.84 136.84C102.272 137.243 103.73 137.445 105.215 137.445C106.426 137.445 107.428 137.289 108.223 136.977C109.03 136.651 109.629 136.195 110.02 135.609C110.41 135.01 110.605 134.314 110.605 133.52C110.605 132.673 110.378 131.957 109.922 131.371C109.466 130.785 108.776 130.251 107.852 129.77C106.94 129.275 105.794 128.747 104.414 128.188C103.477 127.81 102.578 127.38 101.719 126.898C100.872 126.417 100.117 125.85 99.4531 125.199C98.7891 124.548 98.2617 123.78 97.8711 122.895C97.4935 121.996 97.3047 120.941 97.3047 119.73C97.3047 118.116 97.6888 116.736 98.457 115.59C99.2383 114.444 100.332 113.565 101.738 112.953C103.158 112.341 104.811 112.035 106.699 112.035C108.197 112.035 109.603 112.191 110.918 112.504C112.246 112.816 113.548 113.259 114.824 113.832L113.34 117.602C112.168 117.12 111.029 116.736 109.922 116.449C108.828 116.163 107.708 116.02 106.562 116.02C105.573 116.02 104.733 116.169 104.043 116.469C103.353 116.768 102.826 117.191 102.461 117.738C102.109 118.272 101.934 118.91 101.934 119.652C101.934 120.486 102.135 121.189 102.539 121.762C102.956 122.322 103.594 122.836 104.453 123.305C105.326 123.773 106.445 124.294 107.812 124.867C109.388 125.518 110.723 126.202 111.816 126.918C112.923 127.634 113.77 128.493 114.355 129.496C114.941 130.486 115.234 131.729 115.234 133.227ZM128.887 118.969C130.814 118.969 132.467 119.366 133.848 120.16C135.228 120.954 136.289 122.081 137.031 123.539C137.773 124.997 138.145 126.742 138.145 128.773V131.234H123.711C123.763 133.331 124.323 134.945 125.391 136.078C126.471 137.211 127.982 137.777 129.922 137.777C131.302 137.777 132.539 137.647 133.633 137.387C134.74 137.113 135.879 136.716 137.051 136.195V139.926C135.97 140.434 134.87 140.805 133.75 141.039C132.63 141.273 131.289 141.391 129.727 141.391C127.604 141.391 125.736 140.98 124.121 140.16C122.52 139.327 121.263 138.09 120.352 136.449C119.453 134.809 119.004 132.771 119.004 130.336C119.004 127.914 119.414 125.857 120.234 124.164C121.055 122.471 122.207 121.182 123.691 120.297C125.176 119.411 126.908 118.969 128.887 118.969ZM128.887 122.426C127.441 122.426 126.27 122.895 125.371 123.832C124.486 124.77 123.965 126.143 123.809 127.953H133.652C133.639 126.872 133.457 125.915 133.105 125.082C132.767 124.249 132.246 123.598 131.543 123.129C130.853 122.66 129.967 122.426 128.887 122.426ZM149.492 150.609C146.562 150.609 144.316 150.082 142.754 149.027C141.191 147.973 140.41 146.495 140.41 144.594C140.41 143.266 140.827 142.139 141.66 141.215C142.493 140.303 143.685 139.672 145.234 139.32C144.648 139.06 144.141 138.656 143.711 138.109C143.294 137.549 143.086 136.931 143.086 136.254C143.086 135.447 143.314 134.757 143.77 134.184C144.225 133.611 144.909 133.057 145.82 132.523C144.688 132.042 143.776 131.26 143.086 130.18C142.409 129.086 142.07 127.803 142.07 126.332C142.07 124.77 142.402 123.441 143.066 122.348C143.73 121.241 144.701 120.401 145.977 119.828C147.253 119.242 148.796 118.949 150.605 118.949C150.996 118.949 151.419 118.975 151.875 119.027C152.344 119.066 152.773 119.118 153.164 119.184C153.568 119.236 153.874 119.294 154.082 119.359H161.562V121.918L157.891 122.602C158.242 123.096 158.522 123.663 158.73 124.301C158.939 124.926 159.043 125.609 159.043 126.352C159.043 128.591 158.268 130.355 156.719 131.645C155.182 132.921 153.06 133.559 150.352 133.559C149.701 133.533 149.069 133.48 148.457 133.402C147.988 133.689 147.63 134.008 147.383 134.359C147.135 134.698 147.012 135.082 147.012 135.512C147.012 135.863 147.135 136.15 147.383 136.371C147.63 136.579 147.995 136.736 148.477 136.84C148.971 136.944 149.57 136.996 150.273 136.996H154.004C156.374 136.996 158.184 137.497 159.434 138.5C160.684 139.503 161.309 140.974 161.309 142.914C161.309 145.375 160.293 147.27 158.262 148.598C156.23 149.939 153.307 150.609 149.492 150.609ZM149.668 147.387C151.27 147.387 152.617 147.23 153.711 146.918C154.805 146.605 155.632 146.156 156.191 145.57C156.751 144.997 157.031 144.314 157.031 143.52C157.031 142.816 156.855 142.276 156.504 141.898C156.152 141.521 155.625 141.26 154.922 141.117C154.219 140.974 153.346 140.902 152.305 140.902H148.906C148.06 140.902 147.311 141.033 146.66 141.293C146.009 141.566 145.501 141.957 145.137 142.465C144.785 142.973 144.609 143.585 144.609 144.301C144.609 145.29 145.046 146.052 145.918 146.586C146.803 147.12 148.053 147.387 149.668 147.387ZM150.566 130.551C151.908 130.551 152.904 130.186 153.555 129.457C154.206 128.715 154.531 127.673 154.531 126.332C154.531 124.874 154.193 123.78 153.516 123.051C152.852 122.322 151.862 121.957 150.547 121.957C149.258 121.957 148.275 122.328 147.598 123.07C146.934 123.812 146.602 124.913 146.602 126.371C146.602 127.686 146.934 128.715 147.598 129.457C148.275 130.186 149.264 130.551 150.566 130.551ZM189.941 118.969C192.363 118.969 194.186 119.594 195.41 120.844C196.647 122.094 197.266 124.099 197.266 126.859V141H192.676V127.68C192.676 126.039 192.357 124.802 191.719 123.969C191.081 123.135 190.111 122.719 188.809 122.719C186.986 122.719 185.671 123.305 184.863 124.477C184.069 125.635 183.672 127.322 183.672 129.535V141H179.082V127.68C179.082 126.586 178.939 125.674 178.652 124.945C178.379 124.203 177.956 123.65 177.383 123.285C176.81 122.908 176.087 122.719 175.215 122.719C173.952 122.719 172.943 123.005 172.188 123.578C171.445 124.151 170.911 124.997 170.586 126.117C170.26 127.224 170.098 128.585 170.098 130.199V141H165.508V119.379H169.082L169.727 122.289H169.98C170.423 121.534 170.97 120.915 171.621 120.434C172.285 119.939 173.021 119.574 173.828 119.34C174.635 119.092 175.475 118.969 176.348 118.969C177.962 118.969 179.323 119.255 180.43 119.828C181.536 120.388 182.363 121.247 182.91 122.406H183.262C183.939 121.234 184.883 120.368 186.094 119.809C187.305 119.249 188.587 118.969 189.941 118.969ZM212.285 118.969C214.212 118.969 215.866 119.366 217.246 120.16C218.626 120.954 219.688 122.081 220.43 123.539C221.172 124.997 221.543 126.742 221.543 128.773V131.234H207.109C207.161 133.331 207.721 134.945 208.789 136.078C209.87 137.211 211.38 137.777 213.32 137.777C214.701 137.777 215.938 137.647 217.031 137.387C218.138 137.113 219.277 136.716 220.449 136.195V139.926C219.368 140.434 218.268 140.805 217.148 141.039C216.029 141.273 214.688 141.391 213.125 141.391C211.003 141.391 209.134 140.98 207.52 140.16C205.918 139.327 204.661 138.09 203.75 136.449C202.852 134.809 202.402 132.771 202.402 130.336C202.402 127.914 202.812 125.857 203.633 124.164C204.453 122.471 205.605 121.182 207.09 120.297C208.574 119.411 210.306 118.969 212.285 118.969ZM212.285 122.426C210.84 122.426 209.668 122.895 208.77 123.832C207.884 124.77 207.363 126.143 207.207 127.953H217.051C217.038 126.872 216.855 125.915 216.504 125.082C216.165 124.249 215.645 123.598 214.941 123.129C214.251 122.66 213.366 122.426 212.285 122.426ZM237.988 118.969C240.423 118.969 242.318 119.6 243.672 120.863C245.039 122.113 245.723 124.125 245.723 126.898V141H241.133V127.758C241.133 126.078 240.788 124.822 240.098 123.988C239.408 123.142 238.34 122.719 236.895 122.719C234.798 122.719 233.34 123.363 232.52 124.652C231.712 125.941 231.309 127.81 231.309 130.258V141H226.719V119.379H230.293L230.938 122.309H231.191C231.66 121.553 232.24 120.935 232.93 120.453C233.633 119.958 234.414 119.587 235.273 119.34C236.146 119.092 237.051 118.969 237.988 118.969ZM260.195 137.68C260.794 137.68 261.387 137.628 261.973 137.523C262.559 137.406 263.092 137.27 263.574 137.113V140.59C263.066 140.811 262.409 141 261.602 141.156C260.794 141.312 259.954 141.391 259.082 141.391C257.858 141.391 256.758 141.189 255.781 140.785C254.805 140.368 254.03 139.659 253.457 138.656C252.884 137.654 252.598 136.267 252.598 134.496V122.875H249.648V120.824L252.812 119.203L254.316 114.574H257.207V119.379H263.398V122.875H257.207V134.438C257.207 135.531 257.48 136.345 258.027 136.879C258.574 137.413 259.297 137.68 260.195 137.68ZM276.582 118.969C278.509 118.969 280.163 119.366 281.543 120.16C282.923 120.954 283.984 122.081 284.727 123.539C285.469 124.997 285.84 126.742 285.84 128.773V131.234H271.406C271.458 133.331 272.018 134.945 273.086 136.078C274.167 137.211 275.677 137.777 277.617 137.777C278.997 137.777 280.234 137.647 281.328 137.387C282.435 137.113 283.574 136.716 284.746 136.195V139.926C283.665 140.434 282.565 140.805 281.445 141.039C280.326 141.273 278.984 141.391 277.422 141.391C275.299 141.391 273.431 140.98 271.816 140.16C270.215 139.327 268.958 138.09 268.047 136.449C267.148 134.809 266.699 132.771 266.699 130.336C266.699 127.914 267.109 125.857 267.93 124.164C268.75 122.471 269.902 121.182 271.387 120.297C272.871 119.411 274.603 118.969 276.582 118.969ZM276.582 122.426C275.137 122.426 273.965 122.895 273.066 123.832C272.181 124.77 271.66 126.143 271.504 127.953H281.348C281.335 126.872 281.152 125.915 280.801 125.082C280.462 124.249 279.941 123.598 279.238 123.129C278.548 122.66 277.663 122.426 276.582 122.426ZM301.973 118.969C302.337 118.969 302.734 118.988 303.164 119.027C303.594 119.066 303.965 119.118 304.277 119.184L303.848 123.48C303.574 123.402 303.236 123.344 302.832 123.305C302.441 123.266 302.09 123.246 301.777 123.246C300.957 123.246 300.176 123.383 299.434 123.656C298.691 123.917 298.034 124.32 297.461 124.867C296.888 125.401 296.439 126.072 296.113 126.879C295.788 127.686 295.625 128.624 295.625 129.691V141H291.016V119.379H294.609L295.234 123.188H295.449C295.879 122.419 296.413 121.716 297.051 121.078C297.689 120.44 298.418 119.932 299.238 119.555C300.072 119.164 300.983 118.969 301.973 118.969Z" fill="black"/>
<rect x="69" y="221" width="262" height="56" rx="19" fill="#AC109D" fill-opacity="0.2" stroke="black" stroke-width="2"/>
<path d="M94.0625 265L87.1875 242.598H87.0117C87.0378 243.132 87.0768 243.939 87.1289 245.02C87.194 246.087 87.2526 247.227 87.3047 248.438C87.3568 249.648 87.3828 250.742 87.3828 251.719V265H81.9727V236.445H90.2148L96.9727 258.281H97.0898L104.258 236.445H112.5V265H106.855V251.484C106.855 250.586 106.868 249.551 106.895 248.379C106.934 247.207 106.979 246.094 107.031 245.039C107.083 243.971 107.122 243.171 107.148 242.637H106.973L99.6094 265H94.0625ZM139.082 254.043C139.082 255.866 138.835 257.48 138.34 258.887C137.858 260.293 137.148 261.484 136.211 262.461C135.286 263.424 134.167 264.154 132.852 264.648C131.549 265.143 130.078 265.391 128.438 265.391C126.901 265.391 125.488 265.143 124.199 264.648C122.923 264.154 121.81 263.424 120.859 262.461C119.922 261.484 119.193 260.293 118.672 258.887C118.164 257.48 117.91 255.866 117.91 254.043C117.91 251.621 118.34 249.57 119.199 247.891C120.059 246.211 121.283 244.935 122.871 244.062C124.46 243.19 126.354 242.754 128.555 242.754C130.599 242.754 132.409 243.19 133.984 244.062C135.573 244.935 136.816 246.211 137.715 247.891C138.626 249.57 139.082 251.621 139.082 254.043ZM123.984 254.043C123.984 255.475 124.141 256.68 124.453 257.656C124.766 258.633 125.254 259.368 125.918 259.863C126.582 260.358 127.448 260.605 128.516 260.605C129.57 260.605 130.423 260.358 131.074 259.863C131.738 259.368 132.22 258.633 132.52 257.656C132.832 256.68 132.988 255.475 132.988 254.043C132.988 252.598 132.832 251.4 132.52 250.449C132.22 249.486 131.738 248.763 131.074 248.281C130.41 247.799 129.544 247.559 128.477 247.559C126.901 247.559 125.755 248.099 125.039 249.18C124.336 250.26 123.984 251.882 123.984 254.043ZM156.191 242.754C156.491 242.754 156.836 242.773 157.227 242.812C157.63 242.839 157.956 242.878 158.203 242.93L157.754 248.516C157.559 248.451 157.279 248.405 156.914 248.379C156.562 248.34 156.257 248.32 155.996 248.32C155.228 248.32 154.479 248.418 153.75 248.613C153.034 248.809 152.389 249.128 151.816 249.57C151.243 250 150.788 250.573 150.449 251.289C150.124 251.992 149.961 252.858 149.961 253.887V265H144.004V243.164H148.516L149.395 246.836H149.688C150.117 246.094 150.651 245.417 151.289 244.805C151.94 244.18 152.676 243.685 153.496 243.32C154.329 242.943 155.228 242.754 156.191 242.754ZM174.316 242.754C176.777 242.754 178.763 243.711 180.273 245.625C181.797 247.539 182.559 250.345 182.559 254.043C182.559 256.517 182.201 258.6 181.484 260.293C180.768 261.973 179.779 263.242 178.516 264.102C177.253 264.961 175.801 265.391 174.16 265.391C173.105 265.391 172.201 265.26 171.445 265C170.69 264.727 170.046 264.382 169.512 263.965C168.978 263.535 168.516 263.079 168.125 262.598H167.812C167.917 263.118 167.995 263.652 168.047 264.199C168.099 264.746 168.125 265.28 168.125 265.801V274.609H162.168V243.164H167.012L167.852 245.996H168.125C168.516 245.41 168.991 244.87 169.551 244.375C170.111 243.88 170.781 243.49 171.562 243.203C172.357 242.904 173.275 242.754 174.316 242.754ZM172.402 247.52C171.361 247.52 170.534 247.734 169.922 248.164C169.31 248.594 168.861 249.238 168.574 250.098C168.301 250.957 168.151 252.044 168.125 253.359V254.004C168.125 255.41 168.255 256.602 168.516 257.578C168.789 258.555 169.238 259.297 169.863 259.805C170.501 260.312 171.374 260.566 172.48 260.566C173.392 260.566 174.141 260.312 174.727 259.805C175.312 259.297 175.749 258.555 176.035 257.578C176.335 256.589 176.484 255.384 176.484 253.965C176.484 251.829 176.152 250.221 175.488 249.141C174.824 248.06 173.796 247.52 172.402 247.52ZM193.438 234.609V240.801C193.438 241.882 193.398 242.91 193.32 243.887C193.255 244.863 193.203 245.553 193.164 245.957H193.477C193.945 245.202 194.499 244.59 195.137 244.121C195.788 243.652 196.504 243.307 197.285 243.086C198.066 242.865 198.906 242.754 199.805 242.754C201.38 242.754 202.754 243.034 203.926 243.594C205.098 244.141 206.009 245.007 206.66 246.191C207.311 247.363 207.637 248.887 207.637 250.762V265H201.68V252.246C201.68 250.684 201.393 249.505 200.82 248.711C200.247 247.917 199.362 247.52 198.164 247.52C196.966 247.52 196.022 247.799 195.332 248.359C194.642 248.906 194.154 249.72 193.867 250.801C193.581 251.868 193.438 253.177 193.438 254.727V265H187.48V234.609H193.438ZM223.359 236.445C227.044 236.445 229.733 237.24 231.426 238.828C233.118 240.404 233.965 242.578 233.965 245.352C233.965 246.602 233.776 247.799 233.398 248.945C233.021 250.078 232.402 251.087 231.543 251.973C230.697 252.858 229.564 253.561 228.145 254.082C226.725 254.59 224.974 254.844 222.891 254.844H220.293V265H214.238V236.445H223.359ZM223.047 241.406H220.293V249.883H222.285C223.418 249.883 224.401 249.733 225.234 249.434C226.068 249.134 226.712 248.665 227.168 248.027C227.624 247.389 227.852 246.569 227.852 245.566C227.852 244.16 227.461 243.118 226.68 242.441C225.898 241.751 224.688 241.406 223.047 241.406ZM247.832 242.715C250.762 242.715 253.008 243.353 254.57 244.629C256.133 245.905 256.914 247.845 256.914 250.449V265H252.754L251.602 262.031H251.445C250.82 262.812 250.182 263.451 249.531 263.945C248.88 264.44 248.132 264.805 247.285 265.039C246.439 265.273 245.41 265.391 244.199 265.391C242.91 265.391 241.751 265.143 240.723 264.648C239.707 264.154 238.906 263.398 238.32 262.383C237.734 261.354 237.441 260.052 237.441 258.477C237.441 256.159 238.255 254.453 239.883 253.359C241.51 252.253 243.952 251.641 247.207 251.523L250.996 251.406V250.449C250.996 249.303 250.697 248.464 250.098 247.93C249.499 247.396 248.665 247.129 247.598 247.129C246.543 247.129 245.508 247.279 244.492 247.578C243.477 247.878 242.461 248.255 241.445 248.711L239.473 244.688C240.632 244.076 241.927 243.594 243.359 243.242C244.805 242.891 246.296 242.715 247.832 242.715ZM250.996 254.883L248.691 254.961C246.764 255.013 245.423 255.358 244.668 255.996C243.926 256.634 243.555 257.474 243.555 258.516C243.555 259.427 243.822 260.078 244.355 260.469C244.889 260.846 245.586 261.035 246.445 261.035C247.721 261.035 248.796 260.658 249.668 259.902C250.553 259.147 250.996 258.073 250.996 256.68V254.883ZM275.254 242.754C275.553 242.754 275.898 242.773 276.289 242.812C276.693 242.839 277.018 242.878 277.266 242.93L276.816 248.516C276.621 248.451 276.341 248.405 275.977 248.379C275.625 248.34 275.319 248.32 275.059 248.32C274.29 248.32 273.542 248.418 272.812 248.613C272.096 248.809 271.452 249.128 270.879 249.57C270.306 250 269.85 250.573 269.512 251.289C269.186 251.992 269.023 252.858 269.023 253.887V265H263.066V243.164H267.578L268.457 246.836H268.75C269.18 246.094 269.714 245.417 270.352 244.805C271.003 244.18 271.738 243.685 272.559 243.32C273.392 242.943 274.29 242.754 275.254 242.754ZM296.465 258.516C296.465 260 296.113 261.257 295.41 262.285C294.72 263.301 293.685 264.076 292.305 264.609C290.924 265.13 289.206 265.391 287.148 265.391C285.625 265.391 284.316 265.293 283.223 265.098C282.142 264.902 281.048 264.577 279.941 264.121V259.199C281.126 259.733 282.396 260.176 283.75 260.527C285.117 260.866 286.315 261.035 287.344 261.035C288.503 261.035 289.329 260.866 289.824 260.527C290.332 260.176 290.586 259.72 290.586 259.16C290.586 258.796 290.482 258.47 290.273 258.184C290.078 257.884 289.648 257.552 288.984 257.188C288.32 256.81 287.279 256.322 285.859 255.723C284.492 255.15 283.366 254.57 282.48 253.984C281.608 253.398 280.957 252.708 280.527 251.914C280.111 251.107 279.902 250.085 279.902 248.848C279.902 246.829 280.684 245.312 282.246 244.297C283.822 243.268 285.924 242.754 288.555 242.754C289.909 242.754 291.198 242.891 292.422 243.164C293.659 243.438 294.928 243.874 296.23 244.473L294.434 248.77C293.353 248.301 292.331 247.917 291.367 247.617C290.417 247.318 289.447 247.168 288.457 247.168C287.585 247.168 286.927 247.285 286.484 247.52C286.042 247.754 285.82 248.112 285.82 248.594C285.82 248.945 285.931 249.258 286.152 249.531C286.387 249.805 286.829 250.111 287.48 250.449C288.145 250.775 289.115 251.198 290.391 251.719C291.628 252.227 292.702 252.76 293.613 253.32C294.525 253.867 295.228 254.551 295.723 255.371C296.217 256.178 296.465 257.227 296.465 258.516ZM310.117 242.754C312.135 242.754 313.874 243.145 315.332 243.926C316.79 244.694 317.917 245.814 318.711 247.285C319.505 248.757 319.902 250.553 319.902 252.676V255.566H305.82C305.885 257.246 306.387 258.568 307.324 259.531C308.275 260.482 309.59 260.957 311.27 260.957C312.663 260.957 313.939 260.814 315.098 260.527C316.257 260.241 317.448 259.811 318.672 259.238V263.848C317.591 264.382 316.458 264.772 315.273 265.02C314.102 265.267 312.676 265.391 310.996 265.391C308.809 265.391 306.868 264.987 305.176 264.18C303.496 263.372 302.174 262.142 301.211 260.488C300.26 258.835 299.785 256.751 299.785 254.238C299.785 251.686 300.215 249.564 301.074 247.871C301.947 246.165 303.158 244.889 304.707 244.043C306.257 243.184 308.06 242.754 310.117 242.754ZM310.156 246.992C308.997 246.992 308.034 247.363 307.266 248.105C306.51 248.848 306.074 250.013 305.957 251.602H314.316C314.303 250.716 314.141 249.928 313.828 249.238C313.529 248.548 313.073 248.001 312.461 247.598C311.862 247.194 311.094 246.992 310.156 246.992Z" fill="black"/>
<path d="M207 96L218.547 76H195.453L207 96ZM209 78V38H205V78H209Z" fill="black"/>
<path d="M207 336L218.547 316H195.453L207 336ZM209 318V278H205V318H209Z" fill="black"/>
<path d="M207 220L218.547 200H195.453L207 220ZM209 202V154H205V202H209Z" fill="black"/>
<path d="M153.284 13.584C153.089 14.3555 152.894 15.1758 152.698 16.0449C152.503 16.9141 152.322 17.7734 152.156 18.623C152 19.4629 151.873 20.2295 151.775 20.9229H148.421L148.216 20.6006C148.392 19.8877 148.616 19.126 148.89 18.3154C149.173 17.5049 149.476 16.6943 149.798 15.8838C150.13 15.0635 150.462 14.2969 150.794 13.584H153.284ZM147.176 13.584C146.98 14.3555 146.785 15.1758 146.59 16.0449C146.395 16.9141 146.214 17.7734 146.048 18.623C145.892 19.4629 145.76 20.2295 145.652 20.9229H142.312L142.122 20.6006C142.298 19.8877 142.522 19.126 142.796 18.3154C143.069 17.5049 143.367 16.6943 143.689 15.8838C144.021 15.0635 144.354 14.2969 144.686 13.584H147.176ZM166.98 35H154.661V32.876L162.85 21.4355H155.159V18.7842H166.746V21.1279L158.719 32.3486H166.98V35ZM184.837 26.8555C184.837 28.2031 184.661 29.3994 184.31 30.4443C183.958 31.4893 183.445 32.373 182.771 33.0957C182.098 33.8086 181.287 34.3555 180.34 34.7363C179.393 35.1074 178.323 35.293 177.132 35.293C176.019 35.293 174.998 35.1074 174.07 34.7363C173.143 34.3555 172.337 33.8086 171.653 33.0957C170.979 32.373 170.457 31.4893 170.086 30.4443C169.715 29.3994 169.529 28.2031 169.529 26.8555C169.529 25.0684 169.837 23.5547 170.452 22.3145C171.077 21.0645 171.966 20.1123 173.118 19.458C174.271 18.8037 175.643 18.4766 177.234 18.4766C178.729 18.4766 180.047 18.8037 181.189 19.458C182.332 20.1123 183.226 21.0645 183.87 22.3145C184.515 23.5645 184.837 25.0781 184.837 26.8555ZM173.074 26.8555C173.074 28.0371 173.216 29.0479 173.499 29.8877C173.792 30.7275 174.241 31.3721 174.847 31.8213C175.452 32.2607 176.233 32.4805 177.19 32.4805C178.147 32.4805 178.929 32.2607 179.534 31.8213C180.14 31.3721 180.584 30.7275 180.867 29.8877C181.15 29.0479 181.292 28.0371 181.292 26.8555C181.292 25.6738 181.15 24.6729 180.867 23.8525C180.584 23.0225 180.14 22.3926 179.534 21.9629C178.929 21.5234 178.143 21.3037 177.176 21.3037C175.75 21.3037 174.71 21.7822 174.056 22.7393C173.401 23.6963 173.074 25.0684 173.074 26.8555ZM192.234 12.207V17.7002C192.234 18.335 192.215 18.96 192.176 19.5752C192.146 20.1807 192.117 20.6543 192.088 20.9961H192.234C192.674 20.293 193.284 19.7021 194.065 19.2236C194.856 18.7354 195.867 18.4912 197.098 18.4912C199.021 18.4912 200.569 19.1992 201.741 20.6152C202.913 22.0215 203.499 24.1064 203.499 26.8701C203.499 28.7061 203.23 30.249 202.693 31.499C202.156 32.749 201.399 33.6963 200.423 34.3408C199.456 34.9756 198.318 35.293 197.01 35.293C195.779 35.293 194.783 35.0684 194.021 34.6191C193.27 34.1602 192.679 33.6279 192.249 33.0225H192L191.37 35H188.792V12.207H192.234ZM196.189 21.2891C195.213 21.2891 194.437 21.4844 193.86 21.875C193.294 22.2656 192.884 22.8516 192.63 23.6328C192.376 24.4043 192.244 25.3857 192.234 26.5771V26.8848C192.234 28.6914 192.518 30.0732 193.084 31.0303C193.66 31.9873 194.705 32.4658 196.219 32.4658C197.42 32.4658 198.343 31.9824 198.987 31.0156C199.632 30.0391 199.954 28.6426 199.954 26.8262C199.954 24.9902 199.632 23.6084 198.987 22.6807C198.353 21.7529 197.42 21.2891 196.189 21.2891ZM221.839 26.8555C221.839 28.2031 221.663 29.3994 221.312 30.4443C220.96 31.4893 220.447 32.373 219.773 33.0957C219.1 33.8086 218.289 34.3555 217.342 34.7363C216.395 35.1074 215.325 35.293 214.134 35.293C213.021 35.293 212 35.1074 211.072 34.7363C210.145 34.3555 209.339 33.8086 208.655 33.0957C207.981 32.373 207.459 31.4893 207.088 30.4443C206.717 29.3994 206.531 28.2031 206.531 26.8555C206.531 25.0684 206.839 23.5547 207.454 22.3145C208.079 21.0645 208.968 20.1123 210.12 19.458C211.272 18.8037 212.645 18.4766 214.236 18.4766C215.73 18.4766 217.049 18.8037 218.191 19.458C219.334 20.1123 220.228 21.0645 220.872 22.3145C221.517 23.5645 221.839 25.0781 221.839 26.8555ZM210.076 26.8555C210.076 28.0371 210.218 29.0479 210.501 29.8877C210.794 30.7275 211.243 31.3721 211.849 31.8213C212.454 32.2607 213.235 32.4805 214.192 32.4805C215.149 32.4805 215.931 32.2607 216.536 31.8213C217.142 31.3721 217.586 30.7275 217.869 29.8877C218.152 29.0479 218.294 28.0371 218.294 26.8555C218.294 25.6738 218.152 24.6729 217.869 23.8525C217.586 23.0225 217.142 22.3926 216.536 21.9629C215.931 21.5234 215.145 21.3037 214.178 21.3037C212.752 21.3037 211.712 21.7822 211.058 22.7393C210.403 23.6963 210.076 25.0684 210.076 26.8555ZM244.119 18.4766C245.936 18.4766 247.303 18.9453 248.221 19.8828C249.148 20.8203 249.612 22.3242 249.612 24.3945V35H246.17V25.0098C246.17 23.7793 245.931 22.8516 245.452 22.2266C244.974 21.6016 244.246 21.2891 243.27 21.2891C241.902 21.2891 240.916 21.7285 240.311 22.6074C239.715 23.4766 239.417 24.7412 239.417 26.4014V35H235.975V25.0098C235.975 24.1895 235.867 23.5059 235.652 22.959C235.447 22.4023 235.13 21.9873 234.7 21.7139C234.271 21.4307 233.729 21.2891 233.074 21.2891C232.127 21.2891 231.37 21.5039 230.804 21.9336C230.247 22.3633 229.847 22.998 229.603 23.8379C229.358 24.668 229.236 25.6885 229.236 26.8994V35H225.794V18.7842H228.475L228.958 20.9668H229.148C229.48 20.4004 229.891 19.9365 230.379 19.5752C230.877 19.2041 231.429 18.9307 232.034 18.7549C232.64 18.5693 233.27 18.4766 233.924 18.4766C235.135 18.4766 236.155 18.6914 236.985 19.1211C237.815 19.541 238.436 20.1855 238.846 21.0547H239.109C239.617 20.1758 240.325 19.5264 241.233 19.1064C242.142 18.6865 243.104 18.4766 244.119 18.4766ZM257.859 18.7842V35H254.417V18.7842H257.859ZM256.16 12.5732C256.688 12.5732 257.142 12.7148 257.522 12.998C257.913 13.2812 258.108 13.7695 258.108 14.4629C258.108 15.1465 257.913 15.6348 257.522 15.9277C257.142 16.2109 256.688 16.3525 256.16 16.3525C255.613 16.3525 255.149 16.2109 254.769 15.9277C254.397 15.6348 254.212 15.1465 254.212 14.4629C254.212 13.7695 254.397 13.2812 254.769 12.998C255.149 12.7148 255.613 12.5732 256.16 12.5732ZM271.658 13.584L271.878 13.9062C271.702 14.6191 271.473 15.3809 271.189 16.1914C270.916 17.002 270.618 17.8125 270.296 18.623C269.974 19.4336 269.646 20.2002 269.314 20.9229H266.795C266.99 20.1514 267.186 19.3311 267.381 18.4619C267.576 17.5928 267.757 16.7334 267.923 15.8838C268.089 15.0342 268.221 14.2676 268.318 13.584H271.658ZM265.55 13.584L265.755 13.9062C265.579 14.6191 265.35 15.3809 265.066 16.1914C264.793 17.002 264.495 17.8125 264.173 18.623C263.851 19.4336 263.523 20.2002 263.191 20.9229H260.716C260.853 20.3467 260.994 19.7412 261.141 19.1064C261.287 18.4619 261.424 17.8174 261.551 17.1729C261.688 16.5186 261.81 15.8887 261.917 15.2832C262.034 14.668 262.127 14.1016 262.195 13.584H265.55Z" fill="black"/>
<rect x="99" y="168" width="206" height="26" fill="#FFF8F8"/>
<path d="M116.493 191H104.174V188.876L112.362 177.436H104.672V174.784H116.259V177.128L108.231 188.349H116.493V191ZM126.352 174.477C128.402 174.477 129.95 174.931 130.995 175.839C132.05 176.747 132.577 178.163 132.577 180.087V191H130.131L129.472 188.7H129.354C128.896 189.286 128.422 189.77 127.934 190.15C127.445 190.531 126.879 190.814 126.234 191C125.6 191.195 124.823 191.293 123.905 191.293C122.938 191.293 122.074 191.117 121.312 190.766C120.551 190.404 119.95 189.857 119.511 189.125C119.071 188.393 118.852 187.465 118.852 186.342C118.852 184.672 119.472 183.417 120.712 182.577C121.962 181.737 123.847 181.273 126.366 181.186L129.179 181.083V180.233C129.179 179.11 128.915 178.31 128.388 177.831C127.87 177.353 127.138 177.113 126.19 177.113C125.38 177.113 124.594 177.23 123.832 177.465C123.07 177.699 122.328 177.987 121.605 178.329L120.492 175.897C121.283 175.478 122.182 175.136 123.188 174.872C124.203 174.608 125.258 174.477 126.352 174.477ZM129.164 183.251L127.069 183.324C125.351 183.383 124.145 183.676 123.451 184.203C122.758 184.73 122.411 185.453 122.411 186.371C122.411 187.172 122.65 187.758 123.129 188.129C123.607 188.49 124.237 188.671 125.019 188.671C126.21 188.671 127.196 188.334 127.978 187.66C128.769 186.977 129.164 185.976 129.164 184.657V183.251ZM135.99 184.408V181.493H143.549V184.408H135.99ZM161.2 174.784V191H158.49L158.021 188.817H157.831C157.489 189.374 157.055 189.838 156.527 190.209C156 190.57 155.414 190.839 154.77 191.015C154.125 191.2 153.446 191.293 152.733 191.293C151.513 191.293 150.468 191.088 149.599 190.678C148.739 190.258 148.08 189.613 147.621 188.744C147.162 187.875 146.933 186.752 146.933 185.375V174.784H150.39V184.73C150.39 185.99 150.644 186.933 151.151 187.558C151.669 188.183 152.47 188.495 153.554 188.495C154.599 188.495 155.429 188.28 156.044 187.851C156.659 187.421 157.094 186.786 157.348 185.946C157.611 185.106 157.743 184.076 157.743 182.855V174.784H161.2ZM164.73 184.408V181.493H172.289V184.408H164.73ZM174.545 182.782C174.545 181.142 174.701 179.54 175.014 177.978C175.336 176.415 175.824 174.926 176.479 173.51C177.133 172.094 177.958 170.785 178.954 169.584H181.957C180.561 171.449 179.506 173.515 178.793 175.78C178.09 178.046 177.738 180.37 177.738 182.753C177.738 184.306 177.895 185.844 178.207 187.367C178.52 188.891 178.988 190.355 179.613 191.762C180.238 193.178 181.01 194.506 181.928 195.746H178.954C177.958 194.574 177.133 193.295 176.479 191.908C175.824 190.521 175.336 189.057 175.014 187.514C174.701 185.971 174.545 184.394 174.545 182.782ZM188.769 168.207V173.7C188.769 174.335 188.749 174.96 188.71 175.575C188.681 176.181 188.651 176.654 188.622 176.996H188.769C189.208 176.293 189.818 175.702 190.6 175.224C191.391 174.735 192.401 174.491 193.632 174.491C195.556 174.491 197.104 175.199 198.275 176.615C199.447 178.021 200.033 180.106 200.033 182.87C200.033 184.706 199.765 186.249 199.228 187.499C198.69 188.749 197.934 189.696 196.957 190.341C195.99 190.976 194.853 191.293 193.544 191.293C192.313 191.293 191.317 191.068 190.556 190.619C189.804 190.16 189.213 189.628 188.783 189.022H188.534L187.904 191H185.326V168.207H188.769ZM192.724 177.289C191.747 177.289 190.971 177.484 190.395 177.875C189.828 178.266 189.418 178.852 189.164 179.633C188.91 180.404 188.778 181.386 188.769 182.577V182.885C188.769 184.691 189.052 186.073 189.618 187.03C190.194 187.987 191.239 188.466 192.753 188.466C193.954 188.466 194.877 187.982 195.521 187.016C196.166 186.039 196.488 184.643 196.488 182.826C196.488 180.99 196.166 179.608 195.521 178.681C194.887 177.753 193.954 177.289 192.724 177.289ZM218.153 174.784V191H215.443L214.975 188.817H214.784C214.442 189.374 214.008 189.838 213.48 190.209C212.953 190.57 212.367 190.839 211.723 191.015C211.078 191.2 210.399 191.293 209.687 191.293C208.466 191.293 207.421 191.088 206.552 190.678C205.692 190.258 205.033 189.613 204.574 188.744C204.115 187.875 203.886 186.752 203.886 185.375V174.784H207.343V184.73C207.343 185.99 207.597 186.933 208.104 187.558C208.622 188.183 209.423 188.495 210.507 188.495C211.552 188.495 212.382 188.28 212.997 187.851C213.612 187.421 214.047 186.786 214.301 185.946C214.564 185.106 214.696 184.076 214.696 182.855V174.784H218.153ZM228.935 182.768C228.935 184.389 228.778 185.971 228.466 187.514C228.153 189.057 227.67 190.521 227.016 191.908C226.371 193.295 225.541 194.574 224.525 195.746H221.566C222.484 194.506 223.256 193.178 223.881 191.762C224.506 190.346 224.975 188.876 225.287 187.353C225.6 185.829 225.756 184.291 225.756 182.738C225.756 181.156 225.595 179.594 225.272 178.051C224.96 176.508 224.491 175.023 223.866 173.598C223.241 172.162 222.465 170.824 221.537 169.584H224.525C225.541 170.785 226.371 172.094 227.016 173.51C227.67 174.926 228.153 176.415 228.466 177.978C228.778 179.53 228.935 181.127 228.935 182.768ZM231.205 184.408V181.493H238.764V184.408H231.205ZM245.722 168.207V173.7C245.722 174.335 245.702 174.96 245.663 175.575C245.634 176.181 245.604 176.654 245.575 176.996H245.722C246.161 176.293 246.771 175.702 247.553 175.224C248.344 174.735 249.354 174.491 250.585 174.491C252.509 174.491 254.057 175.199 255.229 176.615C256.4 178.021 256.986 180.106 256.986 182.87C256.986 184.706 256.718 186.249 256.181 187.499C255.644 188.749 254.887 189.696 253.91 190.341C252.943 190.976 251.806 191.293 250.497 191.293C249.267 191.293 248.271 191.068 247.509 190.619C246.757 190.16 246.166 189.628 245.736 189.022H245.487L244.857 191H242.279V168.207H245.722ZM249.677 177.289C248.7 177.289 247.924 177.484 247.348 177.875C246.781 178.266 246.371 178.852 246.117 179.633C245.863 180.404 245.731 181.386 245.722 182.577V182.885C245.722 184.691 246.005 186.073 246.571 187.03C247.147 187.987 248.192 188.466 249.706 188.466C250.907 188.466 251.83 187.982 252.475 187.016C253.119 186.039 253.441 184.643 253.441 182.826C253.441 180.99 253.119 179.608 252.475 178.681C251.84 177.753 250.907 177.289 249.677 177.289ZM275.326 182.855C275.326 184.203 275.15 185.399 274.799 186.444C274.447 187.489 273.935 188.373 273.261 189.096C272.587 189.809 271.776 190.355 270.829 190.736C269.882 191.107 268.812 191.293 267.621 191.293C266.508 191.293 265.487 191.107 264.56 190.736C263.632 190.355 262.826 189.809 262.143 189.096C261.469 188.373 260.946 187.489 260.575 186.444C260.204 185.399 260.019 184.203 260.019 182.855C260.019 181.068 260.326 179.555 260.941 178.314C261.566 177.064 262.455 176.112 263.607 175.458C264.76 174.804 266.132 174.477 267.724 174.477C269.218 174.477 270.536 174.804 271.679 175.458C272.821 176.112 273.715 177.064 274.359 178.314C275.004 179.564 275.326 181.078 275.326 182.855ZM263.563 182.855C263.563 184.037 263.705 185.048 263.988 185.888C264.281 186.728 264.73 187.372 265.336 187.821C265.941 188.261 266.723 188.48 267.68 188.48C268.637 188.48 269.418 188.261 270.023 187.821C270.629 187.372 271.073 186.728 271.356 185.888C271.64 185.048 271.781 184.037 271.781 182.855C271.781 181.674 271.64 180.673 271.356 179.853C271.073 179.022 270.629 178.393 270.023 177.963C269.418 177.523 268.632 177.304 267.665 177.304C266.239 177.304 265.199 177.782 264.545 178.739C263.891 179.696 263.563 181.068 263.563 182.855ZM297.606 174.477C299.423 174.477 300.79 174.945 301.708 175.883C302.636 176.82 303.1 178.324 303.1 180.395V191H299.657V181.01C299.657 179.779 299.418 178.852 298.939 178.227C298.461 177.602 297.733 177.289 296.757 177.289C295.39 177.289 294.403 177.729 293.798 178.607C293.202 179.477 292.904 180.741 292.904 182.401V191H289.462V181.01C289.462 180.189 289.354 179.506 289.14 178.959C288.935 178.402 288.617 177.987 288.188 177.714C287.758 177.431 287.216 177.289 286.562 177.289C285.614 177.289 284.857 177.504 284.291 177.934C283.734 178.363 283.334 178.998 283.09 179.838C282.846 180.668 282.724 181.688 282.724 182.899V191H279.281V174.784H281.962L282.445 176.967H282.636C282.968 176.4 283.378 175.937 283.866 175.575C284.364 175.204 284.916 174.931 285.521 174.755C286.127 174.569 286.757 174.477 287.411 174.477C288.622 174.477 289.643 174.691 290.473 175.121C291.303 175.541 291.923 176.186 292.333 177.055H292.597C293.104 176.176 293.812 175.526 294.721 175.106C295.629 174.687 296.591 174.477 297.606 174.477ZM311.347 174.784V191H307.904V174.784H311.347ZM309.647 168.573C310.175 168.573 310.629 168.715 311.01 168.998C311.4 169.281 311.596 169.77 311.596 170.463C311.596 171.146 311.4 171.635 311.01 171.928C310.629 172.211 310.175 172.353 309.647 172.353C309.101 172.353 308.637 172.211 308.256 171.928C307.885 171.635 307.699 171.146 307.699 170.463C307.699 169.77 307.885 169.281 308.256 168.998C308.637 168.715 309.101 168.573 309.647 168.573Z" fill="black"/>
<path d="M19.0537 368H6.73438V365.876L14.9229 354.436H7.23242V351.784H18.8193V354.128L10.792 365.349H19.0537V368ZM28.9121 351.477C30.9629 351.477 32.5107 351.931 33.5557 352.839C34.6104 353.747 35.1377 355.163 35.1377 357.087V368H32.6914L32.0322 365.7H31.915C31.4561 366.286 30.9824 366.77 30.4941 367.15C30.0059 367.531 29.4395 367.814 28.7949 368C28.1602 368.195 27.3838 368.293 26.4658 368.293C25.499 368.293 24.6348 368.117 23.873 367.766C23.1113 367.404 22.5107 366.857 22.0713 366.125C21.6318 365.393 21.4121 364.465 21.4121 363.342C21.4121 361.672 22.0322 360.417 23.2725 359.577C24.5225 358.737 26.4072 358.273 28.9268 358.186L31.7393 358.083V357.233C31.7393 356.11 31.4756 355.31 30.9482 354.831C30.4307 354.353 29.6982 354.113 28.751 354.113C27.9404 354.113 27.1543 354.23 26.3926 354.465C25.6309 354.699 24.8887 354.987 24.166 355.329L23.0527 352.897C23.8438 352.478 24.7422 352.136 25.748 351.872C26.7637 351.608 27.8184 351.477 28.9121 351.477ZM31.7246 360.251L29.6299 360.324C27.9111 360.383 26.7051 360.676 26.0117 361.203C25.3184 361.73 24.9717 362.453 24.9717 363.371C24.9717 364.172 25.2109 364.758 25.6895 365.129C26.168 365.49 26.7979 365.671 27.5791 365.671C28.7705 365.671 29.7568 365.334 30.5381 364.66C31.3291 363.977 31.7246 362.976 31.7246 361.657V360.251ZM229.947 361.408V358.493H237.506V361.408H229.947ZM255.157 351.784V368H252.447L251.979 365.817H251.788C251.446 366.374 251.012 366.838 250.484 367.209C249.957 367.57 249.371 367.839 248.727 368.015C248.082 368.2 247.403 368.293 246.69 368.293C245.47 368.293 244.425 368.088 243.556 367.678C242.696 367.258 242.037 366.613 241.578 365.744C241.119 364.875 240.89 363.752 240.89 362.375V351.784H244.347V361.73C244.347 362.99 244.601 363.933 245.108 364.558C245.626 365.183 246.427 365.495 247.511 365.495C248.556 365.495 249.386 365.28 250.001 364.851C250.616 364.421 251.051 363.786 251.305 362.946C251.568 362.106 251.7 361.076 251.7 359.855V351.784H255.157ZM433.648 361.408V358.493H441.207V361.408H433.648ZM34.9326 400.782C34.9326 399.142 35.0889 397.54 35.4014 395.978C35.7236 394.415 36.2119 392.926 36.8662 391.51C37.5205 390.094 38.3457 388.785 39.3418 387.584H42.3447C40.9482 389.449 39.8936 391.515 39.1807 393.78C38.4775 396.046 38.126 398.37 38.126 400.753C38.126 402.306 38.2822 403.844 38.5947 405.367C38.9072 406.891 39.376 408.355 40.001 409.762C40.626 411.178 41.3975 412.506 42.3154 413.746H39.3418C38.3457 412.574 37.5205 411.295 36.8662 409.908C36.2119 408.521 35.7236 407.057 35.4014 405.514C35.0889 403.971 34.9326 402.394 34.9326 400.782ZM49.1562 386.207V391.7C49.1562 392.335 49.1367 392.96 49.0977 393.575C49.0684 394.181 49.0391 394.654 49.0098 394.996H49.1562C49.5957 394.293 50.2061 393.702 50.9873 393.224C51.7783 392.735 52.7891 392.491 54.0195 392.491C55.9434 392.491 57.4912 393.199 58.6631 394.615C59.835 396.021 60.4209 398.106 60.4209 400.87C60.4209 402.706 60.1523 404.249 59.6152 405.499C59.0781 406.749 58.3213 407.696 57.3447 408.341C56.3779 408.976 55.2402 409.293 53.9316 409.293C52.7012 409.293 51.7051 409.068 50.9434 408.619C50.1914 408.16 49.6006 407.628 49.1709 407.022H48.9219L48.292 409H45.7139V386.207H49.1562ZM53.1113 395.289C52.1348 395.289 51.3584 395.484 50.7822 395.875C50.2158 396.266 49.8057 396.852 49.5518 397.633C49.2979 398.404 49.166 399.386 49.1562 400.577V400.885C49.1562 402.691 49.4395 404.073 50.0059 405.03C50.582 405.987 51.627 406.466 53.1406 406.466C54.3418 406.466 55.2646 405.982 55.9092 405.016C56.5537 404.039 56.876 402.643 56.876 400.826C56.876 398.99 56.5537 397.608 55.9092 396.681C55.2744 395.753 54.3418 395.289 53.1113 395.289ZM78.541 392.784V409H75.8311L75.3623 406.817H75.1719C74.8301 407.374 74.3955 407.838 73.8682 408.209C73.3408 408.57 72.7549 408.839 72.1104 409.015C71.4658 409.2 70.7871 409.293 70.0742 409.293C68.8535 409.293 67.8086 409.088 66.9395 408.678C66.0801 408.258 65.4209 407.613 64.9619 406.744C64.5029 405.875 64.2734 404.752 64.2734 403.375V392.784H67.7305V402.73C67.7305 403.99 67.9844 404.933 68.4922 405.558C69.0098 406.183 69.8105 406.495 70.8945 406.495C71.9395 406.495 72.7695 406.28 73.3848 405.851C74 405.421 74.4346 404.786 74.6885 403.946C74.9521 403.106 75.084 402.076 75.084 400.855V392.784H78.541ZM89.3223 400.768C89.3223 402.389 89.166 403.971 88.8535 405.514C88.541 407.057 88.0576 408.521 87.4033 409.908C86.7588 411.295 85.9287 412.574 84.9131 413.746H81.9541C82.8721 412.506 83.6436 411.178 84.2686 409.762C84.8936 408.346 85.3623 406.876 85.6748 405.353C85.9873 403.829 86.1436 402.291 86.1436 400.738C86.1436 399.156 85.9824 397.594 85.6602 396.051C85.3477 394.508 84.8789 393.023 84.2539 391.598C83.6289 390.162 82.8525 388.824 81.9248 387.584H84.9131C85.9287 388.785 86.7588 390.094 87.4033 391.51C88.0576 392.926 88.541 394.415 88.8535 395.978C89.166 397.53 89.3223 399.127 89.3223 400.768ZM214.142 402.408V399.493H221.7V402.408H214.142ZM228.658 386.207V391.7C228.658 392.335 228.639 392.96 228.6 393.575C228.57 394.181 228.541 394.654 228.512 394.996H228.658C229.098 394.293 229.708 393.702 230.489 393.224C231.28 392.735 232.291 392.491 233.521 392.491C235.445 392.491 236.993 393.199 238.165 394.615C239.337 396.021 239.923 398.106 239.923 400.87C239.923 402.706 239.654 404.249 239.117 405.499C238.58 406.749 237.823 407.696 236.847 408.341C235.88 408.976 234.742 409.293 233.434 409.293C232.203 409.293 231.207 409.068 230.445 408.619C229.693 408.16 229.103 407.628 228.673 407.022H228.424L227.794 409H225.216V386.207H228.658ZM232.613 395.289C231.637 395.289 230.86 395.484 230.284 395.875C229.718 396.266 229.308 396.852 229.054 397.633C228.8 398.404 228.668 399.386 228.658 400.577V400.885C228.658 402.691 228.941 404.073 229.508 405.03C230.084 405.987 231.129 406.466 232.643 406.466C233.844 406.466 234.767 405.982 235.411 405.016C236.056 404.039 236.378 402.643 236.378 400.826C236.378 398.99 236.056 397.608 235.411 396.681C234.776 395.753 233.844 395.289 232.613 395.289ZM258.263 400.855C258.263 402.203 258.087 403.399 257.735 404.444C257.384 405.489 256.871 406.373 256.197 407.096C255.523 407.809 254.713 408.355 253.766 408.736C252.818 409.107 251.749 409.293 250.558 409.293C249.444 409.293 248.424 409.107 247.496 408.736C246.568 408.355 245.763 407.809 245.079 407.096C244.405 406.373 243.883 405.489 243.512 404.444C243.141 403.399 242.955 402.203 242.955 400.855C242.955 399.068 243.263 397.555 243.878 396.314C244.503 395.064 245.392 394.112 246.544 393.458C247.696 392.804 249.068 392.477 250.66 392.477C252.154 392.477 253.473 392.804 254.615 393.458C255.758 394.112 256.651 395.064 257.296 396.314C257.94 397.564 258.263 399.078 258.263 400.855ZM246.5 400.855C246.5 402.037 246.642 403.048 246.925 403.888C247.218 404.728 247.667 405.372 248.272 405.821C248.878 406.261 249.659 406.48 250.616 406.48C251.573 406.48 252.354 406.261 252.96 405.821C253.565 405.372 254.01 404.728 254.293 403.888C254.576 403.048 254.718 402.037 254.718 400.855C254.718 399.674 254.576 398.673 254.293 397.853C254.01 397.022 253.565 396.393 252.96 395.963C252.354 395.523 251.568 395.304 250.602 395.304C249.176 395.304 248.136 395.782 247.481 396.739C246.827 397.696 246.5 399.068 246.5 400.855ZM280.543 392.477C282.359 392.477 283.727 392.945 284.645 393.883C285.572 394.82 286.036 396.324 286.036 398.395V409H282.594V399.01C282.594 397.779 282.354 396.852 281.876 396.227C281.397 395.602 280.67 395.289 279.693 395.289C278.326 395.289 277.34 395.729 276.734 396.607C276.139 397.477 275.841 398.741 275.841 400.401V409H272.398V399.01C272.398 398.189 272.291 397.506 272.076 396.959C271.871 396.402 271.554 395.987 271.124 395.714C270.694 395.431 270.152 395.289 269.498 395.289C268.551 395.289 267.794 395.504 267.228 395.934C266.671 396.363 266.271 396.998 266.026 397.838C265.782 398.668 265.66 399.688 265.66 400.899V409H262.218V392.784H264.898L265.382 394.967H265.572C265.904 394.4 266.314 393.937 266.803 393.575C267.301 393.204 267.853 392.931 268.458 392.755C269.063 392.569 269.693 392.477 270.348 392.477C271.559 392.477 272.579 392.691 273.409 393.121C274.239 393.541 274.859 394.186 275.27 395.055H275.533C276.041 394.176 276.749 393.526 277.657 393.106C278.565 392.687 279.527 392.477 280.543 392.477ZM294.283 392.784V409H290.841V392.784H294.283ZM292.584 386.573C293.111 386.573 293.565 386.715 293.946 386.998C294.337 387.281 294.532 387.77 294.532 388.463C294.532 389.146 294.337 389.635 293.946 389.928C293.565 390.211 293.111 390.353 292.584 390.353C292.037 390.353 291.573 390.211 291.192 389.928C290.821 389.635 290.636 389.146 290.636 388.463C290.636 387.77 290.821 387.281 291.192 386.998C291.573 386.715 292.037 386.573 292.584 386.573Z" fill="black"/>
<path d="M46.6221 372.746H39.7666V346.584H46.6221V349.118H42.8574V370.183H46.6221V372.746ZM56.4072 346.584C59.1709 346.584 61.1875 347.15 62.457 348.283C63.7266 349.416 64.3613 351.003 64.3613 353.044C64.3613 353.972 64.2148 354.855 63.9219 355.695C63.6387 356.525 63.1699 357.263 62.5156 357.907C61.8613 358.542 60.9971 359.045 59.9229 359.416C58.8584 359.787 57.5449 359.973 55.9824 359.973H53.6973V368H50.1816V346.584H56.4072ZM56.1729 349.499H53.6973V357.043H55.6162C56.7197 357.043 57.6572 356.916 58.4287 356.662C59.2002 356.398 59.7861 355.983 60.1865 355.417C60.5869 354.851 60.7871 354.104 60.7871 353.176C60.7871 351.936 60.4111 351.013 59.6592 350.407C58.917 349.802 57.7549 349.499 56.1729 349.499ZM82.6426 359.855C82.6426 361.203 82.4668 362.399 82.1152 363.444C81.7637 364.489 81.251 365.373 80.5771 366.096C79.9033 366.809 79.0928 367.355 78.1455 367.736C77.1982 368.107 76.1289 368.293 74.9375 368.293C73.8242 368.293 72.8037 368.107 71.876 367.736C70.9482 367.355 70.1426 366.809 69.459 366.096C68.7852 365.373 68.2627 364.489 67.8916 363.444C67.5205 362.399 67.335 361.203 67.335 359.855C67.335 358.068 67.6426 356.555 68.2578 355.314C68.8828 354.064 69.7715 353.112 70.9238 352.458C72.0762 351.804 73.4482 351.477 75.04 351.477C76.5342 351.477 77.8525 351.804 78.9951 352.458C80.1377 353.112 81.0312 354.064 81.6758 355.314C82.3203 356.564 82.6426 358.078 82.6426 359.855ZM70.8799 359.855C70.8799 361.037 71.0215 362.048 71.3047 362.888C71.5977 363.728 72.0469 364.372 72.6523 364.821C73.2578 365.261 74.0391 365.48 74.9961 365.48C75.9531 365.48 76.7344 365.261 77.3398 364.821C77.9453 364.372 78.3896 363.728 78.6729 362.888C78.9561 362.048 79.0977 361.037 79.0977 359.855C79.0977 358.674 78.9561 357.673 78.6729 356.853C78.3896 356.022 77.9453 355.393 77.3398 354.963C76.7344 354.523 75.9482 354.304 74.9814 354.304C73.5557 354.304 72.5156 354.782 71.8613 355.739C71.207 356.696 70.8799 358.068 70.8799 359.855ZM97.4961 363.371C97.4961 364.436 97.2373 365.334 96.7197 366.066C96.2021 366.799 95.4453 367.355 94.4492 367.736C93.4629 368.107 92.252 368.293 90.8164 368.293C89.6836 368.293 88.707 368.21 87.8867 368.044C87.0762 367.888 86.3096 367.644 85.5869 367.312V364.338C86.3584 364.699 87.2227 365.012 88.1797 365.275C89.1465 365.539 90.0596 365.671 90.9189 365.671C92.0518 365.671 92.8672 365.495 93.3652 365.144C93.8633 364.782 94.1123 364.304 94.1123 363.708C94.1123 363.356 94.0098 363.044 93.8047 362.771C93.6094 362.487 93.2383 362.199 92.6914 361.906C92.1543 361.604 91.3633 361.242 90.3184 360.822C89.293 360.412 88.4287 360.002 87.7256 359.592C87.0225 359.182 86.4902 358.688 86.1289 358.112C85.7676 357.526 85.5869 356.779 85.5869 355.871C85.5869 354.436 86.1533 353.347 87.2861 352.604C88.4287 351.853 89.9375 351.477 91.8125 351.477C92.8086 351.477 93.7461 351.579 94.625 351.784C95.5137 351.979 96.3828 352.268 97.2324 352.648L96.1484 355.241C95.416 354.919 94.6787 354.655 93.9365 354.45C93.2041 354.235 92.457 354.128 91.6953 354.128C90.8066 354.128 90.1279 354.265 89.6592 354.538C89.2002 354.812 88.9707 355.202 88.9707 355.71C88.9707 356.091 89.083 356.413 89.3076 356.677C89.5322 356.94 89.918 357.204 90.4648 357.468C91.0215 357.731 91.793 358.059 92.7793 358.449C93.7461 358.82 94.5811 359.211 95.2842 359.621C95.9971 360.021 96.5439 360.515 96.9248 361.101C97.3057 361.687 97.4961 362.443 97.4961 363.371ZM112.115 363.371C112.115 364.436 111.856 365.334 111.339 366.066C110.821 366.799 110.064 367.355 109.068 367.736C108.082 368.107 106.871 368.293 105.436 368.293C104.303 368.293 103.326 368.21 102.506 368.044C101.695 367.888 100.929 367.644 100.206 367.312V364.338C100.978 364.699 101.842 365.012 102.799 365.275C103.766 365.539 104.679 365.671 105.538 365.671C106.671 365.671 107.486 365.495 107.984 365.144C108.482 364.782 108.731 364.304 108.731 363.708C108.731 363.356 108.629 363.044 108.424 362.771C108.229 362.487 107.857 362.199 107.311 361.906C106.773 361.604 105.982 361.242 104.938 360.822C103.912 360.412 103.048 360.002 102.345 359.592C101.642 359.182 101.109 358.688 100.748 358.112C100.387 357.526 100.206 356.779 100.206 355.871C100.206 354.436 100.772 353.347 101.905 352.604C103.048 351.853 104.557 351.477 106.432 351.477C107.428 351.477 108.365 351.579 109.244 351.784C110.133 351.979 111.002 352.268 111.852 352.648L110.768 355.241C110.035 354.919 109.298 354.655 108.556 354.45C107.823 354.235 107.076 354.128 106.314 354.128C105.426 354.128 104.747 354.265 104.278 354.538C103.819 354.812 103.59 355.202 103.59 355.71C103.59 356.091 103.702 356.413 103.927 356.677C104.151 356.94 104.537 357.204 105.084 357.468C105.641 357.731 106.412 358.059 107.398 358.449C108.365 358.82 109.2 359.211 109.903 359.621C110.616 360.021 111.163 360.515 111.544 361.101C111.925 361.687 112.115 362.443 112.115 363.371ZM125.313 349.265C124.288 349.265 123.37 349.45 122.56 349.821C121.759 350.192 121.08 350.729 120.523 351.433C119.967 352.126 119.542 352.971 119.249 353.967C118.956 354.953 118.81 356.066 118.81 357.307C118.81 358.967 119.044 360.397 119.513 361.599C119.981 362.79 120.694 363.708 121.651 364.353C122.608 364.987 123.819 365.305 125.284 365.305C126.192 365.305 127.076 365.217 127.936 365.041C128.795 364.865 129.684 364.626 130.602 364.323V367.312C129.732 367.653 128.854 367.902 127.965 368.059C127.076 368.215 126.051 368.293 124.889 368.293C122.701 368.293 120.885 367.839 119.439 366.931C118.004 366.022 116.93 364.743 116.217 363.093C115.514 361.442 115.162 359.509 115.162 357.292C115.162 355.671 115.387 354.187 115.836 352.839C116.285 351.491 116.939 350.329 117.799 349.353C118.658 348.366 119.718 347.609 120.978 347.082C122.247 346.545 123.697 346.276 125.328 346.276C126.402 346.276 127.457 346.398 128.492 346.643C129.537 346.877 130.504 347.214 131.393 347.653L130.162 350.554C129.42 350.202 128.644 349.899 127.833 349.646C127.022 349.392 126.183 349.265 125.313 349.265ZM149.205 359.855C149.205 361.203 149.029 362.399 148.678 363.444C148.326 364.489 147.813 365.373 147.14 366.096C146.466 366.809 145.655 367.355 144.708 367.736C143.761 368.107 142.691 368.293 141.5 368.293C140.387 368.293 139.366 368.107 138.438 367.736C137.511 367.355 136.705 366.809 136.021 366.096C135.348 365.373 134.825 364.489 134.454 363.444C134.083 362.399 133.897 361.203 133.897 359.855C133.897 358.068 134.205 356.555 134.82 355.314C135.445 354.064 136.334 353.112 137.486 352.458C138.639 351.804 140.011 351.477 141.603 351.477C143.097 351.477 144.415 351.804 145.558 352.458C146.7 353.112 147.594 354.064 148.238 355.314C148.883 356.564 149.205 358.078 149.205 359.855ZM137.442 359.855C137.442 361.037 137.584 362.048 137.867 362.888C138.16 363.728 138.609 364.372 139.215 364.821C139.82 365.261 140.602 365.48 141.559 365.48C142.516 365.48 143.297 365.261 143.902 364.821C144.508 364.372 144.952 363.728 145.235 362.888C145.519 362.048 145.66 361.037 145.66 359.855C145.66 358.674 145.519 357.673 145.235 356.853C144.952 356.022 144.508 355.393 143.902 354.963C143.297 354.523 142.511 354.304 141.544 354.304C140.118 354.304 139.078 354.782 138.424 355.739C137.77 356.696 137.442 358.068 137.442 359.855ZM161.612 351.477C163.438 351.477 164.859 351.95 165.875 352.897C166.9 353.835 167.413 355.344 167.413 357.424V368H163.971V358.068C163.971 356.809 163.712 355.866 163.194 355.241C162.677 354.606 161.876 354.289 160.792 354.289C159.22 354.289 158.126 354.772 157.511 355.739C156.905 356.706 156.603 358.107 156.603 359.943V368H153.16V351.784H155.841L156.324 353.981H156.515C156.866 353.415 157.301 352.951 157.818 352.59C158.346 352.219 158.932 351.94 159.576 351.755C160.23 351.569 160.909 351.477 161.612 351.477ZM178.766 368.293C177.232 368.293 175.904 367.995 174.781 367.399C173.658 366.804 172.794 365.891 172.188 364.66C171.583 363.43 171.28 361.867 171.28 359.973C171.28 358 171.612 356.389 172.276 355.139C172.94 353.889 173.858 352.966 175.03 352.37C176.212 351.774 177.564 351.477 179.088 351.477C180.055 351.477 180.929 351.574 181.71 351.77C182.501 351.955 183.17 352.185 183.717 352.458L182.691 355.212C182.096 354.968 181.485 354.763 180.86 354.597C180.235 354.431 179.635 354.348 179.059 354.348C178.111 354.348 177.32 354.558 176.686 354.978C176.061 355.397 175.592 356.022 175.279 356.853C174.977 357.683 174.825 358.713 174.825 359.943C174.825 361.135 174.981 362.141 175.294 362.961C175.606 363.771 176.07 364.387 176.686 364.807C177.301 365.217 178.058 365.422 178.956 365.422C179.845 365.422 180.641 365.314 181.344 365.1C182.047 364.885 182.711 364.606 183.336 364.265V367.253C182.721 367.604 182.062 367.863 181.358 368.029C180.655 368.205 179.791 368.293 178.766 368.293ZM196.153 368H192.696V354.216C192.696 353.757 192.701 353.298 192.711 352.839C192.721 352.38 192.73 351.931 192.74 351.491C192.76 351.052 192.784 350.632 192.813 350.231C192.608 350.456 192.354 350.7 192.052 350.964C191.759 351.228 191.446 351.501 191.114 351.784L188.653 353.747L186.925 351.564L193.282 346.584H196.153V368ZM218.478 363.298H215.577V368H212.179V363.298H202.438V360.69L212.223 346.525H215.577V360.441H218.478V363.298ZM212.179 360.441V355.124C212.179 354.685 212.184 354.24 212.193 353.791C212.213 353.332 212.232 352.893 212.252 352.473C212.271 352.053 212.291 351.667 212.311 351.315C212.33 350.954 212.345 350.656 212.354 350.422H212.237C212.052 350.812 211.847 351.213 211.622 351.623C211.397 352.023 211.158 352.414 210.904 352.795L205.631 360.441H212.179ZM219.767 370.183H223.531V349.118H219.767V346.584H226.637V372.746H219.767V370.183Z" fill="#AC109D"/>
<path d="M266.759 372.746H259.903V346.584H266.759V349.118H262.994V370.183H266.759V372.746ZM288.189 368H283.868L273.38 350.905H273.248C273.287 351.481 273.321 352.092 273.351 352.736C273.39 353.381 273.419 354.045 273.438 354.729C273.468 355.412 273.492 356.105 273.512 356.809V368H270.318V346.584H274.61L285.084 363.562H285.187C285.167 363.063 285.143 362.492 285.113 361.848C285.084 361.203 285.055 360.539 285.025 359.855C285.006 359.162 284.991 358.493 284.981 357.849V346.584H288.189V368ZM300.04 346.584C302.804 346.584 304.82 347.15 306.09 348.283C307.359 349.416 307.994 351.003 307.994 353.044C307.994 353.972 307.848 354.855 307.555 355.695C307.271 356.525 306.803 357.263 306.148 357.907C305.494 358.542 304.63 359.045 303.556 359.416C302.491 359.787 301.178 359.973 299.615 359.973H297.33V368H293.814V346.584H300.04ZM299.806 349.499H297.33V357.043H299.249C300.353 357.043 301.29 356.916 302.062 356.662C302.833 356.398 303.419 355.983 303.819 355.417C304.22 354.851 304.42 354.104 304.42 353.176C304.42 351.936 304.044 351.013 303.292 350.407C302.55 349.802 301.388 349.499 299.806 349.499ZM320.138 351.477C320.411 351.477 320.709 351.491 321.031 351.521C321.354 351.55 321.632 351.589 321.866 351.638L321.544 354.86C321.339 354.802 321.085 354.758 320.782 354.729C320.489 354.699 320.226 354.685 319.991 354.685C319.376 354.685 318.79 354.787 318.233 354.992C317.677 355.188 317.184 355.49 316.754 355.9C316.324 356.301 315.987 356.804 315.743 357.409C315.499 358.015 315.377 358.718 315.377 359.519V368H311.92V351.784H314.615L315.084 354.641H315.245C315.567 354.064 315.968 353.537 316.446 353.059C316.925 352.58 317.472 352.199 318.087 351.916C318.712 351.623 319.396 351.477 320.138 351.477ZM331.329 351.477C332.774 351.477 334.015 351.774 335.05 352.37C336.085 352.966 336.881 353.811 337.438 354.904C337.994 355.998 338.272 357.307 338.272 358.83V360.676H327.447C327.486 362.248 327.906 363.459 328.707 364.309C329.518 365.158 330.65 365.583 332.105 365.583C333.141 365.583 334.068 365.485 334.889 365.29C335.719 365.085 336.573 364.787 337.452 364.396V367.194C336.642 367.575 335.816 367.854 334.977 368.029C334.137 368.205 333.131 368.293 331.959 368.293C330.367 368.293 328.966 367.985 327.755 367.37C326.554 366.745 325.611 365.817 324.928 364.587C324.254 363.356 323.917 361.828 323.917 360.002C323.917 358.186 324.225 356.643 324.84 355.373C325.455 354.104 326.319 353.137 327.433 352.473C328.546 351.809 329.845 351.477 331.329 351.477ZM331.329 354.069C330.245 354.069 329.366 354.421 328.692 355.124C328.028 355.827 327.638 356.857 327.521 358.215H334.903C334.894 357.404 334.757 356.687 334.493 356.062C334.239 355.437 333.849 354.948 333.321 354.597C332.804 354.245 332.14 354.069 331.329 354.069ZM348.731 346.584C351.495 346.584 353.512 347.15 354.781 348.283C356.051 349.416 356.686 351.003 356.686 353.044C356.686 353.972 356.539 354.855 356.246 355.695C355.963 356.525 355.494 357.263 354.84 357.907C354.186 358.542 353.321 359.045 352.247 359.416C351.183 359.787 349.869 359.973 348.307 359.973H346.021V368H342.506V346.584H348.731ZM348.497 349.499H346.021V357.043H347.94C349.044 357.043 349.981 356.916 350.753 356.662C351.524 356.398 352.11 355.983 352.511 355.417C352.911 354.851 353.111 354.104 353.111 353.176C353.111 351.936 352.735 351.013 351.983 350.407C351.241 349.802 350.079 349.499 348.497 349.499ZM368.829 351.477C369.103 351.477 369.4 351.491 369.723 351.521C370.045 351.55 370.323 351.589 370.558 351.638L370.235 354.86C370.03 354.802 369.776 354.758 369.474 354.729C369.181 354.699 368.917 354.685 368.683 354.685C368.067 354.685 367.481 354.787 366.925 354.992C366.368 355.188 365.875 355.49 365.445 355.9C365.016 356.301 364.679 356.804 364.435 357.409C364.19 358.015 364.068 358.718 364.068 359.519V368H360.611V351.784H363.307L363.775 354.641H363.937C364.259 354.064 364.659 353.537 365.138 353.059C365.616 352.58 366.163 352.199 366.778 351.916C367.403 351.623 368.087 351.477 368.829 351.477ZM380.021 351.477C381.466 351.477 382.706 351.774 383.741 352.37C384.776 352.966 385.572 353.811 386.129 354.904C386.686 355.998 386.964 357.307 386.964 358.83V360.676H376.139C376.178 362.248 376.598 363.459 377.398 364.309C378.209 365.158 379.342 365.583 380.797 365.583C381.832 365.583 382.76 365.485 383.58 365.29C384.41 365.085 385.265 364.787 386.144 364.396V367.194C385.333 367.575 384.508 367.854 383.668 368.029C382.828 368.205 381.822 368.293 380.65 368.293C379.059 368.293 377.657 367.985 376.446 367.37C375.245 366.745 374.303 365.817 373.619 364.587C372.945 363.356 372.608 361.828 372.608 360.002C372.608 358.186 372.916 356.643 373.531 355.373C374.146 354.104 375.011 353.137 376.124 352.473C377.237 351.809 378.536 351.477 380.021 351.477ZM380.021 354.069C378.937 354.069 378.058 354.421 377.384 355.124C376.72 355.827 376.329 356.857 376.212 358.215H383.595C383.585 357.404 383.448 356.687 383.185 356.062C382.931 355.437 382.54 354.948 382.013 354.597C381.495 354.245 380.831 354.069 380.021 354.069ZM399.854 368H396.397V354.216C396.397 353.757 396.402 353.298 396.412 352.839C396.422 352.38 396.432 351.931 396.441 351.491C396.461 351.052 396.485 350.632 396.515 350.231C396.31 350.456 396.056 350.7 395.753 350.964C395.46 351.228 395.147 351.501 394.815 351.784L392.354 353.747L390.626 351.564L396.983 346.584H399.854V368ZM422.179 363.298H419.278V368H415.88V363.298H406.139V360.69L415.924 346.525H419.278V360.441H422.179V363.298ZM415.88 360.441V355.124C415.88 354.685 415.885 354.24 415.895 353.791C415.914 353.332 415.934 352.893 415.953 352.473C415.973 352.053 415.992 351.667 416.012 351.315C416.031 350.954 416.046 350.656 416.056 350.422H415.938C415.753 350.812 415.548 351.213 415.323 351.623C415.099 352.023 414.859 352.414 414.605 352.795L409.332 360.441H415.88ZM423.468 370.183H427.232V349.118H423.468V346.584H430.338V372.746H423.468V370.183ZM99.6641 413.746H92.8086V387.584H99.6641V390.118H95.8994V411.183H99.6641V413.746ZM103.224 387.584H109.596C112.359 387.584 114.444 387.984 115.851 388.785C117.257 389.586 117.96 390.968 117.96 392.931C117.96 393.751 117.813 394.493 117.521 395.157C117.237 395.812 116.822 396.354 116.275 396.783C115.729 397.203 115.055 397.486 114.254 397.633V397.779C115.084 397.926 115.821 398.185 116.466 398.556C117.12 398.927 117.633 399.459 118.004 400.152C118.385 400.846 118.575 401.744 118.575 402.848C118.575 404.156 118.263 405.27 117.638 406.188C117.022 407.105 116.139 407.804 114.986 408.282C113.844 408.761 112.486 409 110.914 409H103.224V387.584ZM106.739 396.417H110.108C111.7 396.417 112.804 396.158 113.419 395.641C114.034 395.123 114.342 394.366 114.342 393.37C114.342 392.354 113.976 391.622 113.243 391.173C112.521 390.724 111.368 390.499 109.786 390.499H106.739V396.417ZM106.739 399.259V406.056H110.445C112.086 406.056 113.238 405.738 113.902 405.104C114.566 404.469 114.898 403.609 114.898 402.525C114.898 401.861 114.747 401.285 114.444 400.797C114.151 400.309 113.668 399.933 112.994 399.669C112.32 399.396 111.412 399.259 110.27 399.259H106.739ZM129.225 387.584C131.988 387.584 134.005 388.15 135.274 389.283C136.544 390.416 137.179 392.003 137.179 394.044C137.179 394.972 137.032 395.855 136.739 396.695C136.456 397.525 135.987 398.263 135.333 398.907C134.679 399.542 133.814 400.045 132.74 400.416C131.676 400.787 130.362 400.973 128.8 400.973H126.515V409H122.999V387.584H129.225ZM128.99 390.499H126.515V398.043H128.434C129.537 398.043 130.475 397.916 131.246 397.662C132.018 397.398 132.604 396.983 133.004 396.417C133.404 395.851 133.604 395.104 133.604 394.176C133.604 392.936 133.229 392.013 132.477 391.407C131.734 390.802 130.572 390.499 128.99 390.499ZM149.322 392.477C149.596 392.477 149.894 392.491 150.216 392.521C150.538 392.55 150.816 392.589 151.051 392.638L150.729 395.86C150.523 395.802 150.27 395.758 149.967 395.729C149.674 395.699 149.41 395.685 149.176 395.685C148.561 395.685 147.975 395.787 147.418 395.992C146.861 396.188 146.368 396.49 145.938 396.9C145.509 397.301 145.172 397.804 144.928 398.409C144.684 399.015 144.562 399.718 144.562 400.519V409H141.104V392.784H143.8L144.269 395.641H144.43C144.752 395.064 145.152 394.537 145.631 394.059C146.109 393.58 146.656 393.199 147.271 392.916C147.896 392.623 148.58 392.477 149.322 392.477ZM160.514 392.477C161.959 392.477 163.199 392.774 164.234 393.37C165.27 393.966 166.065 394.811 166.622 395.904C167.179 396.998 167.457 398.307 167.457 399.83V401.676H156.632C156.671 403.248 157.091 404.459 157.892 405.309C158.702 406.158 159.835 406.583 161.29 406.583C162.325 406.583 163.253 406.485 164.073 406.29C164.903 406.085 165.758 405.787 166.637 405.396V408.194C165.826 408.575 165.001 408.854 164.161 409.029C163.321 409.205 162.315 409.293 161.144 409.293C159.552 409.293 158.15 408.985 156.939 408.37C155.738 407.745 154.796 406.817 154.112 405.587C153.438 404.356 153.102 402.828 153.102 401.002C153.102 399.186 153.409 397.643 154.024 396.373C154.64 395.104 155.504 394.137 156.617 393.473C157.73 392.809 159.029 392.477 160.514 392.477ZM160.514 395.069C159.43 395.069 158.551 395.421 157.877 396.124C157.213 396.827 156.822 397.857 156.705 399.215H164.088C164.078 398.404 163.941 397.687 163.678 397.062C163.424 396.437 163.033 395.948 162.506 395.597C161.988 395.245 161.324 395.069 160.514 395.069ZM180.348 409H176.891V395.216C176.891 394.757 176.896 394.298 176.905 393.839C176.915 393.38 176.925 392.931 176.935 392.491C176.954 392.052 176.979 391.632 177.008 391.231C176.803 391.456 176.549 391.7 176.246 391.964C175.953 392.228 175.641 392.501 175.309 392.784L172.848 394.747L171.119 392.564L177.477 387.584H180.348V409ZM202.672 404.298H199.771V409H196.373V404.298H186.632V401.69L196.417 387.525H199.771V401.441H202.672V404.298ZM196.373 401.441V396.124C196.373 395.685 196.378 395.24 196.388 394.791C196.407 394.332 196.427 393.893 196.446 393.473C196.466 393.053 196.485 392.667 196.505 392.315C196.524 391.954 196.539 391.656 196.549 391.422H196.432C196.246 391.812 196.041 392.213 195.816 392.623C195.592 393.023 195.353 393.414 195.099 393.795L189.825 401.441H196.373ZM203.961 411.183H207.726V390.118H203.961V387.584H210.831V413.746H203.961V411.183ZM305.885 413.746H299.029V387.584H305.885V390.118H302.12V411.183H305.885V413.746ZM327.315 409H322.994L312.506 391.905H312.374C312.413 392.481 312.447 393.092 312.477 393.736C312.516 394.381 312.545 395.045 312.564 395.729C312.594 396.412 312.618 397.105 312.638 397.809V409H309.444V387.584H313.736L324.21 404.562H324.312C324.293 404.063 324.269 403.492 324.239 402.848C324.21 402.203 324.181 401.539 324.151 400.855C324.132 400.162 324.117 399.493 324.107 398.849V387.584H327.315V409ZM345.304 403.17C345.304 404.439 344.991 405.533 344.366 406.451C343.751 407.369 342.862 408.072 341.7 408.561C340.548 409.049 339.171 409.293 337.569 409.293C336.788 409.293 336.041 409.249 335.328 409.161C334.615 409.073 333.941 408.946 333.307 408.78C332.682 408.604 332.11 408.395 331.593 408.15V404.84C332.462 405.221 333.434 405.567 334.508 405.88C335.582 406.183 336.676 406.334 337.789 406.334C338.697 406.334 339.449 406.217 340.045 405.982C340.65 405.738 341.1 405.396 341.393 404.957C341.686 404.508 341.832 403.985 341.832 403.39C341.832 402.755 341.661 402.218 341.319 401.778C340.978 401.339 340.46 400.938 339.767 400.577C339.083 400.206 338.224 399.811 337.188 399.391C336.485 399.107 335.812 398.785 335.167 398.424C334.532 398.062 333.966 397.638 333.468 397.149C332.97 396.661 332.574 396.085 332.281 395.421C331.998 394.747 331.856 393.956 331.856 393.048C331.856 391.837 332.145 390.802 332.721 389.942C333.307 389.083 334.127 388.424 335.182 387.965C336.246 387.506 337.486 387.276 338.902 387.276C340.025 387.276 341.08 387.394 342.066 387.628C343.062 387.862 344.039 388.194 344.996 388.624L343.883 391.451C343.004 391.09 342.149 390.802 341.319 390.587C340.499 390.372 339.659 390.265 338.8 390.265C338.058 390.265 337.428 390.377 336.91 390.602C336.393 390.826 335.997 391.144 335.724 391.554C335.46 391.954 335.328 392.433 335.328 392.989C335.328 393.614 335.479 394.142 335.782 394.571C336.095 394.991 336.573 395.377 337.218 395.729C337.872 396.08 338.712 396.471 339.737 396.9C340.919 397.389 341.92 397.901 342.74 398.438C343.57 398.976 344.205 399.62 344.645 400.372C345.084 401.114 345.304 402.047 345.304 403.17ZM355.118 406.51C355.567 406.51 356.012 406.471 356.451 406.393C356.891 406.305 357.291 406.202 357.652 406.085V408.692C357.271 408.858 356.778 409 356.173 409.117C355.567 409.234 354.938 409.293 354.283 409.293C353.365 409.293 352.54 409.142 351.808 408.839C351.075 408.526 350.494 407.994 350.064 407.242C349.635 406.49 349.42 405.45 349.42 404.122V395.406H347.208V393.868L349.581 392.652L350.709 389.181H352.877V392.784H357.521V395.406H352.877V404.078C352.877 404.898 353.082 405.509 353.492 405.909C353.902 406.31 354.444 406.51 355.118 406.51ZM367.408 392.477C368.854 392.477 370.094 392.774 371.129 393.37C372.164 393.966 372.96 394.811 373.517 395.904C374.073 396.998 374.352 398.307 374.352 399.83V401.676H363.526C363.565 403.248 363.985 404.459 364.786 405.309C365.597 406.158 366.729 406.583 368.185 406.583C369.22 406.583 370.147 406.485 370.968 406.29C371.798 406.085 372.652 405.787 373.531 405.396V408.194C372.721 408.575 371.896 408.854 371.056 409.029C370.216 409.205 369.21 409.293 368.038 409.293C366.446 409.293 365.045 408.985 363.834 408.37C362.633 407.745 361.69 406.817 361.007 405.587C360.333 404.356 359.996 402.828 359.996 401.002C359.996 399.186 360.304 397.643 360.919 396.373C361.534 395.104 362.398 394.137 363.512 393.473C364.625 392.809 365.924 392.477 367.408 392.477ZM367.408 395.069C366.324 395.069 365.445 395.421 364.771 396.124C364.107 396.827 363.717 397.857 363.6 399.215H370.982C370.973 398.404 370.836 397.687 370.572 397.062C370.318 396.437 369.928 395.948 369.4 395.597C368.883 395.245 368.219 395.069 367.408 395.069ZM396.559 392.477C398.375 392.477 399.742 392.945 400.66 393.883C401.588 394.82 402.052 396.324 402.052 398.395V409H398.609V399.01C398.609 397.779 398.37 396.852 397.892 396.227C397.413 395.602 396.686 395.289 395.709 395.289C394.342 395.289 393.355 395.729 392.75 396.607C392.154 397.477 391.856 398.741 391.856 400.401V409H388.414V399.01C388.414 398.189 388.307 397.506 388.092 396.959C387.887 396.402 387.569 395.987 387.14 395.714C386.71 395.431 386.168 395.289 385.514 395.289C384.566 395.289 383.81 395.504 383.243 395.934C382.687 396.363 382.286 396.998 382.042 397.838C381.798 398.668 381.676 399.688 381.676 400.899V409H378.233V392.784H380.914L381.397 394.967H381.588C381.92 394.4 382.33 393.937 382.818 393.575C383.316 393.204 383.868 392.931 384.474 392.755C385.079 392.569 385.709 392.477 386.363 392.477C387.574 392.477 388.595 392.691 389.425 393.121C390.255 393.541 390.875 394.186 391.285 395.055H391.549C392.057 394.176 392.765 393.526 393.673 393.106C394.581 392.687 395.543 392.477 396.559 392.477ZM405.143 411.183H408.907V390.118H405.143V387.584H412.013V413.746H405.143V411.183Z" fill="#AC109D"/>
<path d="M334.08 177.42C332.574 176.844 331.45 176.08 330.711 175.128C329.984 174.172 329.624 173.079 329.632 171.851C329.647 170.626 330.013 169.326 330.729 167.952C331.235 166.982 331.819 166.067 332.482 165.206C333.158 164.34 333.896 163.551 334.696 162.839C335.496 162.127 336.352 161.514 337.263 160.999C338.183 160.488 339.137 160.107 340.126 159.855C341.119 159.595 342.134 159.489 343.171 159.536C344.217 159.587 345.267 159.814 346.323 160.218C348.503 161.052 349.853 162.3 350.375 163.963C350.905 165.63 350.625 167.509 349.534 169.603C349.028 170.573 348.444 171.498 347.781 172.379C347.13 173.254 346.407 174.054 345.612 174.777C344.829 175.496 343.99 176.115 343.096 176.636C342.206 177.149 341.271 177.533 340.29 177.788C339.318 178.046 338.308 178.154 337.258 178.111C336.221 178.064 335.162 177.833 334.08 177.42ZM335.555 175.003C336.176 175.24 336.814 175.358 337.468 175.356C338.123 175.355 338.775 175.25 339.424 175.043C340.086 174.831 340.737 174.522 341.376 174.117C342.025 173.716 342.645 173.231 343.237 172.662C343.838 172.097 344.405 171.461 344.937 170.753C345.473 170.037 345.958 169.263 346.392 168.431C347.096 167.081 347.313 165.889 347.045 164.856C346.786 163.827 346.039 163.076 344.804 162.604C344.166 162.359 343.509 162.239 342.833 162.242C342.17 162.241 341.499 162.353 340.82 162.578C340.146 162.795 339.482 163.108 338.83 163.518C338.19 163.923 337.569 164.408 336.969 164.973C336.368 165.538 335.803 166.17 335.275 166.87C334.76 167.564 334.292 168.316 333.871 169.124C333.39 170.046 333.133 170.892 333.098 171.664C333.072 172.439 333.264 173.109 333.675 173.673C334.094 174.24 334.72 174.684 335.555 175.003ZM349.392 183.275C348.634 182.985 348.061 182.596 347.672 182.108C347.291 181.623 347.1 181.061 347.097 180.42C347.107 179.774 347.307 179.075 347.699 178.324C347.872 177.992 348.087 177.638 348.345 177.262C348.615 176.88 348.904 176.492 349.213 176.096L354.981 169.025L357.969 170.168L351.896 177.617C351.673 177.909 351.472 178.176 351.295 178.419C351.13 178.656 350.993 178.88 350.883 179.09C350.601 179.632 350.518 180.095 350.635 180.478C350.764 180.857 351.114 181.156 351.684 181.374C352.297 181.608 353.007 181.618 353.813 181.403C354.632 181.183 355.499 180.744 356.414 180.086C357.329 179.427 358.228 178.555 359.111 177.467L363.371 172.233L366.333 173.366L356.35 185.645L354 184.746L355.634 182.317L355.506 182.268C354.917 182.615 354.285 182.916 353.611 183.172C352.941 183.42 352.251 183.568 351.541 183.617C350.832 183.665 350.115 183.551 349.392 183.275ZM360.59 187.266L370.586 174.992L372.923 175.886L371.296 178.302L371.436 178.356C372.072 177.979 372.712 177.661 373.357 177.404C374.01 177.15 374.666 176.998 375.324 176.949C375.983 176.901 376.635 177 377.282 177.247C377.512 177.335 377.742 177.443 377.972 177.569C378.215 177.691 378.417 177.812 378.579 177.932L376.538 180.351C376.376 180.231 376.193 180.112 375.988 179.995C375.784 179.878 375.558 179.772 375.311 179.678C374.749 179.463 374.156 179.387 373.532 179.448C372.907 179.51 372.279 179.687 371.647 179.978C371.016 180.27 370.399 180.659 369.798 181.147C369.201 181.626 368.64 182.182 368.116 182.816L363.578 188.409L360.59 187.266ZM378.059 193.946L388.055 181.672L390.392 182.566L388.765 184.983L388.893 185.031C389.473 184.682 390.09 184.379 390.743 184.125C391.409 183.866 392.089 183.709 392.781 183.654C393.482 183.602 394.181 183.709 394.879 183.976C395.867 184.354 396.486 184.901 396.735 185.617C396.994 186.336 396.953 187.168 396.613 188.114L396.715 188.153C397.334 187.77 397.987 187.447 398.674 187.187C399.369 186.929 400.076 186.778 400.794 186.733C401.525 186.682 402.235 186.789 402.925 187.053C404.065 187.489 404.765 188.135 405.024 188.99C405.283 189.845 405.117 190.838 404.528 191.97C404.351 192.309 404.144 192.647 403.908 192.983C403.68 193.322 403.42 193.664 403.128 194.008L397.227 201.276L394.239 200.133L400.311 192.684C400.544 192.395 400.742 192.131 400.907 191.894C401.084 191.651 401.232 191.417 401.35 191.191C401.624 190.665 401.7 190.215 401.58 189.839C401.472 189.459 401.154 189.167 400.626 188.966C400.183 188.796 399.679 188.754 399.115 188.838C398.558 188.926 397.964 189.135 397.333 189.466C396.701 189.796 396.059 190.244 395.408 190.809C394.76 191.366 394.121 192.033 393.492 192.81L389.131 198.18L386.155 197.042L392.19 189.607C392.435 189.313 392.642 189.044 392.811 188.798C392.98 188.552 393.114 188.332 393.216 188.139C393.498 187.597 393.589 187.138 393.49 186.76C393.403 186.378 393.096 186.086 392.568 185.884C392.125 185.715 391.622 185.673 391.057 185.757C390.492 185.842 389.892 186.053 389.256 186.392C388.62 186.73 387.968 187.188 387.299 187.766C386.634 188.336 385.972 189.028 385.313 189.842L381.047 195.089L378.059 193.946ZM407.112 205.317C406.04 204.907 405.213 204.339 404.632 203.613C404.05 202.886 403.738 202.055 403.696 201.117C403.666 200.175 403.927 199.175 404.479 198.116C404.947 197.219 405.5 196.384 406.138 195.61C406.784 194.839 407.495 194.161 408.27 193.575C409.045 192.99 409.869 192.534 410.743 192.209C411.621 191.876 412.528 191.704 413.463 191.693C414.402 191.674 415.352 191.849 416.314 192.217C417.412 192.636 418.248 193.208 418.821 193.931C419.393 194.654 419.688 195.489 419.705 196.436C419.722 197.383 419.446 198.402 418.878 199.493C418.423 200.366 417.88 201.181 417.251 201.939C416.63 202.699 415.936 203.374 415.169 203.963C414.407 204.544 413.587 205.001 412.709 205.334C411.843 205.663 410.937 205.835 409.989 205.85C409.05 205.869 408.091 205.692 407.112 205.317ZM408.543 203.073C409.019 203.255 409.515 203.323 410.029 203.277C410.555 203.227 411.084 203.075 411.614 202.822C412.148 202.561 412.667 202.212 413.171 201.774C413.687 201.332 414.178 200.812 414.642 200.214C415.107 199.616 415.531 198.95 415.914 198.214C416.171 197.721 416.333 197.235 416.399 196.756C416.469 196.269 416.392 195.828 416.169 195.433C415.959 195.033 415.561 194.72 414.973 194.495C414.445 194.294 413.897 194.229 413.328 194.303C412.772 194.371 412.214 194.55 411.654 194.84C411.103 195.134 410.569 195.511 410.053 195.973C409.541 196.426 409.063 196.942 408.619 197.518C408.18 198.087 407.796 198.687 407.468 199.317C407 200.214 406.853 200.987 407.026 201.635C407.211 202.277 407.717 202.757 408.543 203.073ZM420.713 210.547C419.98 210.267 419.403 209.847 418.98 209.288C418.565 208.732 418.364 208.04 418.377 207.211C418.395 206.375 418.69 205.407 419.263 204.307C419.743 203.386 420.311 202.522 420.966 201.716C421.633 200.905 422.361 200.185 423.149 199.555C423.94 198.918 424.767 198.41 425.627 198.032C426.493 197.645 427.361 197.42 428.231 197.355C429.115 197.286 429.97 197.409 430.795 197.725C431.408 197.959 431.879 198.261 432.208 198.629C432.537 198.997 432.764 199.403 432.889 199.849C433.015 200.294 433.078 200.75 433.08 201.216L433.195 201.26C433.33 201.059 433.499 200.804 433.702 200.494C433.917 200.179 434.153 199.843 434.411 199.486C434.673 199.12 434.941 198.772 435.216 198.441L438.486 194.428L441.462 195.566L427.416 212.819L425.079 211.926L426.491 209.863L426.401 209.829C425.791 210.138 425.169 210.39 424.537 210.585C423.913 210.782 423.281 210.889 422.639 210.906C422.002 210.914 421.36 210.794 420.713 210.547ZM423.082 208.676C423.482 208.829 423.915 208.878 424.383 208.824C424.858 208.773 425.342 208.639 425.834 208.42C426.339 208.196 426.839 207.912 427.334 207.568C427.834 207.217 428.31 206.822 428.763 206.384C429.216 205.947 429.63 205.485 430.006 204.999C430.382 204.512 430.699 204.023 430.956 203.53C431.347 202.778 431.468 202.106 431.316 201.515C431.177 200.92 430.733 200.478 429.984 200.192C429.499 200.006 428.98 199.963 428.428 200.062C427.877 200.161 427.314 200.368 426.742 200.682C426.17 200.997 425.609 201.398 425.059 201.885C424.521 202.368 424.018 202.912 423.549 203.518C423.08 204.124 422.675 204.754 422.334 205.409C421.908 206.225 421.756 206.909 421.878 207.459C422.008 208.013 422.409 208.419 423.082 208.676ZM437.48 216.959C436.399 216.545 435.555 215.99 434.948 215.293C434.354 214.591 434.034 213.775 433.987 212.846C433.953 211.912 434.225 210.891 434.802 209.784C435.375 208.685 436.099 207.677 436.975 206.762C437.854 205.838 438.837 205.079 439.922 204.486C441.007 203.893 442.142 203.527 443.327 203.389C444.512 203.251 445.696 203.408 446.879 203.861C448.326 204.414 449.25 205.14 449.649 206.039C450.061 206.934 450.002 207.89 449.471 208.908C449.109 209.603 448.612 210.175 447.981 210.621C447.35 211.068 446.584 211.372 445.684 211.532C444.796 211.687 443.774 211.679 442.618 211.508C441.47 211.34 440.198 210.99 438.801 210.456L438.227 210.236C438.155 210.354 438.081 210.476 438.005 210.602C437.934 210.72 437.866 210.84 437.803 210.961C437.335 211.858 437.214 212.66 437.438 213.366C437.666 214.064 438.253 214.593 439.198 214.955C439.913 215.228 440.617 215.396 441.31 215.457C442.003 215.518 442.812 215.523 443.739 215.47L442.57 217.713C441.716 217.764 440.889 217.744 440.09 217.651C439.295 217.551 438.425 217.32 437.48 216.959ZM439.671 208.316L440.106 208.482C441.144 208.88 442.095 209.132 442.958 209.239C443.825 209.338 444.565 209.281 445.176 209.069C445.791 208.849 446.239 208.468 446.522 207.926C446.741 207.506 446.771 207.125 446.612 206.783C446.466 206.436 446.121 206.159 445.576 205.95C445.039 205.745 444.429 205.701 443.746 205.818C443.066 205.926 442.371 206.193 441.659 206.619C440.951 207.037 440.289 207.602 439.671 208.316ZM445.447 219.714L459.506 202.466L462.481 203.604L448.435 220.857L445.447 219.714ZM456.252 224.137C455.366 223.798 454.63 223.429 454.041 223.03C453.457 222.642 452.971 222.214 452.582 221.745L453.852 219.308C454.237 219.823 454.715 220.317 455.287 220.787C455.871 221.253 456.525 221.624 457.249 221.901C457.811 222.116 458.338 222.23 458.831 222.244C459.324 222.258 459.755 222.176 460.124 221.997C460.505 221.813 460.797 221.527 460.999 221.14C461.147 220.857 461.209 220.58 461.187 220.31C461.164 220.039 461.046 219.728 460.832 219.374C460.618 219.021 460.299 218.574 459.876 218.035C459.428 217.466 459.075 216.928 458.817 216.423C458.573 215.912 458.445 215.403 458.434 214.895C458.432 214.39 458.578 213.855 458.873 213.289C459.315 212.44 459.897 211.795 460.617 211.353C461.35 210.906 462.178 210.67 463.1 210.645C464.035 210.615 465.021 210.798 466.06 211.195C466.894 211.514 467.633 211.908 468.277 212.377C468.925 212.838 469.48 213.351 469.941 213.915L467.858 215.649C467.521 215.219 467.113 214.806 466.635 214.41C466.162 214.006 465.597 213.679 464.942 213.428C464.337 213.197 463.761 213.137 463.214 213.247C462.675 213.361 462.276 213.665 462.019 214.158C461.885 214.416 461.826 214.675 461.845 214.934C461.875 215.188 461.994 215.481 462.199 215.811C462.405 216.142 462.708 216.549 463.11 217.032C463.537 217.564 463.892 218.087 464.175 218.602C464.458 219.118 464.615 219.648 464.647 220.193C464.684 220.731 464.54 221.311 464.216 221.933C463.723 222.879 463.072 223.589 462.262 224.065C461.465 224.536 460.553 224.778 459.525 224.792C458.501 224.798 457.41 224.58 456.252 224.137Z" fill="#ED0909"/>
</g>
<defs>
<clipPath id="clip0_109_2">
<rect width="476" height="430" fill="white"/>
</clipPath>
</defs>
</svg>
