<svg width="598" height="132" viewBox="0 0 598 132" fill="none" xmlns="http://www.w3.org/2000/svg">
<g clip-path="url(#clip0_111_21)">
<rect width="598" height="132" fill="white"/>
<path d="M27.2607 14.584L21.5332 36H19.0283L14.7803 21.5859C14.6533 21.1758 14.5312 20.7656 14.4141 20.3555C14.3066 19.9355 14.2041 19.54 14.1064 19.1689C14.0088 18.7881 13.9258 18.4561 13.8574 18.1729C13.7988 17.8799 13.7549 17.6602 13.7256 17.5137C13.7061 17.6602 13.667 17.875 13.6084 18.1582C13.5596 18.4414 13.4912 18.7686 13.4033 19.1396C13.3252 19.5107 13.2275 19.9062 13.1104 20.3262C13.0029 20.7461 12.8857 21.1709 12.7588 21.6006L8.62793 36H6.12305L0.439453 14.584H3.03223L6.47461 28.0166C6.5918 28.4658 6.69922 28.9102 6.79688 29.3496C6.9043 29.7793 6.99707 30.1992 7.0752 30.6094C7.16309 31.0195 7.24121 31.4199 7.30957 31.8105C7.37793 32.2012 7.44141 32.582 7.5 32.9531C7.54883 32.5723 7.6123 32.1768 7.69043 31.7666C7.76855 31.3467 7.85156 30.9219 7.93945 30.4922C8.03711 30.0625 8.13965 29.6279 8.24707 29.1885C8.36426 28.749 8.48633 28.3096 8.61328 27.8701L12.4658 14.584H15.0293L19.043 27.9727C19.1797 28.4316 19.3066 28.8857 19.4238 29.335C19.541 29.7842 19.6436 30.2236 19.7314 30.6533C19.8291 31.0732 19.9121 31.4785 19.9805 31.8691C20.0586 32.25 20.127 32.6113 20.1855 32.9531C20.2539 32.4746 20.3369 31.9717 20.4346 31.4443C20.5322 30.917 20.6445 30.3652 20.7715 29.7891C20.9082 29.2129 21.0547 28.6172 21.2109 28.002L24.6533 14.584H27.2607ZM44.1211 27.9434C44.1211 29.2617 43.9502 30.4385 43.6084 31.4736C43.2666 32.5088 42.7734 33.3828 42.1289 34.0957C41.4844 34.8086 40.7031 35.3555 39.7852 35.7363C38.877 36.1074 37.8467 36.293 36.6943 36.293C35.6201 36.293 34.6338 36.1074 33.7354 35.7363C32.8467 35.3555 32.0752 34.8086 31.4209 34.0957C30.7764 33.3828 30.2734 32.5088 29.9121 31.4736C29.5605 30.4385 29.3848 29.2617 29.3848 27.9434C29.3848 26.1855 29.6826 24.6914 30.2783 23.4609C30.874 22.2207 31.7236 21.2783 32.8271 20.6338C33.9404 19.9795 35.2637 19.6523 36.7969 19.6523C38.2617 19.6523 39.541 19.9795 40.6348 20.6338C41.7383 21.2881 42.5928 22.2354 43.1982 23.4756C43.8135 24.7061 44.1211 26.1953 44.1211 27.9434ZM31.9043 27.9434C31.9043 29.2324 32.0752 30.3506 32.417 31.2979C32.7588 32.2451 33.2861 32.9775 33.999 33.4951C34.7119 34.0127 35.6299 34.2715 36.7529 34.2715C37.8662 34.2715 38.7793 34.0127 39.4922 33.4951C40.2148 32.9775 40.7471 32.2451 41.0889 31.2979C41.4307 30.3506 41.6016 29.2324 41.6016 27.9434C41.6016 26.6641 41.4307 25.5605 41.0889 24.6328C40.7471 23.6953 40.2197 22.9727 39.5068 22.4648C38.7939 21.957 37.8711 21.7031 36.7383 21.7031C35.0684 21.7031 33.8428 22.2549 33.0615 23.3584C32.29 24.4619 31.9043 25.9902 31.9043 27.9434ZM55.6201 19.6523C55.9424 19.6523 56.2793 19.6719 56.6309 19.7109C56.9824 19.7402 57.2949 19.7842 57.5684 19.8428L57.2607 22.0986C56.9971 22.0303 56.7041 21.9766 56.3818 21.9375C56.0596 21.8984 55.7568 21.8789 55.4736 21.8789C54.8291 21.8789 54.2188 22.0107 53.6426 22.2744C53.0762 22.5283 52.5781 22.8994 52.1484 23.3877C51.7188 23.8662 51.3818 24.4473 51.1377 25.1309C50.8936 25.8047 50.7715 26.5566 50.7715 27.3867V36H48.3252V19.9453H50.3467L50.6104 22.9043H50.7129C51.0449 22.3086 51.4453 21.7666 51.9141 21.2783C52.3828 20.7803 52.9248 20.3848 53.54 20.0918C54.165 19.7988 54.8584 19.6523 55.6201 19.6523ZM66.3135 36.293C64.2822 36.293 62.6709 35.5996 61.4795 34.2129C60.2979 32.8262 59.707 30.7656 59.707 28.0312C59.707 25.2676 60.3125 23.1826 61.5234 21.7764C62.7344 20.3604 64.3457 19.6523 66.3574 19.6523C67.207 19.6523 67.9492 19.7646 68.584 19.9893C69.2188 20.2139 69.7656 20.5166 70.2246 20.8975C70.6836 21.2686 71.0693 21.6934 71.3818 22.1719H71.5576C71.5186 21.8691 71.4795 21.4541 71.4404 20.9268C71.4014 20.3994 71.3818 19.9697 71.3818 19.6377V13.207H73.8135V36H71.8506L71.4844 33.7148H71.3818C71.0791 34.1934 70.6934 34.6279 70.2246 35.0186C69.7656 35.4092 69.2139 35.7217 68.5693 35.9561C67.9346 36.1807 67.1826 36.293 66.3135 36.293ZM66.6943 34.2715C68.4131 34.2715 69.6289 33.7832 70.3418 32.8066C71.0547 31.8301 71.4111 30.3799 71.4111 28.4561V28.0166C71.4111 25.9756 71.0693 24.4082 70.3857 23.3145C69.7119 22.2207 68.4814 21.6738 66.6943 21.6738C65.2002 21.6738 64.082 22.25 63.3398 23.4023C62.5977 24.5449 62.2266 26.1074 62.2266 28.0898C62.2266 30.0625 62.5928 31.5859 63.3252 32.6602C64.0674 33.7344 65.1904 34.2715 66.6943 34.2715ZM78.6035 34.4766C78.6035 33.793 78.7695 33.3096 79.1016 33.0264C79.4336 32.7334 79.8389 32.5869 80.3174 32.5869C80.8154 32.5869 81.2354 32.7334 81.5771 33.0264C81.9189 33.3096 82.0898 33.793 82.0898 34.4766C82.0898 35.1504 81.9189 35.6436 81.5771 35.9561C81.2354 36.2588 80.8154 36.4102 80.3174 36.4102C79.8389 36.4102 79.4336 36.2588 79.1016 35.9561C78.7695 35.6436 78.6035 35.1504 78.6035 34.4766ZM78.6035 21.4834C78.6035 20.7803 78.7695 20.2871 79.1016 20.0039C79.4336 19.7109 79.8389 19.5645 80.3174 19.5645C80.8154 19.5645 81.2354 19.7109 81.5771 20.0039C81.9189 20.2871 82.0898 20.7803 82.0898 21.4834C82.0898 22.1475 81.9189 22.6309 81.5771 22.9336C81.2354 23.2363 80.8154 23.3877 80.3174 23.3877C79.8389 23.3877 79.4336 23.2363 79.1016 22.9336C78.7695 22.6309 78.6035 22.1475 78.6035 21.4834ZM440.918 36H427.983V33.3633L435.571 23.0361H428.438V19.623H440.654V22.5234L433.271 32.5869H440.918V36ZM459.053 27.7822C459.053 29.1494 458.867 30.3604 458.496 31.415C458.135 32.4697 457.603 33.3633 456.899 34.0957C456.206 34.8184 455.366 35.3652 454.38 35.7363C453.403 36.1074 452.3 36.293 451.069 36.293C449.917 36.293 448.857 36.1074 447.891 35.7363C446.934 35.3652 446.099 34.8184 445.386 34.0957C444.683 33.3633 444.136 32.4697 443.745 31.415C443.364 30.3604 443.174 29.1494 443.174 27.7822C443.174 25.9658 443.496 24.4277 444.141 23.168C444.785 21.9082 445.703 20.9512 446.895 20.2969C448.086 19.6426 449.507 19.3154 451.157 19.3154C452.69 19.3154 454.048 19.6426 455.229 20.2969C456.421 20.9512 457.354 21.9082 458.027 23.168C458.711 24.4277 459.053 25.9658 459.053 27.7822ZM447.729 27.7822C447.729 28.8564 447.847 29.7598 448.081 30.4922C448.315 31.2246 448.682 31.7764 449.18 32.1475C449.678 32.5186 450.327 32.7041 451.128 32.7041C451.919 32.7041 452.559 32.5186 453.047 32.1475C453.545 31.7764 453.906 31.2246 454.131 30.4922C454.365 29.7598 454.482 28.8564 454.482 27.7822C454.482 26.6982 454.365 25.7998 454.131 25.0869C453.906 24.3643 453.545 23.8223 453.047 23.4609C452.549 23.0996 451.899 22.9189 451.099 22.9189C449.917 22.9189 449.058 23.3242 448.521 24.1348C447.993 24.9453 447.729 26.1611 447.729 27.7822ZM467.212 13.207V18.5098C467.212 19.125 467.192 19.7354 467.153 20.3408C467.124 20.9463 467.085 21.415 467.036 21.7471H467.212C467.642 21.0732 468.228 20.502 468.97 20.0332C469.712 19.5547 470.674 19.3154 471.855 19.3154C473.691 19.3154 475.181 20.0332 476.323 21.4688C477.466 22.9043 478.037 25.0088 478.037 27.7822C478.037 29.6475 477.773 31.2148 477.246 32.4844C476.719 33.7441 475.981 34.6963 475.034 35.3408C474.087 35.9756 472.988 36.293 471.738 36.293C470.537 36.293 469.59 36.0781 468.896 35.6484C468.203 35.2188 467.642 34.7354 467.212 34.1982H466.904L466.157 36H462.744V13.207H467.212ZM470.42 22.8896C469.639 22.8896 469.019 23.0508 468.56 23.373C468.101 23.6953 467.764 24.1787 467.549 24.8232C467.344 25.4678 467.231 26.2832 467.212 27.2695V27.7529C467.212 29.3447 467.446 30.5654 467.915 31.415C468.384 32.2549 469.238 32.6748 470.479 32.6748C471.396 32.6748 472.124 32.25 472.661 31.4004C473.208 30.5508 473.481 29.3252 473.481 27.7236C473.481 26.1221 473.208 24.916 472.661 24.1055C472.114 23.2949 471.367 22.8896 470.42 22.8896ZM496.611 27.7822C496.611 29.1494 496.426 30.3604 496.055 31.415C495.693 32.4697 495.161 33.3633 494.458 34.0957C493.765 34.8184 492.925 35.3652 491.938 35.7363C490.962 36.1074 489.858 36.293 488.628 36.293C487.476 36.293 486.416 36.1074 485.449 35.7363C484.492 35.3652 483.657 34.8184 482.944 34.0957C482.241 33.3633 481.694 32.4697 481.304 31.415C480.923 30.3604 480.732 29.1494 480.732 27.7822C480.732 25.9658 481.055 24.4277 481.699 23.168C482.344 21.9082 483.262 20.9512 484.453 20.2969C485.645 19.6426 487.065 19.3154 488.716 19.3154C490.249 19.3154 491.606 19.6426 492.788 20.2969C493.979 20.9512 494.912 21.9082 495.586 23.168C496.27 24.4277 496.611 25.9658 496.611 27.7822ZM485.288 27.7822C485.288 28.8564 485.405 29.7598 485.64 30.4922C485.874 31.2246 486.24 31.7764 486.738 32.1475C487.236 32.5186 487.886 32.7041 488.687 32.7041C489.478 32.7041 490.117 32.5186 490.605 32.1475C491.104 31.7764 491.465 31.2246 491.689 30.4922C491.924 29.7598 492.041 28.8564 492.041 27.7822C492.041 26.6982 491.924 25.7998 491.689 25.0869C491.465 24.3643 491.104 23.8223 490.605 23.4609C490.107 23.0996 489.458 22.9189 488.657 22.9189C487.476 22.9189 486.616 23.3242 486.079 24.1348C485.552 24.9453 485.288 26.1611 485.288 27.7822ZM519.536 19.3154C521.392 19.3154 522.793 19.7939 523.74 20.751C524.697 21.6982 525.176 23.2217 525.176 25.3213V36H520.693V26.4346C520.693 25.2627 520.493 24.3789 520.093 23.7832C519.692 23.1875 519.072 22.8896 518.232 22.8896C517.051 22.8896 516.211 23.3145 515.713 24.1641C515.215 25.0039 514.966 26.21 514.966 27.7822V36H510.498V26.4346C510.498 25.6533 510.41 24.999 510.234 24.4717C510.059 23.9443 509.79 23.5488 509.429 23.2852C509.067 23.0215 508.604 22.8896 508.037 22.8896C507.207 22.8896 506.553 23.0996 506.074 23.5195C505.605 23.9297 505.269 24.54 505.063 25.3506C504.868 26.1514 504.771 27.1328 504.771 28.2949V36H500.303V19.623H503.716L504.316 21.7178H504.565C504.897 21.1514 505.312 20.6924 505.811 20.3408C506.318 19.9893 506.875 19.7305 507.48 19.5645C508.086 19.3984 508.701 19.3154 509.326 19.3154C510.527 19.3154 511.543 19.5107 512.373 19.9014C513.213 20.292 513.857 20.8975 514.307 21.7178H514.702C515.19 20.8779 515.879 20.2676 516.768 19.8867C517.666 19.5059 518.589 19.3154 519.536 19.3154ZM534.243 19.623V36H529.775V19.623H534.243ZM532.017 13.207C532.681 13.207 533.252 13.3633 533.73 13.6758C534.209 13.9785 534.448 14.5498 534.448 15.3896C534.448 16.2197 534.209 16.7959 533.73 17.1182C533.252 17.4307 532.681 17.5869 532.017 17.5869C531.343 17.5869 530.767 17.4307 530.288 17.1182C529.819 16.7959 529.585 16.2197 529.585 15.3896C529.585 14.5498 529.819 13.9785 530.288 13.6758C530.767 13.3633 531.343 13.207 532.017 13.207Z" fill="black"/>
<path d="M15.0146 66.3018C15.0146 67.5713 14.6973 68.6553 14.0625 69.5537C13.4375 70.4424 12.5586 71.1211 11.4258 71.5898C10.293 72.0586 8.95996 72.293 7.42676 72.293C6.61621 72.293 5.84961 72.2539 5.12695 72.1758C4.4043 72.0977 3.74023 71.9854 3.13477 71.8389C2.5293 71.6924 1.99707 71.5117 1.53809 71.2969V68.9092C2.27051 69.2119 3.16406 69.4951 4.21875 69.7588C5.27344 70.0127 6.37695 70.1396 7.5293 70.1396C8.60352 70.1396 9.51172 69.998 10.2539 69.7148C10.9961 69.4219 11.5576 69.0068 11.9385 68.4697C12.3291 67.9229 12.5244 67.2686 12.5244 66.5068C12.5244 65.7744 12.3633 65.1641 12.041 64.6758C11.7188 64.1777 11.1816 63.7285 10.4297 63.3281C9.6875 62.918 8.67188 62.4834 7.38281 62.0244C6.47461 61.7021 5.67383 61.3506 4.98047 60.9697C4.28711 60.5791 3.70605 60.1396 3.2373 59.6514C2.76855 59.1631 2.41211 58.5967 2.16797 57.9521C1.93359 57.3076 1.81641 56.5703 1.81641 55.7402C1.81641 54.5977 2.10449 53.6211 2.68066 52.8105C3.2666 51.9902 4.07227 51.3652 5.09766 50.9355C6.13281 50.4961 7.31934 50.2764 8.65723 50.2764C9.7998 50.2764 10.8545 50.3838 11.8213 50.5986C12.7979 50.8135 13.6914 51.1016 14.502 51.4629L13.7256 53.6016C12.9541 53.2793 12.1338 53.0107 11.2646 52.7959C10.4053 52.5811 9.5166 52.4736 8.59863 52.4736C7.68066 52.4736 6.9043 52.6104 6.26953 52.8838C5.64453 53.1475 5.16602 53.5234 4.83398 54.0117C4.50195 54.5 4.33594 55.0811 4.33594 55.7549C4.33594 56.5068 4.49219 57.1318 4.80469 57.6299C5.12695 58.1279 5.63477 58.5723 6.32812 58.9629C7.03125 59.3438 7.95898 59.7441 9.11133 60.1641C10.3711 60.623 11.4404 61.1113 12.3193 61.6289C13.1982 62.1367 13.8672 62.7617 14.3262 63.5039C14.7852 64.2363 15.0146 65.1689 15.0146 66.3018ZM32.2852 55.9453V72H30.293L29.9414 69.7441H29.8096C29.4775 70.3008 29.0479 70.7695 28.5205 71.1504C27.9932 71.5312 27.3975 71.8145 26.7334 72C26.0791 72.1953 25.3809 72.293 24.6387 72.293C23.3691 72.293 22.3047 72.0879 21.4453 71.6777C20.5859 71.2676 19.9365 70.6328 19.4971 69.7734C19.0674 68.9141 18.8525 67.8105 18.8525 66.4629V55.9453H21.3135V66.2871C21.3135 67.625 21.6162 68.626 22.2217 69.29C22.8271 69.9443 23.75 70.2715 24.9902 70.2715C26.1816 70.2715 27.1289 70.0469 27.832 69.5977C28.5449 69.1484 29.0576 68.4893 29.3701 67.6201C29.6826 66.7412 29.8389 65.667 29.8389 64.3975V55.9453H32.2852ZM44.7217 55.6523C45.0439 55.6523 45.3809 55.6719 45.7324 55.7109C46.084 55.7402 46.3965 55.7842 46.6699 55.8428L46.3623 58.0986C46.0986 58.0303 45.8057 57.9766 45.4834 57.9375C45.1611 57.8984 44.8584 57.8789 44.5752 57.8789C43.9307 57.8789 43.3203 58.0107 42.7441 58.2744C42.1777 58.5283 41.6797 58.8994 41.25 59.3877C40.8203 59.8662 40.4834 60.4473 40.2393 61.1309C39.9951 61.8047 39.873 62.5566 39.873 63.3867V72H37.4268V55.9453H39.4482L39.7119 58.9043H39.8145C40.1465 58.3086 40.5469 57.7666 41.0156 57.2783C41.4844 56.7803 42.0264 56.3848 42.6416 56.0918C43.2666 55.7988 43.96 55.6523 44.7217 55.6523ZM56.8506 57.8496H52.8516V72H50.4199V57.8496H47.5781V56.6777L50.4199 55.8721V54.8027C50.4199 53.4551 50.6201 52.3613 51.0205 51.5215C51.4209 50.6719 52.002 50.0469 52.7637 49.6465C53.5254 49.2461 54.4531 49.0459 55.5469 49.0459C56.1621 49.0459 56.7236 49.0996 57.2314 49.207C57.749 49.3145 58.2031 49.4365 58.5938 49.5732L57.9639 51.4922C57.6318 51.3848 57.2559 51.2871 56.8359 51.1992C56.4258 51.1016 56.0059 51.0527 55.5762 51.0527C54.6484 51.0527 53.96 51.3555 53.5107 51.9609C53.0713 52.5566 52.8516 53.4941 52.8516 54.7734V55.9453H56.8506V57.8496ZM65.8154 55.6816C67.7295 55.6816 69.1504 56.1113 70.0781 56.9707C71.0059 57.8301 71.4697 59.2021 71.4697 61.0869V72H69.6973L69.2285 69.627H69.1113C68.6621 70.2129 68.1934 70.7061 67.7051 71.1064C67.2168 71.4971 66.6504 71.7949 66.0059 72C65.3711 72.1953 64.5898 72.293 63.6621 72.293C62.6855 72.293 61.8164 72.1221 61.0547 71.7803C60.3027 71.4385 59.707 70.9209 59.2676 70.2275C58.8379 69.5342 58.623 68.6553 58.623 67.5908C58.623 65.9893 59.2578 64.7588 60.5273 63.8994C61.7969 63.04 63.7305 62.5713 66.3281 62.4932L69.0967 62.376V61.3945C69.0967 60.0078 68.7988 59.0361 68.2031 58.4795C67.6074 57.9229 66.7676 57.6445 65.6836 57.6445C64.8438 57.6445 64.043 57.7666 63.2812 58.0107C62.5195 58.2549 61.7969 58.543 61.1133 58.875L60.3662 57.0293C61.0889 56.6582 61.9189 56.3408 62.8564 56.0771C63.7939 55.8135 64.7803 55.6816 65.8154 55.6816ZM69.0674 64.0898L66.6211 64.1924C64.6191 64.2705 63.208 64.5977 62.3877 65.1738C61.5674 65.75 61.1572 66.5654 61.1572 67.6201C61.1572 68.5381 61.4355 69.2168 61.9922 69.6562C62.5488 70.0957 63.2861 70.3154 64.2041 70.3154C65.6299 70.3154 66.7969 69.9199 67.7051 69.1289C68.6133 68.3379 69.0674 67.1514 69.0674 65.5693V64.0898ZM82.9102 72.293C81.4648 72.293 80.1904 71.9951 79.0869 71.3994C77.9834 70.8037 77.124 69.8955 76.5088 68.6748C75.8936 67.4541 75.5859 65.916 75.5859 64.0605C75.5859 62.1172 75.9082 60.5303 76.5527 59.2998C77.207 58.0596 78.1055 57.1416 79.248 56.5459C80.3906 55.9502 81.6895 55.6523 83.1445 55.6523C83.9453 55.6523 84.7168 55.7354 85.459 55.9014C86.2109 56.0576 86.8262 56.2578 87.3047 56.502L86.5723 58.5381C86.084 58.3428 85.5176 58.167 84.873 58.0107C84.2383 57.8545 83.6426 57.7764 83.0859 57.7764C81.9727 57.7764 81.0449 58.0156 80.3027 58.4941C79.5703 58.9727 79.0186 59.6758 78.6475 60.6035C78.2861 61.5312 78.1055 62.6738 78.1055 64.0312C78.1055 65.3301 78.2812 66.4385 78.6328 67.3564C78.9941 68.2744 79.5264 68.9775 80.2295 69.4658C80.9424 69.9443 81.8311 70.1836 82.8955 70.1836C83.7451 70.1836 84.5117 70.0957 85.1953 69.9199C85.8789 69.7344 86.499 69.5195 87.0557 69.2754V71.4434C86.5186 71.7168 85.918 71.9268 85.2539 72.0732C84.5996 72.2197 83.8184 72.293 82.9102 72.293ZM97.0459 55.6523C98.4131 55.6523 99.585 55.9551 100.562 56.5605C101.538 57.166 102.285 58.0156 102.803 59.1094C103.32 60.1934 103.579 61.4629 103.579 62.918V64.4268H92.4902C92.5195 66.3115 92.9883 67.7471 93.8965 68.7334C94.8047 69.7197 96.084 70.2129 97.7344 70.2129C98.75 70.2129 99.6484 70.1201 100.43 69.9346C101.211 69.749 102.021 69.4756 102.861 69.1143V71.2529C102.051 71.6143 101.245 71.8779 100.444 72.0439C99.6533 72.21 98.7158 72.293 97.6318 72.293C96.0889 72.293 94.7412 71.9805 93.5889 71.3555C92.4463 70.7207 91.5576 69.793 90.9229 68.5723C90.2881 67.3516 89.9707 65.8574 89.9707 64.0898C89.9707 62.3613 90.2588 60.8672 90.835 59.6074C91.4209 58.3379 92.2412 57.3613 93.2959 56.6777C94.3604 55.9941 95.6104 55.6523 97.0459 55.6523ZM97.0166 57.6445C95.7178 57.6445 94.6826 58.0693 93.9111 58.9189C93.1396 59.7686 92.6807 60.9551 92.5342 62.4785H101.03C101.021 61.5215 100.869 60.6816 100.576 59.959C100.293 59.2266 99.8584 58.6602 99.2725 58.2598C98.6865 57.8496 97.9346 57.6445 97.0166 57.6445ZM125.889 67.6055C125.889 68.6309 125.63 69.4951 125.112 70.1982C124.604 70.8916 123.872 71.4141 122.915 71.7656C121.968 72.1172 120.835 72.293 119.517 72.293C118.394 72.293 117.422 72.2051 116.602 72.0293C115.781 71.8535 115.063 71.6045 114.448 71.2822V69.041C115.103 69.3633 115.884 69.6562 116.792 69.9199C117.7 70.1836 118.628 70.3154 119.575 70.3154C120.962 70.3154 121.968 70.0908 122.593 69.6416C123.218 69.1924 123.53 68.582 123.53 67.8105C123.53 67.3711 123.403 66.9854 123.149 66.6533C122.905 66.3115 122.49 65.9844 121.904 65.6719C121.318 65.3496 120.508 64.998 119.473 64.6172C118.447 64.2266 117.559 63.8408 116.807 63.46C116.064 63.0693 115.488 62.5957 115.078 62.0391C114.678 61.4824 114.478 60.7598 114.478 59.8711C114.478 58.5137 115.024 57.4736 116.118 56.751C117.222 56.0186 118.667 55.6523 120.454 55.6523C121.421 55.6523 122.324 55.75 123.164 55.9453C124.014 56.1309 124.805 56.3848 125.537 56.707L124.717 58.6553C124.053 58.3721 123.345 58.1328 122.593 57.9375C121.841 57.7422 121.074 57.6445 120.293 57.6445C119.17 57.6445 118.306 57.8301 117.7 58.2012C117.104 58.5723 116.807 59.0801 116.807 59.7246C116.807 60.2227 116.943 60.6328 117.217 60.9551C117.5 61.2773 117.949 61.5801 118.564 61.8633C119.18 62.1465 119.99 62.4785 120.996 62.8594C122.002 63.2305 122.871 63.6162 123.604 64.0166C124.336 64.4072 124.897 64.8857 125.288 65.4521C125.688 66.0088 125.889 66.7266 125.889 67.6055ZM135.981 55.6523C137.349 55.6523 138.521 55.9551 139.497 56.5605C140.474 57.166 141.221 58.0156 141.738 59.1094C142.256 60.1934 142.515 61.4629 142.515 62.918V64.4268H131.426C131.455 66.3115 131.924 67.7471 132.832 68.7334C133.74 69.7197 135.02 70.2129 136.67 70.2129C137.686 70.2129 138.584 70.1201 139.365 69.9346C140.146 69.749 140.957 69.4756 141.797 69.1143V71.2529C140.986 71.6143 140.181 71.8779 139.38 72.0439C138.589 72.21 137.651 72.293 136.567 72.293C135.024 72.293 133.677 71.9805 132.524 71.3555C131.382 70.7207 130.493 69.793 129.858 68.5723C129.224 67.3516 128.906 65.8574 128.906 64.0898C128.906 62.3613 129.194 60.8672 129.771 59.6074C130.356 58.3379 131.177 57.3613 132.231 56.6777C133.296 55.9941 134.546 55.6523 135.981 55.6523ZM135.952 57.6445C134.653 57.6445 133.618 58.0693 132.847 58.9189C132.075 59.7686 131.616 60.9551 131.47 62.4785H139.966C139.956 61.5215 139.805 60.6816 139.512 59.959C139.229 59.2266 138.794 58.6602 138.208 58.2598C137.622 57.8496 136.87 57.6445 135.952 57.6445ZM151.128 79.207C149.019 79.207 147.393 78.8115 146.25 78.0205C145.107 77.2393 144.536 76.1406 144.536 74.7246C144.536 73.7188 144.854 72.8594 145.488 72.1465C146.133 71.4336 147.021 70.96 148.154 70.7256C147.734 70.5303 147.373 70.2373 147.07 69.8467C146.777 69.4561 146.631 69.0068 146.631 68.499C146.631 67.9131 146.792 67.4004 147.114 66.9609C147.446 66.5117 147.949 66.082 148.623 65.6719C147.783 65.3301 147.1 64.7539 146.572 63.9434C146.055 63.123 145.796 62.1709 145.796 61.0869C145.796 59.9346 146.035 58.9531 146.514 58.1426C146.992 57.3223 147.686 56.6973 148.594 56.2676C149.502 55.8379 150.601 55.623 151.89 55.623C152.173 55.623 152.456 55.6377 152.739 55.667C153.032 55.6865 153.311 55.7207 153.574 55.7695C153.838 55.8086 154.067 55.8574 154.263 55.916H159.771V57.4834L156.812 57.8496C157.104 58.2305 157.349 58.6895 157.544 59.2266C157.739 59.7637 157.837 60.3594 157.837 61.0137C157.837 62.6152 157.295 63.8896 156.211 64.8369C155.127 65.7744 153.638 66.2432 151.743 66.2432C151.294 66.2432 150.835 66.2041 150.366 66.126C149.888 66.3896 149.521 66.6826 149.268 67.0049C149.023 67.3271 148.901 67.6982 148.901 68.1182C148.901 68.4307 148.994 68.6797 149.18 68.8652C149.375 69.0508 149.653 69.1875 150.015 69.2754C150.376 69.3535 150.811 69.3926 151.318 69.3926H154.146C155.894 69.3926 157.231 69.7588 158.159 70.4912C159.097 71.2236 159.565 72.293 159.565 73.6992C159.565 75.4766 158.843 76.8389 157.397 77.7861C155.952 78.7334 153.862 79.207 151.128 79.207ZM151.201 77.3027C152.529 77.3027 153.628 77.166 154.497 76.8926C155.376 76.6289 156.03 76.2432 156.46 75.7354C156.899 75.2373 157.119 74.6416 157.119 73.9482C157.119 73.3037 156.973 72.8154 156.68 72.4834C156.387 72.1611 155.957 71.9463 155.391 71.8389C154.824 71.7217 154.131 71.6631 153.311 71.6631H150.527C149.805 71.6631 149.175 71.7754 148.638 72C148.101 72.2246 147.686 72.5566 147.393 72.9961C147.109 73.4355 146.968 73.9824 146.968 74.6367C146.968 75.5059 147.334 76.165 148.066 76.6143C148.799 77.0732 149.844 77.3027 151.201 77.3027ZM151.831 64.4707C152.993 64.4707 153.867 64.1777 154.453 63.5918C155.039 63.0059 155.332 62.1514 155.332 61.0283C155.332 59.8271 155.034 58.9287 154.438 58.333C153.843 57.7275 152.964 57.4248 151.802 57.4248C150.688 57.4248 149.829 57.7373 149.224 58.3623C148.628 58.9775 148.33 59.8809 148.33 61.0723C148.33 62.166 148.633 63.0059 149.238 63.5918C149.844 64.1777 150.708 64.4707 151.831 64.4707ZM180.366 55.6523C182.134 55.6523 183.467 56.1162 184.365 57.0439C185.264 57.9619 185.713 59.4414 185.713 61.4824V72H183.311V61.5996C183.311 60.3008 183.027 59.3291 182.461 58.6846C181.904 58.0303 181.074 57.7031 179.971 57.7031C178.418 57.7031 177.29 58.1523 176.587 59.0508C175.884 59.9492 175.532 61.2725 175.532 63.0205V72H173.115V61.5996C173.115 60.7305 172.988 60.0078 172.734 59.4316C172.49 58.8555 172.119 58.4258 171.621 58.1426C171.133 57.8496 170.513 57.7031 169.761 57.7031C168.696 57.7031 167.842 57.9229 167.197 58.3623C166.553 58.8018 166.084 59.4561 165.791 60.3252C165.508 61.1846 165.366 62.2441 165.366 63.5039V72H162.935V55.9453H164.897L165.264 58.2158H165.396C165.718 57.6592 166.123 57.1904 166.611 56.8096C167.1 56.4287 167.646 56.1406 168.252 55.9453C168.857 55.75 169.502 55.6523 170.186 55.6523C171.406 55.6523 172.427 55.8818 173.247 56.3408C174.077 56.79 174.678 57.4785 175.049 58.4062H175.181C175.708 57.4785 176.431 56.79 177.349 56.3408C178.267 55.8818 179.272 55.6523 180.366 55.6523ZM196.89 55.6523C198.257 55.6523 199.429 55.9551 200.405 56.5605C201.382 57.166 202.129 58.0156 202.646 59.1094C203.164 60.1934 203.423 61.4629 203.423 62.918V64.4268H192.334C192.363 66.3115 192.832 67.7471 193.74 68.7334C194.648 69.7197 195.928 70.2129 197.578 70.2129C198.594 70.2129 199.492 70.1201 200.273 69.9346C201.055 69.749 201.865 69.4756 202.705 69.1143V71.2529C201.895 71.6143 201.089 71.8779 200.288 72.0439C199.497 72.21 198.56 72.293 197.476 72.293C195.933 72.293 194.585 71.9805 193.433 71.3555C192.29 70.7207 191.401 69.793 190.767 68.5723C190.132 67.3516 189.814 65.8574 189.814 64.0898C189.814 62.3613 190.103 60.8672 190.679 59.6074C191.265 58.3379 192.085 57.3613 193.14 56.6777C194.204 55.9941 195.454 55.6523 196.89 55.6523ZM196.86 57.6445C195.562 57.6445 194.526 58.0693 193.755 58.9189C192.983 59.7686 192.524 60.9551 192.378 62.4785H200.874C200.864 61.5215 200.713 60.6816 200.42 59.959C200.137 59.2266 199.702 58.6602 199.116 58.2598C198.53 57.8496 197.778 57.6445 196.86 57.6445ZM215.156 55.6523C217.061 55.6523 218.501 56.1211 219.478 57.0586C220.454 57.9863 220.942 59.4805 220.942 61.541V72H218.54V61.7021C218.54 60.3643 218.232 59.3633 217.617 58.6992C217.012 58.0352 216.079 57.7031 214.819 57.7031C213.042 57.7031 211.792 58.2061 211.069 59.2119C210.347 60.2178 209.985 61.6777 209.985 63.5918V72H207.554V55.9453H209.517L209.883 58.2598H210.015C210.356 57.6934 210.791 57.2197 211.318 56.8389C211.846 56.4482 212.437 56.1553 213.091 55.96C213.745 55.7549 214.434 55.6523 215.156 55.6523ZM231.138 70.3008C231.538 70.3008 231.948 70.2666 232.368 70.1982C232.788 70.1299 233.13 70.0469 233.394 69.9492V71.8389C233.11 71.9658 232.715 72.0732 232.207 72.1611C231.709 72.249 231.221 72.293 230.742 72.293C229.893 72.293 229.121 72.1465 228.428 71.8535C227.734 71.5508 227.178 71.043 226.758 70.3301C226.348 69.6172 226.143 68.6309 226.143 67.3711V57.8496H223.857V56.6631L226.157 55.7109L227.124 52.2246H228.589V55.9453H233.291V57.8496H228.589V67.2979C228.589 68.3037 228.818 69.0557 229.277 69.5537C229.746 70.0518 230.366 70.3008 231.138 70.3008ZM242.651 55.6816C244.565 55.6816 245.986 56.1113 246.914 56.9707C247.842 57.8301 248.306 59.2021 248.306 61.0869V72H246.533L246.064 69.627H245.947C245.498 70.2129 245.029 70.7061 244.541 71.1064C244.053 71.4971 243.486 71.7949 242.842 72C242.207 72.1953 241.426 72.293 240.498 72.293C239.521 72.293 238.652 72.1221 237.891 71.7803C237.139 71.4385 236.543 70.9209 236.104 70.2275C235.674 69.5342 235.459 68.6553 235.459 67.5908C235.459 65.9893 236.094 64.7588 237.363 63.8994C238.633 63.04 240.566 62.5713 243.164 62.4932L245.933 62.376V61.3945C245.933 60.0078 245.635 59.0361 245.039 58.4795C244.443 57.9229 243.604 57.6445 242.52 57.6445C241.68 57.6445 240.879 57.7666 240.117 58.0107C239.355 58.2549 238.633 58.543 237.949 58.875L237.202 57.0293C237.925 56.6582 238.755 56.3408 239.692 56.0771C240.63 55.8135 241.616 55.6816 242.651 55.6816ZM245.903 64.0898L243.457 64.1924C241.455 64.2705 240.044 64.5977 239.224 65.1738C238.403 65.75 237.993 66.5654 237.993 67.6201C237.993 68.5381 238.271 69.2168 238.828 69.6562C239.385 70.0957 240.122 70.3154 241.04 70.3154C242.466 70.3154 243.633 69.9199 244.541 69.1289C245.449 68.3379 245.903 67.1514 245.903 65.5693V64.0898ZM258.501 70.3008C258.901 70.3008 259.312 70.2666 259.731 70.1982C260.151 70.1299 260.493 70.0469 260.757 69.9492V71.8389C260.474 71.9658 260.078 72.0732 259.57 72.1611C259.072 72.249 258.584 72.293 258.105 72.293C257.256 72.293 256.484 72.1465 255.791 71.8535C255.098 71.5508 254.541 71.043 254.121 70.3301C253.711 69.6172 253.506 68.6309 253.506 67.3711V57.8496H251.221V56.6631L253.521 55.7109L254.487 52.2246H255.952V55.9453H260.654V57.8496H255.952V67.2979C255.952 68.3037 256.182 69.0557 256.641 69.5537C257.109 70.0518 257.729 70.3008 258.501 70.3008ZM266.44 55.9453V72H264.009V55.9453H266.44ZM265.254 49.9395C265.654 49.9395 265.996 50.0713 266.279 50.335C266.572 50.5889 266.719 50.9893 266.719 51.5361C266.719 52.0732 266.572 52.4736 266.279 52.7373C265.996 53.001 265.654 53.1328 265.254 53.1328C264.834 53.1328 264.482 53.001 264.199 52.7373C263.926 52.4736 263.789 52.0732 263.789 51.5361C263.789 50.9893 263.926 50.5889 264.199 50.335C264.482 50.0713 264.834 49.9395 265.254 49.9395ZM285.439 63.9434C285.439 65.2617 285.269 66.4385 284.927 67.4736C284.585 68.5088 284.092 69.3828 283.447 70.0957C282.803 70.8086 282.021 71.3555 281.104 71.7363C280.195 72.1074 279.165 72.293 278.013 72.293C276.938 72.293 275.952 72.1074 275.054 71.7363C274.165 71.3555 273.394 70.8086 272.739 70.0957C272.095 69.3828 271.592 68.5088 271.23 67.4736C270.879 66.4385 270.703 65.2617 270.703 63.9434C270.703 62.1855 271.001 60.6914 271.597 59.4609C272.192 58.2207 273.042 57.2783 274.146 56.6338C275.259 55.9795 276.582 55.6523 278.115 55.6523C279.58 55.6523 280.859 55.9795 281.953 56.6338C283.057 57.2881 283.911 58.2354 284.517 59.4756C285.132 60.7061 285.439 62.1953 285.439 63.9434ZM273.223 63.9434C273.223 65.2324 273.394 66.3506 273.735 67.2979C274.077 68.2451 274.604 68.9775 275.317 69.4951C276.03 70.0127 276.948 70.2715 278.071 70.2715C279.185 70.2715 280.098 70.0127 280.811 69.4951C281.533 68.9775 282.065 68.2451 282.407 67.2979C282.749 66.3506 282.92 65.2324 282.92 63.9434C282.92 62.6641 282.749 61.5605 282.407 60.6328C282.065 59.6953 281.538 58.9727 280.825 58.4648C280.112 57.957 279.189 57.7031 278.057 57.7031C276.387 57.7031 275.161 58.2549 274.38 59.3584C273.608 60.4619 273.223 61.9902 273.223 63.9434ZM297.246 55.6523C299.15 55.6523 300.591 56.1211 301.567 57.0586C302.544 57.9863 303.032 59.4805 303.032 61.541V72H300.63V61.7021C300.63 60.3643 300.322 59.3633 299.707 58.6992C299.102 58.0352 298.169 57.7031 296.909 57.7031C295.132 57.7031 293.882 58.2061 293.159 59.2119C292.437 60.2178 292.075 61.6777 292.075 63.5918V72H289.644V55.9453H291.606L291.973 58.2598H292.104C292.446 57.6934 292.881 57.2197 293.408 56.8389C293.936 56.4482 294.526 56.1553 295.181 55.96C295.835 55.7549 296.523 55.6523 297.246 55.6523ZM307.676 70.4766C307.676 69.793 307.842 69.3096 308.174 69.0264C308.506 68.7334 308.911 68.5869 309.39 68.5869C309.888 68.5869 310.308 68.7334 310.649 69.0264C310.991 69.3096 311.162 69.793 311.162 70.4766C311.162 71.1504 310.991 71.6436 310.649 71.9561C310.308 72.2588 309.888 72.4102 309.39 72.4102C308.911 72.4102 308.506 72.2588 308.174 71.9561C307.842 71.6436 307.676 71.1504 307.676 70.4766ZM307.676 57.4834C307.676 56.7803 307.842 56.2871 308.174 56.0039C308.506 55.7109 308.911 55.5645 309.39 55.5645C309.888 55.5645 310.308 55.7109 310.649 56.0039C310.991 56.2871 311.162 56.7803 311.162 57.4834C311.162 58.1475 310.991 58.6309 310.649 58.9336C310.308 59.2363 309.888 59.3877 309.39 59.3877C308.911 59.3877 308.506 59.2363 308.174 58.9336C307.842 58.6309 307.676 58.1475 307.676 57.4834ZM435.337 72H423.633V70.3887L432.437 57.8496H424.189V55.9453H435.146V57.7471L426.46 70.1104H435.337V72ZM452.93 63.9434C452.93 65.2617 452.759 66.4385 452.417 67.4736C452.075 68.5088 451.582 69.3828 450.938 70.0957C450.293 70.8086 449.512 71.3555 448.594 71.7363C447.686 72.1074 446.655 72.293 445.503 72.293C444.429 72.293 443.442 72.1074 442.544 71.7363C441.655 71.3555 440.884 70.8086 440.229 70.0957C439.585 69.3828 439.082 68.5088 438.721 67.4736C438.369 66.4385 438.193 65.2617 438.193 63.9434C438.193 62.1855 438.491 60.6914 439.087 59.4609C439.683 58.2207 440.532 57.2783 441.636 56.6338C442.749 55.9795 444.072 55.6523 445.605 55.6523C447.07 55.6523 448.35 55.9795 449.443 56.6338C450.547 57.2881 451.401 58.2354 452.007 59.4756C452.622 60.7061 452.93 62.1953 452.93 63.9434ZM440.713 63.9434C440.713 65.2324 440.884 66.3506 441.226 67.2979C441.567 68.2451 442.095 68.9775 442.808 69.4951C443.521 70.0127 444.438 70.2715 445.562 70.2715C446.675 70.2715 447.588 70.0127 448.301 69.4951C449.023 68.9775 449.556 68.2451 449.897 67.2979C450.239 66.3506 450.41 65.2324 450.41 63.9434C450.41 62.6641 450.239 61.5605 449.897 60.6328C449.556 59.6953 449.028 58.9727 448.315 58.4648C447.603 57.957 446.68 57.7031 445.547 57.7031C443.877 57.7031 442.651 58.2549 441.87 59.3584C441.099 60.4619 440.713 61.9902 440.713 63.9434ZM455.771 65.0273V62.8594H463.037V65.0273H455.771ZM469.233 49.207V54.9053C469.233 55.5596 469.214 56.1943 469.175 56.8096C469.146 57.4248 469.121 57.9033 469.102 58.2451H469.233C469.673 57.5225 470.308 56.9121 471.138 56.4141C471.968 55.916 473.027 55.667 474.316 55.667C476.328 55.667 477.93 56.3652 479.121 57.7617C480.322 59.1484 480.923 61.2139 480.923 63.958C480.923 65.7646 480.649 67.2881 480.103 68.5283C479.556 69.7686 478.784 70.7061 477.788 71.3408C476.792 71.9756 475.615 72.293 474.258 72.293C472.988 72.293 471.943 72.0586 471.123 71.5898C470.312 71.1113 469.688 70.5303 469.248 69.8467H469.058L468.56 72H466.802V49.207H469.233ZM473.921 57.7031C472.759 57.7031 471.836 57.9326 471.152 58.3916C470.469 58.8408 469.976 59.5244 469.673 60.4424C469.38 61.3506 469.233 62.5029 469.233 63.8994V64.0312C469.233 66.0527 469.57 67.6006 470.244 68.6748C470.918 69.7393 472.144 70.2715 473.921 70.2715C475.415 70.2715 476.533 69.7246 477.275 68.6309C478.027 67.5371 478.403 65.9746 478.403 63.9434C478.403 61.873 478.032 60.3154 477.29 59.2705C476.558 58.2256 475.435 57.7031 473.921 57.7031ZM499.014 63.9434C499.014 65.2617 498.843 66.4385 498.501 67.4736C498.159 68.5088 497.666 69.3828 497.021 70.0957C496.377 70.8086 495.596 71.3555 494.678 71.7363C493.77 72.1074 492.739 72.293 491.587 72.293C490.513 72.293 489.526 72.1074 488.628 71.7363C487.739 71.3555 486.968 70.8086 486.313 70.0957C485.669 69.3828 485.166 68.5088 484.805 67.4736C484.453 66.4385 484.277 65.2617 484.277 63.9434C484.277 62.1855 484.575 60.6914 485.171 59.4609C485.767 58.2207 486.616 57.2783 487.72 56.6338C488.833 55.9795 490.156 55.6523 491.689 55.6523C493.154 55.6523 494.434 55.9795 495.527 56.6338C496.631 57.2881 497.485 58.2354 498.091 59.4756C498.706 60.7061 499.014 62.1953 499.014 63.9434ZM486.797 63.9434C486.797 65.2324 486.968 66.3506 487.31 67.2979C487.651 68.2451 488.179 68.9775 488.892 69.4951C489.604 70.0127 490.522 70.2715 491.646 70.2715C492.759 70.2715 493.672 70.0127 494.385 69.4951C495.107 68.9775 495.64 68.2451 495.981 67.2979C496.323 66.3506 496.494 65.2324 496.494 63.9434C496.494 62.6641 496.323 61.5605 495.981 60.6328C495.64 59.6953 495.112 58.9727 494.399 58.4648C493.687 57.957 492.764 57.7031 491.631 57.7031C489.961 57.7031 488.735 58.2549 487.954 59.3584C487.183 60.4619 486.797 61.9902 486.797 63.9434ZM520.649 55.6523C522.417 55.6523 523.75 56.1162 524.648 57.0439C525.547 57.9619 525.996 59.4414 525.996 61.4824V72H523.594V61.5996C523.594 60.3008 523.311 59.3291 522.744 58.6846C522.188 58.0303 521.357 57.7031 520.254 57.7031C518.701 57.7031 517.573 58.1523 516.87 59.0508C516.167 59.9492 515.815 61.2725 515.815 63.0205V72H513.398V61.5996C513.398 60.7305 513.271 60.0078 513.018 59.4316C512.773 58.8555 512.402 58.4258 511.904 58.1426C511.416 57.8496 510.796 57.7031 510.044 57.7031C508.979 57.7031 508.125 57.9229 507.48 58.3623C506.836 58.8018 506.367 59.4561 506.074 60.3252C505.791 61.1846 505.649 62.2441 505.649 63.5039V72H503.218V55.9453H505.181L505.547 58.2158H505.679C506.001 57.6592 506.406 57.1904 506.895 56.8096C507.383 56.4287 507.93 56.1406 508.535 55.9453C509.141 55.75 509.785 55.6523 510.469 55.6523C511.689 55.6523 512.71 55.8818 513.53 56.3408C514.36 56.79 514.961 57.4785 515.332 58.4062H515.464C515.991 57.4785 516.714 56.79 517.632 56.3408C518.55 55.8818 519.556 55.6523 520.649 55.6523ZM533.423 55.9453V72H530.991V55.9453H533.423ZM532.236 49.9395C532.637 49.9395 532.979 50.0713 533.262 50.335C533.555 50.5889 533.701 50.9893 533.701 51.5361C533.701 52.0732 533.555 52.4736 533.262 52.7373C532.979 53.001 532.637 53.1328 532.236 53.1328C531.816 53.1328 531.465 53.001 531.182 52.7373C530.908 52.4736 530.771 52.0732 530.771 51.5361C530.771 50.9893 530.908 50.5889 531.182 50.335C531.465 50.0713 531.816 49.9395 532.236 49.9395Z" fill="black"/>
<path d="M12.085 88.4736C10.9033 88.4736 9.83887 88.6787 8.8916 89.0889C7.9541 89.4893 7.15332 90.0752 6.48926 90.8467C5.83496 91.6084 5.33203 92.5312 4.98047 93.6152C4.62891 94.6992 4.45312 95.9199 4.45312 97.2773C4.45312 99.0742 4.73145 100.637 5.28809 101.965C5.85449 103.283 6.69434 104.304 7.80762 105.026C8.93066 105.749 10.332 106.11 12.0117 106.11C12.9688 106.11 13.8672 106.032 14.707 105.876C15.5566 105.71 16.3818 105.505 17.1826 105.261V107.429C16.4014 107.722 15.5811 107.937 14.7217 108.073C13.8623 108.22 12.8418 108.293 11.6602 108.293C9.48242 108.293 7.66113 107.844 6.19629 106.945C4.74121 106.037 3.64746 104.758 2.91504 103.107C2.19238 101.457 1.83105 99.5088 1.83105 97.2627C1.83105 95.6416 2.05566 94.1621 2.50488 92.8242C2.96387 91.4766 3.62793 90.3145 4.49707 89.3379C5.37598 88.3613 6.4502 87.6094 7.71973 87.082C8.99902 86.5449 10.4639 86.2764 12.1143 86.2764C13.1982 86.2764 14.2432 86.3838 15.249 86.5986C16.2549 86.8135 17.1631 87.1211 17.9736 87.5215L16.9775 89.6309C16.2939 89.3184 15.542 89.0498 14.7217 88.8252C13.9111 88.5908 13.0322 88.4736 12.085 88.4736ZM27.4658 91.6816C29.3799 91.6816 30.8008 92.1113 31.7285 92.9707C32.6562 93.8301 33.1201 95.2021 33.1201 97.0869V108H31.3477L30.8789 105.627H30.7617C30.3125 106.213 29.8438 106.706 29.3555 107.106C28.8672 107.497 28.3008 107.795 27.6562 108C27.0215 108.195 26.2402 108.293 25.3125 108.293C24.3359 108.293 23.4668 108.122 22.7051 107.78C21.9531 107.438 21.3574 106.921 20.918 106.228C20.4883 105.534 20.2734 104.655 20.2734 103.591C20.2734 101.989 20.9082 100.759 22.1777 99.8994C23.4473 99.04 25.3809 98.5713 27.9785 98.4932L30.7471 98.376V97.3945C30.7471 96.0078 30.4492 95.0361 29.8535 94.4795C29.2578 93.9229 28.418 93.6445 27.334 93.6445C26.4941 93.6445 25.6934 93.7666 24.9316 94.0107C24.1699 94.2549 23.4473 94.543 22.7637 94.875L22.0166 93.0293C22.7393 92.6582 23.5693 92.3408 24.5068 92.0771C25.4443 91.8135 26.4307 91.6816 27.4658 91.6816ZM30.7178 100.09L28.2715 100.192C26.2695 100.271 24.8584 100.598 24.0381 101.174C23.2178 101.75 22.8076 102.565 22.8076 103.62C22.8076 104.538 23.0859 105.217 23.6426 105.656C24.1992 106.096 24.9365 106.315 25.8545 106.315C27.2803 106.315 28.4473 105.92 29.3555 105.129C30.2637 104.338 30.7178 103.151 30.7178 101.569V100.09ZM45.7324 91.6523C47.6367 91.6523 49.0771 92.1211 50.0537 93.0586C51.0303 93.9863 51.5186 95.4805 51.5186 97.541V108H49.1162V97.7021C49.1162 96.3643 48.8086 95.3633 48.1934 94.6992C47.5879 94.0352 46.6553 93.7031 45.3955 93.7031C43.6182 93.7031 42.3682 94.2061 41.6455 95.2119C40.9229 96.2178 40.5615 97.6777 40.5615 99.5918V108H38.1299V91.9453H40.0928L40.459 94.2598H40.5908C40.9326 93.6934 41.3672 93.2197 41.8945 92.8389C42.4219 92.4482 43.0127 92.1553 43.667 91.96C44.3213 91.7549 45.0098 91.6523 45.7324 91.6523ZM70.3711 99.9434C70.3711 101.262 70.2002 102.438 69.8584 103.474C69.5166 104.509 69.0234 105.383 68.3789 106.096C67.7344 106.809 66.9531 107.355 66.0352 107.736C65.127 108.107 64.0967 108.293 62.9443 108.293C61.8701 108.293 60.8838 108.107 59.9854 107.736C59.0967 107.355 58.3252 106.809 57.6709 106.096C57.0264 105.383 56.5234 104.509 56.1621 103.474C55.8105 102.438 55.6348 101.262 55.6348 99.9434C55.6348 98.1855 55.9326 96.6914 56.5283 95.4609C57.124 94.2207 57.9736 93.2783 59.0771 92.6338C60.1904 91.9795 61.5137 91.6523 63.0469 91.6523C64.5117 91.6523 65.791 91.9795 66.8848 92.6338C67.9883 93.2881 68.8428 94.2354 69.4482 95.4756C70.0635 96.7061 70.3711 98.1953 70.3711 99.9434ZM58.1543 99.9434C58.1543 101.232 58.3252 102.351 58.667 103.298C59.0088 104.245 59.5361 104.978 60.249 105.495C60.9619 106.013 61.8799 106.271 63.0029 106.271C64.1162 106.271 65.0293 106.013 65.7422 105.495C66.4648 104.978 66.9971 104.245 67.3389 103.298C67.6807 102.351 67.8516 101.232 67.8516 99.9434C67.8516 98.6641 67.6807 97.5605 67.3389 96.6328C66.9971 95.6953 66.4697 94.9727 65.7568 94.4648C65.0439 93.957 64.1211 93.7031 62.9883 93.7031C61.3184 93.7031 60.0928 94.2549 59.3115 95.3584C58.54 96.4619 58.1543 97.9902 58.1543 99.9434ZM82.1777 91.6523C84.082 91.6523 85.5225 92.1211 86.499 93.0586C87.4756 93.9863 87.9639 95.4805 87.9639 97.541V108H85.5615V97.7021C85.5615 96.3643 85.2539 95.3633 84.6387 94.6992C84.0332 94.0352 83.1006 93.7031 81.8408 93.7031C80.0635 93.7031 78.8135 94.2061 78.0908 95.2119C77.3682 96.2178 77.0068 97.6777 77.0068 99.5918V108H74.5752V91.9453H76.5381L76.9043 94.2598H77.0361C77.3779 93.6934 77.8125 93.2197 78.3398 92.8389C78.8672 92.4482 79.458 92.1553 80.1123 91.96C80.7666 91.7549 81.4551 91.6523 82.1777 91.6523ZM95.4053 91.9453V108H92.9736V91.9453H95.4053ZM94.2188 85.9395C94.6191 85.9395 94.9609 86.0713 95.2441 86.335C95.5371 86.5889 95.6836 86.9893 95.6836 87.5361C95.6836 88.0732 95.5371 88.4736 95.2441 88.7373C94.9609 89.001 94.6191 89.1328 94.2188 89.1328C93.7988 89.1328 93.4473 89.001 93.1641 88.7373C92.8906 88.4736 92.7539 88.0732 92.7539 87.5361C92.7539 86.9893 92.8906 86.5889 93.1641 86.335C93.4473 86.0713 93.7988 85.9395 94.2188 85.9395ZM106.992 108.293C105.547 108.293 104.272 107.995 103.169 107.399C102.065 106.804 101.206 105.896 100.591 104.675C99.9756 103.454 99.668 101.916 99.668 100.061C99.668 98.1172 99.9902 96.5303 100.635 95.2998C101.289 94.0596 102.188 93.1416 103.33 92.5459C104.473 91.9502 105.771 91.6523 107.227 91.6523C108.027 91.6523 108.799 91.7354 109.541 91.9014C110.293 92.0576 110.908 92.2578 111.387 92.502L110.654 94.5381C110.166 94.3428 109.6 94.167 108.955 94.0107C108.32 93.8545 107.725 93.7764 107.168 93.7764C106.055 93.7764 105.127 94.0156 104.385 94.4941C103.652 94.9727 103.101 95.6758 102.729 96.6035C102.368 97.5312 102.188 98.6738 102.188 100.031C102.188 101.33 102.363 102.438 102.715 103.356C103.076 104.274 103.608 104.978 104.312 105.466C105.024 105.944 105.913 106.184 106.978 106.184C107.827 106.184 108.594 106.096 109.277 105.92C109.961 105.734 110.581 105.52 111.138 105.275V107.443C110.601 107.717 110 107.927 109.336 108.073C108.682 108.22 107.9 108.293 106.992 108.293ZM120.952 91.6816C122.866 91.6816 124.287 92.1113 125.215 92.9707C126.143 93.8301 126.606 95.2021 126.606 97.0869V108H124.834L124.365 105.627H124.248C123.799 106.213 123.33 106.706 122.842 107.106C122.354 107.497 121.787 107.795 121.143 108C120.508 108.195 119.727 108.293 118.799 108.293C117.822 108.293 116.953 108.122 116.191 107.78C115.439 107.438 114.844 106.921 114.404 106.228C113.975 105.534 113.76 104.655 113.76 103.591C113.76 101.989 114.395 100.759 115.664 99.8994C116.934 99.04 118.867 98.5713 121.465 98.4932L124.233 98.376V97.3945C124.233 96.0078 123.936 95.0361 123.34 94.4795C122.744 93.9229 121.904 93.6445 120.82 93.6445C119.98 93.6445 119.18 93.7666 118.418 94.0107C117.656 94.2549 116.934 94.543 116.25 94.875L115.503 93.0293C116.226 92.6582 117.056 92.3408 117.993 92.0771C118.931 91.8135 119.917 91.6816 120.952 91.6816ZM124.204 100.09L121.758 100.192C119.756 100.271 118.345 100.598 117.524 101.174C116.704 101.75 116.294 102.565 116.294 103.62C116.294 104.538 116.572 105.217 117.129 105.656C117.686 106.096 118.423 106.315 119.341 106.315C120.767 106.315 121.934 105.92 122.842 105.129C123.75 104.338 124.204 103.151 124.204 101.569V100.09ZM134.062 108H131.616V85.207H134.062V108ZM157.383 103.605C157.383 104.631 157.124 105.495 156.606 106.198C156.099 106.892 155.366 107.414 154.409 107.766C153.462 108.117 152.329 108.293 151.011 108.293C149.888 108.293 148.916 108.205 148.096 108.029C147.275 107.854 146.558 107.604 145.942 107.282V105.041C146.597 105.363 147.378 105.656 148.286 105.92C149.194 106.184 150.122 106.315 151.069 106.315C152.456 106.315 153.462 106.091 154.087 105.642C154.712 105.192 155.024 104.582 155.024 103.811C155.024 103.371 154.897 102.985 154.644 102.653C154.399 102.312 153.984 101.984 153.398 101.672C152.812 101.35 152.002 100.998 150.967 100.617C149.941 100.227 149.053 99.8408 148.301 99.46C147.559 99.0693 146.982 98.5957 146.572 98.0391C146.172 97.4824 145.972 96.7598 145.972 95.8711C145.972 94.5137 146.519 93.4736 147.612 92.751C148.716 92.0186 150.161 91.6523 151.948 91.6523C152.915 91.6523 153.818 91.75 154.658 91.9453C155.508 92.1309 156.299 92.3848 157.031 92.707L156.211 94.6553C155.547 94.3721 154.839 94.1328 154.087 93.9375C153.335 93.7422 152.568 93.6445 151.787 93.6445C150.664 93.6445 149.8 93.8301 149.194 94.2012C148.599 94.5723 148.301 95.0801 148.301 95.7246C148.301 96.2227 148.438 96.6328 148.711 96.9551C148.994 97.2773 149.443 97.5801 150.059 97.8633C150.674 98.1465 151.484 98.4785 152.49 98.8594C153.496 99.2305 154.365 99.6162 155.098 100.017C155.83 100.407 156.392 100.886 156.782 101.452C157.183 102.009 157.383 102.727 157.383 103.605ZM167.476 91.6523C168.843 91.6523 170.015 91.9551 170.991 92.5605C171.968 93.166 172.715 94.0156 173.232 95.1094C173.75 96.1934 174.009 97.4629 174.009 98.918V100.427H162.92C162.949 102.312 163.418 103.747 164.326 104.733C165.234 105.72 166.514 106.213 168.164 106.213C169.18 106.213 170.078 106.12 170.859 105.935C171.641 105.749 172.451 105.476 173.291 105.114V107.253C172.48 107.614 171.675 107.878 170.874 108.044C170.083 108.21 169.146 108.293 168.062 108.293C166.519 108.293 165.171 107.98 164.019 107.355C162.876 106.721 161.987 105.793 161.353 104.572C160.718 103.352 160.4 101.857 160.4 100.09C160.4 98.3613 160.688 96.8672 161.265 95.6074C161.851 94.3379 162.671 93.3613 163.726 92.6777C164.79 91.9941 166.04 91.6523 167.476 91.6523ZM167.446 93.6445C166.147 93.6445 165.112 94.0693 164.341 94.9189C163.569 95.7686 163.11 96.9551 162.964 98.4785H171.46C171.45 97.5215 171.299 96.6816 171.006 95.959C170.723 95.2266 170.288 94.6602 169.702 94.2598C169.116 93.8496 168.364 93.6445 167.446 93.6445ZM182.622 115.207C180.513 115.207 178.887 114.812 177.744 114.021C176.602 113.239 176.03 112.141 176.03 110.725C176.03 109.719 176.348 108.859 176.982 108.146C177.627 107.434 178.516 106.96 179.648 106.726C179.229 106.53 178.867 106.237 178.564 105.847C178.271 105.456 178.125 105.007 178.125 104.499C178.125 103.913 178.286 103.4 178.608 102.961C178.94 102.512 179.443 102.082 180.117 101.672C179.277 101.33 178.594 100.754 178.066 99.9434C177.549 99.123 177.29 98.1709 177.29 97.0869C177.29 95.9346 177.529 94.9531 178.008 94.1426C178.486 93.3223 179.18 92.6973 180.088 92.2676C180.996 91.8379 182.095 91.623 183.384 91.623C183.667 91.623 183.95 91.6377 184.233 91.667C184.526 91.6865 184.805 91.7207 185.068 91.7695C185.332 91.8086 185.562 91.8574 185.757 91.916H191.265V93.4834L188.306 93.8496C188.599 94.2305 188.843 94.6895 189.038 95.2266C189.233 95.7637 189.331 96.3594 189.331 97.0137C189.331 98.6152 188.789 99.8896 187.705 100.837C186.621 101.774 185.132 102.243 183.237 102.243C182.788 102.243 182.329 102.204 181.86 102.126C181.382 102.39 181.016 102.683 180.762 103.005C180.518 103.327 180.396 103.698 180.396 104.118C180.396 104.431 180.488 104.68 180.674 104.865C180.869 105.051 181.147 105.188 181.509 105.275C181.87 105.354 182.305 105.393 182.812 105.393H185.64C187.388 105.393 188.726 105.759 189.653 106.491C190.591 107.224 191.06 108.293 191.06 109.699C191.06 111.477 190.337 112.839 188.892 113.786C187.446 114.733 185.356 115.207 182.622 115.207ZM182.695 113.303C184.023 113.303 185.122 113.166 185.991 112.893C186.87 112.629 187.524 112.243 187.954 111.735C188.394 111.237 188.613 110.642 188.613 109.948C188.613 109.304 188.467 108.815 188.174 108.483C187.881 108.161 187.451 107.946 186.885 107.839C186.318 107.722 185.625 107.663 184.805 107.663H182.021C181.299 107.663 180.669 107.775 180.132 108C179.595 108.225 179.18 108.557 178.887 108.996C178.604 109.436 178.462 109.982 178.462 110.637C178.462 111.506 178.828 112.165 179.561 112.614C180.293 113.073 181.338 113.303 182.695 113.303ZM183.325 100.471C184.487 100.471 185.361 100.178 185.947 99.5918C186.533 99.0059 186.826 98.1514 186.826 97.0283C186.826 95.8271 186.528 94.9287 185.933 94.333C185.337 93.7275 184.458 93.4248 183.296 93.4248C182.183 93.4248 181.323 93.7373 180.718 94.3623C180.122 94.9775 179.824 95.8809 179.824 97.0723C179.824 98.166 180.127 99.0059 180.732 99.5918C181.338 100.178 182.202 100.471 183.325 100.471ZM211.86 91.6523C213.628 91.6523 214.961 92.1162 215.859 93.0439C216.758 93.9619 217.207 95.4414 217.207 97.4824V108H214.805V97.5996C214.805 96.3008 214.521 95.3291 213.955 94.6846C213.398 94.0303 212.568 93.7031 211.465 93.7031C209.912 93.7031 208.784 94.1523 208.081 95.0508C207.378 95.9492 207.026 97.2725 207.026 99.0205V108H204.609V97.5996C204.609 96.7305 204.482 96.0078 204.229 95.4316C203.984 94.8555 203.613 94.4258 203.115 94.1426C202.627 93.8496 202.007 93.7031 201.255 93.7031C200.19 93.7031 199.336 93.9229 198.691 94.3623C198.047 94.8018 197.578 95.4561 197.285 96.3252C197.002 97.1846 196.86 98.2441 196.86 99.5039V108H194.429V91.9453H196.392L196.758 94.2158H196.89C197.212 93.6592 197.617 93.1904 198.105 92.8096C198.594 92.4287 199.141 92.1406 199.746 91.9453C200.352 91.75 200.996 91.6523 201.68 91.6523C202.9 91.6523 203.921 91.8818 204.741 92.3408C205.571 92.79 206.172 93.4785 206.543 94.4062H206.675C207.202 93.4785 207.925 92.79 208.843 92.3408C209.761 91.8818 210.767 91.6523 211.86 91.6523ZM228.384 91.6523C229.751 91.6523 230.923 91.9551 231.899 92.5605C232.876 93.166 233.623 94.0156 234.141 95.1094C234.658 96.1934 234.917 97.4629 234.917 98.918V100.427H223.828C223.857 102.312 224.326 103.747 225.234 104.733C226.143 105.72 227.422 106.213 229.072 106.213C230.088 106.213 230.986 106.12 231.768 105.935C232.549 105.749 233.359 105.476 234.199 105.114V107.253C233.389 107.614 232.583 107.878 231.782 108.044C230.991 108.21 230.054 108.293 228.97 108.293C227.427 108.293 226.079 107.98 224.927 107.355C223.784 106.721 222.896 105.793 222.261 104.572C221.626 103.352 221.309 101.857 221.309 100.09C221.309 98.3613 221.597 96.8672 222.173 95.6074C222.759 94.3379 223.579 93.3613 224.634 92.6777C225.698 91.9941 226.948 91.6523 228.384 91.6523ZM228.354 93.6445C227.056 93.6445 226.021 94.0693 225.249 94.9189C224.478 95.7686 224.019 96.9551 223.872 98.4785H232.368C232.358 97.5215 232.207 96.6816 231.914 95.959C231.631 95.2266 231.196 94.6602 230.61 94.2598C230.024 93.8496 229.272 93.6445 228.354 93.6445ZM246.65 91.6523C248.555 91.6523 249.995 92.1211 250.972 93.0586C251.948 93.9863 252.437 95.4805 252.437 97.541V108H250.034V97.7021C250.034 96.3643 249.727 95.3633 249.111 94.6992C248.506 94.0352 247.573 93.7031 246.313 93.7031C244.536 93.7031 243.286 94.2061 242.563 95.2119C241.841 96.2178 241.479 97.6777 241.479 99.5918V108H239.048V91.9453H241.011L241.377 94.2598H241.509C241.851 93.6934 242.285 93.2197 242.812 92.8389C243.34 92.4482 243.931 92.1553 244.585 91.96C245.239 91.7549 245.928 91.6523 246.65 91.6523ZM262.632 106.301C263.032 106.301 263.442 106.267 263.862 106.198C264.282 106.13 264.624 106.047 264.888 105.949V107.839C264.604 107.966 264.209 108.073 263.701 108.161C263.203 108.249 262.715 108.293 262.236 108.293C261.387 108.293 260.615 108.146 259.922 107.854C259.229 107.551 258.672 107.043 258.252 106.33C257.842 105.617 257.637 104.631 257.637 103.371V93.8496H255.352V92.6631L257.651 91.7109L258.618 88.2246H260.083V91.9453H264.785V93.8496H260.083V103.298C260.083 104.304 260.312 105.056 260.771 105.554C261.24 106.052 261.86 106.301 262.632 106.301ZM274.146 91.6816C276.06 91.6816 277.48 92.1113 278.408 92.9707C279.336 93.8301 279.8 95.2021 279.8 97.0869V108H278.027L277.559 105.627H277.441C276.992 106.213 276.523 106.706 276.035 107.106C275.547 107.497 274.98 107.795 274.336 108C273.701 108.195 272.92 108.293 271.992 108.293C271.016 108.293 270.146 108.122 269.385 107.78C268.633 107.438 268.037 106.921 267.598 106.228C267.168 105.534 266.953 104.655 266.953 103.591C266.953 101.989 267.588 100.759 268.857 99.8994C270.127 99.04 272.061 98.5713 274.658 98.4932L277.427 98.376V97.3945C277.427 96.0078 277.129 95.0361 276.533 94.4795C275.938 93.9229 275.098 93.6445 274.014 93.6445C273.174 93.6445 272.373 93.7666 271.611 94.0107C270.85 94.2549 270.127 94.543 269.443 94.875L268.696 93.0293C269.419 92.6582 270.249 92.3408 271.187 92.0771C272.124 91.8135 273.11 91.6816 274.146 91.6816ZM277.397 100.09L274.951 100.192C272.949 100.271 271.538 100.598 270.718 101.174C269.897 101.75 269.487 102.565 269.487 103.62C269.487 104.538 269.766 105.217 270.322 105.656C270.879 106.096 271.616 106.315 272.534 106.315C273.96 106.315 275.127 105.92 276.035 105.129C276.943 104.338 277.397 103.151 277.397 101.569V100.09ZM289.995 106.301C290.396 106.301 290.806 106.267 291.226 106.198C291.646 106.13 291.987 106.047 292.251 105.949V107.839C291.968 107.966 291.572 108.073 291.064 108.161C290.566 108.249 290.078 108.293 289.6 108.293C288.75 108.293 287.979 108.146 287.285 107.854C286.592 107.551 286.035 107.043 285.615 106.33C285.205 105.617 285 104.631 285 103.371V93.8496H282.715V92.6631L285.015 91.7109L285.981 88.2246H287.446V91.9453H292.148V93.8496H287.446V103.298C287.446 104.304 287.676 105.056 288.135 105.554C288.604 106.052 289.224 106.301 289.995 106.301ZM297.935 91.9453V108H295.503V91.9453H297.935ZM296.748 85.9395C297.148 85.9395 297.49 86.0713 297.773 86.335C298.066 86.5889 298.213 86.9893 298.213 87.5361C298.213 88.0732 298.066 88.4736 297.773 88.7373C297.49 89.001 297.148 89.1328 296.748 89.1328C296.328 89.1328 295.977 89.001 295.693 88.7373C295.42 88.4736 295.283 88.0732 295.283 87.5361C295.283 86.9893 295.42 86.5889 295.693 86.335C295.977 86.0713 296.328 85.9395 296.748 85.9395ZM316.934 99.9434C316.934 101.262 316.763 102.438 316.421 103.474C316.079 104.509 315.586 105.383 314.941 106.096C314.297 106.809 313.516 107.355 312.598 107.736C311.689 108.107 310.659 108.293 309.507 108.293C308.433 108.293 307.446 108.107 306.548 107.736C305.659 107.355 304.888 106.809 304.233 106.096C303.589 105.383 303.086 104.509 302.725 103.474C302.373 102.438 302.197 101.262 302.197 99.9434C302.197 98.1855 302.495 96.6914 303.091 95.4609C303.687 94.2207 304.536 93.2783 305.64 92.6338C306.753 91.9795 308.076 91.6523 309.609 91.6523C311.074 91.6523 312.354 91.9795 313.447 92.6338C314.551 93.2881 315.405 94.2354 316.011 95.4756C316.626 96.7061 316.934 98.1953 316.934 99.9434ZM304.717 99.9434C304.717 101.232 304.888 102.351 305.229 103.298C305.571 104.245 306.099 104.978 306.812 105.495C307.524 106.013 308.442 106.271 309.565 106.271C310.679 106.271 311.592 106.013 312.305 105.495C313.027 104.978 313.56 104.245 313.901 103.298C314.243 102.351 314.414 101.232 314.414 99.9434C314.414 98.6641 314.243 97.5605 313.901 96.6328C313.56 95.6953 313.032 94.9727 312.319 94.4648C311.606 93.957 310.684 93.7031 309.551 93.7031C307.881 93.7031 306.655 94.2549 305.874 95.3584C305.103 96.4619 304.717 97.9902 304.717 99.9434ZM328.74 91.6523C330.645 91.6523 332.085 92.1211 333.062 93.0586C334.038 93.9863 334.526 95.4805 334.526 97.541V108H332.124V97.7021C332.124 96.3643 331.816 95.3633 331.201 94.6992C330.596 94.0352 329.663 93.7031 328.403 93.7031C326.626 93.7031 325.376 94.2061 324.653 95.2119C323.931 96.2178 323.569 97.6777 323.569 99.5918V108H321.138V91.9453H323.101L323.467 94.2598H323.599C323.94 93.6934 324.375 93.2197 324.902 92.8389C325.43 92.4482 326.021 92.1553 326.675 91.96C327.329 91.7549 328.018 91.6523 328.74 91.6523ZM339.17 106.477C339.17 105.793 339.336 105.31 339.668 105.026C340 104.733 340.405 104.587 340.884 104.587C341.382 104.587 341.802 104.733 342.144 105.026C342.485 105.31 342.656 105.793 342.656 106.477C342.656 107.15 342.485 107.644 342.144 107.956C341.802 108.259 341.382 108.41 340.884 108.41C340.405 108.41 340 108.259 339.668 107.956C339.336 107.644 339.17 107.15 339.17 106.477ZM339.17 93.4834C339.17 92.7803 339.336 92.2871 339.668 92.0039C340 91.7109 340.405 91.5645 340.884 91.5645C341.382 91.5645 341.802 91.7109 342.144 92.0039C342.485 92.2871 342.656 92.7803 342.656 93.4834C342.656 94.1475 342.485 94.6309 342.144 94.9336C341.802 95.2363 341.382 95.3877 340.884 95.3877C340.405 95.3877 340 95.2363 339.668 94.9336C339.336 94.6309 339.17 94.1475 339.17 93.4834ZM388.901 108H377.197V106.389L386.001 93.8496H377.754V91.9453H388.711V93.7471L380.024 106.11H388.901V108ZM398.657 91.6816C400.571 91.6816 401.992 92.1113 402.92 92.9707C403.848 93.8301 404.312 95.2021 404.312 97.0869V108H402.539L402.07 105.627H401.953C401.504 106.213 401.035 106.706 400.547 107.106C400.059 107.497 399.492 107.795 398.848 108C398.213 108.195 397.432 108.293 396.504 108.293C395.527 108.293 394.658 108.122 393.896 107.78C393.145 107.438 392.549 106.921 392.109 106.228C391.68 105.534 391.465 104.655 391.465 103.591C391.465 101.989 392.1 100.759 393.369 99.8994C394.639 99.04 396.572 98.5713 399.17 98.4932L401.938 98.376V97.3945C401.938 96.0078 401.641 95.0361 401.045 94.4795C400.449 93.9229 399.609 93.6445 398.525 93.6445C397.686 93.6445 396.885 93.7666 396.123 94.0107C395.361 94.2549 394.639 94.543 393.955 94.875L393.208 93.0293C393.931 92.6582 394.761 92.3408 395.698 92.0771C396.636 91.8135 397.622 91.6816 398.657 91.6816ZM401.909 100.09L399.463 100.192C397.461 100.271 396.05 100.598 395.229 101.174C394.409 101.75 393.999 102.565 393.999 103.62C393.999 104.538 394.277 105.217 394.834 105.656C395.391 106.096 396.128 106.315 397.046 106.315C398.472 106.315 399.639 105.92 400.547 105.129C401.455 104.338 401.909 103.151 401.909 101.569V100.09ZM407.959 101.027V98.8594H415.225V101.027H407.959ZM432.246 91.9453V108H430.254L429.902 105.744H429.771C429.438 106.301 429.009 106.77 428.481 107.15C427.954 107.531 427.358 107.814 426.694 108C426.04 108.195 425.342 108.293 424.6 108.293C423.33 108.293 422.266 108.088 421.406 107.678C420.547 107.268 419.897 106.633 419.458 105.773C419.028 104.914 418.813 103.811 418.813 102.463V91.9453H421.274V102.287C421.274 103.625 421.577 104.626 422.183 105.29C422.788 105.944 423.711 106.271 424.951 106.271C426.143 106.271 427.09 106.047 427.793 105.598C428.506 105.148 429.019 104.489 429.331 103.62C429.644 102.741 429.8 101.667 429.8 100.397V91.9453H432.246ZM436.025 101.027V98.8594H443.291V101.027H436.025ZM445.693 99.7822C445.693 98.1318 445.85 96.5254 446.162 94.9629C446.484 93.4004 446.973 91.9111 447.627 90.4951C448.281 89.0791 449.106 87.7754 450.103 86.584H452.432C451.016 88.4395 449.951 90.5 449.238 92.7656C448.525 95.0312 448.169 97.3604 448.169 99.7529C448.169 101.315 448.325 102.858 448.638 104.382C448.96 105.896 449.434 107.355 450.059 108.762C450.693 110.168 451.475 111.496 452.402 112.746H450.103C449.106 111.574 448.281 110.295 447.627 108.908C446.973 107.531 446.484 106.071 446.162 104.528C445.85 102.985 445.693 101.403 445.693 99.7822ZM458.335 85.207V90.9053C458.335 91.5596 458.315 92.1943 458.276 92.8096C458.247 93.4248 458.223 93.9033 458.203 94.2451H458.335C458.774 93.5225 459.409 92.9121 460.239 92.4141C461.069 91.916 462.129 91.667 463.418 91.667C465.43 91.667 467.031 92.3652 468.223 93.7617C469.424 95.1484 470.024 97.2139 470.024 99.958C470.024 101.765 469.751 103.288 469.204 104.528C468.657 105.769 467.886 106.706 466.89 107.341C465.894 107.976 464.717 108.293 463.359 108.293C462.09 108.293 461.045 108.059 460.225 107.59C459.414 107.111 458.789 106.53 458.35 105.847H458.159L457.661 108H455.903V85.207H458.335ZM463.022 93.7031C461.86 93.7031 460.938 93.9326 460.254 94.3916C459.57 94.8408 459.077 95.5244 458.774 96.4424C458.481 97.3506 458.335 98.5029 458.335 99.8994V100.031C458.335 102.053 458.672 103.601 459.346 104.675C460.02 105.739 461.245 106.271 463.022 106.271C464.517 106.271 465.635 105.725 466.377 104.631C467.129 103.537 467.505 101.975 467.505 99.9434C467.505 97.873 467.134 96.3154 466.392 95.2705C465.659 94.2256 464.536 93.7031 463.022 93.7031ZM487.529 91.9453V108H485.537L485.186 105.744H485.054C484.722 106.301 484.292 106.77 483.765 107.15C483.237 107.531 482.642 107.814 481.978 108C481.323 108.195 480.625 108.293 479.883 108.293C478.613 108.293 477.549 108.088 476.689 107.678C475.83 107.268 475.181 106.633 474.741 105.773C474.312 104.914 474.097 103.811 474.097 102.463V91.9453H476.558V102.287C476.558 103.625 476.86 104.626 477.466 105.29C478.071 105.944 478.994 106.271 480.234 106.271C481.426 106.271 482.373 106.047 483.076 105.598C483.789 105.148 484.302 104.489 484.614 103.62C484.927 102.741 485.083 101.667 485.083 100.397V91.9453H487.529ZM497.754 99.7529C497.754 101.384 497.593 102.976 497.271 104.528C496.958 106.071 496.475 107.536 495.82 108.923C495.176 110.31 494.351 111.584 493.345 112.746H491.045C491.982 111.506 492.764 110.178 493.389 108.762C494.023 107.346 494.497 105.881 494.81 104.367C495.132 102.844 495.293 101.301 495.293 99.7383C495.293 98.1465 495.132 96.5791 494.81 95.0361C494.487 93.4932 494.009 92.0088 493.374 90.583C492.749 89.1572 491.963 87.8242 491.016 86.584H493.345C494.351 87.7852 495.176 89.0938 495.82 90.5098C496.475 91.916 496.958 93.4004 497.271 94.9629C497.593 96.5156 497.754 98.1123 497.754 99.7529ZM500.156 101.027V98.8594H507.422V101.027H500.156ZM513.618 85.207V90.9053C513.618 91.5596 513.599 92.1943 513.56 92.8096C513.53 93.4248 513.506 93.9033 513.486 94.2451H513.618C514.058 93.5225 514.692 92.9121 515.522 92.4141C516.353 91.916 517.412 91.667 518.701 91.667C520.713 91.667 522.314 92.3652 523.506 93.7617C524.707 95.1484 525.308 97.2139 525.308 99.958C525.308 101.765 525.034 103.288 524.487 104.528C523.94 105.769 523.169 106.706 522.173 107.341C521.177 107.976 520 108.293 518.643 108.293C517.373 108.293 516.328 108.059 515.508 107.59C514.697 107.111 514.072 106.53 513.633 105.847H513.442L512.944 108H511.187V85.207H513.618ZM518.306 93.7031C517.144 93.7031 516.221 93.9326 515.537 94.3916C514.854 94.8408 514.36 95.5244 514.058 96.4424C513.765 97.3506 513.618 98.5029 513.618 99.8994V100.031C513.618 102.053 513.955 103.601 514.629 104.675C515.303 105.739 516.528 106.271 518.306 106.271C519.8 106.271 520.918 105.725 521.66 104.631C522.412 103.537 522.788 101.975 522.788 99.9434C522.788 97.873 522.417 96.3154 521.675 95.2705C520.942 94.2256 519.819 93.7031 518.306 93.7031ZM543.398 99.9434C543.398 101.262 543.228 102.438 542.886 103.474C542.544 104.509 542.051 105.383 541.406 106.096C540.762 106.809 539.98 107.355 539.062 107.736C538.154 108.107 537.124 108.293 535.972 108.293C534.897 108.293 533.911 108.107 533.013 107.736C532.124 107.355 531.353 106.809 530.698 106.096C530.054 105.383 529.551 104.509 529.189 103.474C528.838 102.438 528.662 101.262 528.662 99.9434C528.662 98.1855 528.96 96.6914 529.556 95.4609C530.151 94.2207 531.001 93.2783 532.104 92.6338C533.218 91.9795 534.541 91.6523 536.074 91.6523C537.539 91.6523 538.818 91.9795 539.912 92.6338C541.016 93.2881 541.87 94.2354 542.476 95.4756C543.091 96.7061 543.398 98.1953 543.398 99.9434ZM531.182 99.9434C531.182 101.232 531.353 102.351 531.694 103.298C532.036 104.245 532.563 104.978 533.276 105.495C533.989 106.013 534.907 106.271 536.03 106.271C537.144 106.271 538.057 106.013 538.77 105.495C539.492 104.978 540.024 104.245 540.366 103.298C540.708 102.351 540.879 101.232 540.879 99.9434C540.879 98.6641 540.708 97.5605 540.366 96.6328C540.024 95.6953 539.497 94.9727 538.784 94.4648C538.071 93.957 537.148 93.7031 536.016 93.7031C534.346 93.7031 533.12 94.2549 532.339 95.3584C531.567 96.4619 531.182 97.9902 531.182 99.9434ZM565.034 91.6523C566.802 91.6523 568.135 92.1162 569.033 93.0439C569.932 93.9619 570.381 95.4414 570.381 97.4824V108H567.979V97.5996C567.979 96.3008 567.695 95.3291 567.129 94.6846C566.572 94.0303 565.742 93.7031 564.639 93.7031C563.086 93.7031 561.958 94.1523 561.255 95.0508C560.552 95.9492 560.2 97.2725 560.2 99.0205V108H557.783V97.5996C557.783 96.7305 557.656 96.0078 557.402 95.4316C557.158 94.8555 556.787 94.4258 556.289 94.1426C555.801 93.8496 555.181 93.7031 554.429 93.7031C553.364 93.7031 552.51 93.9229 551.865 94.3623C551.221 94.8018 550.752 95.4561 550.459 96.3252C550.176 97.1846 550.034 98.2441 550.034 99.5039V108H547.603V91.9453H549.565L549.932 94.2158H550.063C550.386 93.6592 550.791 93.1904 551.279 92.8096C551.768 92.4287 552.314 92.1406 552.92 91.9453C553.525 91.75 554.17 91.6523 554.854 91.6523C556.074 91.6523 557.095 91.8818 557.915 92.3408C558.745 92.79 559.346 93.4785 559.717 94.4062H559.849C560.376 93.4785 561.099 92.79 562.017 92.3408C562.935 91.8818 563.94 91.6523 565.034 91.6523ZM577.808 91.9453V108H575.376V91.9453H577.808ZM576.621 85.9395C577.021 85.9395 577.363 86.0713 577.646 86.335C577.939 86.5889 578.086 86.9893 578.086 87.5361C578.086 88.0732 577.939 88.4736 577.646 88.7373C577.363 89.001 577.021 89.1328 576.621 89.1328C576.201 89.1328 575.85 89.001 575.566 88.7373C575.293 88.4736 575.156 88.0732 575.156 87.5361C575.156 86.9893 575.293 86.5889 575.566 86.335C575.85 86.0713 576.201 85.9395 576.621 85.9395Z" fill="black"/>
</g>
<defs>
<clipPath id="clip0_111_21">
<rect width="598" height="132" fill="white"/>
</clipPath>
</defs>
</svg>
